<?xml version="1.0" standalone="no"?>
<!DOCTYPE svg PUBLIC "-//W3C//DTD SVG 1.1//EN" "http://www.w3.org/Graphics/SVG/1.1/DTD/svg11.dtd" >
<svg xmlns="http://www.w3.org/2000/svg" xmlns:xlink="http://www.w3.org/1999/xlink" version="1.1">
<metadata>
Created by FontForge 20170731 at Sun Aug  8 22:53:54 2021
 By Aleksey,,,
Copyright (c) 2021 by Chungbuk National University. All rights reserved.
</metadata>
<defs>
<font id="CBNUJIKJI" horiz-adv-x="910" >
  <font-face 
    font-family="CBNU JIKJI"
    font-weight="400"
    font-stretch="normal"
    units-per-em="1024"
    panose-1="2 2 6 3 2 1 1 2 1 1"
    ascent="819"
    descent="-205"
    x-height="464"
    cap-height="704"
    bbox="-60 -268 941 951"
    underline-thickness="50"
    underline-position="-175"
    unicode-range="U+000D-FFE6"
  />
<missing-glyph 
d="M102 706h717v-731h-717v731zM180 50h562v581h-562v-581z" />
    <glyph glyph-name=".notdef" 
d="M102 706h717v-731h-717v731zM180 50h562v581h-562v-581z" />
    <glyph glyph-name=".null" horiz-adv-x="0" 
 />
    <glyph glyph-name="nonmarkingreturn" unicode="&#xd;" horiz-adv-x="305" 
 />
    <glyph glyph-name="NULL" horiz-adv-x="0" 
 />
    <glyph glyph-name="NULL" horiz-adv-x="0" 
 />
    <glyph glyph-name="space" unicode=" " horiz-adv-x="300" 
 />
    <glyph glyph-name="exclam" unicode="!" horiz-adv-x="239" 
d="M50 79h98l30 -19l-21 -133h-85l-22 14v138zM159 706l30 -19l-29 -525l-85 -15l-25 6v553h109z" />
    <glyph glyph-name="quotedbl" unicode="&#x22;" horiz-adv-x="372" 
d="M141 530l-55 -15l-25 6l-11 244l25 6l90 -12l-5 -34zM298 530l-55 -15l-25 6l-11 244l25 6l90 -12l-5 -34z" />
    <glyph glyph-name="numbersign" unicode="#" horiz-adv-x="713" 
d="M566 550h29l67 5l21 -98l-21 -15h-115l-31 -182h29l67 5l21 -98l-21 -15h-114l-33 -195l-86 -11l-23 19l32 187h-130l-33 -195l-86 -11l-23 19l32 187h-57l-34 -5l-27 101l16 12h120l31 182h-56l-34 -5l-27 101l16 12h120l29 173l86 11l23 -19l-28 -165h130l29 173l86 11
l23 -19zM276 260h130l31 182h-130z" />
    <glyph glyph-name="dollar" unicode="$" horiz-adv-x="748" 
d="M341 769l80 15l25 -6v-104q48 -8 92 -30.5t73 -62.5v-28l-81 -49l-20 29q-30 30 -64 43v-186q40 -18 74.5 -37.5t59 -43t38.5 -51.5t14 -63q0 -75 -49.5 -121.5t-136.5 -59.5v-68l-3 -35l-80 -15l-25 6v110q-27 3 -56 11t-55 21.5t-48.5 33t-37.5 45.5v31l87 33
q20 -30 49 -50.5t61 -28.5v216q-38 17 -71.5 35t-59 40.5t-40 50.5t-14.5 64q0 72 47 112.5t138 49.5v58zM513 188q0 29 -18.5 49t-48.5 37v-164q67 18 67 78zM274 515q0 -29 19 -47.5t45 -31.5v144q-64 -14 -64 -65z" />
    <glyph glyph-name="percent" unicode="%" horiz-adv-x="941" 
d="M338 -63l-93 -11l-25 16l381 801l93 11l25 -16zM50 539q0 37 11.5 70t35.5 58t60 40t84 15t84 -15t60 -40t36 -58.5t12 -69.5t-12 -69t-36 -58t-60 -39.5t-84 -14.5t-84 14.5t-60 39t-35.5 57.5t-11.5 70zM165 539q0 -39 18.5 -65t57.5 -26t57.5 26t18.5 65t-18.5 66
t-57.5 27t-57.5 -27t-18.5 -66zM508 139q0 37 11.5 70t35.5 58t60 40t84 15t84 -15t60 -40t36 -58.5t12 -69.5t-12 -69t-36 -58t-60 -39.5t-84 -14.5t-84 14.5t-60 39t-35.5 57.5t-11.5 70zM623 139q0 -39 18.5 -65t57.5 -26t57.5 26t18.5 65t-18.5 66t-57.5 27t-57.5 -27
t-18.5 -66z" />
    <glyph glyph-name="ampersand" unicode="&#x26;" horiz-adv-x="729" 
d="M585 400l77 -61q-18 -42 -40 -84t-48 -82q35 -23 67 -42t58 -35l10 -25l-63 -75q-31 17 -68 38t-79 47q-47 -47 -104.5 -76t-129.5 -29q-45 0 -86 9t-71.5 30t-49 55.5t-18.5 85.5q0 30 11 55.5t30 49t43.5 44.5t51.5 41q-37 46 -59 93t-22 94q0 51 17.5 85.5t45.5 55
t63 29.5t71 9t71 -10t62.5 -31t45 -53t17.5 -76q0 -29 -12.5 -55.5t-33 -51.5t-47.5 -48.5t-56 -45.5q32 -28 67 -54.5t72 -51.5q22 35 42 74t39 81zM269 74q36 0 70.5 18.5t66.5 50.5q-42 29 -82.5 61t-76.5 66q-38 -30 -63.5 -59t-25.5 -58q0 -42 30 -60.5t81 -18.5z
M211 541q0 -32 15.5 -64.5t41.5 -64.5q44 32 74 65.5t30 73.5q0 28 -23.5 46.5t-55.5 18.5t-57 -20.5t-25 -54.5z" />
    <glyph glyph-name="quotesingle" unicode="'" horiz-adv-x="218" 
d="M144 530l-58 -15l-25 6l-11 244l25 6l93 -12l-5 -34z" />
    <glyph glyph-name="parenleft" unicode="(" horiz-adv-x="341" 
d="M90 340q0 98 22.5 176t49.5 133q32 64 73 114h71l25 -16q-10 -19 -29.5 -52t-39 -83t-34.5 -117.5t-15 -154.5t14.5 -153.5t34 -115.5t39 -82.5t30.5 -54.5l-25 -16h-71q-41 49 -73 113q-27 55 -49.5 132.5t-22.5 176.5z" />
    <glyph glyph-name="parenright" unicode=")" horiz-adv-x="341" 
d="M251 340q0 -99 -23 -176.5t-50 -132.5q-32 -64 -72 -113h-71l-25 16q10 21 30 54.5t39.5 82.5t34 115.5t14.5 153.5t-15 154.5t-34.5 117.5t-39 83t-29.5 52l25 16h71q40 -50 72 -114q27 -55 50 -133t23 -176z" />
    <glyph glyph-name="asterisk" unicode="*" horiz-adv-x="457" 
d="M106 518l49 86h-105v59l11 25h94l-55 96l51 30l27 3l50 -88l56 97l51 -29l16 -22l-50 -87h106v-59l-11 -25h-96l56 -96l-51 -29l-27 -3l-50 86l-55 -96l-51 30z" />
    <glyph glyph-name="plus" unicode="+" horiz-adv-x="542" 
d="M477 366l15 -70l-6 -25h-156v-120l-3 -35l-80 -15l-25 6v164h-122l-35 3l-15 70l6 25h166v120l3 35l80 15l25 -6v-164h112z" />
    <glyph glyph-name="comma" unicode="," horiz-adv-x="228" 
d="M58 79h90l30 -19l-80 -204h-66l-22 13z" />
    <glyph glyph-name="hyphen" unicode="-" horiz-adv-x="518" 
d="M453 376l15 -80l-6 -25h-362l-35 3l-15 80l6 25h362z" />
    <glyph glyph-name="period" unicode="." horiz-adv-x="228" 
d="M50 79h98l30 -19l-21 -133h-85l-22 14v138z" />
    <glyph glyph-name="slash" unicode="/" horiz-adv-x="399" 
d="M148 -93l-93 -11l-25 16l221 861l93 11l25 -16z" />
    <glyph glyph-name="zero" unicode="0" horiz-adv-x="570" 
d="M285 87q34 0 60 20t42.5 55.5t25 82.5t8.5 101t-8.5 101t-25 82t-42.5 55t-60 20q-35 0 -60.5 -20t-42 -55t-25 -82t-8.5 -101t8.5 -101t25 -82.5t42 -55.5t60.5 -20zM285 -11q-51 0 -97 21t-81 65t-55.5 111t-20.5 160t20.5 160t55.5 110.5t81 64.5t97 21t97 -21
t81 -64.5t55.5 -111t20.5 -159.5t-20.5 -159.5t-55.5 -111.5t-81 -65t-97 -21z" />
    <glyph glyph-name="one" unicode="1" horiz-adv-x="450" 
d="M73 0l-20 80l15 13h124v486q-23 -14 -58 -26t-61 -19l-31 82q49 14 91.5 36t75.5 48l106 -15l-5 -53v-539h88l19 -77l-21 -16h-323z" />
    <glyph glyph-name="two" unicode="2" horiz-adv-x="550" 
d="M38 60q51 55 109 113t107 114t81 109t32 98q0 51 -27.5 79.5t-76.5 28.5q-35 0 -69.5 -32.5t-48.5 -95.5l-100 35v28q30 81 86.5 122t127.5 41q105 0 165.5 -55.5t60.5 -155.5q0 -33 -14.5 -70t-38 -74t-53.5 -73t-61 -69t-60 -61t-51 -49h211l67 5l26 -82l-21 -16h-452
v60z" />
    <glyph glyph-name="three" unicode="3" horiz-adv-x="550" 
d="M129 199q17 -52 52.5 -82t89.5 -30q61 0 95 31.5t34 79.5q0 31 -12 53t-33.5 35t-51 19t-63.5 6h-51l-10 84l21 15h26q31 0 58 7.5t47 21t31.5 32.5t11.5 42q0 27 -9.5 44t-23.5 27.5t-32 14.5t-34 4q-38 0 -69 -25t-46 -76l-100 35v28q30 63 86 99.5t125 36.5
q55 0 96 -14t69 -38.5t42 -58t14 -72.5q0 -30 -10 -54.5t-26 -43t-36 -31.5t-40 -20q68 -20 102.5 -67t34.5 -110q0 -40 -15.5 -76.5t-46.5 -64.5t-77 -45t-107 -17q-88 0 -147.5 35.5t-90.5 103.5v28z" />
    <glyph glyph-name="four" unicode="4" horiz-adv-x="550" 
d="M332 -3v132h-297v94l310 479l110 -15l-5 -53v-412h2l67 5l26 -82l-21 -16h-74v-93l-3 -35l-90 -10zM332 222v276l-176 -276h176z" />
    <glyph glyph-name="five" unicode="5" horiz-adv-x="550" 
d="M181 442q27 12 53.5 17t53.5 5q48 0 88.5 -16t70 -46t45.5 -73t16 -97t-17 -98.5t-49 -76.5t-78.5 -50t-105.5 -18q-80 0 -132.5 34.5t-84.5 95.5v28l96 43q9 -22 19 -41t24.5 -32.5t33.5 -21.5t45 -8q63 0 97 39t34 102q0 60 -32.5 99t-86.5 39q-48 0 -76.5 -25
t-39.5 -60l-107 23l30 388h369l11 -78l-21 -15h-246z" />
    <glyph glyph-name="six" unicode="6" horiz-adv-x="550" 
d="M275 351q-26 0 -61.5 -12.5t-63.5 -38.5q0 -42 5.5 -80.5t20.5 -68t40 -47t64 -17.5q26 0 48 10.5t37.5 29t24.5 43t9 53.5q0 36 -9 60.5t-25.5 39.5t-39 21.5t-50.5 6.5zM403 529q-43 75 -115 75q-57 0 -92.5 -49.5t-43.5 -143.5q25 14 62 26t83 12q42 0 81.5 -12.5
t70 -39.5t49.5 -70t19 -103q0 -47 -15 -89.5t-45 -74.5t-74 -51.5t-102 -19.5q-66 0 -113.5 27t-77.5 71t-44 100t-14 114q0 84 12.5 157t42.5 127t79.5 85.5t123.5 31.5q69 0 120.5 -31t86.5 -89v-28z" />
    <glyph glyph-name="seven" unicode="7" horiz-adv-x="550" 
d="M165 22l214 577h-275l-34 -6l-27 86l15 13h428l21 -83l-224 -609h-107z" />
    <glyph glyph-name="eight" unicode="8" horiz-adv-x="550" 
d="M275 441q46 0 71 24.5t25 57.5t-25 58t-71 25q-47 0 -71.5 -25t-24.5 -58t25 -57.5t71 -24.5zM162 377q-48 20 -73.5 59.5t-25.5 85.5q0 49 18.5 83.5t48.5 56t68 31t77 9.5t77 -9.5t68 -31t48.5 -56t18.5 -83.5q0 -47 -26 -86t-74 -59q25 -9 49.5 -24.5t43.5 -38
t30.5 -51t11.5 -63.5q0 -46 -16 -85t-47 -67t-77 -44t-107 -16t-107 16t-77 44t-47 67t-16 85q0 35 12 64t31 51t43 37.5t48 24.5zM275 313q-32 0 -56.5 -10t-41 -26t-25 -36.5t-8.5 -41.5t8.5 -42t25 -37t41 -26t56.5 -10t56.5 10t41 26t25 37t8.5 42t-8.5 41.5t-25 36.5
t-41 26t-56.5 10z" />
    <glyph glyph-name="nine" unicode="9" horiz-adv-x="550" 
d="M156 144q20 -28 44.5 -42.5t58.5 -14.5q33 0 57 15.5t41 43t26 64.5t12 80q-23 -17 -61 -27.5t-84 -10.5q-38 0 -76 12.5t-69 39t-50.5 68t-19.5 100.5q0 46 16 88t46.5 73.5t74.5 50t99 18.5q66 0 112.5 -27t76 -71t42.5 -100t13 -114q0 -85 -12.5 -158t-42.5 -127
t-79.5 -85t-123.5 -31q-64 0 -112 26t-83 76v28zM272 350q26 0 62.5 11.5t62.5 39.5q0 42 -6.5 79t-21 64.5t-38.5 43.5t-59 16q-52 0 -85.5 -34.5t-33.5 -91.5q0 -36 9.5 -60.5t25.5 -39.5t38 -21.5t46 -6.5z" />
    <glyph glyph-name="colon" unicode=":" horiz-adv-x="228" 
d="M50 212h98l30 -19l-21 -133h-85l-22 13v139zM50 622h98l30 -20l-21 -132h-85l-22 13v139z" />
    <glyph glyph-name="semicolon" unicode=";" horiz-adv-x="228" 
d="M58 212h90l30 -19l-80 -204h-66l-22 13zM50 622h98l30 -20l-21 -132h-85l-22 13v139z" />
    <glyph glyph-name="less" unicode="&#x3c;" horiz-adv-x="391" 
d="M213 340l168 -346l-25 -16h-93l-173 362l173 362h93l25 -16z" />
    <glyph glyph-name="equal" unicode="=" horiz-adv-x="488" 
d="M423 471l15 -75l-6 -25h-332l-35 3l-15 75l6 25h332zM423 276l15 -75l-6 -25h-332l-35 3l-15 75l6 25h332z" />
    <glyph glyph-name="greater" unicode="&#x3e;" horiz-adv-x="391" 
d="M10 686l25 16h93l173 -362l-173 -362h-93l-25 16l168 346z" />
    <glyph glyph-name="question" unicode="?" horiz-adv-x="495" 
d="M176 79h98l30 -19l-21 -133h-85l-22 14v138zM176 173q1 48 14 84.5t30.5 66t38 54t38 47.5t29 47.5t11.5 53.5q0 48 -27 70.5t-69 22.5q-46 0 -71 -37t-27 -102l-118 23v28q9 51 30 87t50.5 59t66 33.5t75.5 10.5q49 0 90 -14.5t70.5 -40.5t46 -63t16.5 -82
q0 -36 -12 -63.5t-30.5 -51.5t-40.5 -47t-42 -51t-34.5 -63t-18.5 -83l-91 -15l-25 6v20z" />
    <glyph glyph-name="at" unicode="@" 
d="M653 227q-2 -23 6.5 -32t21.5 -9q20 0 38 16t31.5 45.5t21 69.5t7.5 88q0 75 -22.5 128.5t-63 88t-97.5 50.5t-127 16q-72 0 -133 -27t-106 -76.5t-70 -118t-25 -150.5q0 -75 23 -133t66.5 -97.5t106 -60t140.5 -20.5q91 0 169 16.5t146 60.5l43 -64q-35 -29 -77.5 -50
t-89 -35t-95.5 -21t-96 -7q-96 0 -178.5 25t-143 76t-95 128t-34.5 182q0 107 36 194.5t98 149t144 95t175 33.5q91 0 167.5 -24.5t132 -71.5t86 -115t30.5 -155q0 -83 -20 -143.5t-52.5 -99.5t-74 -57.5t-84.5 -18.5q-100 0 -118 57q-10 -8 -26 -15.5t-35 -13t-40.5 -9
t-43.5 -3.5q-31 0 -59.5 7.5t-50 24.5t-33 44t-7.5 65q4 36 21 62t44 45t61.5 31t73.5 20q32 6 61.5 11t52.5 8q-2 25 -10 39.5t-20 22t-26 10t-27 2.5q-23 0 -51.5 -2.5t-55.5 -7.5l-34 -9l-28 82l15 15q8 0 29.5 2t32.5 3q26 2 52.5 4.5t53.5 2.5q41 0 76.5 -9.5t61 -33
t37.5 -62.5t6 -97zM356 263q-3 -28 16 -42t48 -14q26 0 60.5 7.5t60.5 21.5l12 118q-23 -4 -52.5 -10t-55.5 -13q-32 -8 -58.5 -22.5t-30.5 -45.5z" />
    <glyph glyph-name="A" unicode="A" horiz-adv-x="659" 
d="M456 169h-253l-60 -169h-101l-17 23l251 669h107l251 -669l-17 -23h-101zM238 267h183l-91 257z" />
    <glyph glyph-name="B" unicode="B" horiz-adv-x="604" 
d="M400 505q0 45 -39 69.5t-105 24.5h-83v-191h89q29 0 54.5 4.5t44 16t29 30t10.5 46.5zM449 206q0 56 -44.5 80t-132.5 24h-99v-217h125q78 0 114.5 31t36.5 82zM45 663l27 29h194q54 0 100.5 -11t80.5 -33.5t53.5 -55.5t19.5 -77q0 -47 -17 -83t-48 -58q52 -20 83 -64
t31 -108q0 -93 -70 -147.5t-218 -54.5h-170l-56 33v602z" />
    <glyph glyph-name="C" unicode="C" horiz-adv-x="666" 
d="M626 109q-46 -63 -110 -91t-145 -28q-68 0 -129 22.5t-107 66.5t-73 110.5t-27 154.5t27 155t73 111.5t107 67t129 22.5q74 0 133 -23t107 -75v-31l-85 -51l-21 29q-26 26 -58 40t-77 14q-50 0 -90 -18.5t-67.5 -52.5t-42.5 -81.5t-15 -105.5t15 -105.5t43 -81t67.5 -52
t89.5 -18.5q59 0 100.5 24t66.5 62l89 -35v-30z" />
    <glyph glyph-name="D" unicode="D" horiz-adv-x="607" 
d="M111 0l-56 33v602l-10 28l27 29h158q68 0 130 -20.5t109 -63t75 -107.5t28 -153t-28 -153.5t-75 -108.5t-109 -64.5t-130 -21.5h-119zM173 594v-496h58q107 0 164 67t57 184t-56.5 181t-164.5 64h-58z" />
    <glyph glyph-name="E" unicode="E" horiz-adv-x="553" 
d="M111 0l-56 33v602l-10 28l27 29h430v-98h-329v-184h298v-98h-298v-214h355v-98h-417z" />
    <glyph glyph-name="F" unicode="F" horiz-adv-x="527" 
d="M45 663l27 29h430v-98h-329v-204h298v-98h-298v-251l-3 -35l-90 -15l-25 6v638z" />
    <glyph glyph-name="G" unicode="G" horiz-adv-x="671" 
d="M358 392h250l18 -16v-267q-46 -63 -110 -91t-145 -28q-68 0 -129 22.5t-107 66.5t-73 110.5t-27 154.5t27 155t73 111.5t107 67t129 22.5q74 0 133 -23t107 -75v-31l-85 -51l-21 29q-26 26 -58 40t-77 14q-50 0 -90 -18.5t-67.5 -52.5t-42.5 -81.5t-15 -105.5t15 -105.5
t43 -81t67.5 -52t89.5 -18.5q43 0 77.5 13t60.5 36v162h-150v93z" />
    <glyph glyph-name="H" unicode="H" horiz-adv-x="655" 
d="M605 692l-5 -35v-616l-3 -35l-90 -15l-25 6v310h-309v-266l-3 -35l-90 -15l-25 6v695h123l-5 -35v-252h309v287h123z" />
    <glyph glyph-name="I" unicode="I" horiz-adv-x="381" 
d="M55 0v98h77v496h-77v98h271v-98h-76v-496h76v-98h-271z" />
    <glyph glyph-name="J" unicode="J" horiz-adv-x="298" 
d="M125 692h123l-5 -35v-393q0 -126 -52.5 -192.5t-164.5 -85.5l-41 47l9 21q43 12 69 29t39.5 40t18 52t4.5 65v452z" />
    <glyph glyph-name="K" unicode="K" horiz-adv-x="638" 
d="M594 692l-269 -307l308 -362l-17 -23h-119l-247 300l-77 -89v-170l-3 -35l-90 -15l-25 6v695h123l-5 -35v-285l278 320h143z" />
    <glyph glyph-name="L" unicode="L" horiz-adv-x="528" 
d="M503 0h-392l-56 33v659h123l-5 -35v-559h330v-98z" />
    <glyph glyph-name="M" unicode="M" horiz-adv-x="795" 
d="M370 75l-197 381v-415l-3 -35l-90 -15l-25 6v638l-10 28l22 29h108l222 -442l223 442h125l-5 -35v-616l-3 -35l-90 -15l-25 6v459l-197 -381h-55z" />
    <glyph glyph-name="N" unicode="N" horiz-adv-x="655" 
d="M597 6l-90 -15l-25 6v53l-309 449v-458l-3 -35l-90 -15l-25 6v638l-10 28l22 29h108l307 -446v446h123l-5 -35v-616z" />
    <glyph glyph-name="O" unicode="O" horiz-adv-x="705" 
d="M352 87q52 0 89 22t61 58.5t35 83t11 94.5t-11.5 94.5t-35.5 82.5t-61 58t-88 22t-88 -22t-60.5 -58t-35 -82t-11.5 -95t11 -95.5t34.5 -82.5t60.5 -58t89 -22zM352 -11q-63 0 -120.5 23t-101 68t-69.5 112t-26 154q0 88 26 154t69.5 110.5t101 67t120.5 22.5t121 -22.5
t101.5 -67t69.5 -110.5t26 -154q0 -87 -26 -154t-69.5 -112t-101.5 -68t-121 -23z" />
    <glyph glyph-name="P" unicode="P" horiz-adv-x="565" 
d="M410 474q0 32 -11.5 55.5t-31.5 39t-47.5 23t-60.5 7.5h-86v-252h88q68 0 108.5 32.5t40.5 94.5zM173 254v-213l-3 -35l-90 -15l-25 6v638l-10 28l27 29h183q54 0 103.5 -11.5t87.5 -37t61 -66.5t23 -99q0 -35 -12 -74.5t-43 -72.5t-84 -55t-134 -22h-84z" />
    <glyph glyph-name="Q" unicode="Q" horiz-adv-x="705" 
d="M352 -11q-63 0 -120.5 23t-101 68t-69.5 112t-26 154q0 88 26 154t69.5 110.5t101 67t120.5 22.5t121 -22.5t101.5 -67t69.5 -110.5t26 -154q0 -102 -34 -174.5t-91 -117.5l49 -101l-25 -16h-95l-28 66q-47 -14 -94 -14zM352 87q28 0 55 8l-64 154l22 13h81l49 -104
q28 37 40.5 86t12.5 101q0 48 -11.5 94.5t-35.5 82.5t-61 58t-88 22t-88 -22t-60.5 -58t-35 -82t-11.5 -95t11 -95.5t34.5 -82.5t60.5 -58t89 -22z" />
    <glyph glyph-name="R" unicode="R" horiz-adv-x="590" 
d="M173 274v-233l-3 -35l-90 -15l-25 6v638l-10 28l27 29h183q54 0 103.5 -10t87.5 -34t61 -63t23 -97q0 -26 -6 -53t-21 -52.5t-39.5 -47.5t-61.5 -37l183 -275l-17 -23h-107l-173 275q-8 -1 -15.5 -1h-15.5h-84zM410 484q0 32 -11.5 54t-31.5 35.5t-47.5 19.5t-60.5 6h-86
v-232h88q68 0 108.5 27.5t40.5 89.5z" />
    <glyph glyph-name="S" unicode="S" horiz-adv-x="562" 
d="M122 177q27 -43 68 -66t83 -23q69 0 101.5 26.5t32.5 68.5q0 31 -12.5 51t-34 33.5t-49.5 23t-58 18.5q-42 13 -79.5 29.5t-65.5 40t-44.5 55.5t-16.5 74q0 41 15.5 76t45.5 60.5t74.5 40t102.5 14.5q30 0 61 -6t60.5 -18t55 -30.5t43.5 -44.5v-28l-81 -49l-20 29
q-24 25 -54.5 37t-64.5 12q-54 0 -86 -21.5t-32 -63.5q0 -26 13 -44t33 -30.5t43 -20.5t44 -14q49 -15 90.5 -33.5t72 -43.5t47.5 -57t17 -74q0 -51 -18 -90.5t-50.5 -65.5t-79 -39.5t-103.5 -13.5q-30 0 -64.5 6.5t-67.5 21.5t-62 38.5t-47 56.5v31z" />
    <glyph glyph-name="T" unicode="T" horiz-adv-x="560" 
d="M535 594h-196v-553l-3 -35l-90 -15l-25 6v597h-196v98h510v-98z" />
    <glyph glyph-name="U" unicode="U" horiz-adv-x="643" 
d="M321 -10q-61 0 -110 16t-83.5 47t-53.5 76.5t-19 104.5v458h123l-5 -35v-421q0 -72 35 -110t113 -38t113.5 38t35.5 110v456h123l-5 -35v-423q0 -62 -20 -108t-55.5 -76t-84.5 -45t-107 -15z" />
    <glyph glyph-name="V" unicode="V" horiz-adv-x="655" 
d="M299 -9l-25 6l-259 695h126l187 -528l186 528h126l-256 -686z" />
    <glyph glyph-name="W" unicode="W" horiz-adv-x="845" 
d="M209 -11l-25 6l-169 697h126l105 -520l108 470h127l109 -470l114 520h126l-176 -688l-95 -15l-25 6l-117 421l-113 -412z" />
    <glyph glyph-name="X" unicode="X" horiz-adv-x="580" 
d="M548 0h-99l-159 260l-159 -260h-99l-17 23l210 341l-189 328h130l124 -230l124 230h130l-189 -328l210 -341z" />
    <glyph glyph-name="Y" unicode="Y" horiz-adv-x="598" 
d="M145 692l154 -295l154 295h130l-225 -406v-245l-4 -35l-90 -15l-24 6v289l-225 406h130z" />
    <glyph glyph-name="Z" unicode="Z" horiz-adv-x="560" 
d="M520 0h-480v98l328 496h-298v98h440v-98l-329 -496h339v-98z" />
    <glyph glyph-name="bracketleft" unicode="[" horiz-adv-x="332" 
d="M301 763l21 -15l-16 -75h-98v-665h98l16 -75l-21 -15h-154l-57 34v777l57 34h154z" />
    <glyph glyph-name="backslash" unicode="\" horiz-adv-x="399" 
d="M30 768l25 16l93 -11l221 -861l-25 -16l-93 11z" />
    <glyph glyph-name="bracketright" unicode="]" horiz-adv-x="332" 
d="M185 763l57 -34v-777l-57 -34h-154l-21 15l16 75h98v665h-98l-16 75l21 15h154z" />
    <glyph glyph-name="asciicircum" unicode="^" horiz-adv-x="456" 
d="M228 630l-66 -180h-95l-17 19l109 249h138l109 -249l-17 -19h-95z" />
    <glyph glyph-name="underscore" unicode="_" horiz-adv-x="618" 
d="M593 13l15 -80l-6 -25h-542l-35 3l-15 80l6 25h542z" />
    <glyph glyph-name="grave" unicode="`" horiz-adv-x="331" 
d="M281 614l-12 -50l-17 -19l-202 108l7 25l57 74l27 -21z" />
    <glyph glyph-name="a" unicode="a" horiz-adv-x="499" 
d="M246 474q41 0 78 -9.5t64.5 -33t44 -62.5t16.5 -97v-231l-3 -35l-85 -15l-25 6v30q-21 -14 -56.5 -24.5t-75.5 -10.5q-31 0 -60.5 7.5t-53 24.5t-38 44t-14.5 65q0 36 14 62t39 45t58.5 31t71.5 20q31 6 60 11t52 8q-5 25 -14.5 39.5t-22.5 22t-27 10t-27 2.5
q-23 0 -51.5 -2.5t-54.5 -7.5l-33 -9l-37 82l14 15q8 0 29 2t32 3q26 2 52 4.5t53 2.5zM151 136q0 -28 19.5 -42t48.5 -14q26 0 59 7.5t58 20.5v119q-23 -5 -52 -10.5t-53 -12.5q-31 -8 -55.5 -22.5t-24.5 -45.5z" />
    <glyph glyph-name="b" unicode="b" horiz-adv-x="519" 
d="M275 -10q-43 0 -68 11t-45 25l-2 -20l-85 -15l-25 6v716h118l-5 -35v-234q19 11 46 19.5t66 8.5q54 0 92.5 -20t64 -53.5t37.5 -77t12 -90.5t-12 -90.5t-37.5 -77t-64 -53.5t-92.5 -20zM368 231q0 30 -6 57t-19.5 48t-34 33.5t-49.5 12.5t-50.5 -5t-45.5 -16v-259
q26 -11 46 -16.5t50 -5.5q29 0 49.5 12.5t34 33.5t19.5 48.5t6 56.5z" />
    <glyph glyph-name="c" unicode="c" horiz-adv-x="514" 
d="M476 110v-29q-32 -44 -82.5 -67.5t-114.5 -23.5q-48 0 -92 15.5t-77 46.5t-52.5 75.5t-19.5 103.5t19.5 104.5t52.5 76t77 46.5t92 16q54 0 102.5 -18.5t83.5 -62.5v-28l-75 -46l-18 27q-18 19 -42 27t-51 8q-24 0 -46.5 -8t-40 -25.5t-28.5 -46t-11 -70.5
q0 -41 11 -69.5t28.5 -46t40 -25t46.5 -7.5q78 0 116 62z" />
    <glyph glyph-name="d" unicode="d" horiz-adv-x="519" 
d="M466 6l-85 -15l-25 6v28q-20 -14 -45 -24.5t-67 -10.5q-54 0 -92.5 20t-64 53.5t-37.5 77t-12 90.5t12 90.5t37.5 77t64 53.5t92.5 20q38 0 65 -8.5t47 -19.5v269h118l-5 -35v-637zM151 231q0 -29 6 -56.5t19.5 -48.5t34 -33.5t49.5 -12.5t49.5 5.5t46.5 16.5v259
q-25 10 -46.5 15.5t-49.5 5.5q-29 0 -49.5 -12.5t-34 -33.5t-19.5 -48t-6 -57z" />
    <glyph glyph-name="e" unicode="e" horiz-adv-x="521" 
d="M466 81q-32 -44 -80 -67.5t-112 -23.5q-48 0 -91 15.5t-75.5 46.5t-51 75.5t-18.5 103.5t18.5 104.5t49.5 76t72 46.5t86 16q49 0 89.5 -17.5t69.5 -48.5t44.5 -74t15.5 -95v-44h-328q8 -62 42.5 -88.5t76.5 -26.5q38 0 64.5 16.5t46.5 48.5l81 -35v-29zM269 384
q-19 0 -37 -5t-33.5 -17.5t-26.5 -33t-16 -51.5h212q0 44 -27 75.5t-72 31.5z" />
    <glyph glyph-name="f" unicode="f" horiz-adv-x="401" 
d="M360 393l-11 -22h-126v-330l-3 -35l-85 -15l-25 6v374h-75l-10 71l11 22h74v53q0 103 38 153.5t119 50.5q31 0 67.5 -13t71.5 -57v-20l-70 -43q-12 18 -23.5 30t-34.5 10q-29 -2 -42 -28.5t-13 -82.5v-53h127z" />
    <glyph glyph-name="g" unicode="g" horiz-adv-x="521" 
d="M255 474q43 0 81 -11q16 6 34 13t35.5 14.5t33 15t27.5 13.5l25 -15v-99h-67q31 -42 31 -93q0 -33 -14 -63t-40 -52.5t-64 -36t-86 -13.5q-14 0 -27.5 1.5t-25.5 3.5q-7 -9 -12.5 -18.5t-5.5 -17.5q0 -17 19 -20l134 -22q37 -6 67 -16.5t51.5 -26.5t33 -38.5t11.5 -52.5
q0 -44 -24 -73t-60.5 -46t-79 -24t-79.5 -7q-47 0 -88 8t-71.5 26.5t-48 48.5t-17.5 75l79 32l23 -18q0 -43 35.5 -62.5t92.5 -19.5q20 0 42 3t40.5 10t30.5 19.5t12 30.5q0 21 -14 32t-40 15l-147 23q-52 8 -86 27t-34 55q0 26 16.5 49.5t34.5 42.5q-32 23 -48 55.5
t-16 69.5q0 33 14 62.5t40 51.5t64.5 35t87.5 13zM252 234q41 0 65.5 21.5t24.5 56.5t-23.5 55t-64.5 20q-43 0 -67.5 -19.5t-24.5 -55.5t26.5 -57t63.5 -21z" />
    <glyph glyph-name="h" unicode="h" horiz-adv-x="505" 
d="M160 6l-85 -15l-25 6v716h118l-5 -35v-232q23 12 54 19t69 7q33 0 64 -10.5t55.5 -33t39.5 -57t15 -82.5v-248l-3 -35l-85 -15l-25 6v276q0 53 -24 79.5t-61 26.5q-53 0 -99 -20v-318z" />
    <glyph glyph-name="i" unicode="i" horiz-adv-x="213" 
d="M160 6l-86 -15l-24 6v467h118l-5 -35v-388zM60 676h94l30 -19l-30 -121h-82l-22 13z" />
    <glyph glyph-name="j" unicode="j" horiz-adv-x="213" 
d="M60 676h94l30 -19l-30 -121h-82l-22 13zM50 464h118l-5 -35v-373q0 -112 -46 -177t-136 -91l-41 47l9 21q32 16 51.5 34.5t30.5 40.5t15 47t4 54v432z" />
    <glyph glyph-name="k" unicode="k" horiz-adv-x="493" 
d="M160 6l-85 -15l-25 6v716h118l-5 -35v-393l153 179h138l-175 -199l199 -242l-17 -23h-109l-143 187l-46 -53v-93z" />
    <glyph glyph-name="l" unicode="l" horiz-adv-x="213" 
d="M160 6l-85 -15l-25 6v716h118l-5 -35v-637z" />
    <glyph glyph-name="m" unicode="m" horiz-adv-x="726" 
d="M676 41l-3 -35l-85 -15l-25 6v297q0 45 -12.5 65t-43.5 20q-25 0 -47 -7t-44 -20q3 -15 3 -33v-278l-3 -35l-85 -15l-25 6v297q0 45 -12.5 65t-43.5 20q-24 0 -45.5 -6.5t-41.5 -18.5v-313l-3 -35l-85 -15l-25 6v467h118l-4 -25q20 13 49 23t60 10q36 0 66 -11.5
t50 -37.5q24 17 62.5 33t78.5 16q31 0 57.5 -8.5t46 -26.5t31 -47t11.5 -71v-278z" />
    <glyph glyph-name="n" unicode="n" horiz-adv-x="512" 
d="M160 6l-85 -15l-25 6v467h118l-4 -30q20 14 54.5 26t72.5 12q33 0 63.5 -10.5t54.5 -33t38.5 -57t14.5 -82.5v-248l-3 -35l-85 -15l-25 6v276q0 53 -22.5 79.5t-59.5 26.5q-29 0 -55 -7.5t-49 -21.5v-309z" />
    <glyph glyph-name="o" unicode="o" horiz-adv-x="559" 
d="M38 231q0 59 19.5 104.5t52.5 76t77 46.5t92 16t92 -16t77.5 -46.5t53 -76t19.5 -104.5t-19.5 -104t-53 -75.5t-77.5 -46t-92 -15.5t-92 15.5t-77 46.5t-52.5 75.5t-19.5 103.5zM151 231q0 -41 11 -69.5t29 -46t41 -25t47 -7.5t47 7.5t41.5 25t29.5 46t11 69.5
q0 42 -11 70.5t-29.5 46t-41.5 25.5t-47 8t-47 -8t-41 -25.5t-29 -46t-11 -70.5z" />
    <glyph glyph-name="p" unicode="p" horiz-adv-x="519" 
d="M160 -195l-85 -15l-25 6v668h118l-4 -26q20 14 45 24t66 10q54 0 92.5 -20t64 -53.5t37.5 -77t12 -90.5t-12 -90.5t-37.5 -77t-64 -53.5t-92.5 -20q-39 0 -65.5 8t-46.5 19v-177zM368 231q0 29 -6 56.5t-19.5 48.5t-34 33.5t-49.5 12.5q-30 0 -50 -5.5t-46 -16.5v-259
q25 -11 46 -16t50 -5t49.5 12.5t34 33.5t19.5 48t6 57z" />
    <glyph glyph-name="q" unicode="q" horiz-adv-x="519" 
d="M466 -195l-85 -15l-25 6v222q-20 -11 -46.5 -19.5t-65.5 -8.5q-54 0 -92.5 20t-64 53.5t-37.5 77t-12 90.5t12 90.5t37.5 77t64 53.5t92.5 20q42 0 67 -11t45 -25v28h118l-5 -35v-589zM150 231q0 -30 6.5 -57t20 -48t34 -33.5t49.5 -12.5t50 5t46 16v258q-26 11 -46.5 17
t-49.5 6t-49.5 -12.5t-34 -33.5t-20 -48.5t-6.5 -56.5z" />
    <glyph glyph-name="r" unicode="r" horiz-adv-x="380" 
d="M160 6l-85 -15l-25 6v467h118l-5 -35v-7q8 7 19 16.5t25.5 17t31.5 13t36 5.5q23 0 45 -7.5t44 -30.5l11 -30l-48 -68q-34 33 -75 33q-29 0 -51.5 -16.5t-37.5 -35.5v-278z" />
    <glyph glyph-name="s" unicode="s" horiz-adv-x="452" 
d="M318 353q-17 17 -35 24t-41 7q-29 0 -49 -10.5t-20 -31.5q0 -12 8.5 -20.5t22.5 -15t32 -13t38 -15.5q30 -14 56.5 -27t47 -29.5t32.5 -37.5t12 -50q0 -40 -16 -67.5t-43 -44.5t-63 -24.5t-75 -7.5q-57 0 -108.5 22.5t-83.5 70.5l-3 29l83 31q18 -29 47 -46t65 -17
q37 0 60.5 11t23.5 39q0 16 -8.5 27t-22.5 18.5t-31.5 14t-35.5 13.5q-26 10 -52.5 21.5t-48.5 28t-36 39.5t-14 56q0 32 15 56t39.5 39.5t56.5 23t66 7.5q54 0 98.5 -21t73.5 -58v-28l-73 -40z" />
    <glyph glyph-name="t" unicode="t" horiz-adv-x="386" 
d="M353 393l-11 -22h-126v-256q0 -14 9 -23t24 -9q30 0 51.5 5.5t43.5 13.5l22 -73q-59 -39 -145 -39q-52 0 -85 29t-33 81v271h-75l-10 71l11 22h74v123h118l-5 -35v-88h127z" />
    <glyph glyph-name="u" unicode="u" horiz-adv-x="508" 
d="M221 -8q-33 0 -63.5 7.5t-54.5 26t-38.5 50t-14.5 79.5v309h118l-5 -35v-271q0 -24 6 -38.5t16.5 -22t26 -10t33.5 -2.5q28 0 53 7t47 19v353h118l-5 -35v-388l-3 -35l-84 -15l-26 6v30q-20 -13 -53.5 -24t-70.5 -11z" />
    <glyph glyph-name="v" unicode="v" horiz-adv-x="477" 
d="M215 -11l-25 6l-175 469h120l103 -314l104 314h120l-172 -460z" />
    <glyph glyph-name="w" unicode="w" horiz-adv-x="697" 
d="M190 -11l-25 6l-150 469h120l83 -314l84 264h93l83 -264l84 314h120l-147 -460l-75 -15l-25 6l-87 256l-83 -247z" />
    <glyph glyph-name="x" unicode="x" horiz-adv-x="500" 
d="M468 0h-102l-116 156l-116 -156h-102l-17 23l167 221l-156 220h133l91 -138l91 138h133l-156 -220l167 -221z" />
    <glyph glyph-name="y" unicode="y" horiz-adv-x="485" 
d="M191 -205h-92l-17 23l109 255l-176 391h119l112 -259l106 259h118z" />
    <glyph glyph-name="z" unicode="z" horiz-adv-x="488" 
d="M443 0h-400v98l243 273h-218v93h360v-98l-244 -273h259v-93z" />
    <glyph glyph-name="braceleft" unicode="{" horiz-adv-x="403" 
d="M90 400q21 2 39 9t33 33q16 29 18 68.5t-1 87.5q-2 39 8 69.5t30 51.5t48.5 32.5t62.5 11.5h44l21 -15l-16 -75h-23q-26 0 -44 -12t-23 -35q-4 -19 -4.5 -41.5t0.5 -46t0.5 -46.5t-4.5 -42q-7 -32 -28.5 -62t-63.5 -47q42 -17 63.5 -47.5t28.5 -62.5q4 -19 4.5 -42
t-0.5 -46t-0.5 -45.5t4.5 -41.5q5 -24 23 -36t44 -12h23l16 -75l-21 -15h-44q-34 0 -62.5 11.5t-48.5 32.5t-30 51.5t-8 69.5q3 48 1 88t-18 69q-15 26 -33 33t-39 9v118z" />
    <glyph glyph-name="bar" unicode="|" horiz-adv-x="314" 
d="M103 799l86 15l25 -6v-892l-3 -35l-86 -15l-25 6v892z" />
    <glyph glyph-name="braceright" unicode="}" horiz-adv-x="403" 
d="M313 282q-21 -2 -39 -9t-33 -33q-16 -29 -18 -69t1 -88q2 -39 -8 -69.5t-30 -51.5t-48.5 -32.5t-62.5 -11.5h-44l-21 15l16 75h23q26 0 44 12t23 36q4 19 4.5 41.5t-0.5 45.5t-0.5 46t4.5 42q7 32 28.5 62.5t63.5 47.5q-42 17 -63.5 47t-28.5 62q-4 19 -4.5 42t0.5 46.5
t0.5 46t-4.5 41.5q-5 23 -23 35t-44 12h-23l-16 75l21 15h44q34 0 62.5 -11.5t48.5 -32.5t30 -51.5t8 -69.5q-3 -48 -1 -87.5t18 -68.5q15 -26 33 -33t39 -9v-118z" />
    <glyph glyph-name="asciitilde" unicode="~" horiz-adv-x="643" 
d="M580 298q-23 -32 -59 -56t-86 -24q-38 0 -66.5 12.5t-52.5 27.5t-45.5 27.5t-45.5 12.5q-39 0 -68 -21.5t-47 -44.5l-48 59v32q23 30 63.5 55t93.5 25q38 0 66.5 -12.5t52.5 -27t45.5 -27t46.5 -12.5q38 0 61.5 21t40.5 44l48 -59v-32z" />
    <glyph glyph-name="exclamdown" unicode="&#xa1;" horiz-adv-x="239" 
d="M189 427h-98l-30 19l21 133h85l22 -14v-138zM80 -200l-30 19l29 525l85 15l25 -6v-553h-109z" />
    <glyph glyph-name="cent" unicode="&#xa2;" horiz-adv-x="538" 
d="M240 749l76 15l25 -6v-178q40 -7 75 -25.5t61 -51.5v-28l-75 -46l-18 27q-20 20 -43 27v-283q41 15 66 55l81 -35v-29q-26 -35 -63 -57t-84 -30v-138l-3 -35l-76 -15l-25 6v183q-39 7 -73.5 26t-59.5 49t-39.5 70.5t-14.5 90.5t14.5 90.5t39.5 70.5t59.5 49t73.5 27v136z
M165 341q0 -59 20.5 -91.5t51.5 -46.5v277q-31 -14 -51.5 -47t-20.5 -92z" />
    <glyph glyph-name="sterling" unicode="&#xa3;" horiz-adv-x="582" 
d="M242 497q0 -23 4 -43.5t11 -39.5h188l10 -71l-11 -22h-151q5 -15 8 -31t3 -33q0 -22 -9 -44.5t-23.5 -43.5t-32.5 -39t-37 -32h330v-98h-478v99q21 17 44 35t42 38t31.5 42.5t12.5 48.5q0 14 -2.5 29t-7.5 29h-114l-10 71l11 22h78q-7 20 -11 40t-4 43q0 51 16.5 89.5
t44 64t64 38t77.5 12.5q23 0 47 -3.5t47 -12.5t44.5 -24.5t40.5 -39.5v-20l-70 -43q-12 18 -36 34t-62 16q-43 0 -69 -27.5t-26 -83.5z" />
    <glyph glyph-name="currency" unicode="&#xa4;" horiz-adv-x="649" 
d="M87 349q0 53 16 95t43 72l-96 128l25 16h93l59 -87q49 19 101 19q49 0 95 -17l58 85h93l25 -16l-93 -123q29 -31 46.5 -74t17.5 -98q0 -57 -18 -100t-49 -74l96 -127l-25 -16h-93l-63 91q-42 -15 -90 -15q-26 0 -50 4t-46 13l-64 -93h-93l-25 16l99 132
q-29 30 -45.5 72.5t-16.5 96.5zM200 349q0 -41 11 -69.5t29 -46t41 -25t47 -7.5t47 7.5t41.5 25t29.5 46t11 69.5q0 42 -11 70.5t-29.5 46t-41.5 25.5t-47 8t-47 -8t-41 -25.5t-29 -46t-11 -70.5z" />
    <glyph glyph-name="yen" unicode="&#xa5;" horiz-adv-x="668" 
d="M180 692l154 -256l154 256h130l-202 -328h61l35 -3l15 -67l-6 -25h-128v-60h84l35 -3l15 -67l-6 -25h-128v-73l-4 -35l-90 -15l-24 6v117h-86l-35 3l-15 67l6 25h130v60h-86l-35 3l-15 67l6 25h106l-201 328h130z" />
    <glyph glyph-name="section" unicode="&#xa7;" horiz-adv-x="495" 
d="M80 336q0 40 22.5 67t57.5 41q-32 18 -54.5 44.5t-22.5 68.5q0 32 15 56t39.5 39.5t56.5 23t66 7.5q54 0 98.5 -21t73.5 -58v-28l-73 -40l-18 26q-17 17 -35 24t-41 7q-29 0 -49 -10.5t-20 -31.5q0 -12 8.5 -20.5t22.5 -15t32 -13t38 -15.5q30 -14 56.5 -27t47 -29.5
t32.5 -37.5t12 -50q0 -44 -19 -72.5t-51 -45.5q30 -19 48.5 -43t18.5 -60q0 -40 -16 -67.5t-43 -44.5t-63 -24.5t-75 -7.5q-57 0 -108.5 22.5t-83.5 70.5l-3 29l83 31q18 -29 47 -46t65 -17q37 0 60.5 11t23.5 39q0 16 -8.5 27t-22.5 18.5t-31.5 14t-35.5 13.5
q-26 10 -52.5 21.5t-48.5 28t-36 39.5t-14 56zM193 330q0 -17 19.5 -29t44.5 -12q36 0 55.5 11t19.5 30q0 21 -20 31.5t-46 10.5q-29 0 -51 -10.5t-22 -31.5z" />
    <glyph glyph-name="dieresis" unicode="&#xa8;" horiz-adv-x="413" 
d="M50 769h93l30 -19l-21 -113h-80l-22 14v118zM240 769h93l30 -19l-21 -113h-80l-22 14v118z" />
    <glyph glyph-name="copyright" unicode="&#xa9;" horiz-adv-x="785" 
d="M488 253q-29 -46 -89 -46q-18 0 -35.5 6t-31 19t-21.5 34.5t-8 53.5t8 54.5t21.5 36t31 19.5t35.5 6q44 0 72 -28l13 -21l57 35v21q-26 35 -63.5 48.5t-78.5 13.5q-37 0 -70 -12t-58 -35.5t-40 -58t-15 -79.5t15 -79.5t40 -58t58 -35.5t70 -12q50 0 87.5 18t63.5 52v23z
M391 597q-55 0 -104 -21t-85.5 -58t-58 -86.5t-21.5 -106.5t21.5 -107t58 -86.5t85.5 -58t104 -21.5q56 0 105.5 21.5t86.5 58t58.5 86.5t21.5 107t-21.5 106.5t-58.5 86.5t-86.5 58t-105.5 21zM391 665q72 0 134.5 -26.5t109 -73t73.5 -108.5t27 -132q0 -71 -27 -133
t-73.5 -108t-109 -73t-134.5 -27q-70 0 -132 27t-108.5 73t-73.5 108t-27 133q0 70 27 132t73.5 108.5t108.5 73t132 26.5z" />
    <glyph glyph-name="ordfeminine" unicode="&#xaa;" horiz-adv-x="468" 
d="M224 809q33 0 62.5 -7.5t52 -26.5t35.5 -50t13 -77v-185l-3 -28l-68 -12l-20 5v23q-17 -11 -45.5 -19t-59.5 -8q-25 0 -49 6t-42.5 19.5t-30 35t-11.5 51.5q0 29 11.5 50t31 36t46.5 25t57 16q25 5 48 8.5t41 6.5q-3 20 -11 31.5t-18 17.5t-21.5 8t-21.5 2
q-19 0 -41.5 -2t-43.5 -6l-26 -7l-30 66l12 12q6 0 23 1.5t25 2.5q21 2 42 3.5t42 1.5zM403 356l15 -60l-6 -25h-312l-35 3l-15 60l6 25h312zM148 539q0 -23 16 -34t39 -11q21 0 47 6t46 16v95q-18 -3 -41.5 -8t-42.5 -10q-24 -7 -44 -18t-20 -36z" />
    <glyph glyph-name="guillemotleft" unicode="&#xab;" horiz-adv-x="819" 
d="M543 656l45 -66l-375 -287l370 -296l-46 -68l-455 362zM733 656l44 -68l-375 -285l374 -296l-50 -68l-454 362z" />
    <glyph glyph-name="uni00AD" unicode="&#xad;" horiz-adv-x="518" 
d="M453 376l15 -80l-6 -25h-362l-35 3l-15 80l6 25h362z" />
    <glyph glyph-name="registered" unicode="&#xae;" 
d="M392 285h70l118 -187h78l16 20l-124 185q23 11 39 26.5t26.5 33.5t15.5 36.5t5 36.5q0 41 -16 68.5t-43 44.5t-62 24t-73 7h-127l-22 -23l8 -23v-437l22 -5l67 10l2 28v155zM544 433q0 -39 -26.5 -57t-70.5 -18h-55v149h53q42 0 70.5 -16.5t28.5 -57.5zM453 687
q-72 0 -136.5 -27.5t-112.5 -75.5t-76 -113t-28 -140t28 -140t76 -113t112.5 -76t136.5 -28q73 0 138 28t113.5 76t76.5 113t28 140t-28 140t-76.5 113t-113.5 75.5t-138 27.5zM453 756q90 0 168 -33.5t136.5 -91t92 -135t33.5 -165.5t-33.5 -165.5t-92 -135.5t-136.5 -91.5
t-168 -33.5q-88 0 -165.5 33.5t-135.5 91.5t-92 135.5t-34 165.5t34 165.5t92 135t135.5 91t165.5 33.5z" />
    <glyph glyph-name="degree" unicode="&#xb0;" horiz-adv-x="416" 
d="M50 583q0 28 9.5 54.5t29 46.5t49.5 32t70 12t70 -12.5t49.5 -32.5t29 -46t9.5 -54t-9.5 -53.5t-29 -45.5t-49.5 -32t-70 -12t-70 12t-49.5 31.5t-29 45.5t-9.5 54zM153 583q0 -29 13.5 -49t41.5 -20t41 20t13 49q0 30 -13 50.5t-41 20.5t-41.5 -20.5t-13.5 -50.5z" />
    <glyph glyph-name="plusminus" unicode="&#xb1;" horiz-adv-x="542" 
d="M477 466l15 -70l-6 -25h-156v-100l-3 -35l-80 -15l-25 6v144h-122l-35 3l-15 70l6 25h166v100l3 35l80 15l25 -6v-144h112zM465 176l15 -70l-6 -25h-362l-35 3l-15 70l6 25h362z" />
    <glyph glyph-name="uni00B2" unicode="&#xb2;" horiz-adv-x="406" 
d="M50 370l56 58q26 27 51.5 54t45.5 52.5t32.5 49t12.5 43.5q0 26 -14 41t-39 15q-17 0 -35.5 -20.5t-27.5 -59.5l-78 27v23q20 54 56.5 81t82.5 27q67 0 106.5 -35.5t39.5 -101.5q0 -29 -16 -60.5t-39 -62t-49.5 -57.5t-48.5 -48h101l50 4l19 -64l-21 -16h-285v50z" />
    <glyph glyph-name="uni00B3" unicode="&#xb3;" horiz-adv-x="412" 
d="M124 462q11 -32 31 -51t49 -19q32 0 50 16.5t18 40.5q0 33 -25 46t-62 13h-40l-7 65l20 13h18q34 0 57 15t23 38q0 26 -16.5 35.5t-33.5 9.5q-43 0 -63 -65l-76 28v25q20 42 56 66t81 24q72 0 107.5 -34t35.5 -86q0 -30 -16.5 -53t-36.5 -36q35 -15 51.5 -42.5
t16.5 -65.5q0 -26 -10 -50t-29.5 -42t-49.5 -29t-69 -11q-57 0 -95.5 23.5t-58.5 68.5v25z" />
    <glyph glyph-name="acute" unicode="&#xb4;" horiz-adv-x="268" 
d="M98 769h90l30 -19l-80 -204h-66l-22 13z" />
    <glyph glyph-name="paragraph" unicode="&#xb6;" 
d="M666 706v-830h-86v752h-64v-752h-86v459q-42 3 -76.5 18.5t-59 40t-38 57t-13.5 70.5t14.5 71.5t40 59t59 40t71.5 14.5h238z" />
    <glyph glyph-name="periodcentered" unicode="&#xb7;" horiz-adv-x="528" 
d="M200 409h98l30 -19l-21 -133h-85l-22 14v138z" />
    <glyph glyph-name="cedilla" unicode="&#xb8;" horiz-adv-x="457" 
d="M141 -105l39 82l87 10l22 -14l-31 -65q52 -6 75.5 -25t23.5 -48q0 -25 -17 -43.5t-48 -31.5t-74 -20t-95 -8l-23 27l3 23q60 7 99 18.5t39 38.5q0 35 -92 44z" />
    <glyph glyph-name="uni00B9" unicode="&#xb9;" horiz-adv-x="349" 
d="M73 320l-16 62l18 14h68v267q-16 -8 -35 -13t-33 -10l-25 68q66 21 110 54l77 -10l-4 -42v-314h52l14 -60l-20 -16h-206z" />
    <glyph glyph-name="ordmasculine" unicode="&#xba;" horiz-adv-x="468" 
d="M403 356l15 -60l-6 -25h-312l-35 3l-15 60l6 25h312zM52 615q0 47 13.5 83t37 61t56 37.5t71.5 12.5t71.5 -12.5t56 -37t37 -61t13.5 -83.5t-13.5 -83t-37 -60.5t-56 -37t-71.5 -12.5t-71.5 12.5t-56 37t-37 60.5t-13.5 83zM142 615q0 -66 25 -92.5t63 -26.5t63 26.5
t25 92.5q0 67 -25 93.5t-63 26.5t-63 -26.5t-25 -93.5z" />
    <glyph glyph-name="guillemotright" unicode="&#xbb;" horiz-adv-x="819" 
d="M736 301l-454 -362l-46 68l369 296l-375 287l45 66zM546 301l-454 -362l-50 68l374 296l-375 285l44 68z" />
    <glyph glyph-name="onequarter" unicode="&#xbc;" 
d="M303 -63l-78 -11l-25 16l381 801l78 11l25 -16zM118 320l-16 62l18 14h68v267q-16 -8 -35 -13t-33 -10l-25 68q66 21 110 54l77 -10l-4 -42v-314h52l14 -60l-20 -16h-206zM665 -50v78h-179v68l193 297l80 -10l-4 -42q0 -63 0.5 -119.5t0.5 -117.5l39 3l20 -64l-22 -15
h-38v-47l-1 -29l-67 -8zM665 104v128l-84 -128h84z" />
    <glyph glyph-name="onehalf" unicode="&#xbd;" 
d="M288 -63l-78 -11l-25 16l381 801l78 11l25 -16zM523 0l56 58q26 27 51.5 54t45.5 52.5t32.5 49t12.5 43.5q0 26 -14 41t-39 15q-17 0 -35.5 -20.5t-27.5 -59.5l-78 27v23q20 54 56.5 81t82.5 27q67 0 106.5 -35.5t39.5 -101.5q0 -29 -16 -60.5t-39 -62t-49.5 -57.5
t-48.5 -48h101l50 4l19 -64l-21 -16h-285v50zM103 320l-16 62l18 14h68v267q-16 -8 -35 -13t-33 -10l-25 68q66 21 110 54l77 -10l-4 -42v-314h52l14 -60l-20 -16h-206z" />
    <glyph glyph-name="threequarters" unicode="&#xbe;" 
d="M339 -63l-78 -11l-25 16l381 801l78 11l25 -16zM691 -50v78h-179v68l193 297l80 -10l-4 -42q0 -63 0.5 -119.5t0.5 -117.5l39 3l20 -64l-22 -15h-38v-47l-1 -29l-67 -8zM691 104v128l-84 -128h84zM142 462q11 -32 31 -51t49 -19q32 0 50 16.5t18 40.5q0 33 -25 46t-62 13
h-40l-7 65l20 13h18q34 0 57 15t23 38q0 26 -16.5 35.5t-33.5 9.5q-43 0 -63 -65l-76 28v25q20 42 56 66t81 24q72 0 107.5 -34t35.5 -86q0 -30 -16.5 -53t-36.5 -36q35 -15 51.5 -42.5t16.5 -65.5q0 -26 -10 -50t-29.5 -42t-49.5 -29t-69 -11q-57 0 -95.5 23.5t-58.5 68.5
v25z" />
    <glyph glyph-name="questiondown" unicode="&#xbf;" horiz-adv-x="495" 
d="M319 427h-98l-30 19l21 133h85l22 -14v-138zM319 333q-1 -48 -14 -84.5t-30.5 -66t-38 -54t-38 -47.5t-29 -47.5t-11.5 -53.5q0 -48 27 -70.5t69 -22.5q46 0 71 37t27 102l118 -23v-28q-9 -51 -30 -87t-50.5 -59t-66 -33.5t-75.5 -10.5q-49 0 -90 14.5t-70.5 40.5t-46 63
t-16.5 82q0 36 12 63.5t30.5 51.5t40.5 47t42 51t34.5 63t18.5 83l91 15l25 -6v-20z" />
    <glyph glyph-name="AE" unicode="&#xc6;" horiz-adv-x="824" 
d="M819 -3h-413v203h-191l-118 -203h-93l402 695h394v-73h-300v-230h260v-72h-260v-247h319v-73zM406 270v259l-151 -259h151z" />
    <glyph glyph-name="Eth" unicode="&#xd0;" horiz-adv-x="775" 
d="M170 313h-120v64h120v315h229q82 0 147 -27.5t110.5 -75t69.5 -110.5t24 -134t-24.5 -134t-70 -110.5t-110.5 -75.5t-146 -28h-229v316zM446 313h-184v-246h137q63 0 111.5 23.5t81.5 62t50 88t17 102.5q0 58 -17 109t-50.5 88.5t-83 59.5t-113.5 22h-133v-245h184v-64z
" />
    <glyph glyph-name="multiply" unicode="&#xd7;" horiz-adv-x="533" 
d="M159 504l107 -110l108 110l27 23l60 -39l14 -22l-140 -142l148 -150l-14 -22l-60 -39l-27 23l-116 117l-115 -117l-27 -23l-60 39l-14 22l147 150l-139 142l14 22l60 39z" />
    <glyph glyph-name="Oslash" unicode="&#xd8;" horiz-adv-x="818" 
d="M595 770l-46 -121q48 -17 86.5 -45.5t66.5 -66t43 -83.5t15 -98q0 -69 -27 -127.5t-74 -101t-111 -66.5t-137 -24q-24 0 -46 2t-44 8l-44 -118h-46l48 129q-48 17 -87 46t-67.5 67.5t-44 85t-15.5 99.5q0 70 27 128.5t73.5 99.5t110 64t135.5 23q26 0 49.5 -2t46.5 -9
l41 110h47zM160 356q0 -80 38 -141t107 -88l175 465q-17 5 -34.5 6.5t-34.5 1.5q-58 0 -104.5 -18t-79 -50t-50 -77t-17.5 -99zM411 108q62 0 109.5 19.5t80 53.5t49 79t16.5 96q0 79 -38 137.5t-106 86.5l-174 -465q15 -3 30.5 -5t32.5 -2z" />
    <glyph glyph-name="Thorn" unicode="&#xde;" horiz-adv-x="589" 
d="M93 -3v695h93v-122h119q52 0 96.5 -16t77 -45.5t50.5 -70t18 -88.5q0 -47 -18 -86t-50.5 -67.5t-77 -44.5t-96.5 -16h-119v-139h-93zM305 205q31 0 58.5 11.5t48 31t32 46t11.5 56.5q0 31 -11 58.5t-31 48t-47.5 32t-60.5 11.5h-119v-295h119z" />
    <glyph glyph-name="germandbls" unicode="&#xdf;" horiz-adv-x="608" 
d="M72 -10v535q0 52 19 91t51.5 65t74.5 39.5t88 13.5q48 0 91 -13.5t74.5 -38t50 -60t18.5 -78.5q0 -51 -31.5 -95.5t-90.5 -70.5q81 -17 125 -66.5t44 -118.5q0 -51 -22 -89t-59 -63.5t-85.5 -38t-102.5 -12.5h-89v69h88q41 0 73 10.5t53.5 29t32.5 43t11 52.5
q0 60 -43.5 99.5t-126.5 39.5h-143v-343h-101zM173 402h127q34 0 60.5 11.5t44 30.5t26.5 44t9 52q0 24 -9 46t-26 39t-43 27t-59 10q-23 0 -46.5 -9t-42 -26.5t-30 -43t-11.5 -58.5v-123z" />
    <glyph glyph-name="ae" unicode="&#xe6;" horiz-adv-x="897" 
d="M802 40q-32 -20 -72 -30.5t-103 -10.5t-112 21.5t-84 57.5q-35 -38 -86.5 -58.5t-129.5 -20.5q-36 0 -65.5 10.5t-51 30t-33.5 47t-12 61.5q0 62 36.5 103t105.5 58q67 15 173 15v29q0 42 -32.5 62t-89.5 20q-23 0 -54 -8t-58 -24l-40 58q39 23 73 34.5t79 11.5
q62 0 110 -15.5t80 -52.5q33 30 79.5 49t99.5 19q57 0 99 -17.5t70 -49.5t42 -77t14 -99q0 -8 -0.5 -20t-2.5 -23h-375q5 -33 18.5 -61.5t34.5 -50t49.5 -33.5t62.5 -12q39 0 74.5 7.5t62.5 21.5zM368 261q-94 0 -151 -17q-39 -11 -53.5 -36.5t-14.5 -57.5q0 -44 21.5 -63
t63.5 -21q23 -1 47 4t43.5 18.5t31.5 36t12 56.5v80zM745 285q-1 75 -34.5 114.5t-98.5 39.5q-29 0 -55 -11t-46.5 -31t-33 -48.5t-13.5 -63.5h281z" />
    <glyph glyph-name="eth" unicode="&#xf0;" horiz-adv-x="521" 
d="M348 700h97l-95 -92q31 -27 57 -64t44.5 -81.5t28.5 -95.5t10 -105q0 -60 -14.5 -108.5t-44 -83t-73.5 -53t-103 -18.5q-51 0 -92.5 15t-70.5 43t-44.5 68t-15.5 89q0 42 15 79.5t43 65t67.5 43.5t88.5 16q35 0 67 -8t74 -29q-7 21 -16.5 44.5t-20.5 47t-24.5 45
t-28.5 37.5l-54 -51h-97l96 94q-29 16 -59 27t-60 16q3 17 6.5 31t5.5 29q38 -6 78.5 -20t78.5 -35zM126 210q0 -66 31.5 -103.5t103.5 -37.5q73 0 103 47.5t30 130.5v33q-32 39 -67 57t-74 18q-33 0 -56.5 -11t-39.5 -30.5t-23.5 -46t-7.5 -57.5z" />
    <glyph glyph-name="divide" unicode="&#xf7;" horiz-adv-x="582" 
d="M517 366l15 -70l-6 -25h-426l-35 3l-15 70l6 25h426zM243 190h99l30 -19l-21 -106h-86l-22 14v111zM243 572h99l30 -19l-21 -106h-86l-22 14v111z" />
    <glyph glyph-name="oslash" unicode="&#xf8;" horiz-adv-x="602" 
d="M36 247q0 55 16.5 102t50 81.5t84 54.5t117.5 20q18 0 36 -2t33 -5l65 170h47l-69 -182q76 -29 113 -93t37 -146q0 -54 -16 -101.5t-48 -82.5t-81.5 -55t-115.5 -20q-21 0 -39 2t-35 5l-65 -169h-46l70 182q-77 27 -115.5 91.5t-38.5 147.5zM129 247q0 -59 22 -103
t64 -65l133 346q-12 3 -23 4t-25 1q-83 0 -127 -50.5t-44 -132.5zM300 62q85 0 128.5 50.5t43.5 134.5q0 58 -20.5 101t-62.5 65l-133 -347q12 -2 22.5 -3t21.5 -1z" />
    <glyph glyph-name="thorn" unicode="&#xfe;" horiz-adv-x="602" 
d="M128 -207h-92v872h92v-211q32 24 75.5 37.5t100.5 13.5q66 0 115 -20t82 -55t49 -82t16 -101t-16 -101.5t-48 -82.5t-81.5 -55t-115.5 -20q-57 0 -101 14t-76 37v-246zM129 247q0 -84 44 -134.5t127 -50.5q85 0 128.5 50.5t43.5 134.5q0 83 -43.5 133t-128.5 50
q-83 0 -127 -50.5t-44 -132.5z" />
    <glyph glyph-name="dcroat" unicode="&#x111;" horiz-adv-x="678" 
d="M291 -42q-62 0 -109.5 20.5t-80.5 57.5t-50 88t-17 112t17 111t50 85.5t81 55t110 19.5q48 0 86 -13t68 -32v119h-144v67h144v92h99v-92h115v-67h-115v-604h-99v40q-36 -26 -75 -42.5t-80 -16.5zM446 378q-34 26 -66.5 39t-68.5 13q-83 0 -129.5 -51.5t-46.5 -147.5
q0 -98 45.5 -147.5t128.5 -49.5q36 0 72 19t65 48v277z" />
    <glyph glyph-name="Hbar" unicode="&#x126;" horiz-adv-x="755" 
d="M717 493h-69v-496h-95v321h-354v-321h-95v496h-68v64h68v135h95v-135h354v135h95v-135h69v-64zM553 387v106h-354v-106h354z" />
    <glyph glyph-name="hbar" unicode="&#x127;" horiz-adv-x="592" 
d="M33 565v63h105v87h95v-87h135v-63h-135v-116q33 25 74 40.5t75 15.5q38 0 70.5 -11.5t56 -33t36.5 -52.5t13 -71v-340h-93v339q0 26 -9 44.5t-23.5 30.5t-34 18t-40.5 6q-30 0 -64.5 -16t-60.5 -45v-377h-95v568h-105z" />
    <glyph glyph-name="dotlessi" unicode="&#x131;" horiz-adv-x="248" 
d="M78 -3v500h94v-500h-94z" />
    <glyph glyph-name="IJ" unicode="&#x132;" horiz-adv-x="616" 
d="M102 -3v695h94v-695h-94zM272 -80q48 12 77 32t45.5 47.5t22 63t5.5 79.5v550h93v-547q0 -55 -12 -101.5t-38 -83t-69 -61t-104 -34.5z" />
    <glyph glyph-name="ij" unicode="&#x133;" horiz-adv-x="490" 
d="M74 -3v481h93v-481h-93zM70 590v102h101v-102h-101zM186 -141q69 20 97.5 67t28.5 125v427h96v-409q0 -104 -45.5 -173.5t-152.5 -96.5zM310 590v102h102v-102h-102z" />
    <glyph glyph-name="kgreenlandic" unicode="&#x138;" horiz-adv-x="521" 
d="M77 498h96v-232q10 12 23.5 28.5t26.5 34t24.5 35t19.5 31.5q11 24 22 45t24.5 36.5t31.5 25t43 9.5q20 0 47 -9.5t48 -23.5l-38 -58q-11 8 -24 12.5t-27 4.5q-18 0 -29 -20.5t-29 -56.5q-14 -26 -31 -49t-42 -49l252 -265h-107l-235 247v-247h-95z" />
    <glyph glyph-name="Ldot" unicode="&#x13f;" horiz-adv-x="505" 
d="M478 -3h-408v695h94v-626h314v-69zM310 323v101h102v-101h-102z" />
    <glyph glyph-name="ldot" unicode="&#x140;" horiz-adv-x="440" 
d="M379 356q0 -22 -16.5 -39t-44.5 -17q-30 0 -47.5 17t-17.5 39t17.5 40t47.5 18q28 0 44.5 -18t16.5 -40zM74 -3v707h93v-707h-93z" />
    <glyph glyph-name="Lslash" unicode="&#x141;" horiz-adv-x="586" 
d="M556 -23h-368v248l-83 -88h-92l175 186v393h101v-286l119 128h92l-211 -226v-278h267v-77z" />
    <glyph glyph-name="lslash" unicode="&#x142;" horiz-adv-x="511" 
d="M224 -23v286l-114 -126h-92l206 224v368h100v-261l82 90h90l-172 -187v-394h-100z" />
    <glyph glyph-name="napostrophe" unicode="&#x149;" horiz-adv-x="705" 
d="M534 -3v328q0 27 -9.5 47t-25.5 33.5t-37 20.5t-43 7q-78 0 -132 -63v-373h-95v500h94v-48q43 32 79 45t73 12q31 -1 64.5 -10t61.5 -28t46 -50t18 -75v-346h-94zM160 584q0 -49 -26.5 -90t-82.5 -57v30q32 8 47 34t15 56v18h-60v98h107v-89z" />
    <glyph glyph-name="Eng" unicode="&#x14a;" horiz-adv-x="770" 
d="M456 -80q39 10 65 25t43 34t26 43t13 53l-439 427v-506h-94v696h12l522 -506v506h95v-547q0 -55 -11.5 -101.5t-37.5 -83t-68 -61t-104 -34.5z" />
    <glyph glyph-name="eng" unicode="&#x14b;" horiz-adv-x="572" 
d="M288 -119q44 22 70 46.5t39.5 52t17.5 59t4 67.5v219q0 27 -9.5 47t-25.5 33.5t-36.5 20.5t-42.5 7q-77 0 -134 -63v-373h-94v500h93v-48q45 32 80.5 45t71.5 12q31 -1 65 -10t62 -28t46 -50t18 -75v-263q0 -96 -60 -171q-26 -34 -67 -59.5t-98 -45.5v77z" />
    <glyph glyph-name="OE" unicode="&#x152;" horiz-adv-x="883" 
d="M525 69h309v-72h-357q-24 -8 -49.5 -12.5t-59.5 -4.5q-82 0 -144.5 28.5t-104.5 78.5t-63.5 117t-21.5 144q0 75 21.5 139.5t64 112t105 74.5t143.5 27q20 0 39 -2t39 -7h367v-70h-288v-234h250v-70h-250v-249zM368 51q14 0 30.5 3.5t34.5 5.5v562q-18 5 -33.5 8t-31.5 3
q-59 0 -103.5 -23t-74.5 -62t-45.5 -91t-15.5 -109q0 -62 15 -116t45 -94.5t75 -63.5t104 -23z" />
    <glyph glyph-name="oe" unicode="&#x153;" horiz-adv-x="897" 
d="M824 42q-29 -17 -69 -30t-100 -13q-71 0 -121 23.5t-83 61.5q-34 -43 -82.5 -64t-101.5 -21t-96 17.5t-73.5 51t-47 81.5t-16.5 109q0 59 16.5 105t47 78t73.5 49t96 17q55 0 103 -20t83 -62q33 40 80.5 61t110.5 21q56 0 96.5 -16.5t66 -46.5t37.5 -73.5t12 -97.5
q0 -12 -0.5 -27t-4.5 -26h-351q7 -72 45.5 -114t109.5 -42q80 0 129 29zM128 259q0 -96 39 -143t98 -47t97.5 39.5t45.5 123.5v39q-2 41 -14.5 72.5t-32 52.5t-44.5 31.5t-52 9.5q-59 0 -98 -45.5t-39 -132.5zM764 283q0 75 -29 115.5t-92 40.5q-60 0 -98.5 -42t-41.5 -114
h261z" />
    <glyph glyph-name="Tbar" unicode="&#x166;" horiz-adv-x="507" 
d="M446 336h-147v-339h-94v339h-147v65h147v218h-197v73h487v-73h-196v-218h147v-65z" />
    <glyph glyph-name="tbar" unicode="&#x167;" horiz-adv-x="395" 
d="M25 238v71h83v105h-87v68h87v171h93v-171h154v-68h-154v-105h144v-71h-144v-141q0 -14 10 -22t29 -8q26 0 62 1t67 6v-63q-28 -6 -70 -11.5t-79 -5.5q-21 0 -41 3.5t-35.5 12.5t-25.5 24.5t-10 39.5v164h-83z" />
    <glyph glyph-name="caron" unicode="&#x2c7;" horiz-adv-x="456" 
d="M294 718h95l17 -19l-109 -249h-138l-109 249l17 19h95l66 -180z" />
    <glyph glyph-name="uni02D0" unicode="&#x2d0;" horiz-adv-x="274" 
d="M224 602l-87 -155l-87 155h174zM50 70l87 155l87 -155h-174z" />
    <glyph glyph-name="breve" unicode="&#x2d8;" horiz-adv-x="476" 
d="M409 718l17 -19q0 -25 -7 -59t-27.5 -65t-57.5 -53t-96 -22t-96 22t-57.5 53t-27.5 65t-7 59l17 19h95q0 -24 3 -47t11 -41t23 -28.5t39 -10.5t39 10.5t23 28.5t11 41t3 47h95z" />
    <glyph glyph-name="dotaccent" unicode="&#x2d9;" horiz-adv-x="228" 
d="M50 718h98l30 -19l-21 -133h-85l-22 14v138z" />
    <glyph glyph-name="ring" unicode="&#x2da;" horiz-adv-x="416" 
d="M50 583q0 28 9.5 54.5t29 46.5t49.5 32t70 12t70 -12.5t49.5 -32.5t29 -46t9.5 -54t-9.5 -53.5t-29 -45.5t-49.5 -32t-70 -12t-70 12t-49.5 31.5t-29 45.5t-9.5 54zM153 583q0 -29 13.5 -49t41.5 -20t41 20t13 49q0 30 -13 50.5t-41 20.5t-41.5 -20.5t-13.5 -50.5z" />
    <glyph glyph-name="ogonek" unicode="&#x2db;" horiz-adv-x="457" 
d="M286 -55l-8 -12q-23 -5 -42.5 -20t-19.5 -34q0 -27 39 -43.5t99 -23.5l3 -23l-23 -27q-52 1 -95 9.5t-74 23t-48 35t-17 45.5q0 14 7 30t26.5 29.5t54 22.5t88.5 9z" />
    <glyph glyph-name="tilde" unicode="&#x2dc;" horiz-adv-x="503" 
d="M403 569q-14 -27 -35 -47t-50 -20q-22 0 -40.5 9t-34 19.5t-30 19.5t-28.5 9q-39 0 -57 -29l-28 34v32q14 26 37.5 46.5t54.5 20.5q22 0 40.5 -9t34 -19.5t30 -19t28.5 -8.5q19 0 30.5 7t19.5 21l28 -35v-31z" />
    <glyph glyph-name="hungarumlaut" unicode="&#x2dd;" horiz-adv-x="413" 
d="M98 769h85l30 -19l-80 -204h-61l-22 13zM248 769h85l30 -19l-80 -204h-61l-22 13z" />
    <glyph glyph-name="Alpha" unicode="&#x391;" horiz-adv-x="684" 
d="M493 152h-302l-64 -155h-94l299 695h18l300 -695h-93zM337 512l-120 -293h248l-119 293h-9z" />
    <glyph glyph-name="Beta" unicode="&#x392;" horiz-adv-x="595" 
d="M70 -3v695h227q48 0 87.5 -11.5t68 -34.5t44 -56.5t15.5 -77.5q0 -41 -29 -83t-75 -69q35 -9 64 -25t49.5 -38t31.5 -48.5t11 -56.5q0 -47 -17.5 -83.5t-49 -61.5t-74 -37.5t-92.5 -12.5h-261zM164 66h165q38 0 65.5 10t45.5 27t26.5 40t8.5 49q0 53 -43 89t-126 36h-142
v-251zM164 622v-237h128q31 0 55.5 11t41 29t25 40.5t8.5 45.5q0 22 -8.5 42t-25 35.5t-40 24.5t-54.5 9h-130z" />
    <glyph glyph-name="Gamma" unicode="&#x393;" horiz-adv-x="505" 
d="M490 631h-313v-633h-93v706h406v-73z" />
    <glyph glyph-name="uni0394" unicode="&#x394;" horiz-adv-x="668" 
d="M0 -2l294 706h63l301 -706h-658zM324 576l-202 -507h410z" />
    <glyph glyph-name="Epsilon" unicode="&#x395;" horiz-adv-x="500" 
d="M454 -2h-388v654h369v-66h-281v-220h248v-65h-248v-237h300v-66z" />
    <glyph glyph-name="Zeta" unicode="&#x396;" horiz-adv-x="557" 
d="M509 692v-24l-354 -602h366v-69h-493v22l351 603h-333v70h463z" />
    <glyph glyph-name="Eta" unicode="&#x397;" horiz-adv-x="684" 
d="M612 692v-695h-93v321h-354v-321h-95v695h95v-305h354v305h93z" />
    <glyph glyph-name="Theta" unicode="&#x398;" horiz-adv-x="818" 
d="M587 324h-339v66h339v-66zM50 343q0 78 26.5 145t75 116.5t117 78t151.5 28.5q87 0 156.5 -29t118 -79t74.5 -117t26 -143q0 -75 -26.5 -142t-75.5 -117.5t-118.5 -79.5t-154.5 -29q-83 0 -151.5 29t-117 79t-75 117t-26.5 143zM146 343q0 -60 18.5 -114t54 -95.5t86 -66
t115.5 -24.5q69 0 121 25.5t87 67.5t53 96t18 111q0 61 -19 115.5t-55 95t-87.5 64t-117.5 23.5q-63 0 -113.5 -23.5t-86.5 -64t-55 -95t-19 -115.5z" />
    <glyph glyph-name="Iota" unicode="&#x399;" horiz-adv-x="254" 
d="M81 -3v695h92v-695h-92z" />
    <glyph glyph-name="Kappa" unicode="&#x39a;" horiz-adv-x="648" 
d="M165 355l287 337h103l-283 -336l325 -359h-112l-320 353v-353h-95v695h95v-337z" />
    <glyph glyph-name="Lambda" unicode="&#x39b;" horiz-adv-x="664" 
d="M630 -3h-94l-200 516l-205 -516h-98l293 695h19z" />
    <glyph glyph-name="Mu" unicode="&#x39c;" horiz-adv-x="883" 
d="M813 692v-695h-93v482l-277 -305h-5l-275 307v-484h-93v695h7l364 -402l365 402h7z" />
    <glyph glyph-name="Nu" unicode="&#x39d;" horiz-adv-x="770" 
d="M82 692l522 -506v506h95v-696h-12l-523 506v-506h-94v696h12z" />
    <glyph glyph-name="Xi" unicode="&#x39e;" horiz-adv-x="531" 
d="M455 321h-380v63h380v-63zM488 629h-446v63h446v-63zM488 -3h-446v63h446v-63z" />
    <glyph glyph-name="Omicron" unicode="&#x39f;" horiz-adv-x="845" 
d="M50 343q0 78 26.5 145t75 116.5t117 78t151.5 28.5q87 0 156.5 -29t118 -79t74.5 -117t26 -143q0 -75 -26.5 -142t-75.5 -117.5t-118.5 -79.5t-154.5 -29q-83 0 -151.5 29t-117 79t-75 117t-26.5 143zM146 343q0 -60 18.5 -114t54 -95.5t86 -66t115.5 -24.5
q69 0 121 25.5t87 67.5t53 96t18 111q0 61 -19 115.5t-55 95t-87.5 64t-117.5 23.5q-63 0 -113.5 -23.5t-86.5 -64t-55 -95t-19 -115.5z" />
    <glyph glyph-name="Pi" unicode="&#x3a0;" horiz-adv-x="664" 
d="M583 -3h-93v641h-314v-641h-92v707h499v-707z" />
    <glyph glyph-name="Rho" unicode="&#x3a1;" horiz-adv-x="576" 
d="M70 -3v695h212q56 0 101.5 -16t77 -45.5t48.5 -69.5t17 -88q0 -45 -17 -84.5t-49 -68.5t-77.5 -45.5t-102.5 -16.5h-119v-261h-91zM161 327h118q37 0 66 11t49 30.5t31 46.5t11 58q0 66 -40.5 107.5t-113.5 41.5h-121v-295z" />
    <glyph glyph-name="Sigma" unicode="&#x3a3;" horiz-adv-x="561" 
d="M71 704h441v-69h-334l216 -270v-22l-221 -264h339v-69h-444v64l224 282l-221 275v73z" />
    <glyph glyph-name="Tau" unicode="&#x3a4;" horiz-adv-x="565" 
d="M236 -3v625h-197v70h487v-70h-197v-625h-93z" />
    <glyph glyph-name="Upsilon" unicode="&#x3a5;" horiz-adv-x="654" 
d="M280 -3v293l-244 402h103l190 -327l188 327h101l-246 -402v-293h-92z" />
    <glyph glyph-name="Phi" unicode="&#x3a6;" horiz-adv-x="602" 
d="M254 -2v133q-49 6 -89.5 24t-69 47t-44 67t-15.5 84t15.5 84t44 67t68.5 47.5t90 24.5v116h95v-115q49 -6 89 -24.5t68.5 -47.5t44 -67.5t15.5 -84.5t-15.5 -84.5t-44 -68t-68.5 -48t-89 -24.5v-130h-95zM472 353q0 60 -30.5 98.5t-92.5 50.5v-299q62 13 92.5 51.5
t30.5 98.5zM129 353q0 -60 31.5 -98.5t93.5 -51.5v298q-62 -11 -93.5 -50.5t-31.5 -97.5z" />
    <glyph glyph-name="Chi" unicode="&#x3a7;" horiz-adv-x="690" 
d="M39 -3l251 358l-235 337h110l184 -278l177 278h108l-230 -337q61 -90 124.5 -179.5t124.5 -178.5h-108l-196 294l-203 -294h-107z" />
    <glyph glyph-name="Psi" unicode="&#x3a8;" horiz-adv-x="686" 
d="M396 -2h-91v192q-119 11 -173.5 77.5t-54.5 181.5v243h94v-243q0 -85 31.5 -130.5t102.5 -59.5v433h91v-431q62 16 93 61.5t31 125.5v244h94v-243q0 -110 -52 -176.5t-166 -80.5v-194z" />
    <glyph glyph-name="uni03A9" unicode="&#x3a9;" horiz-adv-x="643" 
d="M191 150q-39 16 -69 42t-51 59.5t-32 73t-11 81.5q0 69 23 123.5t63 92.5t93.5 58t114.5 20q62 0 116 -20.5t93.5 -58.5t62 -92.5t22.5 -122.5q0 -42 -11.5 -81.5t-33.5 -73t-52.5 -59.5t-68.5 -42v-90h143v-62h-235v194q78 25 121 77.5t43 136.5q0 51 -14.5 92.5
t-41 70.5t-63.5 45t-81 16q-42 0 -79 -15.5t-64.5 -44.5t-43 -70.5t-15.5 -93.5q0 -43 12 -78.5t33.5 -62.5t51 -45t63.5 -26v-196h-231v62h142v90z" />
    <glyph glyph-name="alpha" unicode="&#x3b1;" horiz-adv-x="585" 
d="M137 250q1 -84 30 -135t91 -51q36 0 60 13.5t38.5 37.5t21 58.5t6.5 76.5q0 94 -34 139t-92 46q-32 1 -55.5 -12.5t-38.5 -39t-21.5 -60t-5.5 -73.5zM531 498q-27 -42 -44 -105.5t-17 -144.5q0 -35 6.5 -63.5t17.5 -51t25 -38t28 -25.5l-58 -66q-20 13 -39 30t-36 36
q-31 -38 -67 -56.5t-97 -18.5q-46 0 -84.5 19.5t-66.5 53.5t-44 80.5t-16 101.5q0 58 16.5 105.5t45.5 80.5t67 51t82 18q53 0 88 -18t64 -44q7 14 14 30t15 25h100z" />
    <glyph glyph-name="beta" unicode="&#x3b2;" horiz-adv-x="507" 
d="M160 -195h-95v737q0 36 10 68t31.5 55.5t55 37t80.5 13.5q88 0 139 -44.5t51 -119.5q0 -23 -7.5 -44.5t-20 -40.5t-28.5 -35t-33 -27q28 -13 53.5 -33.5t45 -46.5t31 -56.5t11.5 -63.5q0 -48 -17 -86.5t-47.5 -65.5t-72.5 -41.5t-91 -14.5q-22 0 -46 4t-50 14v-210z
M208 369v61h14q23 0 44 8.5t36.5 24.5t25 38.5t9.5 50.5q0 46 -25.5 72.5t-69.5 26.5t-63 -31t-19 -76v-456q52 -22 98 -22q32 0 56.5 10.5t41.5 29.5t25.5 44.5t8.5 54.5q0 39 -13.5 69.5t-37 51.5t-54 32t-63.5 11h-14z" />
    <glyph glyph-name="gamma" unicode="&#x3b3;" horiz-adv-x="536" 
d="M309 93q17 -63 27 -111t10 -76q0 -18 -7.5 -35t-23 -30.5t-38.5 -21.5t-53 -8q-31 0 -53 8.5t-35.5 22.5t-20 32t-6.5 36q0 41 22.5 78t46.5 70q10 12 18 23.5t15 23.5l-64 303q-6 21 -15.5 34t-23.5 13t-24 -8.5t-18 -16.5l-64 37q22 31 52 44.5t60 13.5q19 0 37.5 -4
t34.5 -14t28 -25.5t17 -38.5l47 -246q43 74 90.5 157.5t90.5 156.5l74 -38zM261 -92q1 15 -5 44.5t-14 62.5q-20 -32 -33.5 -58.5t-13.5 -48.5q0 -15 6.5 -25t20.5 -10t25.5 8.5t13.5 26.5z" />
    <glyph glyph-name="delta" unicode="&#x3b4;" horiz-adv-x="602" 
d="M36 247q0 78 33.5 138.5t100.5 92.5q-24 11 -41.5 25.5t-28.5 29.5t-16.5 29t-5.5 24q0 61 46.5 96.5t148.5 35.5q54 0 99 -17.5t80 -43.5l-53 -56q-66 51 -130 51q-44 0 -67 -13.5t-23 -43.5q0 -11 6.5 -24t20 -25t33.5 -23t48 -18h17q66 0 115 -20t82 -55t49 -82
t16 -101t-16 -101t-48 -81.5t-81.5 -54.5t-115.5 -20q-67 0 -117.5 20t-84 54.5t-50.5 81.5t-17 101zM129 247q0 -84 44 -134t127 -50q85 0 128.5 50t43.5 134q0 83 -43.5 133t-128.5 50q-83 0 -127 -50.5t-44 -132.5z" />
    <glyph glyph-name="epsilon" unicode="&#x3b5;" horiz-adv-x="478" 
d="M297 230h-93q-41 0 -60 -28t-17 -74q3 -41 35.5 -59t84.5 -18q45 0 78.5 16.5t58.5 45.5l61 -46q-40 -43 -87 -61t-111 -18q-101 0 -157.5 37.5t-56.5 101.5q0 52 25.5 86t57.5 51q-34 19 -53.5 48.5t-17.5 58.5q4 66 50 103t140 37q66 0 117.5 -24t81.5 -62l-64 -39
q-21 25 -57 42.5t-78 17.5q-51 0 -73.5 -19.5t-22.5 -55.5q0 -32 16 -55.5t49 -23.5h93v-62z" />
    <glyph glyph-name="zeta" unicode="&#x3b6;" horiz-adv-x="566" 
d="M55 698q48 -11 96 -15.5t99 -4.5q42 0 82.5 3.5t81.5 11.5v-64q-28 -5 -60.5 -8.5t-60.5 -5.5q-38 -11 -67.5 -36.5t-50 -62.5t-31 -82.5t-10.5 -95.5q0 -142 57.5 -215t180.5 -73q81 0 125 -35t41 -88q-3 -66 -62 -94.5t-180 -29.5v61q82 3 115.5 23t33.5 49
q0 21 -16.5 37.5t-56.5 16.5q-76 0 -137.5 20.5t-105 63t-67 107.5t-23.5 155q0 78 28.5 151.5t87.5 130.5q-42 1 -65 7t-35 9v64z" />
    <glyph glyph-name="eta" unicode="&#x3b7;" horiz-adv-x="589" 
d="M419 -207v532q0 27 -9.5 47t-25.5 33.5t-36.5 20.5t-42.5 7q-77 0 -134 -63v-373h-94v500h93v-48q45 32 80.5 45t71.5 12q31 -1 65 -10t62 -28t46 -50t18 -75v-550h-94z" />
    <glyph glyph-name="theta" unicode="&#x3b8;" horiz-adv-x="623" 
d="M33 350q0 82 19.5 149t55.5 114t87.5 72.5t115.5 25.5q68 0 120.5 -25.5t88 -72.5t54 -113.5t18.5 -149.5q0 -80 -18.5 -146.5t-54 -114.5t-88 -74.5t-120.5 -26.5q-64 0 -115.5 26.5t-87.5 74.5t-55.5 114.5t-19.5 146.5zM311 641q-43 0 -76 -18.5t-56 -52.5
t-35.5 -81.5t-14.5 -104.5h365q-3 57 -16.5 104.5t-36 81.5t-55.5 52.5t-75 18.5zM311 58q43 0 75.5 20t55.5 55t36 82.5t16 104.5h-365q3 -57 16.5 -105t36 -83t55 -54.5t74.5 -19.5z" />
    <glyph glyph-name="iota" unicode="&#x3b9;" horiz-adv-x="248" 
d="M78 -2v499h94v-499h-94z" />
    <glyph glyph-name="kappa" unicode="&#x3ba;" horiz-adv-x="521" 
d="M77 498h96v-225q24 26 50 60t40 62q11 24 22.5 45t26 36.5t33 25t43.5 9.5q20 0 47 -9.5t48 -23.5l-37 -58q-21 17 -52 17q-18 0 -30 -17.5t-27 -45.5q-19 -35 -37 -58.5t-42 -49.5l257 -268h-107l-235 246v-246h-95z" />
    <glyph glyph-name="lambda" unicode="&#x3bb;" horiz-adv-x="603" 
d="M69 711q39 -4 70.5 -24.5t57.5 -51.5t46 -70.5t36 -80.5h-1l147 -387q7 -23 22 -35t29 -12q23 0 38.5 9t27.5 25l48 -47q-19 -22 -47 -39t-78 -17q-46 0 -79.5 24t-49.5 68l-105 283l-113 -358h-94l156 483q-23 72 -57.5 113t-79.5 59z" />
    <glyph glyph-name="uni03BC" unicode="&#x3bc;" horiz-adv-x="572" 
d="M170 -207h-93v704h94v-338q0 -29 10 -48t26 -29.5t34.5 -14.5t36.5 -4q35 0 73.5 16t67.5 53v365h94v-499h-94v53q-38 -30 -76.5 -45.5t-74.5 -15.5q-26 0 -51.5 4t-46.5 14v-215z" />
    <glyph glyph-name="nu" unicode="&#x3bd;" horiz-adv-x="487" 
d="M448 497q5 -20 8 -48.5t3 -51.5q0 -40 -12 -88t-35 -99.5t-55.5 -105.5t-74.5 -106h-71l-207 499h98l154 -413q48 75 80.5 149t32.5 153q0 25 -3.5 56.5t-8.5 54.5h91z" />
    <glyph glyph-name="xi" unicode="&#x3be;" horiz-adv-x="600" 
d="M307 -136q34 0 63.5 4.5t50.5 14t33 26t12 40.5q0 23 -14 38t-56 15h-56q-75 0 -127.5 21t-86.5 54.5t-50 75.5t-18 84q-1 33 7 64t24 58t38 49t49 36q-28 23 -42.5 54t-14.5 59q0 20 6.5 43t24.5 45q-26 3 -46.5 6t-34.5 6l1 61q43 -6 94 -11.5t101 -5.5q18 0 39.5 1.5
t44 3.5t44 5t39.5 6l1 -59q-33 -5 -75.5 -11.5t-80.5 -6.5q-16 0 -29 -8t-22 -20t-13.5 -26.5t-4.5 -26.5q0 -11 3 -25t11 -27t22 -22t36 -9h124v-62h-72q-39 0 -72 -13.5t-57 -37t-37.5 -55t-12.5 -66.5q1 -36 13.5 -68t36.5 -56t58.5 -38t78.5 -14h54q87 0 127 -31t40 -92
q0 -28 -12.5 -53t-42.5 -44.5t-78.5 -31.5t-120.5 -13v63z" />
    <glyph glyph-name="omicron" unicode="&#x3bf;" horiz-adv-x="602" 
d="M36 247q0 55 16.5 102t50 81.5t84 54.5t117.5 20q66 0 115 -20t82 -55t49 -82t16 -101t-16 -101.5t-48 -82.5t-81.5 -55t-115.5 -20q-67 0 -117.5 20t-84 55t-50.5 82.5t-17 101.5zM129 247q0 -84 44 -134.5t127 -50.5q85 0 128.5 50.5t43.5 134.5q0 83 -43.5 133
t-128.5 50q-83 0 -127 -50.5t-44 -132.5z" />
    <glyph glyph-name="pi" unicode="&#x3c0;" horiz-adv-x="612" 
d="M586 432h-127v-311q0 -63 58 -63q17 0 36.5 3.5t33.5 10.5v-62q-16 -11 -35.5 -15.5t-42.5 -4.5q-75 0 -110.5 33.5t-35.5 92.5v316h-141v-310q0 -54 -33.5 -94t-79.5 -60l-51 58q68 28 68 95v311h-101v65h561v-65z" />
    <glyph glyph-name="rho" unicode="&#x3c1;" horiz-adv-x="602" 
d="M36 247q0 55 16.5 102t50 81.5t84 54.5t117.5 20q66 0 115 -20t82 -55t49 -82t16 -101t-16 -101.5t-48 -82.5t-81.5 -55t-115.5 -20q-57 0 -101 14t-76 37v-238h-92v446zM129 247q0 -84 44 -134.5t127 -50.5q85 0 128.5 50.5t43.5 134.5q0 83 -43.5 133t-128.5 50
q-83 0 -127 -50.5t-44 -132.5z" />
    <glyph glyph-name="sigma" unicode="&#x3c3;" horiz-adv-x="617" 
d="M36 247q0 55 16.5 102t50 81.5t84 54.5t117.5 20h299v-70h-108q35 -35 53 -83t18 -105q0 -54 -16 -101.5t-48 -82.5t-81.5 -55t-115.5 -20q-67 0 -117.5 20t-84 55t-50.5 82.5t-17 101.5zM129 247q0 -84 44 -134.5t127 -50.5q85 0 128.5 50.5t43.5 134.5q0 83 -43.5 133
t-128.5 50q-83 0 -127 -50.5t-44 -132.5z" />
    <glyph glyph-name="tau" unicode="&#x3c4;" horiz-adv-x="437" 
d="M18 482h396v-68h-153v-316q0 -14 9.5 -22t26.5 -8q26 0 59 1t63 6v-61q-27 -11 -66.5 -15t-75.5 -4h-15.5t-15.5 1q-33 4 -56.5 23.5t-23.5 55.5v339h-148v68z" />
    <glyph glyph-name="upsilon" unicode="&#x3c5;" horiz-adv-x="585" 
d="M77 497h99v-324q0 -56 27 -85.5t84 -29.5q25 0 48.5 14.5t40.5 44t27.5 74.5t10.5 106q0 45 -14 88.5t-39 72.5q20 11 37 23t34 23q34 -35 57.5 -90t23.5 -117q0 -96 -23 -156t-58 -93.5t-76 -45.5t-78 -12q-38 0 -74.5 11t-64.5 33.5t-45 57t-17 81.5v324z" />
    <glyph glyph-name="phi" unicode="&#x3c6;" horiz-adv-x="617" 
d="M357 -207h-96v204q-59 3 -104 26t-76 60t-46.5 82.5t-15.5 93.5q0 45 10 83t27 69.5t40 56.5t50 44l50 -63q-43 -32 -63 -78t-19 -112q0 -38 10 -71.5t29 -59t46.5 -42t61.5 -20.5v369q0 18 8 33.5t21.5 26.5t31 17.5t36.5 6.5q56 0 101.5 -19.5t77.5 -54.5t49 -83.5
t17 -106.5q0 -53 -18 -99t-50.5 -80.5t-77.5 -55.5t-100 -24v-203zM357 66q35 3 62.5 19t46.5 41.5t29 58.5t10 70q0 29 -6 63.5t-20 64t-37 49.5t-58 20q-9 0 -18 -3.5t-9 -25.5v-357z" />
    <glyph glyph-name="chi" unicode="&#x3c7;" horiz-adv-x="690" 
d="M39 -193l251 356l-235 338h110l184 -279l177 279h108l-230 -338q61 -89 124.5 -177t124.5 -179h-108l-196 292l-203 -292h-107z" />
    <glyph glyph-name="psi" unicode="&#x3c8;" horiz-adv-x="686" 
d="M396 -207h-91v184q-119 11 -173.5 77.5t-54.5 181.5v261h94v-261q0 -85 31.5 -131t102.5 -60v452h91v-450q124 35 124 186v264h94v-262q0 -110 -52 -176.5t-166 -79.5v-186z" />
    <glyph glyph-name="omega" unicode="&#x3c9;" horiz-adv-x="669" 
d="M223 444q-28 -4 -47 -25.5t-31 -53t-17.5 -68.5t-5.5 -73q0 -27 4 -56t14.5 -53.5t29 -40.5t47.5 -16q24 0 38.5 11t22 29t10 40.5t2.5 44.5v112h95v-114q0 -23 2.5 -45t10 -39.5t21 -28t36.5 -10.5q29 0 48 16t30 40t15.5 53.5t4.5 56.5q0 30 -4.5 66t-16.5 68t-32 56
t-50 30v62q53 -2 89.5 -28.5t59.5 -67t33 -90t10 -96.5q0 -45 -12 -87.5t-35 -75.5t-58.5 -53t-81.5 -20q-73 0 -118 51q-41 -51 -120 -51q-45 0 -79.5 20t-58 53t-35 75.5t-11.5 87.5q0 49 10 99t32.5 90t59 66t88.5 28v-63z" />
    <glyph glyph-name="afii10023" unicode="&#x401;" horiz-adv-x="521" 
d="M483 -3h-413v695h393v-70h-299v-234h264v-69h-264v-252h319v-70zM118 745v98h99v-98h-99zM312 745v98h101v-98h-101z" />
    <glyph glyph-name="afii10017" unicode="&#x410;" horiz-adv-x="684" 
d="M493 152h-302l-64 -155h-94l299 695h18l300 -695h-93zM337 512l-120 -293h248l-119 293h-9z" />
    <glyph glyph-name="afii10018" unicode="&#x411;" horiz-adv-x="572" 
d="M77 692h405v-69h-310v-236h101q76 0 127.5 -17.5t82.5 -45t44 -62.5t13 -70q0 -47 -20.5 -83.5t-55 -61.5t-80.5 -37.5t-96 -12.5h-211v695zM172 64h115q39 0 68.5 10t49.5 28t30.5 41.5t10.5 50.5q0 56 -40.5 91.5t-118.5 35.5h-115v-257z" />
    <glyph glyph-name="afii10019" unicode="&#x412;" horiz-adv-x="605" 
d="M70 -3v695h227q48 0 87.5 -11.5t68 -34.5t44 -56.5t15.5 -77.5q0 -41 -29 -83t-75 -69q35 -9 64 -25t49.5 -38t31.5 -48.5t11 -56.5q0 -47 -17.5 -83.5t-49 -61.5t-74 -37.5t-92.5 -12.5h-261zM164 66h165q38 0 65.5 10t45.5 27t26.5 40t8.5 49q0 53 -43 89t-126 36h-142
v-251zM164 622v-237h128q31 0 55.5 11t41 29t25 40.5t8.5 45.5q0 22 -8.5 42t-25 35.5t-40 24.5t-54.5 9h-130z" />
    <glyph glyph-name="afii10020" unicode="&#x413;" horiz-adv-x="505" 
d="M490 631h-313v-633h-93v706h406v-73z" />
    <glyph glyph-name="afii10021" unicode="&#x414;" horiz-adv-x="658" 
d="M620 -127h-95v137h-407v-137h-95v201h41q40 0 67 30q18 17 21 46t3 61v481h408v-618h57v-201zM468 627h-218v-431q0 -32 -6.5 -62.5t-32.5 -59.5h257v553z" />
    <glyph glyph-name="afii10022" unicode="&#x415;" horiz-adv-x="532" 
d="M483 -3h-413v695h393v-70h-299v-234h264v-69h-264v-252h319v-70z" />
    <glyph glyph-name="afii10024" unicode="&#x416;" horiz-adv-x="961" 
d="M433 692h94v-337l259 337h101l-253 -336l296 -359h-113l-290 353v-353h-94v353l-288 -353h-114l297 359l-254 336h102l257 -337v337z" />
    <glyph glyph-name="afii10025" unicode="&#x417;" horiz-adv-x="507" 
d="M32 612q35 44 87.5 68.5t116.5 24.5q49 0 91 -13.5t72.5 -37.5t47.5 -57.5t17 -73.5q0 -32 -11.5 -58.5t-30.5 -46.5t-43 -33.5t-48 -20.5q31 -11 57.5 -28.5t46.5 -41t31.5 -52.5t11.5 -61q0 -42 -18.5 -78t-52.5 -62.5t-82.5 -41.5t-109.5 -15q-52 0 -105.5 15.5
t-91.5 45.5l38 61q36 -24 76.5 -37.5t81.5 -13.5q81 0 128 34.5t47 95.5q0 65 -51.5 102t-146.5 37h-63v66h63q88 0 135 36t47 93q0 24 -8 45t-25.5 36.5t-44.5 25t-64 9.5q-34 0 -71 -16.5t-66 -48.5z" />
    <glyph glyph-name="afii10026" unicode="&#x418;" horiz-adv-x="770" 
d="M699 692v-696h-92v506l-523 -506h-14v696h95v-506l523 506h11z" />
    <glyph glyph-name="afii10027" unicode="&#x419;" horiz-adv-x="770" 
d="M526 871q0 -30 -13 -53.5t-34.5 -39.5t-49 -24t-56.5 -8q-63 0 -101 33t-45 91h77q6 -32 24 -48.5t45 -16.5t48.5 16.5t28.5 49.5h76zM699 692v-696h-92v506l-523 -506h-14v696h95v-506l523 506h11z" />
    <glyph glyph-name="afii10028" unicode="&#x41a;" horiz-adv-x="648" 
d="M165 355l287 337h103l-283 -336l325 -359h-112l-320 353v-353h-95v695h95v-337z" />
    <glyph glyph-name="afii10029" unicode="&#x41b;" horiz-adv-x="708" 
d="M159 704h466v-706h-94v633h-279v-362q0 -50 -14 -93t-46 -81q-29 -35 -68 -59t-99 -41v75q40 16 66 38t41 48.5t21 55.5t6 59v433z" />
    <glyph glyph-name="afii10030" unicode="&#x41c;" horiz-adv-x="883" 
d="M813 692v-695h-93v482l-277 -305h-5l-275 307v-484h-93v695h7l364 -402l365 402h7z" />
    <glyph glyph-name="afii10031" unicode="&#x41d;" horiz-adv-x="684" 
d="M612 692v-695h-93v321h-354v-321h-95v695h95v-305h354v305h93z" />
    <glyph glyph-name="afii10032" unicode="&#x41e;" horiz-adv-x="845" 
d="M50 343q0 78 26.5 145t75 116.5t117 78t151.5 28.5q87 0 156.5 -29t118 -79t74.5 -117t26 -143q0 -75 -26.5 -142t-75.5 -117.5t-118.5 -79.5t-154.5 -29q-83 0 -151.5 29t-117 79t-75 117t-26.5 143zM146 343q0 -60 18.5 -114t54 -95.5t86 -66t115.5 -24.5
q69 0 121 25.5t87 67.5t53 96t18 111q0 61 -19 115.5t-55 95t-87.5 64t-117.5 23.5q-63 0 -113.5 -23.5t-86.5 -64t-55 -95t-19 -115.5z" />
    <glyph glyph-name="afii10033" unicode="&#x41f;" horiz-adv-x="710" 
d="M627 704v-706h-96v633h-353v-633h-94v706h543z" />
    <glyph glyph-name="afii10034" unicode="&#x420;" horiz-adv-x="576" 
d="M70 -3v695h212q56 0 101.5 -16t77 -45.5t48.5 -69.5t17 -88q0 -45 -17 -84.5t-49 -68.5t-77.5 -45.5t-102.5 -16.5h-119v-261h-91zM161 327h118q37 0 66 11t49 30.5t31 46.5t11 58q0 66 -40.5 107.5t-113.5 41.5h-121v-295z" />
    <glyph glyph-name="afii10035" unicode="&#x421;" horiz-adv-x="736" 
d="M431 -20q-87 0 -157.5 31t-120 82.5t-76.5 119t-27 139.5q0 73 26.5 138t76 114t120 78t158.5 29q81 0 142 -18.5t112 -54.5l-46 -62q-25 16 -46.5 28t-45.5 19.5t-51.5 11t-64.5 3.5q-61 0 -113 -21t-89.5 -59t-59 -90.5t-21.5 -115.5t21.5 -117.5t59 -95.5t89.5 -64.5
t113 -23.5q72 0 130 20t93 45l38 -60q-48 -36 -115 -56t-146 -20z" />
    <glyph glyph-name="afii10036" unicode="&#x422;" horiz-adv-x="565" 
d="M236 -3v625h-197v70h487v-70h-197v-625h-93z" />
    <glyph glyph-name="afii10037" unicode="&#x423;" horiz-adv-x="571" 
d="M33 692h101l145 -308l159 308h100l-368 -695h-99l160 295z" />
    <glyph glyph-name="afii10038" unicode="&#x424;" horiz-adv-x="681" 
d="M294 -3v151q-52 4 -99 19.5t-82 41.5t-56 62t-21 82t21 82.5t56 62t82 41t99 20.5v133h95v-133q52 -5 99 -20.5t82.5 -41t56.5 -62t21 -82.5q0 -48 -21 -84.5t-56.5 -62t-82.5 -40.5t-99 -20v-149h-95zM553 353q0 30 -13 52.5t-35.5 38.5t-52.5 25.5t-63 13.5v-262
q33 4 63 13.5t52.5 26t35.5 39.5t13 53zM129 353q0 -30 13 -53t35.5 -39.5t52.5 -26t64 -13.5v262q-34 -4 -64 -13.5t-52.5 -25.5t-35.5 -38.5t-13 -52.5z" />
    <glyph glyph-name="afii10039" unicode="&#x425;" horiz-adv-x="690" 
d="M39 -3l251 358l-235 337h110l184 -278l177 278h108l-230 -337q61 -90 124.5 -179.5t124.5 -178.5h-108l-196 294l-203 -294h-107z" />
    <glyph glyph-name="afii10040" unicode="&#x426;" horiz-adv-x="643" 
d="M525 692v-622h70v-208h-96v135h-422v695h95v-622h259v622h94z" />
    <glyph glyph-name="afii10041" unicode="&#x427;" horiz-adv-x="572" 
d="M402 -3v265q-33 -24 -74 -39.5t-74 -15.5q-39 0 -71.5 11.5t-56 33t-36.5 53t-13 71.5v316h93v-314q0 -27 9 -46t24 -31t34 -18t40 -6q31 0 65 16.5t60 44.5v354h94v-695h-94z" />
    <glyph glyph-name="afii10042" unicode="&#x428;" horiz-adv-x="760" 
d="M84 -3v695h94v-622h154v622h95v-622h156v622h95v-695h-594z" />
    <glyph glyph-name="afii10043" unicode="&#x429;" horiz-adv-x="795" 
d="M678 692v-622h70v-208h-96v135h-575v695h95v-622h160v622h95v-622h156v622h95z" />
    <glyph glyph-name="afii10044" unicode="&#x42a;" horiz-adv-x="708" 
d="M210 -3v626h-197v69h292v-305h99q76 0 127.5 -17.5t82.5 -45t44.5 -62.5t13.5 -70q0 -47 -20.5 -83.5t-55 -61.5t-80.5 -37.5t-96 -12.5h-210zM305 64h114q39 0 68.5 10t50 28t31 41.5t10.5 50.5q0 56 -41 91.5t-119 35.5h-114v-257z" />
    <glyph glyph-name="afii10045" unicode="&#x42b;" horiz-adv-x="830" 
d="M179 691v-302h98q76 0 128 -17.5t83.5 -45.5t45 -63.5t13.5 -70.5q0 -47 -20.5 -83.5t-55.5 -61.5t-81 -37.5t-96 -12.5h-210v694h95zM179 67h113q78 0 119.5 36.5t41.5 90.5q0 56 -41.5 91.5t-119.5 35.5h-113v-254zM653 -3v695h95v-695h-95z" />
    <glyph glyph-name="afii10046" unicode="&#x42c;" horiz-adv-x="583" 
d="M179 692v-303h98q76 0 128 -17.5t83.5 -45.5t45 -63.5t13.5 -70.5q0 -47 -20.5 -83.5t-55.5 -61.5t-81 -37.5t-96 -12.5h-210v695h95zM179 66h113q78 0 119.5 37t41.5 91q0 56 -41.5 91.5t-119.5 35.5h-113v-255z" />
    <glyph glyph-name="afii10047" unicode="&#x42d;" horiz-adv-x="703" 
d="M293 -9q-81 0 -151 18.5t-118 57.5l41 64q37 -27 96.5 -44.5t134.5 -17.5q54 0 103.5 19.5t88 53.5t64 81t31.5 101h-509v69h506q-8 51 -32.5 94.5t-62.5 75t-87 49.5t-105 18q-57 0 -113 -14.5t-102 -45.5l-45 61q53 38 115.5 56t144.5 18q84 0 154.5 -28.5t122 -76.5
t80.5 -112t29 -135q0 -73 -29 -138.5t-80.5 -115t-122 -79t-154.5 -29.5z" />
    <glyph glyph-name="afii10048" unicode="&#x42e;" horiz-adv-x="826" 
d="M806 350q0 -88 -19 -156t-53 -114.5t-81.5 -70.5t-104.5 -24q-56 0 -102.5 22.5t-80 65.5t-53 106t-22.5 145h-113v-326h-93v706h93v-311h113q5 78 25.5 139t54 102.5t78.5 63.5t100 22q57 0 104.5 -24.5t81.5 -72t53 -116.5t19 -157zM716 350q0 65 -11.5 120.5
t-33.5 95.5t-53 62.5t-70 22.5t-70 -22.5t-53 -62.5t-34 -95.5t-12 -120.5q0 -64 12 -118t34 -93t53 -61t70 -22t70 22t53 61t33.5 93t11.5 118z" />
    <glyph glyph-name="afii10049" unicode="&#x42f;" horiz-adv-x="623" 
d="M453 622h-121q-74 0 -114 -33t-40 -93t41.5 -95.5t117.5 -35.5h116v257zM84 496q0 43 16 79.5t47 62t77.5 40t106.5 14.5h217v-695h-95v299h-116l-217 -299h-98l221 309q-78 23 -118.5 73.5t-40.5 116.5z" />
    <glyph glyph-name="afii10065" unicode="&#x430;" horiz-adv-x="528" 
d="M389 -4v44q-21 -15 -45.5 -25t-48 -16t-45.5 -8t-39 -1q-35 1 -66.5 13t-56.5 33t-39.5 49.5t-14.5 62.5q0 32 12.5 58.5t34 47.5t50 36t59.5 23q25 6 67.5 8t82.5 2h39v33q0 35 -28 58t-85 23q-15 0 -34.5 -3.5t-39.5 -9t-39 -12.5t-35 -15l-32 56q16 10 37 20t44.5 18
t49 13.5t49.5 6.5q41 0 78 -8.5t65 -27t44.5 -47.5t16.5 -68v-364h-81zM379 255h-24h-39.5t-40 -1t-36.5 -2t-28 -4q-35 -12 -60 -36t-25 -62q0 -20 8.5 -36.5t23 -28.5t32.5 -19t38 -7q11 0 32 1.5t44 7t43.5 15t31.5 24.5v148z" />
    <glyph glyph-name="afii10066" unicode="&#x431;" horiz-adv-x="602" 
d="M36 243q0 9 0.5 18.5t2.5 18.5q2 115 28 195t68 129.5t96 71.5t111 22h32v-76h-29q-31 0 -61.5 -12t-56 -33t-43 -49t-23.5 -61q30 14 64.5 22.5t78.5 8.5q66 0 115 -19.5t82 -53.5t49 -81t16 -101q0 -55 -16 -101.5t-48 -80.5t-81.5 -53.5t-115.5 -19.5
q-67 0 -117.5 19.5t-84 53.5t-50.5 80.5t-17 101.5zM129 243q0 -83 44 -132t127 -49q85 0 128.5 49t43.5 132q0 85 -43.5 133t-128.5 48q-83 0 -127 -49t-44 -132z" />
    <glyph glyph-name="afii10067" unicode="&#x432;" horiz-adv-x="521" 
d="M84 -3v509h168q91 0 139.5 -36t48.5 -99q0 -29 -18.5 -55.5t-53.5 -45.5q51 -15 84 -46.5t33 -77.5q0 -72 -55 -110.5t-156 -38.5h-190zM179 64h94q53 0 86.5 21t33.5 63q0 20 -10 34.5t-26.5 24t-38 14t-45.5 4.5h-94v-161zM179 292h67q19 0 37.5 4t33 13.5t23.5 24
t9 35.5q0 26 -24 48t-75 22h-71v-147z" />
    <glyph glyph-name="afii10068" unicode="&#x433;" horiz-adv-x="444" 
d="M431 424h-254v-427h-93v499h347v-72z" />
    <glyph glyph-name="afii10069" unicode="&#x434;" horiz-adv-x="566" 
d="M519 -127h-93v137h-301v-137h-93v204h37q21 0 36 7t29 21q19 20 24 46t5 59v286h305v-419h51v-204zM374 430h-119v-235q0 -33 -12 -65.5t-39 -52.5h170v353z" />
    <glyph glyph-name="afii10070" unicode="&#x435;" horiz-adv-x="544" 
d="M484 42q-40 -29 -90 -42t-107 -13q-127 0 -189 66t-62 186q0 131 63 198.5t176 67.5q57 0 100.5 -18t73 -50.5t44 -78t14.5 -101.5q0 -23 -5 -46h-374q5 -78 47.5 -114.5t111.5 -36.5q38 0 81 9t78 34zM413 279q-3 74 -35.5 112.5t-103.5 38.5q-63 0 -103.5 -38
t-42.5 -113h285z" />
    <glyph glyph-name="afii10072" unicode="&#x436;" horiz-adv-x="642" 
d="M273 496h95v-225q24 7 36.5 16t20 21.5t12.5 31t13 45.5q11 30 25 61t41 45q13 8 35 12t61 4l-1 -72q-52 -3 -72 -38q-8 -12 -15 -30t-15 -40q-7 -20 -17 -40t-19 -36l167 -254h-88l-141 214q-13 -5 -22.5 -7t-20.5 -3v-204h-95v204q-13 1 -21 2.5t-21 6.5l-138 -213h-91
l164 251q-12 17 -22.5 39.5t-16.5 44.5l-12.5 35t-15.5 34q-10 14 -29 22.5t-42 9.5v72q65 0 90 -14q28 -18 42.5 -47.5t25.5 -58.5l11 -35q10 -29 24 -49.5t52 -30.5v226z" />
    <glyph glyph-name="afii10073" unicode="&#x437;" horiz-adv-x="393" 
d="M68 94q23 -17 51 -24.5t64 -6.5q48 0 76 24t28 59q1 35 -14 58.5t-46 34.5q-18 6 -46 7.5t-48 0.5v63h20.5t22.5 1t20.5 2t14.5 3q31 10 43.5 30.5t12.5 47.5q0 39 -24.5 54t-63.5 15q-23 0 -47.5 -6.5t-44.5 -18.5l-25 60q24 14 55.5 23.5t61.5 9.5q42 0 75.5 -10
t56.5 -28t34.5 -41.5t11.5 -50.5q-1 -38 -20.5 -70t-58.5 -49q53 -17 76 -54t23 -80q0 -29 -12 -56.5t-36 -49t-60 -35t-83 -13.5q-42 -1 -81.5 10t-71.5 33z" />
    <glyph glyph-name="afii10074" unicode="&#x438;" horiz-adv-x="614" 
d="M77 496h92v-375l274 375h96v-500h-93v362l-269 -362h-100v500z" />
    <glyph glyph-name="afii10075" unicode="&#x439;" horiz-adv-x="614" 
d="M453 688q-1 -31 -14 -54.5t-34 -40t-48.5 -25t-57.5 -8.5q-62 0 -100 33.5t-47 92.5h77q17 -64 70 -64q28 0 49.5 16.5t28.5 49.5h76zM77 496h92v-375l274 375h96v-500h-93v362l-269 -362h-100v500z" />
    <glyph glyph-name="afii10076" unicode="&#x43a;" horiz-adv-x="526" 
d="M170 496v-229l226 229h107l-229 -234l247 -265h-115l-236 251v-251h-93v499h93z" />
    <glyph glyph-name="afii10077" unicode="&#x43b;" horiz-adv-x="572" 
d="M25 67q39 10 63 23t37.5 31t18.5 41t5 52v282h354v-499h-94v427h-167v-211q0 -49 -12 -84.5t-41 -62.5q-18 -16 -34.5 -26.5t-35 -18.5t-41.5 -14.5t-53 -12.5v73z" />
    <glyph glyph-name="afii10078" unicode="&#x43c;" horiz-adv-x="674" 
d="M84 496h77l175 -237l179 237h77v-499h-92v356l-152 -198h-26l-149 197v-355h-89v499z" />
    <glyph glyph-name="afii10079" unicode="&#x43d;" horiz-adv-x="612" 
d="M538 496v-499h-93v223h-275v-223h-93v499h93v-204h275v204h93z" />
    <glyph glyph-name="afii10080" unicode="&#x43e;" horiz-adv-x="602" 
d="M36 245q0 55 16.5 102.5t50 82.5t84 55t117.5 20q66 0 115 -20t82 -55.5t49 -83t16 -101.5q0 -55 -16 -102t-48 -81.5t-81.5 -54t-115.5 -19.5q-67 0 -117.5 19.5t-84 54t-50.5 81.5t-17 102zM129 245q0 -82 44 -132.5t127 -50.5q85 0 128.5 50.5t43.5 132.5
q0 84 -43.5 134.5t-128.5 50.5q-83 0 -127 -50.5t-44 -134.5z" />
    <glyph glyph-name="afii10081" unicode="&#x43f;" horiz-adv-x="612" 
d="M538 496v-499h-93v427h-275v-427h-93v499h461z" />
    <glyph glyph-name="afii10082" unicode="&#x440;" horiz-adv-x="509" 
d="M68 -207v703h197q55 0 99 -18.5t74 -51.5t46 -79.5t16 -101.5q0 -53 -16 -98.5t-47 -78.5t-75 -52t-100 -19h-101v-204h-93zM161 70h101q69 0 107.5 46t38.5 129q0 86 -37.5 132t-107.5 46h-102v-353z" />
    <glyph glyph-name="afii10083" unicode="&#x441;" horiz-adv-x="516" 
d="M497 34q-17 -13 -38.5 -22t-45 -14.5t-47 -8t-42.5 -2.5q-63 0 -112.5 19t-84.5 53.5t-53.5 82t-18.5 105.5q0 57 19 104.5t53.5 81.5t83 53t107.5 19q42 0 87.5 -9t85.5 -38l-39 -61q-28 17 -56.5 25t-77.5 8q-41 0 -72.5 -14t-53 -38.5t-32.5 -58t-11 -71.5
q0 -86 43.5 -137t129.5 -51q51 0 84 10t58 27z" />
    <glyph glyph-name="afii10084" unicode="&#x442;" horiz-adv-x="431" 
d="M14 435v62h399v-62h-152v-439h-94v439h-153z" />
    <glyph glyph-name="afii10085" unicode="&#x443;" horiz-adv-x="499" 
d="M-2 496h99l146 -313l158 313h99l-362 -697h-99l156 293z" />
    <glyph glyph-name="afii10086" unicode="&#x444;" horiz-adv-x="856" 
d="M476 -207h-96v263q-23 -26 -57.5 -45t-68.5 -19q-51 0 -92 19t-70 53.5t-44.5 82t-15.5 104.5q0 54 15.5 100t44.5 80.5t69.5 54t91.5 19.5q39 0 71 -18.5t56 -47.5v262h96v-262q25 29 57.5 47.5t69.5 18.5q51 0 92 -19.5t70 -54t44.5 -80.5t15.5 -100
q0 -57 -15.5 -104.5t-44.5 -82t-70 -53.5t-92 -19q-35 0 -68 18t-59 47v-264zM125 253q0 -38 7.5 -73t23 -61.5t39.5 -42.5t57 -16q63 0 97.5 52t34.5 138q0 40 -9 73.5t-26 58.5t-41.5 39t-55.5 14q-33 0 -56.5 -14.5t-39.5 -39t-23.5 -58t-7.5 -70.5zM730 253
q0 37 -7.5 70.5t-23 58t-39 39t-55.5 14.5q-31 0 -55.5 -14t-41.5 -39t-26 -58.5t-9 -73.5q0 -86 34.5 -138t97.5 -52q33 0 57 16t39 42.5t22 61.5t7 73z" />
    <glyph glyph-name="afii10087" unicode="&#x445;" horiz-adv-x="500" 
d="M-7 -4l202 253l-187 247h107l133 -185l131 185h106l-181 -248l186 -252h-106l-136 188l-144 -188h-111z" />
    <glyph glyph-name="afii10088" unicode="&#x446;" horiz-adv-x="618" 
d="M475 496v-426h69v-197h-96v124h-371v499h95v-426h207v426h96z" />
    <glyph glyph-name="afii10089" unicode="&#x447;" horiz-adv-x="552" 
d="M384 -3v172q-35 -25 -71 -40t-70 -15q-76 0 -121 43.5t-45 123.5v215h93v-213q0 -52 27.5 -76t69.5 -24q30 0 60.5 16.5t56.5 44.5v252h94v-499h-94z" />
    <glyph glyph-name="afii10090" unicode="&#x448;" horiz-adv-x="698" 
d="M84 -3v499h89v-426h132v426h89v-426h132v426h90v-499h-532z" />
    <glyph glyph-name="afii10091" unicode="&#x449;" horiz-adv-x="734" 
d="M616 496v-416h70v-207h-91v137h-518v486h92v-416h136v416h89v-416h131v416h91z" />
    <glyph glyph-name="afii10092" unicode="&#x44a;" horiz-adv-x="591" 
d="M169 -3v431h-156v68h248v-184h57q68 0 113.5 -13.5t73 -36t39 -50.5t11.5 -58q0 -80 -59.5 -118.5t-159.5 -38.5h-167zM261 64h71q40 0 65.5 7t40 19t20 29t5.5 37q0 18 -5.5 34.5t-20 29t-40 20t-65.5 7.5h-71v-183z" />
    <glyph glyph-name="afii10093" unicode="&#x44b;" horiz-adv-x="716" 
d="M84 -3v499h92v-183h57q68 0 113 -13.5t71.5 -36t37 -51t10.5 -58.5q0 -81 -57.5 -119t-157.5 -38h-166zM176 64h71q40 0 64.5 7t38 19t18 29t4.5 37q0 18 -6 34.5t-20.5 29t-38.5 20t-60 7.5h-71v-183zM544 -3v499h90v-499h-90z" />
    <glyph glyph-name="afii10094" unicode="&#x44c;" horiz-adv-x="500" 
d="M84 -3v499h92v-183h57q68 0 113 -13.5t71.5 -36t37 -51t10.5 -58.5q0 -81 -57.5 -119t-157.5 -38h-166zM176 64h71q40 0 64.5 7t38 19t18 29t4.5 37q0 18 -6 34.5t-20.5 29t-38.5 20t-60 7.5h-71v-183z" />
    <glyph glyph-name="afii10095" unicode="&#x44d;" horiz-adv-x="529" 
d="M81 97q26 -17 58 -27t83 -10q78 0 121.5 42.5t50.5 117.5h-316v65h315q-11 64 -53 104.5t-113 40.5q-25 0 -44 -2t-35 -6t-29.5 -10.5t-27.5 -14.5l-39 61q41 29 86 38t89 9q59 0 107 -19t82.5 -53t53.5 -81.5t19 -104.5q0 -58 -18.5 -105.5t-53 -82t-84.5 -53.5
t-113 -19q-20 0 -43.5 2.5t-47 8t-45.5 14.5t-39 22z" />
    <glyph glyph-name="afii10096" unicode="&#x44e;" horiz-adv-x="681" 
d="M84 -3v499h88v-216h80q8 105 57.5 163.5t143.5 58.5q100 0 153.5 -66t53.5 -185q0 -123 -49.5 -189.5t-157.5 -66.5q-94 0 -142 56.5t-58 163.5h-81v-218h-88zM342 251q0 -41 6.5 -75t20.5 -59t34.5 -39t49.5 -14q59 0 88.5 51t29.5 136q0 39 -8.5 72.5t-24.5 58
t-37.5 38t-47.5 13.5t-47 -14.5t-35 -39.5t-21.5 -58t-7.5 -70z" />
    <glyph glyph-name="afii10097" unicode="&#x44f;" horiz-adv-x="493" 
d="M340 424h-60q-54 0 -85 -17.5t-31 -59.5t29 -60.5t92 -18.5h55v156zM340 -3v199h-24q-37 0 -67.5 -20t-53.5 -55l-82 -124h-99l100 146q11 19 33.5 38.5t53.5 32.5q-57 14 -92 50t-35 84q0 66 51 107t157 41h149v-499h-91z" />
    <glyph glyph-name="afii10071" unicode="&#x451;" horiz-adv-x="531" 
d="M214 618q0 -20 -13.5 -36t-39.5 -16q-25 0 -40 16t-15 36q0 17 15 33.5t40 16.5q26 0 39.5 -16.5t13.5 -33.5zM432 618q0 -20 -14 -36t-39 -16t-41 16t-16 36q0 17 16 33.5t41 16.5t39 -16.5t14 -33.5zM484 42q-40 -29 -90 -42t-107 -13q-127 0 -189 66t-62 186
q0 131 63 198.5t176 67.5q57 0 100.5 -18t73 -50.5t44 -78t14.5 -101.5q0 -23 -5 -46h-374q5 -78 47.5 -114.5t111.5 -36.5q38 0 81 9t78 34zM413 279q-3 74 -35.5 112.5t-103.5 38.5q-63 0 -103.5 -38t-42.5 -113h285z" />
    <glyph glyph-name="uni2010" unicode="&#x2010;" horiz-adv-x="518" 
d="M453 376l15 -80l-6 -25h-362l-35 3l-15 80l6 25h362z" />
    <glyph glyph-name="endash" unicode="&#x2013;" horiz-adv-x="518" 
d="M453 376l15 -80l-6 -25h-362l-35 3l-15 80l6 25h362z" />
    <glyph glyph-name="emdash" unicode="&#x2014;" 
d="M0 408h910v-110h-910v110z" />
    <glyph glyph-name="uni2015" unicode="&#x2015;" 
d="M0 408h910v-110h-910v110z" />
    <glyph glyph-name="uni2016" unicode="&#x2016;" 
d="M270 799h133v-877h-133v877zM507 799h133v-877h-133v877z" />
    <glyph glyph-name="quoteleft" unicode="&#x2018;" horiz-adv-x="233" 
d="M61 516q-12 60 -10.5 123.5t12.5 116.5l22 13h66q0 -57 4.5 -117.5t27.5 -116.5l-30 -19h-92z" />
    <glyph glyph-name="quoteright" unicode="&#x2019;" horiz-adv-x="233" 
d="M172 769q12 -60 10.5 -123.5t-12.5 -116.5l-22 -13h-66q0 57 -4.5 117.5t-27.5 116.5l30 19h92z" />
    <glyph glyph-name="quotedblleft" unicode="&#x201c;" horiz-adv-x="375" 
d="M61 516q-12 60 -10.5 123.5t12.5 116.5l22 13h60q0 -57 4.5 -117.5t27.5 -116.5l-30 -19h-86zM209 516q-12 60 -10.5 123.5t12.5 116.5l22 13h60q0 -57 4.5 -117.5t27.5 -116.5l-30 -19h-86z" />
    <glyph glyph-name="quotedblright" unicode="&#x201d;" horiz-adv-x="375" 
d="M314 769q12 -60 10.5 -123.5t-12.5 -116.5l-22 -13h-60q0 57 -4.5 117.5t-27.5 116.5l30 19h86zM166 769q12 -60 10.5 -123.5t-12.5 -116.5l-22 -13h-60q0 57 -4.5 117.5t-27.5 116.5l30 19h86z" />
    <glyph glyph-name="dagger" unicode="&#x2020;" horiz-adv-x="565" 
d="M346 676l-5 -35v-129h164l10 -71l-11 -22h-163v-429l-3 -35l-90 -15l-25 6v473h-163l-10 71l11 22h162v164h123z" />
    <glyph glyph-name="daggerdbl" unicode="&#x2021;" horiz-adv-x="565" 
d="M346 676l-5 -35v-129h164l10 -71l-11 -22h-163v-147h164l10 -71l-11 -22h-163v-189l-3 -35l-90 -15l-25 6v233h-163l-10 71l11 22h162v147h-163l-10 71l11 22h162v164h123z" />
    <glyph glyph-name="twodotenleader" unicode="&#x2025;" horiz-adv-x="456" 
d="M50 79h98l30 -19l-21 -133h-85l-22 14v138zM278 79h98l30 -19l-21 -133h-85l-22 14v138z" />
    <glyph glyph-name="ellipsis" unicode="&#x2026;" horiz-adv-x="684" 
d="M50 79h98l30 -19l-21 -133h-85l-22 14v138zM278 79h98l30 -19l-21 -133h-85l-22 14v138zM506 79h98l30 -19l-21 -133h-85l-22 14v138z" />
    <glyph glyph-name="perthousand" unicode="&#x2030;" 
d="M219 -62l-77 -11l-24 16l282 799l77 11l24 -16zM7 539q0 36 8.5 69t25 58t42 40t60.5 15q34 0 59.5 -15t42.5 -40t25.5 -58t8.5 -69t-8.5 -69t-25.5 -58t-42.5 -39.5t-59.5 -14.5q-35 0 -60.5 14.5t-42 39t-25 57.5t-8.5 70zM94 539q0 -39 11.5 -65t37.5 -26t37 26t11 65
q0 38 -11 65t-37 27t-37.5 -27t-11.5 -65zM340 139q0 37 8.5 70t25 58t42 40t60.5 15q34 0 59.5 -15t42.5 -40t25.5 -58.5t8.5 -69.5t-8.5 -68.5t-25.5 -57.5t-42.5 -39.5t-59.5 -14.5q-35 0 -60.5 14.5t-42 39t-25 57.5t-8.5 69zM427 139q0 -38 11.5 -64t37.5 -26t37 26
t11 64q0 39 -11 66t-37 27t-37.5 -27t-11.5 -66zM630 139q0 37 8.5 70t25 58t42 40t59.5 15t60 -15t43 -40t25.5 -58.5t8.5 -69.5t-8.5 -68.5t-25.5 -57.5t-43 -39.5t-60 -14.5t-59.5 14.5t-42 39t-25 57.5t-8.5 69zM717 139q0 -38 11 -64t37 -26t37.5 26t11.5 64
q0 39 -11.5 66t-37.5 27t-37 -27t-11 -66z" />
    <glyph glyph-name="minute" unicode="&#x2032;" horiz-adv-x="268" 
d="M98 769h90l30 -19l-80 -204h-66l-22 13z" />
    <glyph glyph-name="second" unicode="&#x2033;" horiz-adv-x="413" 
d="M98 769h85l30 -19l-80 -204h-61l-22 13zM248 769h85l30 -19l-80 -204h-61l-22 13z" />
    <glyph glyph-name="uni203B" unicode="&#x203b;" 
d="M455 266l-254 -319l-93 -11l-25 16l311 391l-306 385l25 16l93 -11l249 -314l249 314l93 11l25 -16l-306 -385l311 -391l-25 -16l-93 11zM396 766h98l30 -19l-21 -123h-85l-22 14v128zM84 411h98l30 -19l-21 -123h-85l-22 14v128zM698 411h98l30 -19l-21 -123h-85l-22 14
v128zM396 56h98l30 -19l-21 -123h-85l-22 14v128z" />
    <glyph glyph-name="uni2074" unicode="&#x2074;" horiz-adv-x="429" 
d="M229 320v78h-179v68l193 297l80 -10l-4 -42q0 -63 0.5 -119.5t0.5 -117.5l39 3l20 -64l-22 -15h-38v-47l-1 -29l-67 -8zM229 474v123q-20 -31 -39 -60.5t-41 -62.5h80z" />
    <glyph glyph-name="uni207F" unicode="&#x207f;" horiz-adv-x="427" 
d="M142 333l-71 -13l-21 6v410h98l-3 -25q16 11 41 21t56 10q27 0 51.5 -9t43 -27.5t29.5 -47t11 -68.5v-228l-3 -29l-70 -13l-22 6v250q0 89 -60 89q-23 0 -41 -6.5t-36 -17.5v-279z" />
    <glyph glyph-name="uni2081" unicode="&#x2081;" horiz-adv-x="349" 
d="M73 -50l-16 62l18 14h68v267q-16 -8 -35 -13t-33 -10l-25 68q66 21 110 54l77 -10l-4 -42v-314h52l14 -60l-20 -16h-206z" />
    <glyph glyph-name="uni2082" unicode="&#x2082;" horiz-adv-x="406" 
d="M50 0l56 58q26 27 51.5 54t45.5 52.5t32.5 49t12.5 43.5q0 26 -14 41t-39 15q-17 0 -35.5 -20.5t-27.5 -59.5l-78 27v23q20 54 56.5 81t82.5 27q67 0 106.5 -35.5t39.5 -101.5q0 -29 -16 -60.5t-39 -62t-49.5 -57.5t-48.5 -48h101l50 4l19 -64l-21 -16h-285v50z" />
    <glyph glyph-name="uni2083" unicode="&#x2083;" horiz-adv-x="412" 
d="M124 92q11 -32 31 -51t49 -19q32 0 50 16.5t18 40.5q0 33 -25 46t-62 13h-40l-7 65l20 13h18q34 0 57 15t23 38q0 26 -16.5 35.5t-33.5 9.5q-43 0 -63 -65l-76 28v25q20 42 56 66t81 24q72 0 107.5 -34t35.5 -86q0 -30 -16.5 -53t-36.5 -36q35 -15 51.5 -42.5t16.5 -65.5
q0 -26 -10 -50t-29.5 -42t-49.5 -29t-69 -11q-57 0 -95.5 23.5t-58.5 68.5v25z" />
    <glyph glyph-name="uni2084" unicode="&#x2084;" horiz-adv-x="429" 
d="M229 -50v78h-179v68l193 297l80 -10l-4 -42q0 -63 0.5 -119.5t0.5 -117.5l39 3l20 -64l-22 -15h-38v-47l-1 -29l-67 -8zM229 104v123q-20 -31 -39 -60.5t-41 -62.5h80z" />
    <glyph glyph-name="uni20A9" unicode="&#x20a9;" 
d="M848 353l15 -78l-6 -25h-108l-63 -246l-95 -15l-25 6l-71 255h-92l-67 -246l-95 -15l-25 6l-62 255h-57l-35 3l-15 78l6 25h75l-81 336h126l68 -336h82l63 256h127l63 -256h86l74 336h126l-86 -336h37zM622 172l17 78h-37zM278 172l19 78h-35zM432 356h33l-16 60z" />
    <glyph glyph-name="Euro" unicode="&#x20ac;" 
d="M532 286l15 -75l-6 -25h-184q28 -47 72.5 -72.5t104.5 -25.5q59 0 100.5 24t66.5 62l89 -35v-30q-46 -63 -110 -91t-145 -28q-51 0 -98 12.5t-87 37t-71.5 61t-51.5 85.5h-78l-35 3l-15 75l6 25h97q-3 25 -3 55v18.5t1 18.5h-51l-35 3l-15 75l6 25h115q18 54 49.5 94.5
t73 67.5t90.5 40.5t102 13.5q74 0 133 -23t107 -75v-31l-85 -51l-21 29q-26 26 -58 40t-77 14q-66 0 -113.5 -31.5t-73.5 -87.5h150l35 -3l15 -75l-6 -25h-221q-1 -9 -1 -18v-18q0 -15 1 -28.5t3 -27.5h174z" />
    <glyph glyph-name="uni2103" unicode="&#x2103;" 
d="M872 109q-46 -63 -103.5 -91t-131.5 -28q-65 0 -122 22.5t-100.5 66.5t-68.5 110.5t-25 154.5t25 155t68.5 111.5t100.5 67t122 22.5q70 0 121.5 -23t98.5 -75v-31l-85 -51l-21 29q-13 13 -24.5 23t-24.5 17t-28.5 10.5t-37.5 3.5q-46 0 -82.5 -18.5t-61.5 -52.5
t-38 -81.5t-13 -105.5t13.5 -105.5t38.5 -81t61 -52t82 -18.5q51 0 86.5 24t60.5 62l89 -35v-30zM37 583q0 28 8.5 54.5t26.5 46.5t45 32t63 12t63 -12.5t45 -32.5t26.5 -46t8.5 -54t-8.5 -53.5t-26 -45.5t-44.5 -32t-64 -12t-64 12t-44.5 31.5t-26 45.5t-8.5 54zM135 583
q0 -29 10.5 -49t34.5 -20t34 20t10 49q0 30 -10 50.5t-34 20.5t-34.5 -20.5t-10.5 -50.5z" />
    <glyph glyph-name="uni2109" unicode="&#x2109;" 
d="M72 583q0 28 8.5 54.5t26.5 46.5t45 32t63 12t63 -12.5t45 -32.5t26.5 -46t8.5 -54t-8.5 -53.5t-26 -45.5t-44.5 -32t-64 -12t-64 12t-44.5 31.5t-26 45.5t-8.5 54zM170 583q0 -29 10.5 -49t34.5 -20t34 20t10 49q0 30 -10 50.5t-34 20.5t-34.5 -20.5t-10.5 -50.5z
M400 663l27 29h410v-98h-309v-204h288v-98h-288v-251l-3 -35l-90 -15l-25 6v638z" />
    <glyph glyph-name="afii61289" unicode="&#x2113;" 
d="M268 -34q29 24 46.5 43t36.5 42q-12 31 -19 65.5t-11.5 68t-6 63.5t-1.5 53q0 45 2.5 94.5t9.5 97t19.5 90.5t32 75.5t47 51.5t64.5 19q40 0 67.5 -16t44.5 -43t24.5 -63t7.5 -76q0 -51 -11.5 -114t-33.5 -129t-52.5 -130.5t-68.5 -118.5q7 -10 16 -16t17 -6
q28 0 47.5 24.5t31.5 56.5l83 -45q-9 -21 -23 -43t-34 -41t-47.5 -31t-63.5 -12q-48 0 -88 37l-55 -54zM418 289q0 -10 1 -25.5t2.5 -33t3 -36.5t3.5 -37q25 47 44 99t31 102t18 93.5t6 74.5q0 62 -8.5 85.5t-28.5 23.5q-15 0 -25.5 -18t-18.5 -47.5t-13.5 -66.5t-8.5 -75.5
t-4.5 -75t-1.5 -63.5z" />
    <glyph glyph-name="afii61352" unicode="&#x2116;" 
d="M396 6l-71 -15l-23 6v53l-180 414v-423l-3 -35l-71 -15l-24 6v638l-9 28l21 29h88l178 -411v411h102l-5 -35v-616zM437 233q0 118 45.5 179.5t126.5 61.5t127 -61t46 -180q0 -118 -46 -180.5t-127 -62.5t-126.5 62.5t-45.5 180.5zM537 233q0 -83 19.5 -116.5t52.5 -33.5
t53 33.5t20 116.5t-20 115.5t-53 32.5t-52.5 -32.5t-19.5 -115.5zM788 79h79l28 -19l-20 -133h-66l-21 14v138z" />
    <glyph glyph-name="uni2121" unicode="&#x2121;" 
d="M699 81q-32 -44 -69 -67.5t-93 -23.5q-45 0 -82.5 15.5t-65 46.5t-43 75.5t-15.5 103.5t15 104.5t41.5 76t62.5 46.5t77 16q46 0 81 -17.5t59 -48.5t36.5 -74t12.5 -95v-44h-269q6 -63 30.5 -89t59.5 -26q30 0 48.5 19t32.5 46l81 -35v-29zM395 594h-136v-553l-3 -35
l-90 -15l-25 6v597h-136v98h390v-98zM897 6l-85 -15l-25 6v716h118l-5 -35v-637zM532 384q-31 0 -54.5 -22.5t-29.5 -84.5h153q0 22 -4 41.5t-12 34t-21.5 23t-31.5 8.5z" />
    <glyph glyph-name="trademark" unicode="&#x2122;" 
d="M601 355l-94 193v-205l-3 -29l-62 -10l-24 5v392l-8 21l20 25h75l118 -253l117 253h92l-5 -32v-371l-1 -30l-64 -10l-25 5v239l-93 -193h-43zM385 667h-107v-324l-4 -29l-63 -10l-26 5v358h-107v80h307v-80z" />
    <glyph glyph-name="Omega" unicode="&#x2126;" horiz-adv-x="626" 
d="M584 401q0 -53 -14 -97t-35.5 -78.5t-48.5 -60t-54 -42.5v-51h136v-75h-199q-14 0 -18.5 7t-4.5 20v103q0 19 2 26t12 12q24 11 47.5 31.5t43 50.5t31.5 68.5t12 85.5q0 51 -13 94.5t-36.5 75.5t-57 50t-75.5 18q-41 0 -74.5 -18t-57.5 -50t-37.5 -75.5t-13.5 -94.5
q0 -47 12.5 -86.5t32.5 -70.5t44 -51.5t48 -27.5q9 -3 13.5 -11t4.5 -27v-103q0 -13 -5.5 -20t-22.5 -7h-193v75h133v51q-27 15 -55 40.5t-50 60.5t-36 79.5t-14 97.5q0 74 20.5 132.5t56.5 98.5t85.5 61t108.5 21q60 0 110 -21t86 -61t56 -98.5t20 -132.5z" />
    <glyph glyph-name="uni212B" unicode="&#x212b;" horiz-adv-x="622" 
d="M210 747q0 38 27.5 62t69.5 24q41 0 69.5 -24t28.5 -62t-28.5 -61.5t-69.5 -23.5q-42 0 -69.5 23.5t-27.5 61.5zM259 747q0 -22 14 -32.5t34 -10.5t34 10.5t14 32.5t-14 32.5t-34 10.5t-34 -10.5t-14 -32.5zM448 137h-275l-57 -140h-86l273 632h15l273 -632h-84zM307 466
l-110 -267h226l-109 267h-7z" />
    <glyph glyph-name="onethird" unicode="&#x2153;" 
d="M291 -63l-78 -11l-25 16l381 801l78 11l25 -16zM106 320l-16 62l18 14h68v267q-16 -8 -35 -13t-33 -10l-25 68q66 21 110 54l77 -10l-4 -42v-314h52l14 -60l-20 -16h-206zM589 92q11 -32 31 -51t49 -19q32 0 50 16.5t18 40.5q0 33 -25 46t-62 13h-40l-7 65l20 13h18
q34 0 57 15t23 38q0 26 -16.5 35.5t-33.5 9.5q-43 0 -63 -65l-76 28v25q20 42 56 66t81 24q72 0 107.5 -34t35.5 -86q0 -30 -16.5 -53t-36.5 -36q35 -15 51.5 -42.5t16.5 -65.5q0 -26 -10 -50t-29.5 -42t-49.5 -29t-69 -11q-57 0 -95.5 23.5t-58.5 68.5v25z" />
    <glyph glyph-name="twothirds" unicode="&#x2154;" 
d="M319 -63l-78 -11l-25 16l381 801l78 11l25 -16zM617 92q11 -32 31 -51t49 -19q32 0 50 16.5t18 40.5q0 33 -25 46t-62 13h-40l-7 65l20 13h18q34 0 57 15t23 38q0 26 -16.5 35.5t-33.5 9.5q-43 0 -63 -65l-76 28v25q20 42 56 66t81 24q72 0 107.5 -34t35.5 -86
q0 -30 -16.5 -53t-36.5 -36q35 -15 51.5 -42.5t16.5 -65.5q0 -26 -10 -50t-29.5 -42t-49.5 -29t-69 -11q-57 0 -95.5 23.5t-58.5 68.5v25zM54 370l56 58q26 27 51.5 54t45.5 52.5t32.5 49t12.5 43.5q0 26 -14 41t-39 15q-17 0 -35.5 -20.5t-27.5 -59.5l-78 27v23
q20 54 56.5 81t82.5 27q67 0 106.5 -35.5t39.5 -101.5q0 -29 -16 -60.5t-39 -62t-49.5 -57.5t-48.5 -48h101l50 4l19 -64l-21 -16h-285v50z" />
    <glyph glyph-name="oneeighth" unicode="&#x215b;" 
d="M289 -63l-78 -11l-25 16l381 801l78 11l25 -16zM104 320l-16 62l18 14h68v267q-16 -8 -35 -13t-33 -10l-25 68q66 21 110 54l77 -10l-4 -42v-314h52l14 -60l-20 -16h-206zM669 235q23 0 35.5 11.5t12.5 28.5t-12.5 29t-35.5 12t-35.5 -12t-12.5 -29t12.5 -28.5
t35.5 -11.5zM510 80q0 39 20.5 66t47.5 41q-23 15 -34.5 38.5t-11.5 49.5q0 32 12 54t31 36t43.5 20.5t50.5 6.5t50.5 -6.5t44 -20.5t31.5 -36t12 -54q0 -26 -12.5 -49.5t-35.5 -38.5q28 -14 48.5 -40.5t20.5 -66.5q0 -60 -40 -98.5t-119 -38.5q-78 0 -118.5 38.5
t-40.5 98.5zM669 139q-34 0 -51.5 -18.5t-17.5 -41.5q0 -22 17.5 -40.5t51.5 -18.5t52 18.5t18 40.5q0 23 -18 41.5t-52 18.5z" />
    <glyph glyph-name="threeeighths" unicode="&#x215c;" 
d="M321 -63l-78 -11l-25 16l381 801l78 11l25 -16zM124 462q11 -32 31 -51t49 -19q32 0 50 16.5t18 40.5q0 33 -25 46t-62 13h-40l-7 65l20 13h18q34 0 57 15t23 38q0 26 -16.5 35.5t-33.5 9.5q-43 0 -63 -65l-76 28v25q20 42 56 66t81 24q72 0 107.5 -34t35.5 -86
q0 -30 -16.5 -53t-36.5 -36q35 -15 51.5 -42.5t16.5 -65.5q0 -26 -10 -50t-29.5 -42t-49.5 -29t-69 -11q-57 0 -95.5 23.5t-58.5 68.5v25zM701 235q23 0 35.5 11.5t12.5 28.5t-12.5 29t-35.5 12t-35.5 -12t-12.5 -29t12.5 -28.5t35.5 -11.5zM542 80q0 39 20.5 66t47.5 41
q-23 15 -34.5 38.5t-11.5 49.5q0 32 12 54t31 36t43.5 20.5t50.5 6.5t50.5 -6.5t44 -20.5t31.5 -36t12 -54q0 -26 -12.5 -49.5t-35.5 -38.5q28 -14 48.5 -40.5t20.5 -66.5q0 -60 -40 -98.5t-119 -38.5q-78 0 -118.5 38.5t-40.5 98.5zM701 139q-34 0 -51.5 -18.5t-17.5 -41.5
q0 -22 17.5 -40.5t51.5 -18.5t52 18.5t18 40.5q0 23 -18 41.5t-52 18.5z" />
    <glyph glyph-name="fiveeighths" unicode="&#x215d;" 
d="M307 -63l-78 -11l-25 16l381 801l78 11l25 -16zM687 235q23 0 35.5 11.5t12.5 28.5t-12.5 29t-35.5 12t-35.5 -12t-12.5 -29t12.5 -28.5t35.5 -11.5zM528 80q0 39 20.5 66t47.5 41q-23 15 -34.5 38.5t-11.5 49.5q0 32 12 54t31 36t43.5 20.5t50.5 6.5t50.5 -6.5t44 -20.5
t31.5 -36t12 -54q0 -26 -12.5 -49.5t-35.5 -38.5q28 -14 48.5 -40.5t20.5 -66.5q0 -60 -40 -98.5t-119 -38.5q-78 0 -118.5 38.5t-40.5 98.5zM687 139q-34 0 -51.5 -18.5t-17.5 -41.5q0 -22 17.5 -40.5t51.5 -18.5t52 18.5t18 40.5q0 23 -18 41.5t-52 18.5zM168 611
q14 5 27 6.5t27 1.5q63 0 102.5 -40t39.5 -109q0 -70 -42.5 -113.5t-117.5 -43.5q-51 0 -86 23t-55 63v25l73 33q10 -29 25.5 -47t43.5 -18q33 0 51 20.5t18 54.5q0 32 -16.5 53t-45.5 21q-24 0 -40.5 -16t-23.5 -38l-81 18l19 252h240l9 -61l-20 -15h-143z" />
    <glyph glyph-name="seveneighths" unicode="&#x215e;" 
d="M285 -63l-78 -11l-25 16l381 801l78 11l25 -16zM665 235q23 0 35.5 11.5t12.5 28.5t-12.5 29t-35.5 12t-35.5 -12t-12.5 -29t12.5 -28.5t35.5 -11.5zM506 80q0 39 20.5 66t47.5 41q-23 15 -34.5 38.5t-11.5 49.5q0 32 12 54t31 36t43.5 20.5t50.5 6.5t50.5 -6.5t44 -20.5
t31.5 -36t12 -54q0 -26 -12.5 -49.5t-35.5 -38.5q28 -14 48.5 -40.5t20.5 -66.5q0 -60 -40 -98.5t-119 -38.5q-78 0 -118.5 38.5t-40.5 98.5zM665 139q-34 0 -51.5 -18.5t-17.5 -41.5q0 -22 17.5 -40.5t51.5 -18.5t52 18.5t18 40.5q0 23 -18 41.5t-52 18.5zM159 347l126 334
h-151l-30 -5l-19 66l17 14h269l14 -59l-139 -372h-76z" />
    <glyph glyph-name="uni2160" unicode="&#x2160;" 
d="M319 0v98h77v496h-77v98h271v-98h-76v-496h76v-98h-271z" />
    <glyph glyph-name="uni2161" unicode="&#x2161;" 
d="M204 0v98h77v496h-77v98h501v-98h-76v-496h76v-98h-501zM399 98h112v496h-112v-496z" />
    <glyph glyph-name="uni2162" unicode="&#x2162;" 
d="M109 0v98h77v496h-77v98h691v-98h-76v-496h76v-98h-691zM304 98h92v496h-92v-496zM514 98h92v496h-92v-496z" />
    <glyph glyph-name="uni2163" unicode="&#x2163;" 
d="M564 -11l-25 6l-209 697h126l137 -530l136 530h126l-206 -688zM54 0v98h72v496h-72v98h261v-98h-71v-496h71v-98h-261z" />
    <glyph glyph-name="uni2164" unicode="&#x2164;" 
d="M426 -11l-25 6l-259 697h126l187 -530l186 530h126l-256 -688z" />
    <glyph glyph-name="uni2165" unicode="&#x2165;" 
d="M284 -11l-25 6l-209 697h126l137 -530l136 530h126l-206 -688zM598 0v98h72v496h-72v98h261v-98h-71v-496h71v-98h-261z" />
    <glyph glyph-name="uni2166" unicode="&#x2166;" 
d="M491 0v98h62v496h-62v98h406v-98h-61v-496h61v-98h-406zM212 -11l-25 6l-174 697h121l107 -530l106 530h121l-171 -688zM733 98v496h-77v-496h77z" />
    <glyph glyph-name="uni2167" unicode="&#x2167;" 
d="M179 -11l-25 6l-134 697h121l67 -530l66 530h616v-98h-51v-496h51v-98h-516v98h52v496h-50l-112 -590zM586 98v496h-67v-496h67zM746 98v496h-67v-496h67z" />
    <glyph glyph-name="uni2168" unicode="&#x2168;" 
d="M851 0h-99l-159 260l-159 -260h-99l-17 23l210 341l-189 328h130l124 -230l124 230h130l-189 -328l210 -341zM42 0v98h72v496h-72v98h261v-98h-71v-496h71v-98h-261z" />
    <glyph glyph-name="uni2169" unicode="&#x2169;" 
d="M713 0h-99l-159 260l-159 -260h-99l-17 23l210 341l-189 328h130l124 -230l124 230h130l-189 -328l210 -341z" />
    <glyph glyph-name="uni2170" unicode="&#x2170;" 
d="M498 6l-86 -15l-24 6v467h118l-5 -35v-388zM398 676h94l30 -19l-30 -121h-82l-22 13z" />
    <glyph glyph-name="uni2171" unicode="&#x2171;" 
d="M398 6l-86 -15l-24 6v467h118l-5 -35v-388zM298 676h94l30 -19l-30 -121h-82l-22 13zM598 6l-86 -15l-24 6v467h118l-5 -35v-388zM498 676h94l30 -19l-30 -121h-82l-22 13z" />
    <glyph glyph-name="uni2172" unicode="&#x2172;" 
d="M298 6l-86 -15l-24 6v467h118l-5 -35v-388zM198 676h94l30 -19l-30 -121h-82l-22 13zM498 6l-86 -15l-24 6v467h118l-5 -35v-388zM398 676h94l30 -19l-30 -121h-82l-22 13zM698 6l-86 -15l-24 6v467h118l-5 -35v-388zM598 676h94l30 -19l-30 -121h-82l-22 13z" />
    <glyph glyph-name="uni2173" unicode="&#x2173;" 
d="M264 6l-86 -15l-24 6v467h118l-5 -35v-388zM164 676h94l30 -19l-30 -121h-82l-22 13zM508 -11l-25 6l-175 469h120l103 -314l104 314h120l-172 -460z" />
    <glyph glyph-name="uni2174" unicode="&#x2174;" 
d="M431 -11l-25 6l-175 469h120l103 -314l104 314h120l-172 -460z" />
    <glyph glyph-name="uni2175" unicode="&#x2175;" 
d="M345 -11l-25 6l-175 469h120l103 -314l104 314h120l-172 -460zM741 6l-86 -15l-24 6v467h118l-5 -35v-388zM641 676h94l30 -19l-30 -121h-82l-22 13z" />
    <glyph glyph-name="uni2176" unicode="&#x2176;" 
d="M245 -11l-25 6l-175 469h120l103 -314l104 314h120l-172 -460zM641 6l-86 -15l-24 6v467h118l-5 -35v-388zM541 676h94l30 -19l-30 -121h-82l-22 13zM841 6l-86 -15l-24 6v467h118l-5 -35v-388zM741 676h94l30 -19l-30 -121h-82l-22 13z" />
    <glyph glyph-name="uni2177" unicode="&#x2177;" 
d="M180 -11l-25 6l-150 469h115l83 -314l84 314h115l-147 -460zM541 6l-76 -15l-24 6v467h108l-5 -35v-388zM451 676h84l30 -19l-30 -121h-72l-22 13zM711 6l-76 -15l-24 6v467h108l-5 -35v-388zM621 676h84l30 -19l-30 -121h-72l-22 13zM881 6l-76 -15l-24 6v467h108
l-5 -35v-388zM791 676h84l30 -19l-30 -121h-72l-22 13z" />
    <glyph glyph-name="uni2178" unicode="&#x2178;" 
d="M256 6l-86 -15l-24 6v467h118l-5 -35v-388zM156 676h94l30 -19l-30 -121h-82l-22 13zM747 0h-102l-116 156l-116 -156h-102l-17 23l167 221l-156 220h133l91 -138l91 138h133l-156 -220l167 -221z" />
    <glyph glyph-name="uni2179" unicode="&#x2179;" 
d="M673 0h-102l-116 156l-116 -156h-102l-17 23l167 221l-156 220h133l91 -138l91 138h133l-156 -220l167 -221z" />
    <glyph glyph-name="arrowleft" unicode="&#x2190;" horiz-adv-x="940" 
d="M940 349v-58h-771l48 -130l-216 159l218 156l-51 -127h772z" />
    <glyph glyph-name="arrowup" unicode="&#x2191;" horiz-adv-x="940" 
d="M500 648v-807h-63v807l-126 -49l155 217l163 -217z" />
    <glyph glyph-name="arrowright" unicode="&#x2192;" horiz-adv-x="940" 
d="M773 291h-773v58h773l-51 127l218 -156l-217 -160z" />
    <glyph glyph-name="arrowdown" unicode="&#x2193;" horiz-adv-x="940" 
d="M438 814h63v-808l127 51l-161 -218l-155 218l126 -51v808z" />
    <glyph glyph-name="arrowboth" unicode="&#x2194;" horiz-adv-x="940" 
d="M218 476l-51 -127h607l-50 127l217 -156l-215 -159l48 130h-606l48 -130l-216 159z" />
    <glyph glyph-name="arrowupdn" unicode="&#x2195;" horiz-adv-x="940" 
d="M633 87l-164 -234l-163 235l128 -53v567l-128 -54l163 236l165 -236l-132 55v-569z" />
    <glyph glyph-name="uni2196" unicode="&#x2196;" horiz-adv-x="940" 
d="M144 589l-64 -141l-45 303l300 -50l-138 -60l708 -721l-51 -51z" />
    <glyph glyph-name="uni2197" unicode="&#x2197;" horiz-adv-x="940" 
d="M86 -131l-51 51l708 721l-138 60l300 50l-45 -303l-64 141z" />
    <glyph glyph-name="uni2198" unicode="&#x2198;" horiz-adv-x="940" 
d="M796 31l64 141l45 -303l-300 50l138 60l-708 721l51 51z" />
    <glyph glyph-name="uni2199" unicode="&#x2199;" horiz-adv-x="940" 
d="M854 751l51 -51l-708 -721l138 -60l-300 -50l45 303l64 -141z" />
    <glyph glyph-name="arrowdblright" unicode="&#x21d2;" horiz-adv-x="940" 
d="M0 203v59h789l56 58l-56 57h-789v59h733l-98 100l44 45l261 -261l-259 -262l-46 45l98 100h-733z" />
    <glyph glyph-name="arrowdblboth" unicode="&#x21d4;" horiz-adv-x="940" 
d="M305 536l-98 -100h526l-98 100l47 44l258 -260l-256 -264l-49 47l98 100h-526l98 -100l-47 -48l-258 265l257 262zM151 262h638l56 58l-56 57h-638l-57 -57z" />
    <glyph glyph-name="universal" unicode="&#x2200;" horiz-adv-x="659" 
d="M143 698l59 -169h254l60 169h101l17 -23l-251 -675h-107l-251 675l17 23h101zM422 431h-185l92 -263z" />
    <glyph glyph-name="partialdiff" unicode="&#x2202;" horiz-adv-x="525" 
d="M57 383q32 44 80 67.5t112 23.5q48 0 91 -15.5t75.5 -46.5t51 -76t18.5 -103q0 -59 -18.5 -104.5t-49.5 -76t-72 -46.5t-86 -16q-50 0 -90 17.5t-69 48.5t-44.5 74t-15.5 95v44h328q-5 31 -16 53t-27 35.5t-35.5 20t-40.5 6.5q-38 0 -64.5 -16.5t-46.5 -48.5l-81 35v29z
M254 80q19 0 37 5t33.5 17t26.5 32.5t16 52.5h-212q0 -44 27 -75.5t72 -31.5z" />
    <glyph glyph-name="existential" unicode="&#x2203;" horiz-adv-x="553" 
d="M442 692l56 -33v-602l10 -28l-27 -29h-430v98h329v184h-298v98h298v214h-355v98h417z" />
    <glyph glyph-name="gradient" unicode="&#x2207;" horiz-adv-x="1000" 
d="M500 187l211 358h-422zM500 32l-345 588h690z" />
    <glyph glyph-name="element" unicode="&#x2208;" horiz-adv-x="1000" 
d="M835 361v-80h-579q0 -29 15 -55t39.5 -45.5t56 -31.5t63.5 -12h406v-81h-430q-45 0 -88.5 21.5t-77.5 58t-55 86t-21 105.5t20 104t55 83.5t82 56t100 20.5h412v-81h-406q-36 0 -67 -12t-54.5 -32.5t-36.5 -47.5t-13 -57h579z" />
    <glyph glyph-name="suchthat" unicode="&#x220b;" horiz-adv-x="1000" 
d="M743 361q0 30 -13 57t-36.5 47.5t-54.5 32.5t-67 12h-406v81h412q53 0 100 -20.5t82 -56t55 -83.5t20 -104t-21 -105.5t-55 -86t-77.5 -58t-88.5 -21.5h-430v81h406q32 0 63.5 12t56 31.5t39.5 45.5t15 55h-579v80h579z" />
    <glyph glyph-name="product" unicode="&#x220f;" horiz-adv-x="1000" 
d="M640 588h-294v-478q0 -24 1.5 -38t4.5 -20.5t8.5 -8.5t14.5 -2q10 0 25 -1t26 -1v-56h-264v56l52 2q9 0 14.5 2t8.5 9t4.5 20.5t1.5 37.5v418q0 21 -1 33.5t-4.5 19t-9.5 9t-16 3.5l-50 5v55h661v-55l-51 -5q-19 -2 -24 -14.5t-5 -50.5v-418q0 -32 4 -47t13.5 -20
t25 -4.5t37.5 0.5v-56h-263v56l43 2q26 1 31.5 16t5.5 53v478z" />
    <glyph glyph-name="summation" unicode="&#x2211;" horiz-adv-x="1000" 
d="M216 -3v83l285 232l-264 293v61h515v-142h-74l-6 59q-2 11 -4 14.5t-13 3.5h-276q59 -66 119.5 -135.5t118.5 -134.5l-299 -244h349q9 0 16 3.5t8 13.5l3 62h76v-169h-554z" />
    <glyph glyph-name="radical" unicode="&#x221a;" horiz-adv-x="1000" 
d="M156 150l-46 65l119 170l143 -310l276 701h241v-82l-185 1l-326 -808l-167 342z" />
    <glyph glyph-name="proportional" unicode="&#x221d;" horiz-adv-x="1000" 
d="M255 336q0 -23 8.5 -42.5t23 -34t33.5 -23t40 -8.5q26 0 47.5 13t38 30.5t27.5 36t16 29.5q-4 9 -14 27.5t-26.5 37t-38.5 32t-50 13.5q-21 0 -40 -9t-33.5 -24t-23 -35.5t-8.5 -42.5zM832 188q-26 -22 -57.5 -34t-67.5 -12q-37 0 -65.5 10.5t-49.5 25.5t-35.5 32
t-23.5 31q-7 -13 -20 -30t-34 -32.5t-50 -26t-69 -10.5t-75.5 15t-61.5 41.5t-41.5 61.5t-15.5 76q0 42 15.5 77.5t41.5 62t61.5 41.5t75.5 15q37 0 65.5 -10.5t49.5 -26.5t35.5 -33.5t22.5 -30.5q8 13 22 30.5t35 33.5t50 26.5t67 10.5q36 0 68 -12t58 -34l-46 -66
q-36 27 -80 27q-30 0 -52.5 -15t-38.5 -34.5t-25 -37.5t-11 -24q3 -8 13 -26t26 -36t38 -31.5t50 -13.5q49 0 79 27z" />
    <glyph glyph-name="infinity" unicode="&#x221e;" horiz-adv-x="1000" 
d="M326 532q37 0 65.5 -10.5t49.5 -26.5t35.5 -33.5t22.5 -30.5q8 13 22 30.5t35 33.5t50 26.5t67 10.5q40 0 75.5 -15t61.5 -41.5t41.5 -62t15.5 -77.5q0 -41 -15.5 -76t-41.5 -61.5t-61.5 -41.5t-75.5 -15q-37 0 -65.5 10.5t-49.5 25.5t-35.5 32t-23.5 31q-7 -13 -20 -30
t-34 -32.5t-50 -26t-69 -10.5t-75.5 15t-61.5 41.5t-41.5 61.5t-15.5 76q0 42 15.5 77.5t41.5 62t61.5 41.5t75.5 15zM221 336q0 -23 8.5 -42.5t23 -34t33.5 -23t40 -8.5q26 0 47.5 13t38 30.5t27.5 36t16 29.5q-4 9 -14 27.5t-26.5 37t-38.5 32t-50 13.5q-21 0 -40 -9
t-33.5 -24t-23 -35.5t-8.5 -42.5zM779 336q0 22 -8.5 42.5t-23 35.5t-33.5 24t-41 9q-30 0 -52.5 -15t-38.5 -34.5t-25 -37.5t-11 -24q3 -8 13 -26t26 -36t38 -31.5t50 -13.5q22 0 41 8.5t33.5 23t23 34t8.5 41.5z" />
    <glyph glyph-name="angle" unicode="&#x2220;" horiz-adv-x="1000" 
d="M790 543l-463 -465h501v-84h-613q-15 0 -26.5 6.5t-15.5 22.5q-3 13 6.5 27.5t16.5 22.5l148 149l382 384z" />
    <glyph glyph-name="uni2225" unicode="&#x2225;" 
d="M270 799h133v-877h-133v877zM507 799h133v-877h-133v877z" />
    <glyph glyph-name="logicaland" unicode="&#x2227;" horiz-adv-x="1000" 
d="M267 18l-76 45l265 535q7 14 19 20.5t23 6.5q13 0 24.5 -6.5t19.5 -20.5l267 -535l-80 -37l-230 466z" />
    <glyph glyph-name="logicalor" unicode="&#x2228;" horiz-adv-x="1000" 
d="M191 608l76 46l232 -475l230 466l79 -37l-265 -536q-6 -12 -18 -18t-26 -6q-13 0 -25 6t-18 18z" />
    <glyph glyph-name="intersection" unicode="&#x2229;" horiz-adv-x="1000" 
d="M762 -6h-89v413q0 33 -14.5 65.5t-39 59t-58 42.5t-70.5 15q-36 -2 -66 -17t-52 -39t-34 -56t-12 -66v-421h-89v438q0 51 22.5 95t59 77t83 51.5t93.5 18.5q55 0 103.5 -21t84.5 -56.5t57 -82.5t21 -99v-417z" />
    <glyph glyph-name="union" unicode="&#x222a;" horiz-adv-x="1000" 
d="M673 666h89v-416q0 -52 -21 -99t-57 -83t-84.5 -57t-103.5 -21q-47 0 -93.5 18.5t-83 51.5t-59 77.5t-22.5 95.5v437h89v-420q0 -35 12 -66.5t34 -55.5t52 -39.5t66 -16.5q37 -1 70.5 15t58 42t39 59t14.5 66v412z" />
    <glyph glyph-name="integral" unicode="&#x222b;" horiz-adv-x="1000" 
d="M529 142q-14 -77 -50.5 -116t-101.5 -39q-33 0 -62.5 12t-49.5 26v84q23 -17 51.5 -31t49.5 -14q17 0 28.5 7.5t19.5 20.5t13 29t8 33v-1q4 24 7.5 61t7.5 79t7.5 84.5t6.5 77.5q1 15 2.5 31t2.5 31q4 47 18 89.5t54 71.5q16 11 36.5 16t42.5 5q29 0 59.5 -8.5
t54.5 -25.5v-82q-31 20 -57.5 30.5t-45.5 8.5q-20 -2 -32 -11.5t-19.5 -23.5t-10.5 -31.5t-3 -34.5q0 -2 -2 -26t-5 -60.5t-7 -80.5t-8 -85.5t-8 -75.5t-7 -51z" />
    <glyph glyph-name="uni222C" unicode="&#x222c;" horiz-adv-x="1000" 
d="M375 142q-14 -77 -50.5 -116t-102.5 -39q-33 0 -62.5 12t-49.5 26v84q23 -17 51.5 -31t49.5 -14q17 0 29 7.5t20 20.5t12.5 29t7.5 33v-1q4 24 8 61t8 79t7.5 84.5t6.5 77.5l4 62q4 47 18 89.5t54 71.5q33 21 79 21q29 0 59.5 -8.5t54.5 -25.5v-82q-31 20 -57.5 30.5
t-45.5 8.5q-20 -2 -32 -11.5t-19 -23.5t-10 -31.5t-3 -34.5q0 -2 -2 -26t-5 -60.5t-7 -80.5t-8 -85.5t-8 -75.5t-7 -51zM686 142q-14 -77 -50.5 -116t-102.5 -39q-32 0 -62 12t-50 26v84q24 -17 52 -31t50 -14q16 0 28 7.5t20 20.5t13 29t8 33v-1q3 24 7 61t8 79t7.5 84.5
t6.5 77.5q1 15 2.5 31t2.5 31q2 23 6 45.5t12 43.5t21 39t33 33q16 11 36 16t42 5q29 0 59.5 -8.5t54.5 -25.5v-82q-31 20 -57.5 30.5t-45.5 8.5t-31.5 -11.5t-19.5 -23.5t-10 -31.5t-3 -34.5q0 -2 -2 -26t-5 -60.5t-7 -80.5t-8 -85.5t-8 -75.5t-7 -51z" />
    <glyph glyph-name="uni222E" unicode="&#x222e;" horiz-adv-x="1000" 
d="M682 238q-4 -29 -18.5 -54.5t-36.5 -45.5t-49 -33t-55 -16q-8 -50 -19.5 -82.5t-29 -52.5t-42 -29t-57.5 -10q-34 -2 -66.5 10.5t-53.5 28.5v94q12 -9 27.5 -19t31 -18t30.5 -13t26 -4q31 2 40 26t16 68v-1q1 5 1 8.5t2 10.5q-57 28 -84 78.5t-19 109.5q4 28 17.5 54
t34 46t46.5 34t56 19q3 31 13 60t28 52.5t44 39t62 19.5q11 0 26 -3t31.5 -7.5t32.5 -11t28 -14.5v-84q-41 26 -69 34.5t-43 6.5q-34 -8 -46.5 -36t-16.5 -72q25 -11 47.5 -30t38.5 -44t23.5 -55.5t2.5 -63.5zM537 178q19 9 35.5 26t21.5 52t-6.5 59t-26.5 38zM471 363
q-24 -10 -38.5 -32.5t-17.5 -46.5q-5 -27 2.5 -54t28.5 -44z" />
    <glyph glyph-name="therefore" unicode="&#x2234;" horiz-adv-x="1000" 
d="M276 31q-32 0 -51.5 21.5t-19.5 49.5q0 29 21.5 49.5t50.5 20.5q33 0 53 -20.5t20 -51.5q0 -27 -21 -48t-53 -21zM721 31q-33 0 -52.5 21.5t-19.5 49.5q0 29 20.5 49.5t52.5 20.5t52.5 -20.5t20.5 -51.5q0 -27 -22 -48t-52 -21zM497 401q-32 0 -52.5 22.5t-20.5 51.5
q0 28 22 48t51 20q32 0 53 -20.5t21 -49.5t-22 -50.5t-52 -21.5z" />
    <glyph glyph-name="uni2235" unicode="&#x2235;" horiz-adv-x="1000" 
d="M277 593q33 0 55 -21.5t22 -52.5q0 -32 -20.5 -54t-55.5 -22q-29 0 -52 21.5t-23 53.5q0 28 20.5 51.5t53.5 23.5zM721 593q31 0 53.5 -21.5t22.5 -52.5q0 -32 -21.5 -54t-53.5 -22t-55 21.5t-23 53.5q0 28 21 51.5t56 23.5zM497 225q32 0 55 -23t23 -54
q0 -32 -22.5 -53.5t-55.5 -21.5q-30 0 -53 20.5t-23 52.5q0 31 21.5 55t54.5 24z" />
    <glyph glyph-name="uni2236" unicode="&#x2236;" horiz-adv-x="274" 
d="M224 602l-87 -155l-87 155h174zM50 70l87 155l87 -155h-174z" />
    <glyph glyph-name="similar" unicode="&#x223c;" horiz-adv-x="1000" 
d="M451 193q-2 -3 -12 -11t-26.5 -17t-40 -16.5t-51.5 -7.5q-42 0 -76.5 17.5t-59 44.5t-38.5 60t-14 63q0 50 15.5 87t41 61.5t59 37t69.5 14.5q49 -1 83.5 -16.5t60 -40t44 -56.5t36.5 -65l14 -27v1q26 -48 55.5 -74t67.5 -24q22 1 40.5 11t32 26t21 36.5t7.5 41.5
t-7.5 41t-21 35t-31.5 24t-39 9q-24 0 -44 -8t-40 -19l-14 -7l-36 70q3 3 14.5 11.5t30.5 17.5t44.5 15.5t54.5 4.5q39 -4 72 -21.5t56 -44.5t36 -60.5t13 -69.5q0 -38 -15.5 -72t-41.5 -60t-59.5 -42.5t-69.5 -20.5q-39 -1 -70.5 11t-57 33t-45 48t-33.5 55l-10 20
q-11 23 -24.5 47.5t-30.5 45t-38 33t-48 10.5q-23 -1 -42 -12t-33 -28t-21.5 -39t-5.5 -45q3 -19 12.5 -36.5t22.5 -31t29 -22t33 -9.5q14 0 29 6.5t27.5 15t21 16t10.5 9.5z" />
    <glyph glyph-name="uni223D" unicode="&#x223d;" horiz-adv-x="1000" 
d="M408 408q-2 2 -10.5 9.5t-21 16t-27.5 15t-29 6.5q-17 -1 -33 -9.5t-29 -22t-22.5 -31t-12.5 -36.5q-2 -23 5.5 -45t21.5 -39t33 -28t42 -12q27 -2 48 10.5t38 32.5t30.5 45t24.5 48l10 20q14 28 33.5 55t45 48t57 33t70.5 11q36 -4 69.5 -20.5t59.5 -42.5t41.5 -60
t15.5 -72q0 -36 -13 -69.5t-36 -60.5t-56 -44.5t-72 -21.5q-29 -2 -54.5 4.5t-44.5 15.5t-30.5 17.5t-14.5 11.5l36 70l14 -7q20 -11 40 -19t44 -8q21 0 39 9t31.5 24t21 35t7.5 41t-7.5 41.5t-21 36.5t-32 26t-40.5 11q-38 2 -67.5 -24t-55.5 -74v1l-14 -27
q-18 -33 -36.5 -65t-44 -56.5t-60 -40t-83.5 -16.5q-36 1 -69.5 14t-59 37.5t-41 61.5t-15.5 87q0 30 14 63t38.5 60t59 44.5t76.5 17.5q28 0 51.5 -7.5t40 -16.5t26.5 -17t12 -11z" />
    <glyph glyph-name="uni2252" unicode="&#x2252;" horiz-adv-x="1000" 
d="M825 168h-650v87h650v-87zM324 584q23 0 40.5 -18t17.5 -42t-17.5 -40.5t-40.5 -16.5q-25 0 -41.5 16.5t-16.5 40.5t16.5 42t41.5 18zM678 123q23 0 40.5 -18t17.5 -41t-17.5 -40.5t-40.5 -17.5q-24 0 -41.5 17.5t-17.5 40.5t17.5 41t41.5 18zM825 331h-650v86h650v-86z
" />
    <glyph glyph-name="notequal" unicode="&#x2260;" horiz-adv-x="1000" 
d="M794 243v-87h-307q-14 -39 -29.5 -80.5t-29.5 -79.5l-96 16l54 144h-181v87h212q8 28 16 49t18 50h-246v88h277l55 165l92 -19l-48 -146h213v-88h-243q-10 -26 -17.5 -49t-16.5 -50h277z" />
    <glyph glyph-name="equivalence" unicode="&#x2261;" horiz-adv-x="1000" 
d="M825 396h-650v73h650v-73zM825 257h-650v73h650v-73zM825 118h-650v73h650v-73z" />
    <glyph glyph-name="lessequal" unicode="&#x2264;" horiz-adv-x="1000" 
d="M389 345q100 -40 201.5 -82.5t199.5 -83.5l-38 -80l-523 218q-7 3 -15.5 11t-8.5 16t8.5 16.5t15.5 11.5l517 217l35 -80zM802 83v-88h-604v88h604z" />
    <glyph glyph-name="greaterequal" unicode="&#x2265;" horiz-adv-x="1000" 
d="M246 99l-36 80l398 166l-391 164l35 80l518 -217h-1q8 -3 16.5 -11.5t8.5 -16.5t-8 -15.5t-16 -11.5zM802 -5h-604v88h604v-88z" />
    <glyph glyph-name="uni226A" unicode="&#x226a;" horiz-adv-x="819" 
d="M543 656l45 -66l-375 -287l370 -296l-46 -68l-455 362zM733 656l44 -68l-375 -285l374 -296l-50 -68l-454 362z" />
    <glyph glyph-name="uni226B" unicode="&#x226b;" horiz-adv-x="819" 
d="M736 301l-454 -362l-46 68l369 296l-375 287l45 66zM546 301l-454 -362l-50 68l374 296l-375 285l44 68z" />
    <glyph glyph-name="propersubset" unicode="&#x2282;" horiz-adv-x="1000" 
d="M832 587v-81h-406q-3 0 -12.5 -1.5t-22.5 -4.5t-27.5 -8t-27.5 -13q-18 -12 -33 -29t-26 -38.5t-17 -46.5t-5 -51q1 -22 7.5 -43.5t17 -41t23 -35.5t26.5 -25q34 -24 58 -27.5t38 -3.5h410v-81h-430h-12t-23 3t-32 9.5t-39 18.5q-61 35 -97.5 97t-36.5 136q0 72 33.5 129
t96.5 97q22 14 43 22t38.5 12t29.5 5t15 1h411z" />
    <glyph glyph-name="propersuperset" unicode="&#x2283;" horiz-adv-x="1000" 
d="M167 506v81h411q4 0 16 -1t29 -5t38 -12t43 -22q63 -40 97 -97t34 -129q0 -74 -37 -136t-97 -97q-21 -12 -39 -18.5t-32 -9.5t-23 -3h-12h-430v81h409q14 0 38.5 3.5t57.5 27.5q13 9 26 25t23.5 35.5t17 41t7.5 43.5q1 26 -5 51t-17 46.5t-26 38.5t-32 29q-13 8 -27.5 13
t-27.5 8t-23 4.5t-13 1.5h-406z" />
    <glyph glyph-name="reflexsubset" unicode="&#x2286;" horiz-adv-x="1000" 
d="M828 658v-78h-406q-2 0 -11.5 -1.5t-23 -5t-28 -8t-26.5 -10.5q-34 -20 -59 -59t-23 -86q1 -20 8 -39.5t17 -36t22 -30t23 -20.5q38 -22 61 -26t37 -4h413v-78h-431q-5 0 -33 2.5t-75 24.5q-23 12 -45 31t-39.5 42.5t-29.5 51.5t-16 58q-4 36 3.5 71t24.5 66t42.5 57.5
t58.5 45.5q20 11 40.5 17.5t38.5 9.5t30.5 4t15.5 1h411zM156 29v77h687v-77h-687z" />
    <glyph glyph-name="reflexsuperset" unicode="&#x2287;" horiz-adv-x="1000" 
d="M170 580v78h411q4 0 16.5 -1t30 -4t38 -9.5t40.5 -17.5q66 -39 102 -102.5t28 -137.5q-7 -62 -44.5 -110t-87.5 -73q-47 -22 -74.5 -24.5t-32.5 -2.5h-431v78h413q14 0 37.5 4t60.5 26q11 7 23 20.5t22 30t17 36t8 39.5q1 24 -5.5 45.5t-17.5 40.5t-26.5 34t-31.5 25
q-12 6 -27 10.5t-28 8t-23 5t-12 1.5h-406zM156 29v77h687v-77h-687z" />
    <glyph glyph-name="uni2299" unicode="&#x2299;" horiz-adv-x="1000" 
d="M502 690q77 0 144.5 -29t118 -80t79.5 -119.5t29 -147.5q0 -77 -29 -144.5t-80 -117.5t-119.5 -79t-147.5 -29q-77 0 -144.5 29t-117.5 79.5t-79 119t-29 147.5q0 77 29 144.5t79.5 118t119 79.5t147.5 29zM497 17q63 0 118 23.5t96.5 64t65 94.5t23.5 115
q0 63 -23.5 118t-64 96.5t-95 65t-115.5 23.5q-63 0 -118 -23.5t-96 -64t-64.5 -95t-23.5 -115.5q0 -63 23.5 -118t64 -96t94.5 -64.5t115 -23.5zM502 550q47 0 89 -18.5t73.5 -50t50 -75t18.5 -92.5q0 -48 -18.5 -90t-50 -73.5t-75 -49.5t-92.5 -18q-47 0 -89 18t-73.5 50
t-50 75t-18.5 93q0 47 18.5 89t50 73.5t74.5 50t93 18.5z" />
    <glyph glyph-name="perpendicular" unicode="&#x22a5;" horiz-adv-x="1000" 
d="M178 -12v90h276v503h93v-503h275v-90h-644z" />
    <glyph glyph-name="uni22EF" unicode="&#x22ef;" horiz-adv-x="684" 
d="M50 409h98l30 -19l-21 -133h-85l-22 14v138zM278 409h98l30 -19l-21 -133h-85l-22 14v138zM506 409h98l30 -19l-21 -133h-85l-22 14v138z" />
    <glyph glyph-name="uni2312" unicode="&#x2312;" horiz-adv-x="1000" 
d="M165 -17q10 67 40 124.5t74 99.5t100 65.5t119 23.5t119.5 -23.5t101 -65t74.5 -99t42 -125.5h-93q-9 49 -31.5 90.5t-55 71.5t-73 47t-84.5 17t-84 -16t-72 -46t-55 -71.5t-32 -92.5h-90z" />
    <glyph glyph-name="uni2460" unicode="&#x2460;" 
d="M453 756q90 0 168 -33.5t136.5 -91t92 -135t33.5 -165.5t-33.5 -165.5t-92 -135.5t-136.5 -91.5t-168 -33.5q-88 0 -165.5 33.5t-135.5 91.5t-92 135.5t-34 165.5t34 165.5t92 135t135.5 91t165.5 33.5zM453 687q-72 0 -136.5 -27.5t-112.5 -75.5t-76 -113t-28 -140
t28 -140t76 -113t112.5 -76t136.5 -28q73 0 138 28t113.5 76t76.5 113t28 140t-28 140t-76.5 113t-113.5 75.5t-138 27.5zM592 80l16 11l-15 57h-64v392l4 38l-77 11q-24 -19 -55 -34.5t-67 -26.5l23 -60q19 5 44.5 13.5t42.5 19.5v-353h-91l-10 -10l14 -58h235z" />
    <glyph glyph-name="uni2461" unicode="&#x2461;" 
d="M295 91h329l16 11l-19 59l-49 -3h-154q24 23 58.5 57.5t67 73.5t55 80t22.5 77q0 73 -44.5 113.5t-120.5 40.5q-51 0 -92 -29.5t-63 -89.5v-20l73 -26q10 46 34.5 69.5t50.5 23.5q36 0 56 -20.5t20 -58.5q0 -33 -23.5 -71t-59 -79t-78 -83t-79.5 -82v-43zM453 687
q-72 0 -136.5 -27.5t-112.5 -75.5t-76 -113t-28 -140t28 -140t76 -113t112.5 -76t136.5 -28q73 0 138 28t113.5 76t76.5 113t28 140t-28 140t-76.5 113t-113.5 75.5t-138 27.5zM453 756q90 0 168 -33.5t136.5 -91t92 -135t33.5 -165.5t-33.5 -165.5t-92 -135.5t-136.5 -91.5
t-168 -33.5q-88 0 -165.5 33.5t-135.5 91.5t-92 135.5t-34 165.5t34 165.5t92 135t135.5 91t165.5 33.5z" />
    <glyph glyph-name="uni2462" unicode="&#x2462;" 
d="M288 192v-20q46 -101 173 -101q44 0 78 12t56.5 32.5t34 47.5t11.5 56q0 46 -25.5 79.5t-74.5 49.5q14 5 28.5 14.5t26 22.5t19 30.5t7.5 39.5q0 57 -40 95.5t-121 38.5q-51 0 -91 -27t-62 -72v-20l73 -26q11 37 33 55t50 18q12 0 24.5 -3t23 -10t17.5 -20t7 -32
q0 -34 -31 -54.5t-77 -20.5h-18l-16 -11l8 -61h37q25 0 46 -4.5t36.5 -14t24.5 -25.5t9 -39q0 -34 -24.5 -57t-69.5 -23q-39 0 -64.5 21.5t-38.5 59.5zM453 687q-72 0 -136.5 -27.5t-112.5 -75.5t-76 -113t-28 -140t28 -140t76 -113t112.5 -76t136.5 -28q73 0 138 28
t113.5 76t76.5 113t28 140t-28 140t-76.5 113t-113.5 75.5t-138 27.5zM453 756q90 0 168 -33.5t136.5 -91t92 -135t33.5 -165.5t-33.5 -165.5t-92 -135.5t-136.5 -91.5t-168 -33.5q-88 0 -165.5 33.5t-135.5 91.5t-92 135.5t-34 165.5t34 165.5t92 135t135.5 91t165.5 33.5z
" />
    <glyph glyph-name="uni2463" unicode="&#x2463;" 
d="M453 756q90 0 168 -33.5t136.5 -91t92 -135t33.5 -165.5t-33.5 -165.5t-92 -135.5t-136.5 -91.5t-168 -33.5q-88 0 -165.5 33.5t-135.5 91.5t-92 135.5t-34 165.5t34 165.5t92 135t135.5 91t165.5 33.5zM453 687q-72 0 -136.5 -27.5t-112.5 -75.5t-76 -113t-28 -140
t28 -140t76 -113t112.5 -76t136.5 -28q73 0 138 28t113.5 76t76.5 113t28 140t-28 140t-76.5 113t-113.5 75.5t-138 27.5zM492 75l65 8l2 25v68h64l16 12l-20 59l-48 -4h-12v300l4 38l-80 11l-226 -348v-68h217v-96zM346 243l128 202v-202h-128z" />
    <glyph glyph-name="uni2464" unicode="&#x2464;" 
d="M407 507h179l15 10l-8 58h-269l-21 -283l78 -16q8 25 28.5 43t55.5 18q39 0 62.5 -28t23.5 -72q0 -46 -25 -74.5t-70 -28.5q-38 0 -56.5 21.5t-31.5 53.5l-70 -31v-21q23 -45 61.5 -69.5t95.5 -24.5q43 0 77 13t57.5 36.5t36 56t12.5 71.5t-12 70.5t-33 53t-50.5 33.5
t-64.5 12q-41 0 -78 -17zM453 687q-72 0 -136.5 -27.5t-112.5 -75.5t-76 -113t-28 -140t28 -140t76 -113t112.5 -76t136.5 -28q73 0 138 28t113.5 76t76.5 113t28 140t-28 140t-76.5 113t-113.5 75.5t-138 27.5zM453 756q90 0 168 -33.5t136.5 -91t92 -135t33.5 -165.5
t-33.5 -165.5t-92 -135.5t-136.5 -91.5t-168 -33.5q-88 0 -165.5 33.5t-135.5 91.5t-92 135.5t-34 165.5t34 165.5t92 135t135.5 91t165.5 33.5z" />
    <glyph glyph-name="uni2465" unicode="&#x2465;" 
d="M455 333q-18 0 -44.5 -9.5t-46.5 -27.5q0 -30 4.5 -58t15 -49.5t29 -34.5t46.5 -13q38 0 62.5 29t24.5 70q0 53 -25 73t-66 20zM548 463q-31 54 -83 54q-41 0 -67.5 -35.5t-31.5 -104.5q18 10 45 19t61 9q30 0 58.5 -9t51 -29t36.5 -51t14 -75q0 -34 -11 -65t-33 -54.5
t-54 -37.5t-74 -14q-48 0 -82.5 19.5t-56.5 51.5t-32 73t-10 83q0 61 9 114t31 92.5t57.5 62t89.5 22.5q51 0 88 -22.5t63 -64.5v-21zM453 687q-72 0 -136.5 -27.5t-112.5 -75.5t-76 -113t-28 -140t28 -140t76 -113t112.5 -76t136.5 -28q73 0 138 28t113.5 76t76.5 113
t28 140t-28 140t-76.5 113t-113.5 75.5t-138 27.5zM453 756q90 0 168 -33.5t136.5 -91t92 -135t33.5 -165.5t-33.5 -165.5t-92 -135.5t-136.5 -91.5t-168 -33.5q-88 0 -165.5 33.5t-135.5 91.5t-92 135.5t-34 165.5t34 165.5t92 135t135.5 91t165.5 33.5z" />
    <glyph glyph-name="uni2466" unicode="&#x2466;" 
d="M388 61h78l163 437l-16 60h-311l-11 -10l20 -62l25 4h200l-155 -413zM453 687q-72 0 -136.5 -27.5t-112.5 -75.5t-76 -113t-28 -140t28 -140t76 -113t112.5 -76t136.5 -28q73 0 138 28t113.5 76t76.5 113t28 140t-28 140t-76.5 113t-113.5 75.5t-138 27.5zM453 756
q90 0 168 -33.5t136.5 -91t92 -135t33.5 -165.5t-33.5 -165.5t-92 -135.5t-136.5 -91.5t-168 -33.5q-88 0 -165.5 33.5t-135.5 91.5t-92 135.5t-34 165.5t34 165.5t92 135t135.5 91t165.5 33.5z" />
    <glyph glyph-name="uni2467" unicode="&#x2467;" 
d="M455 399q34 0 52 17.5t18 41.5t-18 42t-52 18q-33 0 -51.5 -18t-18.5 -42t18.5 -41.5t51.5 -17.5zM373 352q-35 14 -53.5 43.5t-18.5 61.5q0 36 13.5 61t35 40.5t49 22.5t56.5 7t57 -7t49.5 -22.5t35 -40.5t13.5 -61q0 -33 -19 -62t-54 -43q18 -6 35.5 -17.5t31.5 -28
t22.5 -37.5t8.5 -46q0 -67 -45.5 -110.5t-134.5 -43.5q-88 0 -133.5 43.5t-45.5 110.5q0 25 8.5 46t22.5 37.5t31 28t35 17.5zM455 306q-23 0 -41 -7t-30 -19t-18 -27t-6 -31q0 -15 6 -30t18 -27t30 -19t41 -7t41 7t30 19t18 27t6 30q0 16 -6 31t-18 27t-30 19t-41 7z
M453 687q-72 0 -136.5 -27.5t-112.5 -75.5t-76 -113t-28 -140t28 -140t76 -113t112.5 -76t136.5 -28q73 0 138 28t113.5 76t76.5 113t28 140t-28 140t-76.5 113t-113.5 75.5t-138 27.5zM453 756q90 0 168 -33.5t136.5 -91t92 -135t33.5 -165.5t-33.5 -165.5t-92 -135.5
t-136.5 -91.5t-168 -33.5q-88 0 -165.5 33.5t-135.5 91.5t-92 135.5t-34 165.5t34 165.5t92 135t135.5 91t165.5 33.5z" />
    <glyph glyph-name="uni2468" unicode="&#x2468;" 
d="M369 183q27 -42 75 -42q24 0 41.5 11.5t29.5 31.5t19 46.5t9 57.5q-17 -11 -44.5 -19t-61.5 -8q-27 0 -55 9t-50.5 28.5t-36.5 50t-14 72.5q0 34 12 64t34 53t53.5 36.5t71.5 13.5q48 0 82 -19.5t55.5 -51.5t31 -72.5t9.5 -83.5q0 -62 -9.5 -115t-31 -92t-57.5 -61.5
t-89 -22.5q-91 0 -143 74v20zM453 332q19 0 45.5 9t46.5 29q0 30 -5 57t-15.5 47t-28.5 31.5t-43 11.5q-38 0 -62 -25t-24 -67q0 -26 7 -44t18.5 -29t27 -15.5t33.5 -4.5zM453 687q-72 0 -136.5 -27.5t-112.5 -75.5t-76 -113t-28 -140t28 -140t76 -113t112.5 -76t136.5 -28
q73 0 138 28t113.5 76t76.5 113t28 140t-28 140t-76.5 113t-113.5 75.5t-138 27.5zM453 756q90 0 168 -33.5t136.5 -91t92 -135t33.5 -165.5t-33.5 -165.5t-92 -135.5t-136.5 -91.5t-168 -33.5q-88 0 -165.5 33.5t-135.5 91.5t-92 135.5t-34 165.5t34 165.5t92 135t135.5 91
t165.5 33.5z" />
    <glyph glyph-name="uni2469" unicode="&#x2469;" 
d="M453 756q90 0 168 -33.5t136.5 -91t92 -135t33.5 -165.5t-33.5 -165.5t-92 -135.5t-136.5 -91.5t-168 -33.5q-88 0 -165.5 33.5t-135.5 91.5t-92 135.5t-34 165.5t34 165.5t92 135t135.5 91t165.5 33.5zM453 687q-72 0 -136.5 -27.5t-112.5 -75.5t-76 -113t-28 -140
q0 -69 23 -129t65 -108l-10 44l11 10h80v353q-17 -11 -37 -19t-39 -14l-23 60q32 13 60 27.5t52 33.5l76 -11l-4 -38v-392h55l14 -57l-15 -11h-206q48 -50 112.5 -78t138.5 -28q73 0 138 28t113.5 76t76.5 113t28 140t-28 140t-76.5 113t-113.5 75.5t-138 27.5zM579 76
q-34 0 -64 15t-52.5 47t-35.5 80.5t-13 116.5q0 67 13 116t35.5 81t52.5 47t64 15t64 -15.5t52.5 -47t35.5 -80.5t13 -116t-13 -116t-35.5 -80.5t-52.5 -47t-64 -15.5zM579 147q22 0 37.5 14.5t25 40t13.5 60t4 73.5t-4 73.5t-13.5 60t-25 40t-37.5 14.5t-37 -14.5
t-24.5 -40t-13.5 -60t-4 -73.5t4 -73.5t13.5 -60t24.5 -40t37 -14.5z" />
    <glyph glyph-name="uni246A" unicode="&#x246a;" 
d="M453 756q90 0 168 -33.5t136.5 -91t92 -135t33.5 -165.5t-33.5 -165.5t-92 -135.5t-136.5 -91.5t-168 -33.5q-88 0 -165.5 33.5t-135.5 91.5t-92 135.5t-34 165.5t34 165.5t92 135t135.5 91t165.5 33.5zM453 687q-72 0 -136.5 -27.5t-112.5 -75.5t-76 -113t-28 -140
t28 -140t76 -113t112.5 -76t136.5 -28q73 0 138 28t113.5 76t76.5 113t28 140t-28 140t-76.5 113t-113.5 75.5t-138 27.5zM694 79l15 12l-14 56h-50v392l4 38l-76 11q-24 -19 -55.5 -34.5t-67.5 -26.5l24 -60q18 5 43.5 13.5t42.5 19.5v-353h-85l-11 -10l15 -58h215zM437 79
l15 12l-14 56h-50v392l4 38l-76 11q-24 -19 -55.5 -34.5t-67.5 -26.5l24 -60q18 5 43.5 13.5t42.5 19.5v-353h-85l-11 -10l15 -58h215z" />
    <glyph glyph-name="uni246B" unicode="&#x246b;" 
d="M453 756q90 0 168 -33.5t136.5 -91t92 -135t33.5 -165.5t-33.5 -165.5t-92 -135.5t-136.5 -91.5t-168 -33.5q-88 0 -165.5 33.5t-135.5 91.5t-92 135.5t-34 165.5t34 165.5t92 135t135.5 91t165.5 33.5zM453 687q-72 0 -136.5 -27.5t-112.5 -75.5t-76 -113t-28 -140
q0 -69 23 -129t65 -107l-10 42l11 10h85v353q-17 -11 -42.5 -19.5t-43.5 -13.5l-24 60q36 11 67.5 26.5t55.5 34.5l76 -11l-4 -38v-392h50l14 -56l-15 -12h-205q48 -49 112.5 -77t137.5 -28q75 0 140 28.5t114 78.5h-276v43q37 40 75.5 82t69.5 83t50.5 79.5t19.5 71.5
q0 37 -16 57.5t-45 20.5q-25 0 -45 -23.5t-30 -69.5l-73 26v21q22 59 60 88.5t85 29.5q68 0 109.5 -40.5t41.5 -112.5q0 -37 -19 -78t-46.5 -80t-58.5 -73t-55 -57h124l50 3l10 -35q34 45 52.5 99t18.5 115q0 75 -28 140t-76.5 113t-113.5 75.5t-138 27.5z" />
    <glyph glyph-name="uni246C" unicode="&#x246c;" 
d="M453 756q90 0 168 -33.5t136.5 -91t92 -135t33.5 -165.5t-33.5 -165.5t-92 -135.5t-136.5 -91.5t-168 -33.5q-88 0 -165.5 33.5t-135.5 91.5t-92 135.5t-34 165.5t34 165.5t92 135t135.5 91t165.5 33.5zM453 687q-72 0 -136.5 -27.5t-112.5 -75.5t-76 -113t-28 -140
q0 -69 23 -129t65 -107l-10 42l11 10h85v353q-17 -11 -42.5 -19.5t-43.5 -13.5l-24 60q36 11 67.5 26.5t55.5 34.5l76 -11l-4 -38v-392h50l14 -56l-15 -12h-205q48 -49 112.5 -77t137.5 -28t138 28t113.5 76t76.5 113t28 140t-28 140t-76.5 113t-113.5 75.5t-138 27.5z
M482 223q13 -38 36 -59.5t58 -21.5q38 0 61 23t23 57q0 47 -28.5 65t-78.5 18h-37l-7 61l15 11h19q46 0 72 20.5t26 54.5q0 19 -6 32t-15 20t-20 10t-21 3q-25 0 -44 -18t-30 -55l-73 26v20q22 45 59 72t85 27q35 0 63 -10.5t47.5 -28.5t30 -42.5t10.5 -52.5
q0 -44 -21.5 -70t-50.5 -37q43 -14 66.5 -48.5t23.5 -80.5q0 -29 -11 -56t-33 -47.5t-53.5 -32.5t-71.5 -12q-119 0 -163 101v20z" />
    <glyph glyph-name="uni246D" unicode="&#x246d;" 
d="M453 756q90 0 168 -33.5t136.5 -91t92 -135t33.5 -165.5t-33.5 -165.5t-92 -135.5t-136.5 -91.5t-168 -33.5q-88 0 -165.5 33.5t-135.5 91.5t-92 135.5t-34 165.5t34 165.5t92 135t135.5 91t165.5 33.5zM453 687q-72 0 -136.5 -27.5t-112.5 -75.5t-76 -113t-28 -140
q0 -69 23 -129t65 -107l-10 42l11 10h85v353q-17 -11 -42.5 -19.5t-43.5 -13.5l-24 60q36 11 67.5 26.5t55.5 34.5l76 -11l-4 -38v-392h50l14 -56l-15 -12h-205q48 -49 112.5 -77t137.5 -28t138 28t113.5 76t76.5 113t28 140t-28 140t-76.5 113t-113.5 75.5t-138 27.5z
M605 80v96h-197v68l206 348l75 -11l-4 -38v-300h2l49 4l19 -59l-15 -12h-55v-68l-2 -25l-60 -8zM605 243v199l-109 -199h109z" />
    <glyph glyph-name="uni246E" unicode="&#x246e;" 
d="M453 756q90 0 168 -33.5t136.5 -91t92 -135t33.5 -165.5t-33.5 -165.5t-92 -135.5t-136.5 -91.5t-168 -33.5q-88 0 -165.5 33.5t-135.5 91.5t-92 135.5t-34 165.5t34 165.5t92 135t135.5 91t165.5 33.5zM453 687q-72 0 -136.5 -27.5t-112.5 -75.5t-76 -113t-28 -140
q0 -69 23 -129t65 -107l-10 42l11 10h85v353q-17 -11 -42.5 -19.5t-43.5 -13.5l-24 60q36 11 67.5 26.5t55.5 34.5l76 -11l-4 -38v-392h50l14 -56l-15 -12h-205q48 -49 112.5 -77t137.5 -28t138 28t113.5 76t76.5 113t28 140t-28 140t-76.5 113t-113.5 75.5t-138 27.5z
M527 392q37 17 68 17t58.5 -12t47 -33.5t31 -53t11.5 -70.5t-12 -71.5t-34 -56t-53.5 -36.5t-70.5 -13q-51 0 -89 23.5t-59 70.5v21l70 31q14 -30 31 -52.5t48 -22.5q38 0 61.5 28.5t23.5 74.5q0 44 -22.5 72t-54.5 28q-27 0 -46.5 -18t-27.5 -43l-78 16l21 283h246l8 -58
l-15 -10h-156z" />
    <glyph glyph-name="uni2474" unicode="&#x2474;" 
d="M26 330q0 85 22 153.5t48 117.5q31 57 70 101h40l24 -16q-9 -18 -28 -48.5t-38 -75t-33.5 -102.5t-14.5 -130t14 -129t33 -100.5t38 -74t29 -51.5l-24 -15h-40q-39 44 -70 100q-26 48 -48 116t-22 154zM883 330q0 -86 -22.5 -154t-48.5 -116q-31 -56 -70 -100h-39l-25 15
q10 21 29.5 51.5t38.5 74t33 100.5t14 129t-14.5 130t-33.5 102.5t-38 75t-29 48.5l25 16h39q39 -44 70 -101q26 -49 48.5 -117.5t22.5 -153.5zM357 80l-14 58l10 10h91v353q-17 -11 -42.5 -19.5t-44.5 -13.5l-23 60q36 11 67 26.5t55 34.5l77 -11l-4 -38v-392h64l15 -57
l-16 -11h-235z" />
    <glyph glyph-name="uni2475" unicode="&#x2475;" 
d="M295 134q37 40 79.5 82t78 83t59 79t23.5 71q0 38 -20 58.5t-56 20.5q-26 0 -50.5 -23.5t-34.5 -69.5l-73 26v20q22 60 63 89.5t92 29.5q76 0 120.5 -40.5t44.5 -113.5q0 -36 -22.5 -77t-55 -80t-67 -73.5t-58.5 -57.5h154l49 3l19 -59l-16 -11h-329v43zM26 330
q0 85 22 153.5t48 117.5q31 57 70 101h40l24 -16q-9 -18 -28 -48.5t-38 -75t-33.5 -102.5t-14.5 -130t14 -129t33 -100.5t38 -74t29 -51.5l-24 -15h-40q-39 44 -70 100q-26 48 -48 116t-22 154zM883 330q0 -86 -22.5 -154t-48.5 -116q-31 -56 -70 -100h-39l-25 15
q10 21 29.5 51.5t38.5 74t33 100.5t14 129t-14.5 130t-33.5 102.5t-38 75t-29 48.5l25 16h39q39 -44 70 -101q26 -49 48.5 -117.5t22.5 -153.5z" />
    <glyph glyph-name="uni2476" unicode="&#x2476;" 
d="M358 223q13 -38 38.5 -59.5t64.5 -21.5q45 0 69.5 23t24.5 57q0 23 -9 39t-24.5 25.5t-36.5 14t-46 4.5h-37l-8 61l16 11h18q46 0 77 20.5t31 54.5q0 19 -7 32t-17.5 20t-23 10t-24.5 3q-28 0 -50 -18t-33 -55l-73 26v20q22 45 62 72t91 27q81 0 121 -38.5t40 -95.5
q0 -22 -7.5 -39.5t-19 -30.5t-26 -22.5t-28.5 -14.5q49 -16 74.5 -49.5t25.5 -79.5q0 -29 -11.5 -56t-34 -47.5t-56.5 -32.5t-78 -12q-127 0 -173 101v20zM26 330q0 85 22 153.5t48 117.5q31 57 70 101h40l24 -16q-9 -18 -28 -48.5t-38 -75t-33.5 -102.5t-14.5 -130t14 -129
t33 -100.5t38 -74t29 -51.5l-24 -15h-40q-39 44 -70 100q-26 48 -48 116t-22 154zM883 330q0 -86 -22.5 -154t-48.5 -116q-31 -56 -70 -100h-39l-25 15q10 21 29.5 51.5t38.5 74t33 100.5t14 129t-14.5 130t-33.5 102.5t-38 75t-29 48.5l25 16h39q39 -44 70 -101
q26 -49 48.5 -117.5t22.5 -153.5z" />
    <glyph glyph-name="uni2477" unicode="&#x2477;" 
d="M474 80v96h-217v68l226 348l80 -11l-4 -38v-300h12l48 4l20 -59l-16 -12h-64v-68l-2 -25l-65 -8zM26 330q0 85 22 153.5t48 117.5q31 57 70 101h40l24 -16q-9 -18 -28 -48.5t-38 -75t-33.5 -102.5t-14.5 -130t14 -129t33 -100.5t38 -74t29 -51.5l-24 -15h-40
q-39 44 -70 100q-26 48 -48 116t-22 154zM883 330q0 -86 -22.5 -154t-48.5 -116q-31 -56 -70 -100h-39l-25 15q10 21 29.5 51.5t38.5 74t33 100.5t14 129t-14.5 130t-33.5 102.5t-38 75t-29 48.5l25 16h39q39 -44 70 -101q26 -49 48.5 -117.5t22.5 -153.5zM474 243v202
l-128 -202h128z" />
    <glyph glyph-name="uni2478" unicode="&#x2478;" 
d="M400 392q37 17 78 17q35 0 64.5 -12t50.5 -33.5t33 -53t12 -70.5t-12.5 -71.5t-36 -56t-57.5 -36.5t-77 -13q-57 0 -95.5 24.5t-61.5 69.5v21l70 31q13 -32 31.5 -53.5t56.5 -21.5q45 0 70 28.5t25 74.5q0 44 -23.5 72t-62.5 28q-35 0 -55.5 -18t-28.5 -43l-78 16l21 283
h269l8 -58l-15 -10h-179zM26 330q0 85 22 153.5t48 117.5q31 57 70 101h40l24 -16q-9 -18 -28 -48.5t-38 -75t-33.5 -102.5t-14.5 -130t14 -129t33 -100.5t38 -74t29 -51.5l-24 -15h-40q-39 44 -70 100q-26 48 -48 116t-22 154zM883 330q0 -86 -22.5 -154t-48.5 -116
q-31 -56 -70 -100h-39l-25 15q10 21 29.5 51.5t38.5 74t33 100.5t14 129t-14.5 130t-33.5 102.5t-38 75t-29 48.5l25 16h39q39 -44 70 -101q26 -49 48.5 -117.5t22.5 -153.5z" />
    <glyph glyph-name="uni2479" unicode="&#x2479;" 
d="M455 333q-18 0 -44.5 -9.5t-46.5 -27.5q0 -30 4.5 -58t15 -49.5t29 -34.5t46.5 -13q38 0 62.5 29t24.5 70q0 53 -25 73t-66 20zM548 463q-31 54 -83 54q-41 0 -67.5 -35.5t-31.5 -104.5q18 10 45 19t61 9q30 0 58.5 -9t51 -29t36.5 -51t14 -75q0 -34 -11 -65t-33 -54.5
t-54 -37.5t-74 -14q-48 0 -82.5 19.5t-56.5 51.5t-32 73t-10 83q0 61 9 114t31 92.5t57.5 62t89.5 22.5q51 0 88 -22.5t63 -64.5v-21zM26 330q0 85 22 153.5t48 117.5q31 57 70 101h40l24 -16q-9 -18 -28 -48.5t-38 -75t-33.5 -102.5t-14.5 -130t14 -129t33 -100.5t38 -74
t29 -51.5l-24 -15h-40q-39 44 -70 100q-26 48 -48 116t-22 154zM883 330q0 -86 -22.5 -154t-48.5 -116q-31 -56 -70 -100h-39l-25 15q10 21 29.5 51.5t38.5 74t33 100.5t14 129t-14.5 130t-33.5 102.5t-38 75t-29 48.5l25 16h39q39 -44 70 -101q26 -49 48.5 -117.5
t22.5 -153.5z" />
    <glyph glyph-name="uni247A" unicode="&#x247a;" 
d="M381 77l155 413h-200l-25 -4l-20 62l11 10h311l16 -60l-163 -437h-78zM26 330q0 85 22 153.5t48 117.5q31 57 70 101h40l24 -16q-9 -18 -28 -48.5t-38 -75t-33.5 -102.5t-14.5 -130t14 -129t33 -100.5t38 -74t29 -51.5l-24 -15h-40q-39 44 -70 100q-26 48 -48 116
t-22 154zM883 330q0 -86 -22.5 -154t-48.5 -116q-31 -56 -70 -100h-39l-25 15q10 21 29.5 51.5t38.5 74t33 100.5t14 129t-14.5 130t-33.5 102.5t-38 75t-29 48.5l25 16h39q39 -44 70 -101q26 -49 48.5 -117.5t22.5 -153.5z" />
    <glyph glyph-name="uni247B" unicode="&#x247b;" 
d="M455 399q34 0 52 17.5t18 41.5t-18 42t-52 18q-33 0 -51.5 -18t-18.5 -42t18.5 -41.5t51.5 -17.5zM373 352q-35 14 -53.5 43.5t-18.5 61.5q0 36 13.5 61t35 40.5t49 22.5t56.5 7t57 -7t49.5 -22.5t35 -40.5t13.5 -61q0 -33 -19 -62t-54 -43q18 -6 35.5 -17.5t31.5 -28
t22.5 -37.5t8.5 -46q0 -67 -45.5 -110.5t-134.5 -43.5q-88 0 -133.5 43.5t-45.5 110.5q0 25 8.5 46t22.5 37.5t31 28t35 17.5zM455 306q-23 0 -41 -7t-30 -19t-18 -27t-6 -31q0 -15 6 -30t18 -27t30 -19t41 -7t41 7t30 19t18 27t6 30q0 16 -6 31t-18 27t-30 19t-41 7z
M26 330q0 85 22 153.5t48 117.5q31 57 70 101h40l24 -16q-9 -18 -28 -48.5t-38 -75t-33.5 -102.5t-14.5 -130t14 -129t33 -100.5t38 -74t29 -51.5l-24 -15h-40q-39 44 -70 100q-26 48 -48 116t-22 154zM883 330q0 -86 -22.5 -154t-48.5 -116q-31 -56 -70 -100h-39l-25 15
q10 21 29.5 51.5t38.5 74t33 100.5t14 129t-14.5 130t-33.5 102.5t-38 75t-29 48.5l25 16h39q39 -44 70 -101q26 -49 48.5 -117.5t22.5 -153.5z" />
    <glyph glyph-name="uni247C" unicode="&#x247c;" 
d="M369 183q27 -42 75 -42q24 0 41.5 11.5t29.5 31.5t19 46.5t9 57.5q-17 -11 -44.5 -19t-61.5 -8q-27 0 -55 9t-50.5 28.5t-36.5 50t-14 72.5q0 34 12 64t34 53t53.5 36.5t71.5 13.5q48 0 82 -19.5t55.5 -51.5t31 -72.5t9.5 -83.5q0 -62 -9.5 -115t-31 -92t-57.5 -61.5
t-89 -22.5q-91 0 -143 74v20zM453 332q19 0 45.5 9t46.5 29q0 30 -5 57t-15.5 47t-28.5 31.5t-43 11.5q-38 0 -62 -25t-24 -67q0 -26 7 -44t18.5 -29t27 -15.5t33.5 -4.5zM26 330q0 85 22 153.5t48 117.5q31 57 70 101h40l24 -16q-9 -18 -28 -48.5t-38 -75t-33.5 -102.5
t-14.5 -130t14 -129t33 -100.5t38 -74t29 -51.5l-24 -15h-40q-39 44 -70 100q-26 48 -48 116t-22 154zM883 330q0 -86 -22.5 -154t-48.5 -116q-31 -56 -70 -100h-39l-25 15q10 21 29.5 51.5t38.5 74t33 100.5t14 129t-14.5 130t-33.5 102.5t-38 75t-29 48.5l25 16h39
q39 -44 70 -101q26 -49 48.5 -117.5t22.5 -153.5z" />
    <glyph glyph-name="uni247D" unicode="&#x247d;" 
d="M579 76q-34 0 -64 15t-52.5 47t-35.5 80.5t-13 116.5q0 67 13 116t35.5 81t52.5 47t64 15t64 -15.5t52.5 -47t35.5 -80.5t13 -116t-13 -116t-35.5 -80.5t-52.5 -47t-64 -15.5zM883 330q0 -86 -20.5 -154t-45.5 -116q-29 -56 -65 -100h-40l-24 15q10 21 28.5 51.5t36.5 74
t31.5 100.5t13.5 129t-13.5 130t-32 102.5t-37 75t-27.5 48.5l24 16h40q36 -44 65 -101q25 -49 45.5 -117.5t20.5 -153.5zM26 330q0 85 20 153.5t45 117.5q29 57 66 101h39l25 -16q-10 -18 -28.5 -48.5t-36.5 -75t-31.5 -102.5t-13.5 -130t13 -129t31 -100.5t36.5 -74
t29.5 -51.5l-25 -15h-39q-37 44 -66 100q-25 48 -45 116t-20 154zM192 80l-14 58l11 10h80v353q-17 -11 -37 -19t-39 -14l-23 60q32 13 60 27.5t52 33.5l76 -11l-4 -38v-392h55l14 -57l-15 -11h-216zM579 147q22 0 37.5 14.5t25 40t13.5 60t4 73.5t-4 73.5t-13.5 60t-25 40
t-37.5 14.5t-37 -14.5t-24.5 -40t-13.5 -60t-4 -73.5t4 -73.5t13.5 -60t24.5 -40t37 -14.5z" />
    <glyph glyph-name="uni247E" unicode="&#x247e;" 
d="M883 330q0 -86 -20.5 -154t-45.5 -116q-29 -56 -65 -100h-40l-24 15q10 21 28.5 51.5t36.5 74t31.5 100.5t13.5 129t-13.5 130t-32 102.5t-37 75t-27.5 48.5l24 16h40q36 -44 65 -101q25 -49 45.5 -117.5t20.5 -153.5zM26 330q0 85 20 153.5t45 117.5q29 57 66 101h39
l25 -16q-10 -18 -28.5 -48.5t-36.5 -75t-31.5 -102.5t-13.5 -130t13 -129t31 -100.5t36.5 -74t29.5 -51.5l-25 -15h-39q-37 44 -66 100q-25 48 -45 116t-20 154zM222 79l-15 58l11 10h85v353q-17 -11 -42.5 -19.5t-43.5 -13.5l-24 60q36 11 67.5 26.5t55.5 34.5l76 -11
l-4 -38v-392h50l14 -56l-15 -12h-215zM479 79l-15 58l11 10h85v353q-17 -11 -42.5 -19.5t-43.5 -13.5l-24 60q36 11 67.5 26.5t55.5 34.5l76 -11l-4 -38v-392h50l14 -56l-15 -12h-215z" />
    <glyph glyph-name="uni247F" unicode="&#x247f;" 
d="M429 124q37 40 75.5 82t69.5 83t50.5 79.5t19.5 71.5q0 37 -16 57.5t-45 20.5q-25 0 -45 -23.5t-30 -69.5l-73 26v21q22 59 60 88.5t85 29.5q68 0 109.5 -40.5t41.5 -112.5q0 -37 -19 -78t-46.5 -80t-58.5 -73t-55 -57h120l49 3l19 -60l-16 -11h-295v43zM883 330
q0 -86 -20.5 -154t-45.5 -116q-29 -56 -65 -100h-40l-24 15q10 21 28.5 51.5t36.5 74t31.5 100.5t13.5 129t-13.5 130t-32 102.5t-37 75t-27.5 48.5l24 16h40q36 -44 65 -101q25 -49 45.5 -117.5t20.5 -153.5zM26 330q0 85 20 153.5t45 117.5q29 57 66 101h39l25 -16
q-10 -18 -28.5 -48.5t-36.5 -75t-31.5 -102.5t-13.5 -130t13 -129t31 -100.5t36.5 -74t29.5 -51.5l-25 -15h-39q-37 44 -66 100q-25 48 -45 116t-20 154zM191 79l-15 58l11 10h85v353q-17 -11 -42.5 -19.5t-43.5 -13.5l-24 60q36 11 67.5 26.5t55.5 34.5l76 -11l-4 -38v-392
h50l14 -56l-15 -12h-215z" />
    <glyph glyph-name="uni2480" unicode="&#x2480;" 
d="M482 223q13 -38 36 -59.5t58 -21.5q38 0 61 23t23 57q0 47 -28.5 65t-78.5 18h-37l-7 61l15 11h19q46 0 72 20.5t26 54.5q0 19 -6 32t-15 20t-20 10t-21 3q-25 0 -44 -18t-30 -55l-73 26v20q22 45 59 72t85 27q35 0 63 -10.5t47.5 -28.5t30 -42.5t10.5 -52.5
q0 -44 -21.5 -70t-50.5 -37q43 -14 66.5 -48.5t23.5 -80.5q0 -29 -11 -56t-33 -47.5t-53.5 -32.5t-71.5 -12q-119 0 -163 101v20zM883 330q0 -86 -20.5 -154t-45.5 -116q-29 -56 -65 -100h-40l-24 15q10 21 28.5 51.5t36.5 74t31.5 100.5t13.5 129t-13.5 130t-32 102.5
t-37 75t-27.5 48.5l24 16h40q36 -44 65 -101q25 -49 45.5 -117.5t20.5 -153.5zM26 330q0 85 20 153.5t45 117.5q29 57 66 101h39l25 -16q-10 -18 -28.5 -48.5t-36.5 -75t-31.5 -102.5t-13.5 -130t13 -129t31 -100.5t36.5 -74t29.5 -51.5l-25 -15h-39q-37 44 -66 100
q-25 48 -45 116t-20 154zM192 79l-14 58l11 10h85v353q-17 -11 -42.5 -19.5t-43.5 -13.5l-24 60q36 11 67.5 26.5t55.5 34.5l76 -11l-4 -38v-392h50l14 -56l-15 -12h-216z" />
    <glyph glyph-name="uni2481" unicode="&#x2481;" 
d="M605 80v96h-197v68l206 348l75 -11l-4 -38v-300h2l49 4l19 -59l-15 -12h-55v-68l-2 -25l-60 -8zM883 330q0 -86 -20.5 -154t-45.5 -116q-29 -56 -65 -100h-40l-24 15q10 21 28.5 51.5t36.5 74t31.5 100.5t13.5 129t-13.5 130t-32 102.5t-37 75t-27.5 48.5l24 16h40
q36 -44 65 -101q25 -49 45.5 -117.5t20.5 -153.5zM26 330q0 85 20 153.5t45 117.5q29 57 66 101h39l25 -16q-10 -18 -28.5 -48.5t-36.5 -75t-31.5 -102.5t-13.5 -130t13 -129t31 -100.5t36.5 -74t29.5 -51.5l-25 -15h-39q-37 44 -66 100q-25 48 -45 116t-20 154zM192 79
l-14 58l11 10h85v353q-17 -11 -42.5 -19.5t-43.5 -13.5l-24 60q36 11 67.5 26.5t55.5 34.5l76 -11l-4 -38v-392h50l14 -56l-15 -12h-216zM605 243v199l-109 -199h109z" />
    <glyph glyph-name="uni2482" unicode="&#x2482;" 
d="M527 392q37 17 68 17t58.5 -12t47 -33.5t31 -53t11.5 -70.5t-12 -71.5t-34 -56t-53.5 -36.5t-70.5 -13q-51 0 -89 23.5t-59 70.5v21l70 31q14 -30 31 -52.5t48 -22.5q38 0 61.5 28.5t23.5 74.5q0 44 -22.5 72t-54.5 28q-27 0 -46.5 -18t-27.5 -43l-78 16l21 283h246
l8 -58l-15 -10h-156zM883 330q0 -86 -20.5 -154t-45.5 -116q-29 -56 -65 -100h-40l-24 15q10 21 28.5 51.5t36.5 74t31.5 100.5t13.5 129t-13.5 130t-32 102.5t-37 75t-27.5 48.5l24 16h40q36 -44 65 -101q25 -49 45.5 -117.5t20.5 -153.5zM26 330q0 85 20 153.5t45 117.5
q29 57 66 101h39l25 -16q-10 -18 -28.5 -48.5t-36.5 -75t-31.5 -102.5t-13.5 -130t13 -129t31 -100.5t36.5 -74t29.5 -51.5l-25 -15h-39q-37 44 -66 100q-25 48 -45 116t-20 154zM192 79l-14 58l11 10h85v353q-17 -11 -42.5 -19.5t-43.5 -13.5l-24 60q36 11 67.5 26.5
t55.5 34.5l76 -11l-4 -38v-392h50l14 -56l-15 -12h-216z" />
    <glyph glyph-name="uni249C" unicode="&#x249c;" 
d="M458 523q32 0 61 -7.5t50.5 -25.5t34 -48t12.5 -75v-179l-3 -28l-66 -11l-19 5v22q-17 -11 -44.5 -18.5t-57.5 -7.5q-24 0 -47 6t-41.5 19t-29.5 33.5t-11 49.5q0 28 11 48.5t30.5 35t45 24.5t55.5 16q24 5 46.5 8t40.5 6q-3 19 -11 30.5t-18 17.5t-21 7.5t-21 1.5
q-18 0 -40 -2t-42 -5l-25 -7l-29 64l11 11q6 0 22.5 1.5t24.5 2.5q20 2 40.5 3.5t40.5 1.5zM26 330q0 85 22 153.5t48 117.5q31 57 70 101h40l24 -16q-9 -18 -28 -48.5t-38 -75t-33.5 -102.5t-14.5 -130t14 -129t33 -100.5t38 -74t29 -51.5l-24 -15h-40q-39 44 -70 100
q-26 48 -48 116t-22 154zM883 330q0 -86 -22.5 -154t-48.5 -116q-31 -56 -70 -100h-39l-25 15q10 21 29.5 51.5t38.5 74t33 100.5t14 129t-14.5 130t-33.5 102.5t-38 75t-29 48.5l25 16h39q39 -44 70 -101q26 -49 48.5 -117.5t22.5 -153.5zM385 261q0 -22 15 -32.5t38 -10.5
q20 0 45 5.5t45 15.5v92q-18 -3 -40.5 -7.5t-40.5 -9.5q-23 -7 -42.5 -18t-19.5 -35z" />
    <glyph glyph-name="uni249D" unicode="&#x249d;" 
d="M498 60q-34 0 -54 8.5t-34 19.5l-1 -15l-66 -12l-20 5v555h92l-4 -27v-181q14 8 35 15t52 7q42 0 72 -15.5t49.5 -41.5t29 -60t9.5 -70t-9.5 -70t-29 -60.5t-49.5 -42t-72 -15.5zM26 330q0 85 22 153.5t48 117.5q31 57 70 101h40l24 -16q-9 -18 -28 -48.5t-38 -75
t-33.5 -102.5t-14.5 -130t14 -129t33 -100.5t38 -74t29 -51.5l-24 -15h-40q-39 44 -70 100q-26 48 -48 116t-22 154zM883 330q0 -86 -22.5 -154t-48.5 -116q-31 -56 -70 -100h-39l-25 15q10 21 29.5 51.5t38.5 74t33 100.5t14 129t-14.5 130t-33.5 102.5t-38 75t-29 48.5
l25 16h39q39 -44 70 -101q26 -49 48.5 -117.5t22.5 -153.5zM570 248q0 23 -4.5 44t-15 37.5t-26.5 26t-39 9.5q-22 0 -38.5 -4.5t-35.5 -12.5v-200q20 -9 35.5 -13.5t38.5 -4.5t39 10t26.5 26.5t15 37.5t4.5 44z" />
    <glyph glyph-name="uni249E" unicode="&#x249e;" 
d="M626 231v-22q-51 -71 -152 -71q-38 0 -71.5 12t-59.5 36t-41 59t-15 80t15 80t41 59t59.5 36.5t71.5 12.5q42 0 79.5 -14t64.5 -49v-21l-58 -36l-14 21q-14 15 -32.5 21.5t-39.5 6.5q-19 0 -36.5 -6t-31 -20t-22 -36t-8.5 -55q0 -32 8.5 -54t22 -35.5t31 -19.5t36.5 -6
q61 0 90 48zM26 330q0 85 22 153.5t48 117.5q31 57 70 101h40l24 -16q-9 -18 -28 -48.5t-38 -75t-33.5 -102.5t-14.5 -130t14 -129t33 -100.5t38 -74t29 -51.5l-24 -15h-40q-39 44 -70 100q-26 48 -48 116t-22 154zM883 330q0 -86 -22.5 -154t-48.5 -116q-31 -56 -70 -100
h-39l-25 15q10 21 29.5 51.5t38.5 74t33 100.5t14 129t-14.5 130t-33.5 102.5t-38 75t-29 48.5l25 16h39q39 -44 70 -101q26 -49 48.5 -117.5t22.5 -153.5z" />
    <glyph glyph-name="uni249F" unicode="&#x249f;" 
d="M589 73l-66 -12l-19 5v20q-16 -11 -35.5 -18.5t-51.5 -7.5q-42 0 -72 15.5t-49.5 42t-29 60.5t-9.5 70t9.5 70t29 60t49.5 41.5t72 15.5q30 0 50.5 -6.5t36.5 -14.5v207h92l-4 -27v-494zM26 330q0 85 22 153.5t48 117.5q31 57 70 101h40l24 -16q-9 -18 -28 -48.5t-38 -75
t-33.5 -102.5t-14.5 -130t14 -129t33 -100.5t38 -74t29 -51.5l-24 -15h-40q-39 44 -70 100q-26 48 -48 116t-22 154zM883 330q0 -86 -22.5 -154t-48.5 -116q-31 -56 -70 -100h-39l-25 15q10 21 29.5 51.5t38.5 74t33 100.5t14 129t-14.5 130t-33.5 102.5t-38 75t-29 48.5
l25 16h39q39 -44 70 -101q26 -49 48.5 -117.5t22.5 -153.5zM345 248q0 -23 5 -44t15 -37.5t26 -26.5t39 -10q22 0 38 4t36 13v202q-20 8 -36.5 12t-37.5 4q-23 0 -39 -9.5t-26 -26t-15 -37.5t-5 -44z" />
    <glyph glyph-name="uni24A0" unicode="&#x24a0;" 
d="M620 213q-51 -71 -148 -71q-38 0 -71 12t-58.5 36t-40 59t-14.5 80t14.5 80t38.5 59t56 36.5t67 12.5q38 0 69.5 -13.5t54 -37.5t34.5 -57.5t12 -73.5v-34h-254q6 -48 32.5 -68.5t59.5 -20.5q56 0 86 50l62 -27v-22zM26 330q0 85 22 153.5t48 117.5q31 57 70 101h40
l24 -16q-9 -18 -28 -48.5t-38 -75t-33.5 -102.5t-14.5 -130t14 -129t33 -100.5t38 -74t29 -51.5l-24 -15h-40q-39 44 -70 100q-26 48 -48 116t-22 154zM883 330q0 -86 -22.5 -154t-48.5 -116q-31 -56 -70 -100h-39l-25 15q10 21 29.5 51.5t38.5 74t33 100.5t14 129
t-14.5 130t-33.5 102.5t-38 75t-29 48.5l25 16h39q39 -44 70 -101q26 -49 48.5 -117.5t22.5 -153.5zM468 447q-30 0 -55 -17t-33 -65h165q0 34 -21 58t-56 24z" />
    <glyph glyph-name="uni24A1" unicode="&#x24a1;" 
d="M569 344l-9 -17h-98v-256l-2 -27l-66 -12l-19 5v290h-58l-8 55l9 17h57v42q0 79 29.5 118.5t92.5 39.5q24 0 52 -10t56 -45v-15l-55 -34q-9 14 -18 23.5t-27 7.5q-23 -2 -33 -22t-10 -63v-42h99zM26 330q0 85 22 153.5t48 117.5q31 57 70 101h40l24 -16q-9 -18 -28 -48.5
t-38 -75t-33.5 -102.5t-14.5 -130t14 -129t33 -100.5t38 -74t29 -51.5l-24 -15h-40q-39 44 -70 100q-26 48 -48 116t-22 154zM883 330q0 -86 -22.5 -154t-48.5 -116q-31 -56 -70 -100h-39l-25 15q10 21 29.5 51.5t38.5 74t33 100.5t14 129t-14.5 130t-33.5 102.5t-38 75
t-29 48.5l25 16h39q39 -44 70 -101q26 -49 48.5 -117.5t22.5 -153.5z" />
    <glyph glyph-name="uni24A2" unicode="&#x24a2;" 
d="M449 571q17 0 33 -2.5t30 -6.5q24 10 53 22.5t47 21.5l20 -12v-77h-51q24 -32 24 -71q0 -26 -11 -49.5t-31 -41t-50 -28t-67 -10.5q-22 0 -41 3q-5 -7 -9.5 -14t-4.5 -13q0 -14 15 -15l104 -18q57 -9 91.5 -32.5t34.5 -71.5q0 -34 -18.5 -56.5t-47 -35.5t-61.5 -18.5
t-61 -5.5q-36 0 -68 6t-56 20.5t-37.5 37.5t-13.5 58l61 26l18 -14q0 -34 27.5 -49t71.5 -15q15 0 32.5 2.5t31.5 8t23.5 14.5t9.5 23q0 17 -10.5 25.5t-30.5 11.5l-115 18q-40 5 -66.5 20.5t-26.5 43.5q0 20 12.5 38.5t26.5 33.5q-24 18 -36.5 43t-12.5 54q0 25 11 47.5
t31.5 40t50 27.5t67.5 10zM26 330q0 85 22 153.5t48 117.5q31 57 70 101h40l24 -16q-9 -18 -28 -48.5t-38 -75t-33.5 -102.5t-14.5 -130t14 -129t33 -100.5t38 -74t29 -51.5l-24 -15h-40q-39 44 -70 100q-26 48 -48 116t-22 154zM883 330q0 -86 -22.5 -154t-48.5 -116
q-31 -56 -70 -100h-39l-25 15q10 21 29.5 51.5t38.5 74t33 100.5t14 129t-14.5 130t-33.5 102.5t-38 75t-29 48.5l25 16h39q39 -44 70 -101q26 -49 48.5 -117.5t22.5 -153.5zM447 384q31 0 50 17t19 45q0 26 -18 42t-49 16q-34 0 -53 -15.5t-19 -42.5q0 -29 20.5 -45.5
t49.5 -16.5z" />
    <glyph glyph-name="uni24A3" unicode="&#x24a3;" 
d="M399 63l-66 -11l-19 5v554h91l-4 -27v-180q17 10 41 15.5t55 5.5q25 0 49.5 -8.5t43.5 -25.5t30.5 -44t11.5 -64v-192l-2 -28l-66 -11l-19 5v213q0 41 -19 61.5t-47 20.5q-44 0 -78 -14v-247zM26 330q0 85 22 153.5t48 117.5q31 57 70 101h40l24 -16q-9 -18 -28 -48.5
t-38 -75t-33.5 -102.5t-14.5 -130t14 -129t33 -100.5t38 -74t29 -51.5l-24 -15h-40q-39 44 -70 100q-26 48 -48 116t-22 154zM883 330q0 -86 -22.5 -154t-48.5 -116q-31 -56 -70 -100h-39l-25 15q10 21 29.5 51.5t38.5 74t33 100.5t14 129t-14.5 130t-33.5 102.5t-38 75
t-29 48.5l25 16h39q39 -44 70 -101q26 -49 48.5 -117.5t22.5 -153.5z" />
    <glyph glyph-name="uni24A4" unicode="&#x24a4;" 
d="M496 72l-67 -12l-18 5v362h91l-4 -27v-301zM418 592h73l23 -15l-23 -94h-63l-17 10zM26 330q0 85 22 153.5t48 117.5q31 57 70 101h40l24 -16q-9 -18 -28 -48.5t-38 -75t-33.5 -102.5t-14.5 -130t14 -129t33 -100.5t38 -74t29 -51.5l-24 -15h-40q-39 44 -70 100
q-26 48 -48 116t-22 154zM883 330q0 -86 -22.5 -154t-48.5 -116q-31 -56 -70 -100h-39l-25 15q10 21 29.5 51.5t38.5 74t33 100.5t14 129t-14.5 130t-33.5 102.5t-38 75t-29 48.5l25 16h39q39 -44 70 -101q26 -49 48.5 -117.5t22.5 -153.5z" />
    <glyph glyph-name="uni24A5" unicode="&#x24a5;" 
d="M438 628h73l23 -15l-23 -94h-63l-18 10zM430 463h91l-4 -27v-192q0 -88 -35.5 -138.5t-104.5 -70.5l-32 37l7 17q24 12 39.5 26.5t24 31.5t11.5 36t3 42v238zM26 330q0 85 22 153.5t48 117.5q31 57 70 101h40l24 -16q-9 -18 -28 -48.5t-38 -75t-33.5 -102.5t-14.5 -130
t14 -129t33 -100.5t38 -74t29 -51.5l-24 -15h-40q-39 44 -70 100q-26 48 -48 116t-22 154zM883 330q0 -86 -22.5 -154t-48.5 -116q-31 -56 -70 -100h-39l-25 15q10 21 29.5 51.5t38.5 74t33 100.5t14 129t-14.5 130t-33.5 102.5t-38 75t-29 48.5l25 16h39q39 -44 70 -101
q26 -49 48.5 -117.5t22.5 -153.5z" />
    <glyph glyph-name="uni24A6" unicode="&#x24a6;" 
d="M409 63l-66 -11l-20 5v554h92l-4 -27v-305l119 139h107l-136 -154l154 -188l-12 -18h-85l-111 146l-36 -41v-72zM26 330q0 85 22 153.5t48 117.5q31 57 70 101h40l24 -16q-9 -18 -28 -48.5t-38 -75t-33.5 -102.5t-14.5 -130t14 -129t33 -100.5t38 -74t29 -51.5l-24 -15
h-40q-39 44 -70 100q-26 48 -48 116t-22 154zM883 330q0 -86 -22.5 -154t-48.5 -116q-31 -56 -70 -100h-39l-25 15q10 21 29.5 51.5t38.5 74t33 100.5t14 129t-14.5 130t-33.5 102.5t-38 75t-29 48.5l25 16h39q39 -44 70 -101q26 -49 48.5 -117.5t22.5 -153.5z" />
    <glyph glyph-name="uni24A7" unicode="&#x24a7;" 
d="M496 63l-66 -11l-19 5v554h91l-4 -27v-493zM26 330q0 85 22 153.5t48 117.5q31 57 70 101h40l24 -16q-9 -18 -28 -48.5t-38 -75t-33.5 -102.5t-14.5 -130t14 -129t33 -100.5t38 -74t29 -51.5l-24 -15h-40q-39 44 -70 100q-26 48 -48 116t-22 154zM883 330
q0 -86 -22.5 -154t-48.5 -116q-31 -56 -70 -100h-39l-25 15q10 21 29.5 51.5t38.5 74t33 100.5t14 129t-14.5 130t-33.5 102.5t-38 75t-29 48.5l25 16h39q39 -44 70 -101q26 -49 48.5 -117.5t22.5 -153.5z" />
    <glyph glyph-name="uni24A8" unicode="&#x24a8;" 
d="M698 178l-3 -27l-66 -12l-19 5v230q0 34 -10 50t-33 16q-19 0 -36.5 -5.5t-34.5 -15.5q1 -6 1.5 -12.5t0.5 -13.5v-215l-2 -27l-66 -12l-19 5v230q0 34 -10 50t-34 16q-19 0 -35 -5t-33 -15v-242l-2 -27l-66 -12l-19 5v362h91l-3 -20q16 10 38.5 18t46.5 8q28 0 51 -9
t39 -29q18 12 48.5 25t60.5 13q48 0 81 -27.5t33 -91.5v-215zM26 330q0 85 22 153.5t48 117.5q31 57 70 101h40l24 -16q-9 -18 -28 -48.5t-38 -75t-33.5 -102.5t-14.5 -130t14 -129t33 -100.5t38 -74t29 -51.5l-24 -15h-40q-39 44 -70 100q-26 48 -48 116t-22 154zM883 330
q0 -86 -22.5 -154t-48.5 -116q-31 -56 -70 -100h-39l-25 15q10 21 29.5 51.5t38.5 74t33 100.5t14 129t-14.5 130t-33.5 102.5t-38 75t-29 48.5l25 16h39q39 -44 70 -101q26 -49 48.5 -117.5t22.5 -153.5z" />
    <glyph glyph-name="uni24A9" unicode="&#x24a9;" 
d="M385 159l-66 -11l-20 5v361h91l-4 -23q16 11 43 20.5t57 9.5q25 0 49 -8t42.5 -25.5t30 -44.5t11.5 -64v-192l-3 -28l-66 -11l-19 5v213q0 41 -17 61.5t-46 20.5q-46 0 -82 -22v-239zM26 330q0 85 22 153.5t48 117.5q31 57 70 101h40l24 -16q-9 -18 -28 -48.5t-38 -75
t-33.5 -102.5t-14.5 -130t14 -129t33 -100.5t38 -74t29 -51.5l-24 -15h-40q-39 44 -70 100q-26 48 -48 116t-22 154zM883 330q0 -86 -22.5 -154t-48.5 -116q-31 -56 -70 -100h-39l-25 15q10 21 29.5 51.5t38.5 74t33 100.5t14 129t-14.5 130t-33.5 102.5t-38 75t-29 48.5
l25 16h39q39 -44 70 -101q26 -49 48.5 -117.5t22.5 -153.5z" />
    <glyph glyph-name="uni24AA" unicode="&#x24aa;" 
d="M277 325q0 45 15 80t41 59t59.5 36.5t71.5 12.5q37 0 71 -12t60 -36t41 -59t15 -81t-15 -81t-41 -58.5t-60 -35.5t-71 -12q-38 0 -71.5 12t-59.5 36t-41 59t-15 80zM364 325q0 -32 8.5 -54t23 -35.5t32.5 -19.5t36 -6q19 0 37 6t32 19.5t22.5 35.5t8.5 54q0 33 -8.5 55
t-22.5 36t-32 20t-37 6q-18 0 -36 -6t-32.5 -20t-23 -36t-8.5 -55zM26 330q0 85 22 153.5t48 117.5q31 57 70 101h40l24 -16q-9 -18 -28 -48.5t-38 -75t-33.5 -102.5t-14.5 -130t14 -129t33 -100.5t38 -74t29 -51.5l-24 -15h-40q-39 44 -70 100q-26 48 -48 116t-22 154z
M883 330q0 -86 -22.5 -154t-48.5 -116q-31 -56 -70 -100h-39l-25 15q10 21 29.5 51.5t38.5 74t33 100.5t14 129t-14.5 130t-33.5 102.5t-38 75t-29 48.5l25 16h39q39 -44 70 -101q26 -49 48.5 -117.5t22.5 -153.5z" />
    <glyph glyph-name="uni24AB" unicode="&#x24ab;" 
d="M409 62l-66 -11l-20 5v518h92l-3 -21q14 11 34 19t52 8q42 0 72 -15.5t49.5 -41.5t29 -60t9.5 -70t-9.5 -70t-29 -60t-49.5 -41.5t-72 -15.5q-31 0 -51.5 6.5t-35.5 14.5v-137zM26 330q0 85 22 153.5t48 117.5q31 57 70 101h40l24 -16q-9 -18 -28 -48.5t-38 -75
t-33.5 -102.5t-14.5 -130t14 -129t33 -100.5t38 -74t29 -51.5l-24 -15h-40q-39 44 -70 100q-26 48 -48 116t-22 154zM883 330q0 -86 -22.5 -154t-48.5 -116q-31 -56 -70 -100h-39l-25 15q10 21 29.5 51.5t38.5 74t33 100.5t14 129t-14.5 130t-33.5 102.5t-38 75t-29 48.5
l25 16h39q39 -44 70 -101q26 -49 48.5 -117.5t22.5 -153.5zM570 393q0 22 -4.5 43.5t-15 38t-26.5 26.5t-39 10t-38.5 -5t-35.5 -13v-201q19 -8 35.5 -12t38.5 -4q23 0 39 9.5t26.5 26t15 37.5t4.5 44z" />
    <glyph glyph-name="uni24AC" unicode="&#x24ac;" 
d="M589 62l-66 -11l-19 5v171q-15 -8 -36 -14.5t-51 -6.5q-42 0 -72 15.5t-49.5 41.5t-29 60t-9.5 70t9.5 70t29 60t49.5 41.5t72 15.5q32 0 52 -8t35 -19v21h92l-4 -28v-456zM26 330q0 85 22 153.5t48 117.5q31 57 70 101h40l24 -16q-9 -18 -28 -48.5t-38 -75t-33.5 -102.5
t-14.5 -130t14 -129t33 -100.5t38 -74t29 -51.5l-24 -15h-40q-39 44 -70 100q-26 48 -48 116t-22 154zM883 330q0 -86 -22.5 -154t-48.5 -116q-31 -56 -70 -100h-39l-25 15q10 21 29.5 51.5t38.5 74t33 100.5t14 129t-14.5 130t-33.5 102.5t-38 75t-29 48.5l25 16h39
q39 -44 70 -101q26 -49 48.5 -117.5t22.5 -153.5zM345 393q0 -23 5 -44t15 -37.5t26 -26t39 -9.5q21 0 37.5 4t36.5 12v201q-20 8 -35.5 13t-38.5 5t-39 -10t-26 -26.5t-15 -38t-5 -43.5z" />
    <glyph glyph-name="uni24AD" unicode="&#x24ad;" 
d="M26 330q0 85 22 153.5t48 117.5q31 57 70 101h40l24 -16q-9 -18 -28 -48.5t-38 -75t-33.5 -102.5t-14.5 -130t14 -129t33 -100.5t38 -74t29 -51.5l-24 -15h-40q-39 44 -70 100q-26 48 -48 116t-22 154zM883 330q0 -86 -22.5 -154t-48.5 -116q-31 -56 -70 -100h-39l-25 15
q10 21 29.5 51.5t38.5 74t33 100.5t14 129t-14.5 130t-33.5 102.5t-38 75t-29 48.5l25 16h39q39 -44 70 -101q26 -49 48.5 -117.5t22.5 -153.5zM441 140l-66 -12l-20 5v362h92l-4 -27v-5q12 12 34.5 26t52.5 14q17 0 34.5 -6t34.5 -23l9 -24l-37 -53q-29 26 -58 26
q-23 0 -41 -13t-29 -27v-216z" />
    <glyph glyph-name="uni24AE" unicode="&#x24ae;" 
d="M529 419q-22 25 -58 25q-23 0 -38.5 -8t-15.5 -24q0 -10 6.5 -16.5t17 -11.5t25 -10.5t29.5 -12.5q23 -10 44 -20t37 -23t25.5 -29.5t9.5 -38.5q0 -31 -12.5 -52.5t-33.5 -34.5t-49 -19t-59 -6q-45 0 -84 17.5t-65 54.5l-2 23l64 23q14 -23 36.5 -35.5t50.5 -12.5
q29 0 47 8.5t18 30.5q0 12 -6.5 20.5t-17.5 14.5t-24.5 10.5t-26.5 10.5q-20 8 -41 17t-38 22t-28 30.5t-11 42.5t11.5 43.5t31 30.5t44 18t51.5 6q41 0 76 -16t57 -45v-21l-56 -31zM26 330q0 85 22 153.5t48 117.5q31 57 70 101h40l24 -16q-9 -18 -28 -48.5t-38 -75
t-33.5 -102.5t-14.5 -130t14 -129t33 -100.5t38 -74t29 -51.5l-24 -15h-40q-39 44 -70 100q-26 48 -48 116t-22 154zM883 330q0 -86 -22.5 -154t-48.5 -116q-31 -56 -70 -100h-39l-25 15q10 21 29.5 51.5t38.5 74t33 100.5t14 129t-14.5 130t-33.5 102.5t-38 75t-29 48.5
l25 16h39q39 -44 70 -101q26 -49 48.5 -117.5t22.5 -153.5z" />
    <glyph glyph-name="uni24AF" unicode="&#x24af;" 
d="M26 330q0 85 22 153.5t48 117.5q31 57 70 101h40l24 -16q-9 -18 -28 -48.5t-38 -75t-33.5 -102.5t-14.5 -130t14 -129t33 -100.5t38 -74t29 -51.5l-24 -15h-40q-39 44 -70 100q-26 48 -48 116t-22 154zM883 330q0 -86 -22.5 -154t-48.5 -116q-31 -56 -70 -100h-39l-25 15
q10 21 29.5 51.5t38.5 74t33 100.5t14 129t-14.5 130t-33.5 102.5t-38 75t-29 48.5l25 16h39q39 -44 70 -101q26 -49 48.5 -117.5t22.5 -153.5zM576 412l-9 -17h-98v-199q0 -11 7.5 -18t18.5 -7q23 0 40 4.5t34 11.5l16 -58q-45 -30 -112 -30q-41 0 -66 22.5t-25 63.5v210
h-59l-7 55l8 17h58v96h91l-4 -27v-69h99z" />
    <glyph glyph-name="uni24B0" unicode="&#x24b0;" 
d="M431 127q-26 0 -49.5 6t-42.5 20.5t-30 38.5t-11 61v240h91l-4 -27v-211q0 -19 5 -30t13.5 -17t20 -7.5t25.5 -1.5q23 0 42 5.5t36 14.5v274h91l-4 -27v-301l-2 -27l-65 -12l-20 5v23q-16 -10 -41.5 -18.5t-54.5 -8.5zM26 330q0 85 22 153.5t48 117.5q31 57 70 101h40
l24 -16q-9 -18 -28 -48.5t-38 -75t-33.5 -102.5t-14.5 -130t14 -129t33 -100.5t38 -74t29 -51.5l-24 -15h-40q-39 44 -70 100q-26 48 -48 116t-22 154zM883 330q0 -86 -22.5 -154t-48.5 -116q-31 -56 -70 -100h-39l-25 15q10 21 29.5 51.5t38.5 74t33 100.5t14 129
t-14.5 130t-33.5 102.5t-38 75t-29 48.5l25 16h39q39 -44 70 -101q26 -49 48.5 -117.5t22.5 -153.5z" />
    <glyph glyph-name="uni24B1" unicode="&#x24b1;" 
d="M437 115l-20 5l-135 363h93l79 -243l81 243h93l-133 -357zM26 330q0 85 22 153.5t48 117.5q31 57 70 101h40l24 -16q-9 -18 -28 -48.5t-38 -75t-33.5 -102.5t-14.5 -130t14 -129t33 -100.5t38 -74t29 -51.5l-24 -15h-40q-39 44 -70 100q-26 48 -48 116t-22 154zM883 330
q0 -86 -22.5 -154t-48.5 -116q-31 -56 -70 -100h-39l-25 15q10 21 29.5 51.5t38.5 74t33 100.5t14 129t-14.5 130t-33.5 102.5t-38 75t-29 48.5l25 16h39q39 -44 70 -101q26 -49 48.5 -117.5t22.5 -153.5z" />
    <glyph glyph-name="uni24B2" unicode="&#x24b2;" 
d="M338 112l-19 5l-117 363h93l64 -243l65 205h73l64 -205l65 243h93l-113 -357l-59 -11l-19 5l-68 199l-64 -193zM26 330q0 85 22 153.5t48 117.5q31 57 70 101h40l24 -16q-9 -18 -28 -48.5t-38 -75t-33.5 -102.5t-14.5 -130t14 -129t33 -100.5t38 -74t29 -51.5l-24 -15
h-40q-39 44 -70 100q-26 48 -48 116t-22 154zM883 330q0 -86 -22.5 -154t-48.5 -116q-31 -56 -70 -100h-39l-25 15q10 21 29.5 51.5t38.5 74t33 100.5t14 129t-14.5 130t-33.5 102.5t-38 75t-29 48.5l25 16h39q39 -44 70 -101q26 -49 48.5 -117.5t22.5 -153.5z" />
    <glyph glyph-name="uni24B3" unicode="&#x24b3;" 
d="M624 146h-79l-90 121l-90 -121h-79l-13 17l129 172l-121 171h104l70 -107l70 107h104l-121 -171l130 -172zM26 330q0 85 22 153.5t48 117.5q31 57 70 101h40l24 -16q-9 -18 -28 -48.5t-38 -75t-33.5 -102.5t-14.5 -130t14 -129t33 -100.5t38 -74t29 -51.5l-24 -15h-40
q-39 44 -70 100q-26 48 -48 116t-22 154zM883 330q0 -86 -22.5 -154t-48.5 -116q-31 -56 -70 -100h-39l-25 15q10 21 29.5 51.5t38.5 74t33 100.5t14 129t-14.5 130t-33.5 102.5t-38 75t-29 48.5l25 16h39q39 -44 70 -101q26 -49 48.5 -117.5t22.5 -153.5z" />
    <glyph glyph-name="uni24B4" unicode="&#x24b4;" 
d="M428 45h-71l-13 17l85 198l-137 304h93l87 -201l81 201h92zM26 330q0 85 22 153.5t48 117.5q31 57 70 101h40l24 -16q-9 -18 -28 -48.5t-38 -75t-33.5 -102.5t-14.5 -130t14 -129t33 -100.5t38 -74t29 -51.5l-24 -15h-40q-39 44 -70 100q-26 48 -48 116t-22 154zM883 330
q0 -86 -22.5 -154t-48.5 -116q-31 -56 -70 -100h-39l-25 15q10 21 29.5 51.5t38.5 74t33 100.5t14 129t-14.5 130t-33.5 102.5t-38 75t-29 48.5l25 16h39q39 -44 70 -101q26 -49 48.5 -117.5t22.5 -153.5z" />
    <glyph glyph-name="uni24B5" unicode="&#x24b5;" 
d="M611 146h-310v75l188 213h-169v72h280v-76l-189 -212h200v-72zM26 330q0 85 22 153.5t48 117.5q31 57 70 101h40l24 -16q-9 -18 -28 -48.5t-38 -75t-33.5 -102.5t-14.5 -130t14 -129t33 -100.5t38 -74t29 -51.5l-24 -15h-40q-39 44 -70 100q-26 48 -48 116t-22 154z
M883 330q0 -86 -22.5 -154t-48.5 -116q-31 -56 -70 -100h-39l-25 15q10 21 29.5 51.5t38.5 74t33 100.5t14 129t-14.5 130t-33.5 102.5t-38 75t-29 48.5l25 16h39q39 -44 70 -101q26 -49 48.5 -117.5t22.5 -153.5z" />
    <glyph glyph-name="uni24D0" unicode="&#x24d0;" 
d="M453 756q90 0 168 -33.5t136.5 -91t92 -135t33.5 -165.5t-33.5 -165.5t-92 -135.5t-136.5 -91.5t-168 -33.5q-88 0 -165.5 33.5t-135.5 91.5t-92 135.5t-34 165.5t34 165.5t92 135t135.5 91t165.5 33.5zM453 687q-72 0 -136.5 -27.5t-112.5 -75.5t-76 -113t-28 -140
t28 -140t76 -113t112.5 -76t136.5 -28q73 0 138 28t113.5 76t76.5 113t28 140t-28 140t-76.5 113t-113.5 75.5t-138 27.5zM458 523q-20 0 -40.5 -1.5t-40.5 -3.5q-8 -1 -24.5 -2.5t-22.5 -1.5l-11 -11l29 -64l25 7q20 3 42 5t40 2q10 0 21 -1.5t21 -7.5t18 -17.5t11 -30.5
q-18 -3 -40.5 -6t-46.5 -8q-30 -6 -55.5 -16t-45 -24.5t-30.5 -35t-11 -48.5q0 -29 11 -49.5t29.5 -33.5t41.5 -19t47 -6q30 0 57.5 7.5t44.5 18.5v-22l19 -5l66 11l3 28v179q0 45 -12.5 75t-34 48t-50.5 25.5t-61 7.5zM385 261q0 24 19.5 35t42.5 18q18 5 40.5 9.5
t40.5 7.5v-92q-20 -10 -45 -15.5t-45 -5.5q-23 0 -38 10.5t-15 32.5z" />
    <glyph glyph-name="uni24D1" unicode="&#x24d1;" 
d="M453 756q90 0 168 -33.5t136.5 -91t92 -135t33.5 -165.5t-33.5 -165.5t-92 -135.5t-136.5 -91.5t-168 -33.5q-88 0 -165.5 33.5t-135.5 91.5t-92 135.5t-34 165.5t34 165.5t92 135t135.5 91t165.5 33.5zM453 687q-72 0 -136.5 -27.5t-112.5 -75.5t-76 -113t-28 -140
t28 -140t76 -113t112.5 -76t136.5 -28q73 0 138 28t113.5 76t76.5 113t28 140t-28 140t-76.5 113t-113.5 75.5t-138 27.5zM498 60q42 0 72 15.5t49.5 42t29 60.5t9.5 70t-9.5 70t-29 60t-49.5 41.5t-72 15.5q-31 0 -52 -7t-35 -15v181l4 27h-92v-555l20 -5l66 12l1 15
q14 -11 34 -19.5t54 -8.5zM570 248q0 -23 -4.5 -44t-15 -37.5t-26.5 -26.5t-39 -10t-38.5 4.5t-35.5 13.5v200q19 8 35.5 12.5t38.5 4.5q23 0 39 -9.5t26.5 -26t15 -37.5t4.5 -44z" />
    <glyph glyph-name="uni24D2" unicode="&#x24d2;" 
d="M564 258q-29 -48 -90 -48q-19 0 -36.5 6t-31 19.5t-22 35.5t-8.5 54q0 33 8.5 55t22 36t31 20t36.5 6q21 0 39.5 -6.5t32.5 -21.5l14 -21l58 36v21q-27 35 -64.5 49t-79.5 14q-38 0 -71.5 -12.5t-59.5 -36.5t-41 -59t-15 -80t15 -80t41 -59t59.5 -36t71.5 -12
q101 0 152 71v22zM453 687q-72 0 -136.5 -27.5t-112.5 -75.5t-76 -113t-28 -140t28 -140t76 -113t112.5 -76t136.5 -28q73 0 138 28t113.5 76t76.5 113t28 140t-28 140t-76.5 113t-113.5 75.5t-138 27.5zM453 756q90 0 168 -33.5t136.5 -91t92 -135t33.5 -165.5
t-33.5 -165.5t-92 -135.5t-136.5 -91.5t-168 -33.5q-88 0 -165.5 33.5t-135.5 91.5t-92 135.5t-34 165.5t34 165.5t92 135t135.5 91t165.5 33.5z" />
    <glyph glyph-name="uni24D3" unicode="&#x24d3;" 
d="M453 756q90 0 168 -33.5t136.5 -91t92 -135t33.5 -165.5t-33.5 -165.5t-92 -135.5t-136.5 -91.5t-168 -33.5q-88 0 -165.5 33.5t-135.5 91.5t-92 135.5t-34 165.5t34 165.5t92 135t135.5 91t165.5 33.5zM453 687q-72 0 -136.5 -27.5t-112.5 -75.5t-76 -113t-28 -140
t28 -140t76 -113t112.5 -76t136.5 -28q73 0 138 28t113.5 76t76.5 113t28 140t-28 140t-76.5 113t-113.5 75.5t-138 27.5zM592 100v494l4 27h-92v-207q-16 8 -36.5 14.5t-50.5 6.5q-42 0 -72 -15.5t-49.5 -41.5t-29 -60t-9.5 -70t9.5 -70t29 -60.5t49.5 -42t72 -15.5
q32 0 51.5 7.5t35.5 18.5v-20l19 -5l66 12zM345 248q0 23 5 44t15 37.5t26 26t39 9.5q21 0 37.5 -4t36.5 -12v-202q-20 -9 -36 -13t-38 -4q-23 0 -39 10t-26 26.5t-15 37.5t-5 44z" />
    <glyph glyph-name="uni24D4" unicode="&#x24d4;" 
d="M453 756q90 0 168 -33.5t136.5 -91t92 -135t33.5 -165.5t-33.5 -165.5t-92 -135.5t-136.5 -91.5t-168 -33.5q-88 0 -165.5 33.5t-135.5 91.5t-92 135.5t-34 165.5t34 165.5t92 135t135.5 91t165.5 33.5zM453 687q-72 0 -136.5 -27.5t-112.5 -75.5t-76 -113t-28 -140
t28 -140t76 -113t112.5 -76t136.5 -28q73 0 138 28t113.5 76t76.5 113t28 140t-28 140t-76.5 113t-113.5 75.5t-138 27.5zM620 235l-62 27q-30 -50 -86 -50q-33 0 -59.5 20.5t-32.5 68.5h254v34q0 40 -12 73.5t-34.5 57.5t-54 37.5t-69.5 13.5q-35 0 -67 -12.5t-56 -36.5
t-38.5 -59t-14.5 -80t14.5 -80t40 -59t58.5 -36t71 -12q97 0 148 71v22zM468 447q35 0 56 -24t21 -58h-165q8 48 33 65t55 17z" />
    <glyph glyph-name="uni24D5" unicode="&#x24d5;" 
d="M453 756q90 0 168 -33.5t136.5 -91t92 -135t33.5 -165.5t-33.5 -165.5t-92 -135.5t-136.5 -91.5t-168 -33.5q-88 0 -165.5 33.5t-135.5 91.5t-92 135.5t-34 165.5t34 165.5t92 135t135.5 91t165.5 33.5zM453 687q-72 0 -136.5 -27.5t-112.5 -75.5t-76 -113t-28 -140
t28 -140t76 -113t112.5 -76t136.5 -28q73 0 138 28t113.5 76t76.5 113t28 140t-28 140t-76.5 113t-113.5 75.5t-138 27.5zM561 399h-99v42q0 43 10 63t33 22q18 2 27 -7.5t18 -23.5l55 34v15q-28 35 -56 45t-52 10q-63 0 -92.5 -39.5t-29.5 -118.5v-42h-57l-9 -17l8 -55h58
v-290l19 -5l66 12l2 27v256h98l9 17z" />
    <glyph glyph-name="uni24D6" unicode="&#x24d6;" 
d="M453 756q90 0 168 -33.5t136.5 -91t92 -135t33.5 -165.5t-33.5 -165.5t-92 -135.5t-136.5 -91.5t-168 -33.5q-88 0 -165.5 33.5t-135.5 91.5t-92 135.5t-34 165.5t34 165.5t92 135t135.5 91t165.5 33.5zM453 687q-72 0 -136.5 -27.5t-112.5 -75.5t-76 -113t-28 -140
t28 -140t76 -113t112.5 -76t136.5 -28q73 0 138 28t113.5 76t76.5 113t28 140t-28 140t-76.5 113t-113.5 75.5t-138 27.5zM449 571q-38 0 -67.5 -10t-50 -27.5t-31.5 -40t-11 -47.5q0 -29 12.5 -54t36.5 -43q-14 -15 -26.5 -33.5t-12.5 -38.5q0 -28 26.5 -43.5t66.5 -20.5
l115 -18q20 -3 30.5 -11.5t10.5 -25.5q0 -14 -9.5 -23t-23.5 -14.5t-31.5 -8t-32.5 -2.5q-44 0 -71.5 15t-27.5 49l-18 14l-61 -26q0 -35 13.5 -58t37.5 -37.5t56 -20.5t68 -6q28 0 61 5.5t61.5 18.5t47 35.5t18.5 56.5q0 48 -34.5 71.5t-91.5 32.5l-104 18q-15 1 -15 15
q0 6 4.5 13t9.5 14q19 -3 41 -3q37 0 67 10.5t50 28t31 41t11 49.5q0 39 -24 71h51v77l-20 12q-18 -9 -47 -21.5t-53 -22.5q-14 4 -30 6.5t-33 2.5zM447 384q-29 0 -49.5 16.5t-20.5 45.5q0 27 19 42.5t53 15.5q31 0 49 -16t18 -42q0 -28 -19 -45t-50 -17z" />
    <glyph glyph-name="uni24D7" unicode="&#x24d7;" 
d="M453 756q90 0 168 -33.5t136.5 -91t92 -135t33.5 -165.5t-33.5 -165.5t-92 -135.5t-136.5 -91.5t-168 -33.5q-88 0 -165.5 33.5t-135.5 91.5t-92 135.5t-34 165.5t34 165.5t92 135t135.5 91t165.5 33.5zM453 687q-72 0 -136.5 -27.5t-112.5 -75.5t-76 -113t-28 -140
t28 -140t76 -113t112.5 -76t136.5 -28q73 0 138 28t113.5 76t76.5 113t28 140t-28 140t-76.5 113t-113.5 75.5t-138 27.5zM401 91v247q34 14 78 14q28 0 47 -20.5t19 -61.5v-213l19 -5l66 11l2 28v192q0 37 -11.5 64t-30.5 44t-43.5 25.5t-49.5 8.5q-31 0 -55 -5.5
t-41 -15.5v180l4 27h-91v-554l19 -5l66 11z" />
    <glyph glyph-name="uni24D8" unicode="&#x24d8;" 
d="M498 99v301l4 27h-91v-362l18 -5l67 12zM411 493l17 -10h63l23 94l-23 15h-73zM453 687q-72 0 -136.5 -27.5t-112.5 -75.5t-76 -113t-28 -140t28 -140t76 -113t112.5 -76t136.5 -28q73 0 138 28t113.5 76t76.5 113t28 140t-28 140t-76.5 113t-113.5 75.5t-138 27.5z
M453 756q90 0 168 -33.5t136.5 -91t92 -135t33.5 -165.5t-33.5 -165.5t-92 -135.5t-136.5 -91.5t-168 -33.5q-88 0 -165.5 33.5t-135.5 91.5t-92 135.5t-34 165.5t34 165.5t92 135t135.5 91t165.5 33.5z" />
    <glyph glyph-name="uni24D9" unicode="&#x24d9;" 
d="M442 523l17 -10h63l24 95l-24 14h-73zM442 220q0 -23 -3 -42.5t-11.5 -36.5t-24 -31.5t-40.5 -26.5l-7 -17l32 -37q70 21 105.5 71.5t35.5 137.5v192l4 27h-91v-237zM453 687q-72 0 -136.5 -27.5t-112.5 -75.5t-76 -113t-28 -140t28 -140t76 -113t112.5 -76t136.5 -28
q73 0 138 28t113.5 76t76.5 113t28 140t-28 140t-76.5 113t-113.5 75.5t-138 27.5zM453 756q90 0 168 -33.5t136.5 -91t92 -135t33.5 -165.5t-33.5 -165.5t-92 -135.5t-136.5 -91.5t-168 -33.5q-88 0 -165.5 33.5t-135.5 91.5t-92 135.5t-34 165.5t34 165.5t92 135t135.5 91
t165.5 33.5z" />
    <glyph glyph-name="uni24DA" unicode="&#x24da;" 
d="M453 756q90 0 168 -33.5t136.5 -91t92 -135t33.5 -165.5t-33.5 -165.5t-92 -135.5t-136.5 -91.5t-168 -33.5q-88 0 -165.5 33.5t-135.5 91.5t-92 135.5t-34 165.5t34 165.5t92 135t135.5 91t165.5 33.5zM453 687q-72 0 -136.5 -27.5t-112.5 -75.5t-76 -113t-28 -140
t28 -140t76 -113t112.5 -76t136.5 -28q73 0 138 28t113.5 76t76.5 113t28 140t-28 140t-76.5 113t-113.5 75.5t-138 27.5zM411 91v72l36 41l111 -146h85l12 18l-154 188l136 154h-107l-119 -139v305l4 27h-92v-554l20 -5l66 11z" />
    <glyph glyph-name="uni24DB" unicode="&#x24db;" 
d="M498 91v493l4 27h-91v-554l19 -5l66 11zM453 687q-72 0 -136.5 -27.5t-112.5 -75.5t-76 -113t-28 -140t28 -140t76 -113t112.5 -76t136.5 -28q73 0 138 28t113.5 76t76.5 113t28 140t-28 140t-76.5 113t-113.5 75.5t-138 27.5zM453 756q90 0 168 -33.5t136.5 -91t92 -135
t33.5 -165.5t-33.5 -165.5t-92 -135.5t-136.5 -91.5t-168 -33.5q-88 0 -165.5 33.5t-135.5 91.5t-92 135.5t-34 165.5t34 165.5t92 135t135.5 91t165.5 33.5z" />
    <glyph glyph-name="uni24DC" unicode="&#x24dc;" 
d="M453 756q90 0 168 -33.5t136.5 -91t92 -135t33.5 -165.5t-33.5 -165.5t-92 -135.5t-136.5 -91.5t-168 -33.5q-88 0 -165.5 33.5t-135.5 91.5t-92 135.5t-34 165.5t34 165.5t92 135t135.5 91t165.5 33.5zM453 687q-72 0 -136.5 -27.5t-112.5 -75.5t-76 -113t-28 -140
t28 -140t76 -113t112.5 -76t136.5 -28q73 0 138 28t113.5 76t76.5 113t28 140t-28 140t-76.5 113t-113.5 75.5t-138 27.5zM700 393q0 64 -33 91.5t-81 27.5q-30 0 -60.5 -13t-48.5 -25q-16 20 -39.5 29t-51.5 9q-23 0 -45.5 -8t-38.5 -18l3 20h-91v-362l19 -5l66 12l2 27
v242q17 10 33 15t35 5q24 0 34 -16t10 -50v-230l19 -5l66 12l2 27v215q0 7 -0.5 13.5t-1.5 12.5q17 10 34.5 15.5t36.5 5.5q23 0 32.5 -16t9.5 -50v-230l20 -5l66 12l3 27v215z" />
    <glyph glyph-name="uni24DD" unicode="&#x24dd;" 
d="M453 756q90 0 168 -33.5t136.5 -91t92 -135t33.5 -165.5t-33.5 -165.5t-92 -135.5t-136.5 -91.5t-168 -33.5q-88 0 -165.5 33.5t-135.5 91.5t-92 135.5t-34 165.5t34 165.5t92 135t135.5 91t165.5 33.5zM453 687q-72 0 -136.5 -27.5t-112.5 -75.5t-76 -113t-28 -140
t28 -140t76 -113t112.5 -76t136.5 -28q73 0 138 28t113.5 76t76.5 113t28 140t-28 140t-76.5 113t-113.5 75.5t-138 27.5zM386 187v239q36 22 82 22q29 0 46 -20.5t17 -61.5v-213l19 -5l66 11l3 28v192q0 37 -11.5 64t-30 44.5t-42.5 25.5t-49 8q-30 0 -57 -9.5t-43 -20.5
l4 23h-91v-361l20 -5l66 11z" />
    <glyph glyph-name="uni24DE" unicode="&#x24de;" 
d="M277 325q0 -45 15 -80t41 -59t59.5 -36t71.5 -12q37 0 71 12t60 35.5t41 58.5t15 81t-15 81t-41 59t-60 36t-71 12q-38 0 -71.5 -12.5t-59.5 -36.5t-41 -59t-15 -80zM364 325q0 33 8.5 55t23 36t32.5 20t36 6q19 0 37 -6t32 -20t22.5 -36t8.5 -55q0 -32 -8.5 -54
t-22.5 -35.5t-32 -19.5t-37 -6q-18 0 -36 6t-32.5 19.5t-23 35.5t-8.5 54zM453 687q-72 0 -136.5 -27.5t-112.5 -75.5t-76 -113t-28 -140t28 -140t76 -113t112.5 -76t136.5 -28q73 0 138 28t113.5 76t76.5 113t28 140t-28 140t-76.5 113t-113.5 75.5t-138 27.5zM453 756
q90 0 168 -33.5t136.5 -91t92 -135t33.5 -165.5t-33.5 -165.5t-92 -135.5t-136.5 -91.5t-168 -33.5q-88 0 -165.5 33.5t-135.5 91.5t-92 135.5t-34 165.5t34 165.5t92 135t135.5 91t165.5 33.5z" />
    <glyph glyph-name="uni24DF" unicode="&#x24df;" 
d="M453 756q90 0 168 -33.5t136.5 -91t92 -135t33.5 -165.5t-33.5 -165.5t-92 -135.5t-136.5 -91.5t-168 -33.5q-88 0 -165.5 33.5t-135.5 91.5t-92 135.5t-34 165.5t34 165.5t92 135t135.5 91t165.5 33.5zM453 687q-72 0 -136.5 -27.5t-112.5 -75.5t-76 -113t-28 -140
t28 -140t76 -113t112.5 -76t136.5 -28q73 0 138 28t113.5 76t76.5 113t28 140t-28 140t-76.5 113t-113.5 75.5t-138 27.5zM411 90v137q15 -8 35.5 -14.5t51.5 -6.5q42 0 72 15.5t49.5 41.5t29 60t9.5 70t-9.5 70t-29 60t-49.5 41.5t-72 15.5q-32 0 -52 -8t-34 -19l3 21h-92
v-518l20 -5l66 11zM570 393q0 -23 -4.5 -44t-15 -37.5t-26.5 -26t-39 -9.5q-22 0 -38.5 4t-35.5 12v201q20 8 35.5 13t38.5 5t39 -10t26.5 -26.5t15 -38t4.5 -43.5z" />
    <glyph glyph-name="uni24E0" unicode="&#x24e0;" 
d="M453 756q90 0 168 -33.5t136.5 -91t92 -135t33.5 -165.5t-33.5 -165.5t-92 -135.5t-136.5 -91.5t-168 -33.5q-88 0 -165.5 33.5t-135.5 91.5t-92 135.5t-34 165.5t34 165.5t92 135t135.5 91t165.5 33.5zM453 687q-72 0 -136.5 -27.5t-112.5 -75.5t-76 -113t-28 -140
t28 -140t76 -113t112.5 -76t136.5 -28q73 0 138 28t113.5 76t76.5 113t28 140t-28 140t-76.5 113t-113.5 75.5t-138 27.5zM592 90v456l4 28h-92v-21q-15 11 -35 19t-52 8q-42 0 -72 -15.5t-49.5 -41.5t-29 -60t-9.5 -70t9.5 -70t29 -60t49.5 -41.5t72 -15.5q30 0 51 6.5
t36 14.5v-171l19 -5l66 11zM345 393q0 22 5 43.5t15 38t26 26.5t39 10t38.5 -5t35.5 -13v-201q-20 -8 -36.5 -12t-37.5 -4q-23 0 -39 9.5t-26 26t-15 37.5t-5 44z" />
    <glyph glyph-name="uni24E1" unicode="&#x24e1;" 
d="M453 756q90 0 168 -33.5t136.5 -91t92 -135t33.5 -165.5t-33.5 -165.5t-92 -135.5t-136.5 -91.5t-168 -33.5q-88 0 -165.5 33.5t-135.5 91.5t-92 135.5t-34 165.5t34 165.5t92 135t135.5 91t165.5 33.5zM453 687q-72 0 -136.5 -27.5t-112.5 -75.5t-76 -113t-28 -140
t28 -140t76 -113t112.5 -76t136.5 -28q73 0 138 28t113.5 76t76.5 113t28 140t-28 140t-76.5 113t-113.5 75.5t-138 27.5zM443 167v216q11 14 29 27t41 13q29 0 58 -26l37 53l-9 24q-17 17 -34.5 23t-34.5 6q-30 0 -52.5 -14t-34.5 -26v5l4 27h-92v-362l20 -5l66 12z" />
    <glyph glyph-name="uni24E2" unicode="&#x24e2;" 
d="M544 400l56 31v21q-22 29 -57 45t-76 16q-27 0 -51.5 -6t-44 -18t-31 -30.5t-11.5 -43.5t11 -42.5t28 -30.5t38 -22t41 -17q13 -6 26.5 -10.5t24.5 -10.5t17.5 -14.5t6.5 -20.5q0 -22 -18 -30.5t-47 -8.5q-28 0 -50.5 12.5t-36.5 35.5l-64 -23l2 -23q26 -37 65 -54.5
t84 -17.5q31 0 59 6t49 19t33.5 34.5t12.5 52.5q0 22 -9.5 38.5t-25.5 29.5t-37 23t-44 20q-15 7 -29.5 12.5t-25 10.5t-17 11.5t-6.5 16.5q0 16 15.5 24t38.5 8q36 0 58 -25zM453 687q-72 0 -136.5 -27.5t-112.5 -75.5t-76 -113t-28 -140t28 -140t76 -113t112.5 -76
t136.5 -28q73 0 138 28t113.5 76t76.5 113t28 140t-28 140t-76.5 113t-113.5 75.5t-138 27.5zM453 756q90 0 168 -33.5t136.5 -91t92 -135t33.5 -165.5t-33.5 -165.5t-92 -135.5t-136.5 -91.5t-168 -33.5q-88 0 -165.5 33.5t-135.5 91.5t-92 135.5t-34 165.5t34 165.5
t92 135t135.5 91t165.5 33.5z" />
    <glyph glyph-name="uni24E3" unicode="&#x24e3;" 
d="M453 756q90 0 168 -33.5t136.5 -91t92 -135t33.5 -165.5t-33.5 -165.5t-92 -135.5t-136.5 -91.5t-168 -33.5q-88 0 -165.5 33.5t-135.5 91.5t-92 135.5t-34 165.5t34 165.5t92 135t135.5 91t165.5 33.5zM453 687q-72 0 -136.5 -27.5t-112.5 -75.5t-76 -113t-28 -140
t28 -140t76 -113t112.5 -76t136.5 -28q73 0 138 28t113.5 76t76.5 113t28 140t-28 140t-76.5 113t-113.5 75.5t-138 27.5zM568 467h-99v69l4 27h-91v-96h-58l-8 -17l7 -55h59v-210q0 -41 25 -63.5t66 -22.5q67 0 112 30l-16 58q-17 -7 -34 -11.5t-40 -4.5q-11 0 -18.5 7
t-7.5 18v199h98l9 17z" />
    <glyph glyph-name="uni24E4" unicode="&#x24e4;" 
d="M453 756q90 0 168 -33.5t136.5 -91t92 -135t33.5 -165.5t-33.5 -165.5t-92 -135.5t-136.5 -91.5t-168 -33.5q-88 0 -165.5 33.5t-135.5 91.5t-92 135.5t-34 165.5t34 165.5t92 135t135.5 91t165.5 33.5zM453 687q-72 0 -136.5 -27.5t-112.5 -75.5t-76 -113t-28 -140
t28 -140t76 -113t112.5 -76t136.5 -28q73 0 138 28t113.5 76t76.5 113t28 140t-28 140t-76.5 113t-113.5 75.5t-138 27.5zM431 127q29 0 54.5 8.5t41.5 18.5v-23l20 -5l65 12l2 27v301l4 27h-91v-274q-17 -9 -36 -14.5t-42 -5.5q-14 0 -25.5 1.5t-20 7.5t-13.5 17t-5 30v211
l4 27h-91v-240q0 -37 11 -61t30 -38.5t42.5 -20.5t49.5 -6z" />
    <glyph glyph-name="uni24E5" unicode="&#x24e5;" 
d="M495 126l133 357h-93l-81 -243l-79 243h-93l135 -363l20 -5zM453 687q-72 0 -136.5 -27.5t-112.5 -75.5t-76 -113t-28 -140t28 -140t76 -113t112.5 -76t136.5 -28q73 0 138 28t113.5 76t76.5 113t28 140t-28 140t-76.5 113t-113.5 75.5t-138 27.5zM453 756
q90 0 168 -33.5t136.5 -91t92 -135t33.5 -165.5t-33.5 -165.5t-92 -135.5t-136.5 -91.5t-168 -33.5q-88 0 -165.5 33.5t-135.5 91.5t-92 135.5t-34 165.5t34 165.5t92 135t135.5 91t165.5 33.5z" />
    <glyph glyph-name="uni24E6" unicode="&#x24e6;" 
d="M396 128l64 192l68 -198l19 -5l59 11l113 357h-93l-65 -243l-64 204h-73l-65 -204l-64 243h-93l117 -363l19 -5zM453 687q-72 0 -136.5 -27.5t-112.5 -75.5t-76 -113t-28 -140t28 -140t76 -113t112.5 -76t136.5 -28q73 0 138 28t113.5 76t76.5 113t28 140t-28 140
t-76.5 113t-113.5 75.5t-138 27.5zM453 756q90 0 168 -33.5t136.5 -91t92 -135t33.5 -165.5t-33.5 -165.5t-92 -135.5t-136.5 -91.5t-168 -33.5q-88 0 -165.5 33.5t-135.5 91.5t-92 135.5t-34 165.5t34 165.5t92 135t135.5 91t165.5 33.5z" />
    <glyph glyph-name="uni24E7" unicode="&#x24e7;" 
d="M638 163l-130 172l121 171h-104l-70 -107l-70 107h-104l121 -171l-129 -172l13 -17h79l90 121l90 -121h79zM453 687q-72 0 -136.5 -27.5t-112.5 -75.5t-76 -113t-28 -140t28 -140t76 -113t112.5 -76t136.5 -28q73 0 138 28t113.5 76t76.5 113t28 140t-28 140t-76.5 113
t-113.5 75.5t-138 27.5zM453 756q90 0 168 -33.5t136.5 -91t92 -135t33.5 -165.5t-33.5 -165.5t-92 -135.5t-136.5 -91.5t-168 -33.5q-88 0 -165.5 33.5t-135.5 91.5t-92 135.5t-34 165.5t34 165.5t92 135t135.5 91t165.5 33.5z" />
    <glyph glyph-name="uni24E8" unicode="&#x24e8;" 
d="M453 756q90 0 168 -33.5t136.5 -91t92 -135t33.5 -165.5t-33.5 -165.5t-92 -135.5t-136.5 -91.5t-168 -33.5q-88 0 -165.5 33.5t-135.5 91.5t-92 135.5t-34 165.5t34 165.5t92 135t135.5 91t165.5 33.5zM453 687q-72 0 -136.5 -27.5t-112.5 -75.5t-76 -113t-28 -140
t28 -140t76 -113t112.5 -76t136.5 -28q73 0 138 28t113.5 76t76.5 113t28 140t-28 140t-76.5 113t-113.5 75.5t-138 27.5zM645 564h-92l-81 -201l-87 201h-93l137 -304l-85 -198l13 -17h71z" />
    <glyph glyph-name="uni24E9" unicode="&#x24e9;" 
d="M611 218h-200l189 212v76h-280v-72h169l-188 -213v-75h310v72zM453 687q-72 0 -136.5 -27.5t-112.5 -75.5t-76 -113t-28 -140t28 -140t76 -113t112.5 -76t136.5 -28q73 0 138 28t113.5 76t76.5 113t28 140t-28 140t-76.5 113t-113.5 75.5t-138 27.5zM453 756
q90 0 168 -33.5t136.5 -91t92 -135t33.5 -165.5t-33.5 -165.5t-92 -135.5t-136.5 -91.5t-168 -33.5q-88 0 -165.5 33.5t-135.5 91.5t-92 135.5t-34 165.5t34 165.5t92 135t135.5 91t165.5 33.5z" />
    <glyph glyph-name="SF100000" unicode="&#x2500;" 
d="M0 352h910v-39h-910v39z" />
    <glyph glyph-name="uni2501" unicode="&#x2501;" 
d="M0 372h910v-79h-910v79z" />
    <glyph glyph-name="SF110000" unicode="&#x2502;" 
d="M434 862h42v-1064h-42v1064z" />
    <glyph glyph-name="uni2503" unicode="&#x2503;" 
d="M412 862h86v-1064h-86v1064z" />
    <glyph glyph-name="SF010000" unicode="&#x250c;" 
d="M476 313v-515h-42v554h476v-39h-434z" />
    <glyph glyph-name="uni250D" unicode="&#x250d;" 
d="M910 372v-79h-434v-495h-42v574h476z" />
    <glyph glyph-name="uni250E" unicode="&#x250e;" 
d="M910 352v-39h-412v-515h-86v554h498z" />
    <glyph glyph-name="uni250F" unicode="&#x250f;" 
d="M910 372v-79h-412v-495h-86v574h498z" />
    <glyph glyph-name="SF030000" unicode="&#x2510;" 
d="M434 313h-434v39h476v-554h-42v515z" />
    <glyph glyph-name="uni2511" unicode="&#x2511;" 
d="M476 372v-574h-42v495h-434v79h476z" />
    <glyph glyph-name="uni2512" unicode="&#x2512;" 
d="M498 352v-554h-86v515h-412v39h498z" />
    <glyph glyph-name="uni2513" unicode="&#x2513;" 
d="M498 372v-574h-86v495h-412v79h498z" />
    <glyph glyph-name="SF020000" unicode="&#x2514;" 
d="M434 313v549h42v-510h434v-39h-476z" />
    <glyph glyph-name="uni2515" unicode="&#x2515;" 
d="M434 862h42v-490h434v-79h-476v569z" />
    <glyph glyph-name="uni2516" unicode="&#x2516;" 
d="M412 862h86v-510h412v-39h-498v549z" />
    <glyph glyph-name="uni2517" unicode="&#x2517;" 
d="M412 862h86v-490h412v-79h-498v569z" />
    <glyph glyph-name="SF040000" unicode="&#x2518;" 
d="M0 313v39h434v510h42v-549h-476z" />
    <glyph glyph-name="uni2519" unicode="&#x2519;" 
d="M434 862h42v-569h-476v79h434v490z" />
    <glyph glyph-name="uni251A" unicode="&#x251a;" 
d="M412 862h86v-549h-498v39h412v510z" />
    <glyph glyph-name="uni251B" unicode="&#x251b;" 
d="M412 862h86v-569h-498v79h412v490z" />
    <glyph glyph-name="SF080000" unicode="&#x251c;" 
d="M434 862h42v-510h434v-39h-434v-515h-42v1064z" />
    <glyph glyph-name="uni251D" unicode="&#x251d;" 
d="M434 862h42v-490h434v-79h-434v-495h-42v1064z" />
    <glyph glyph-name="uni251E" unicode="&#x251e;" 
d="M498 352h412v-39h-434v-515h-42v532h-22v532h86v-510z" />
    <glyph glyph-name="uni251F" unicode="&#x251f;" 
d="M476 352h434v-39h-412v-515h-86v534h22v530h42v-510z" />
    <glyph glyph-name="uni2520" unicode="&#x2520;" 
d="M412 862h86v-510h412v-39h-412v-515h-86v1064z" />
    <glyph glyph-name="uni2521" unicode="&#x2521;" 
d="M498 372h412v-79h-434v-495h-42v533h-22v531h86v-490z" />
    <glyph glyph-name="uni2522" unicode="&#x2522;" 
d="M476 372h434v-79h-412v-495h-86v533h22v531h42v-490z" />
    <glyph glyph-name="uni2523" unicode="&#x2523;" 
d="M412 862h86v-490h412v-79h-412v-495h-86v1064z" />
    <glyph glyph-name="SF090000" unicode="&#x2524;" 
d="M434 313h-434v39h434v510h42v-1064h-42v515z" />
    <glyph glyph-name="uni2525" unicode="&#x2525;" 
d="M434 862h42v-1064h-42v495h-434v79h434v490z" />
    <glyph glyph-name="uni2526" unicode="&#x2526;" 
d="M434 313h-434v39h412v510h86v-530h-22v-534h-42v515z" />
    <glyph glyph-name="uni2527" unicode="&#x2527;" 
d="M412 313h-412v39h434v510h42v-530h22v-534h-86v515z" />
    <glyph glyph-name="uni2528" unicode="&#x2528;" 
d="M412 862h86v-1064h-86v515h-412v39h412v510z" />
    <glyph glyph-name="uni2529" unicode="&#x2529;" 
d="M434 293h-434v79h412v490h86v-531h-22v-533h-42v495z" />
    <glyph glyph-name="uni252A" unicode="&#x252a;" 
d="M412 293h-412v79h434v490h42v-531h22v-533h-86v495z" />
    <glyph glyph-name="uni252B" unicode="&#x252b;" 
d="M412 862h86v-1064h-86v495h-412v79h412v490z" />
    <glyph glyph-name="SF060000" unicode="&#x252c;" 
d="M434 313h-434v39h910v-39h-434v-515h-42v515z" />
    <glyph glyph-name="uni252D" unicode="&#x252d;" 
d="M476 313v-515h-42v495h-434v79h455v-20h455v-39h-434z" />
    <glyph glyph-name="uni252E" unicode="&#x252e;" 
d="M476 293v-495h-42v515h-434v39h455v20h455v-79h-434z" />
    <glyph glyph-name="uni252F" unicode="&#x252f;" 
d="M910 372v-79h-434v-495h-42v495h-434v79h910z" />
    <glyph glyph-name="uni2530" unicode="&#x2530;" 
d="M910 352v-39h-412v-515h-86v515h-412v39h910z" />
    <glyph glyph-name="uni2531" unicode="&#x2531;" 
d="M498 313v-515h-86v495h-412v79h455v-20h455v-39h-412z" />
    <glyph glyph-name="uni2532" unicode="&#x2532;" 
d="M412 313h-412v39h455v20h455v-79h-412v-495h-86v515z" />
    <glyph glyph-name="uni2533" unicode="&#x2533;" 
d="M910 372v-79h-412v-495h-86v495h-412v79h910z" />
    <glyph glyph-name="SF070000" unicode="&#x2534;" 
d="M0 313v39h434v510h42v-510h434v-39h-910z" />
    <glyph glyph-name="uni2535" unicode="&#x2535;" 
d="M434 372v490h42v-510h434v-39h-455v-20h-455v79h434z" />
    <glyph glyph-name="uni2536" unicode="&#x2536;" 
d="M476 372h434v-79h-455v20h-455v39h434v510h42v-490z" />
    <glyph glyph-name="uni2537" unicode="&#x2537;" 
d="M434 862h42v-490h434v-79h-910v79h434v490z" />
    <glyph glyph-name="uni2538" unicode="&#x2538;" 
d="M412 862h86v-510h412v-39h-910v39h412v510z" />
    <glyph glyph-name="uni2539" unicode="&#x2539;" 
d="M412 372v490h86v-510h412v-39h-455v-20h-455v79h412z" />
    <glyph glyph-name="uni253A" unicode="&#x253a;" 
d="M498 372h412v-79h-455v20h-455v39h412v510h86v-490z" />
    <glyph glyph-name="uni253B" unicode="&#x253b;" 
d="M412 862h86v-490h412v-79h-910v79h412v490z" />
    <glyph glyph-name="SF050000" unicode="&#x253c;" 
d="M434 313h-434v39h434v510h42v-510h434v-39h-434v-515h-42v515z" />
    <glyph glyph-name="uni253D" unicode="&#x253d;" 
d="M434 293h-434v79h434v490h42v-510h433v-39h-433v-515h-42v495z" />
    <glyph glyph-name="uni253E" unicode="&#x253e;" 
d="M434 313h-434v39h434v510h42v-490h434v-79h-434v-495h-42v515z" />
    <glyph glyph-name="uni253F" unicode="&#x253f;" 
d="M434 862h42v-490h434v-79h-434v-495h-42v495h-434v79h434v490z" />
    <glyph glyph-name="uni2540" unicode="&#x2540;" 
d="M434 313h-434v39h412v510h86v-510h412v-39h-434v-515h-42v515z" />
    <glyph glyph-name="uni2541" unicode="&#x2541;" 
d="M434 352v510h42v-510h434v-39h-412v-515h-86v515h-412v39h434z" />
    <glyph glyph-name="uni2542" unicode="&#x2542;" 
d="M412 862h86v-510h412v-39h-412v-515h-86v515h-412v39h412v510z" />
    <glyph glyph-name="uni2543" unicode="&#x2543;" 
d="M476 313v-515h-42v495h-434v79h412v490h86v-510h412v-39h-434z" />
    <glyph glyph-name="uni2544" unicode="&#x2544;" 
d="M434 313h-434v39h412v510h86v-490h412v-79h-434v-495h-42v515z" />
    <glyph glyph-name="uni2545" unicode="&#x2545;" 
d="M476 352h434v-39h-412v-515h-86v495h-412v79h434v490h42v-510z" />
    <glyph glyph-name="uni2546" unicode="&#x2546;" 
d="M434 352v510h42v-490h434v-79h-412v-495h-86v515h-412v39h434z" />
    <glyph glyph-name="uni2547" unicode="&#x2547;" 
d="M434 293h-434v79h412v490h86v-490h412v-79h-434v-495h-42v495z" />
    <glyph glyph-name="uni2548" unicode="&#x2548;" 
d="M434 372v490h42v-490h435v-79h-413v-495h-86v495h-412v79h434z" />
    <glyph glyph-name="uni2549" unicode="&#x2549;" 
d="M498 313v-515h-86v495h-412v79h412v490h86v-510h412v-39h-412z" />
    <glyph glyph-name="uni254A" unicode="&#x254a;" 
d="M412 313h-412v39h412v510h86v-490h412v-79h-412v-495h-86v515z" />
    <glyph glyph-name="uni254B" unicode="&#x254b;" 
d="M412 862h86v-490h412v-79h-412v-495h-86v495h-412v79h412v490z" />
    <glyph glyph-name="shade" unicode="&#x2592;" horiz-adv-x="1000" 
d="M117 707h754v-752h-754v752zM815 17v632h-640v-632h640zM716 588q0 17 11 28t27 11q17 0 28 -11t11 -28t-11 -28t-28 -11q-16 0 -27 11t-11 28zM612 588q0 17 11 28t28 11q16 0 27.5 -11t11.5 -28t-11.5 -28t-27.5 -11q-17 0 -28 11t-11 28zM508 588q0 17 11 28t28 11
q16 0 27.5 -11t11.5 -28t-11.5 -28t-27.5 -11q-17 0 -28 11t-11 28zM404 588q0 17 11 28t28 11t28 -11t11 -28t-11 -28t-28 -11t-28 11t-11 28zM300 588q0 17 11 28t28 11t28 -11t11 -28t-11 -28t-28 -11t-28 11t-11 28zM196 588q0 17 11.5 28t27.5 11q17 0 28 -11t11 -28
t-11 -28t-28 -11q-16 0 -27.5 11t-11.5 28zM716 486q0 17 11 28t27 11q17 0 28 -11t11 -28t-11 -28t-28 -11q-16 0 -27 11t-11 28zM612 486q0 17 11 28t28 11q16 0 27.5 -11t11.5 -28t-11.5 -28t-27.5 -11q-17 0 -28 11t-11 28zM508 486q0 17 11 28t28 11q16 0 27.5 -11
t11.5 -28t-11.5 -28t-27.5 -11q-17 0 -28 11t-11 28zM404 486q0 17 11 28t28 11t28 -11t11 -28t-11 -28t-28 -11t-28 11t-11 28zM300 486q0 17 11 28t28 11t28 -11t11 -28t-11 -28t-28 -11t-28 11t-11 28zM196 486q0 17 11.5 28t27.5 11q17 0 28 -11t11 -28t-11 -28t-28 -11
q-16 0 -27.5 11t-11.5 28zM716 384q0 16 11 27.5t27 11.5q17 0 28 -11.5t11 -27.5q0 -17 -11 -28t-28 -11q-16 0 -27 11t-11 28zM612 384q0 16 11 27.5t28 11.5q16 0 27.5 -11.5t11.5 -27.5q0 -17 -11.5 -28t-27.5 -11q-17 0 -28 11t-11 28zM508 384q0 16 11 27.5t28 11.5
q16 0 27.5 -11.5t11.5 -27.5q0 -17 -11.5 -28t-27.5 -11q-17 0 -28 11t-11 28zM404 384q0 16 11 27.5t28 11.5t28 -11.5t11 -27.5q0 -17 -11 -28t-28 -11t-28 11t-11 28zM300 384q0 16 11 27.5t28 11.5t28 -11.5t11 -27.5q0 -17 -11 -28t-28 -11t-28 11t-11 28zM196 384
q0 16 11.5 27.5t27.5 11.5q17 0 28 -11.5t11 -27.5q0 -17 -11 -28t-28 -11q-16 0 -27.5 11t-11.5 28zM716 282q0 16 11 27.5t27 11.5q17 0 28 -11.5t11 -27.5q0 -17 -11 -28t-28 -11q-16 0 -27 11t-11 28zM612 282q0 16 11 27.5t28 11.5q16 0 27.5 -11.5t11.5 -27.5
q0 -17 -11.5 -28t-27.5 -11q-17 0 -28 11t-11 28zM508 282q0 16 11 27.5t28 11.5q16 0 27.5 -11.5t11.5 -27.5q0 -17 -11.5 -28t-27.5 -11q-17 0 -28 11t-11 28zM404 282q0 16 11 27.5t28 11.5t28 -11.5t11 -27.5q0 -17 -11 -28t-28 -11t-28 11t-11 28zM300 282
q0 16 11 27.5t28 11.5t28 -11.5t11 -27.5q0 -17 -11 -28t-28 -11t-28 11t-11 28zM196 282q0 16 11.5 27.5t27.5 11.5q17 0 28 -11.5t11 -27.5q0 -17 -11 -28t-28 -11q-16 0 -27.5 11t-11.5 28zM716 180q0 16 11 27t27 11q17 0 28 -11t11 -27q0 -17 -11 -28t-28 -11
q-16 0 -27 11t-11 28zM612 180q0 16 11 27t28 11q16 0 27.5 -11t11.5 -27q0 -17 -11.5 -28t-27.5 -11q-17 0 -28 11t-11 28zM508 180q0 16 11 27t28 11q16 0 27.5 -11t11.5 -27q0 -17 -11.5 -28t-27.5 -11q-17 0 -28 11t-11 28zM404 180q0 16 11 27t28 11t28 -11t11 -27
q0 -17 -11 -28t-28 -11t-28 11t-11 28zM300 180q0 16 11 27t28 11t28 -11t11 -27q0 -17 -11 -28t-28 -11t-28 11t-11 28zM196 180q0 16 11.5 27t27.5 11q17 0 28 -11t11 -27q0 -17 -11 -28t-28 -11q-16 0 -27.5 11t-11.5 28zM716 77q0 17 11 28t27 11q17 0 28 -11t11 -28
q0 -16 -11 -27.5t-28 -11.5q-16 0 -27 11.5t-11 27.5zM612 77q0 17 11 28t28 11q16 0 27.5 -11t11.5 -28q0 -16 -11.5 -27.5t-27.5 -11.5q-17 0 -28 11.5t-11 27.5zM508 77q0 17 11 28t28 11q16 0 27.5 -11t11.5 -28q0 -16 -11.5 -27.5t-27.5 -11.5q-17 0 -28 11.5t-11 27.5
zM404 77q0 17 11 28t28 11t28 -11t11 -28q0 -16 -11 -27.5t-28 -11.5t-28 11.5t-11 27.5zM300 77q0 17 11 28t28 11t28 -11t11 -28q0 -16 -11 -27.5t-28 -11.5t-28 11.5t-11 27.5zM196 77q0 17 11.5 28t27.5 11q17 0 28 -11t11 -28q0 -16 -11 -27.5t-28 -11.5
q-16 0 -27.5 11.5t-11.5 27.5z" />
    <glyph glyph-name="filledbox" unicode="&#x25a0;" horiz-adv-x="1000" 
d="M860 -44h-720v749h720v-749z" />
    <glyph glyph-name="H22073" unicode="&#x25a1;" horiz-adv-x="1000" 
d="M860 -44h-720v749h720v-749zM747 69v523h-492v-523h492z" />
    <glyph glyph-name="uni25A3" unicode="&#x25a3;" horiz-adv-x="1000" 
d="M140 -44v749h720v-749h-720zM774 42v578h-548v-578h548zM304 120v421h392v-421h-392z" />
    <glyph glyph-name="uni25A4" unicode="&#x25a4;" horiz-adv-x="1000" 
d="M870 -45h-753v751h753v-751zM824 57h-662v-52h662v52zM824 157h-662v-53h662v53zM824 258h-662v-53h662v53zM824 358h-662v-54h662v54zM824 458h-662v-52h662v52zM824 559h-662v-54h662v54zM824 658h-662v-52h662v52z" />
    <glyph glyph-name="uni25A5" unicode="&#x25a5;" horiz-adv-x="1000" 
d="M869 707v-753h-751v753h751zM767 661v-660h53v660h-53zM666 661v-660h54v660h-54zM566 661v-660h54v660h-54zM466 661v-660h53v660h-53zM366 661v-660h53v660h-53zM266 661v-660h53v660h-53zM165 661v-660h54v660h-54z" />
    <glyph glyph-name="uni25A6" unicode="&#x25a6;" horiz-adv-x="1000" 
d="M870 -45h-753v751h753v-751zM466 57v-52h54v52h-54zM723 57h-55v-52h55v52zM567 5h55v52h-55v-52zM264 5h54v52h-54v-52zM162 5h55v52h-55v-52zM365 5h54v52h-54v-52zM824 57h-55v-52h55v52zM466 157v-53h54v53h-54zM723 157h-55v-53h55v53zM567 104h55v53h-55v-53z
M264 104h54v53h-54v-53zM162 104h55v53h-55v-53zM365 104h54v53h-54v-53zM824 157h-55v-53h55v53zM466 258v-53h54v53h-54zM723 258h-55v-53h55v53zM567 205h55v53h-55v-53zM264 205h54v53h-54v-53zM162 205h55v53h-55v-53zM365 205h54v53h-54v-53zM824 258h-55v-53h55v53z
M466 358v-54h54v54h-54zM723 358h-55v-54h55v54zM567 304h55v54h-55v-54zM264 304h54v54h-54v-54zM162 304h55v54h-55v-54zM365 304h54v54h-54v-54zM824 358h-55v-54h55v54zM466 458v-52h54v52h-54zM723 458h-55v-52h55v52zM567 406h55v52h-55v-52zM264 406h54v52h-54v-52z
M162 406h55v52h-55v-52zM365 406h54v52h-54v-52zM824 458h-55v-52h55v52zM466 559v-54h54v54h-54zM723 559h-55v-54h55v54zM567 505h55v54h-55v-54zM264 505h54v54h-54v-54zM162 505h55v54h-55v-54zM365 505h54v54h-54v-54zM824 559h-55v-54h55v54zM466 658v-52h54v52h-54z
M723 658h-55v-52h55v52zM567 606h55v52h-55v-52zM264 606h54v52h-54v-52zM162 606h55v52h-55v-52zM365 606h54v52h-54v-52zM824 658h-55v-52h55v52z" />
    <glyph glyph-name="uni25A7" unicode="&#x25a7;" horiz-adv-x="1000" 
d="M118 706h751v-753h-751v753zM266 659h-66l625 -624v65zM726 1h64l-624 624v-65zM166 491v-66l425 -424h65zM166 88v-87h87zM323 1h64l-221 222v-66zM521 1l-355 355v-65l291 -290h64zM821 572v87h-87zM664 659h-64l221 -221v65zM466 659l355 -355v65l-291 290h-64z
M825 169v66l-425 424h-65z" />
    <glyph glyph-name="uni25A8" unicode="&#x25a8;" horiz-adv-x="1000" 
d="M869 707v-753h-751v753h751zM721 660l-560 -559v-65l625 624h-65zM261 2l559 559v65l-624 -624h65zM820 492l-489 -490h64l425 424v66zM820 89l-87 -87h87v87zM663 2l157 156v65l-221 -221h64zM465 2h64l291 290v65zM165 573l87 87h-87v-87zM322 660l-157 -156v-65
l221 221h-64zM520 660h-64l-291 -290v-65zM161 170l491 490h-65l-426 -424v-66z" />
    <glyph glyph-name="uni25A9" unicode="&#x25a9;" horiz-adv-x="1000" 
d="M118 706h751v-753h-751v753zM258 380q-14 -13 -25.5 -24t-25.5 -25l51 -51l50 52zM737 381l-50 -50q13 -14 24.5 -24.5t25.5 -24.5l49 50zM498 142q-12 -14 -24.5 -25.5t-25.5 -25.5q13 -12 24.5 -22.5t25.5 -24.5l50 48zM496 620q-14 -14 -23.5 -25t-23.5 -25l48 -50
l49 50zM573 219l-42 -43l51 -50l42 43zM420 220l-49 -51l42 -43l49 50zM257 211l-51 -50q11 -11 21.5 -20.5t21.5 -22.5q14 14 24 25t25 25zM327 620l-43 -42l50 -49l43 42zM248 542q-11 -12 -20.5 -20.5t-21.5 -20.5q14 -14 25.5 -25t25.5 -26l42 42zM343 297l-50 -51
l41 -42l50 51zM652 296l-43 -43q14 -13 25.5 -24t25.5 -25l41 43zM413 534l-43 -42l49 -50l42 43zM335 133l-51 -50q11 -11 21 -20t22 -21l23.5 23.5t25.5 24.5zM736 211l-43 -43l48 -48l43 43zM581 535l-48 -49l41 -42l49 48zM743 542l-48 -50l41 -42l48 49zM334 455
q-11 -11 -20.5 -19.5t-21.5 -21.5q13 -13 25 -23.5t26 -24.5l40 40zM657 132q-11 -11 -21 -19.5t-21 -21.5l51 -47l40 40zM665 619l-48 -49l41 -41l48 48zM659 456l-48 -49l40 -40q14 14 24.5 23.5t25.5 23.5zM574 371l-42 -41l41 -42l42 43zM496 449l-42 -42l41 -41l42 42z
M496 294q-11 -12 -20.5 -20.5t-21.5 -20.5q12 -12 21.5 -21t20.5 -21l41 41zM418 371q-11 -11 -20.5 -19.5t-20.5 -20.5l41 -42l41 41zM172 195l51 51l-50 50l-6 -6v-90zM818 195l5 5v91q-2 2 -2.5 2t-3.5 3l-49 -50zM223 417q-14 14 -25.5 24.5t-25.5 25.5l-2.5 -2.5
l-2.5 -2.5v-91l5 -4zM770 414l48 -47l5 4v92l-2 2zM528 5h99l3 3l-49 49zM530 657q14 -12 25.5 -24.5t26.5 -26.5l48 48q-1 1 -1.5 1t-1.5 2h-97zM413 606q14 14 23 24t23 25q1 0 -1 2h-95l-1 -2zM363 5h96l1 1l-47 48q-14 -13 -25.5 -23.5t-25.5 -24.5v-1h1zM823 122
q-1 1 -2.5 2t-3.5 3q-11 -11 -20.5 -20t-21.5 -22l48 -48v85zM167 122v-85l47 48l-41 42zM823 540v83l-47 -47l41 -41zM167 540l6 -5l41 41l-47 47v-83zM694 657l45 -46q14 12 22.5 22t23.5 24h-91zM694 5h91q-14 13 -22.5 22t-23.5 23zM288 657h-85l46 -44l42 42zM291 5
l-42 44l-45 -44h87z" />
    <glyph glyph-name="triagup" unicode="&#x25b2;" horiz-adv-x="1000" 
d="M143 49l351 597l349 -597h-700z" />
    <glyph glyph-name="uni25B3" unicode="&#x25b3;" horiz-adv-x="1000" 
d="M496 665l375 -635h-748zM496 514l-239 -412h480z" />
    <glyph glyph-name="uni25B6" unicode="&#x25b6;" horiz-adv-x="1000" 
d="M815 331l-635 -375v748z" />
    <glyph glyph-name="uni25B7" unicode="&#x25b7;" horiz-adv-x="1000" 
d="M669 331q-107 62 -208 122t-209 123v-491zM815 331l-635 -375v748z" />
    <glyph glyph-name="triagdn" unicode="&#x25bc;" horiz-adv-x="1000" 
d="M843 595l-349 -596l-351 596h700z" />
    <glyph glyph-name="uni25BD" unicode="&#x25bd;" horiz-adv-x="1000" 
d="M123 605h748l-375 -635zM737 534h-480l239 -412z" />
    <glyph glyph-name="uni25C0" unicode="&#x25c0;" horiz-adv-x="1000" 
d="M170 331l635 373v-748z" />
    <glyph glyph-name="uni25C1" unicode="&#x25c1;" horiz-adv-x="1000" 
d="M316 331l417 -246v491zM170 331l635 373v-748z" />
    <glyph glyph-name="uni25C6" unicode="&#x25c6;" horiz-adv-x="1000" 
d="M837 343l-344 -361l-343 361l341 361z" />
    <glyph glyph-name="uni25C7" unicode="&#x25c7;" horiz-adv-x="1000" 
d="M839 342l-339 -357l-339 357l337 357zM726 340l-226 238l-224 -235l227 -238z" />
    <glyph glyph-name="uni25C8" unicode="&#x25c8;" horiz-adv-x="1000" 
d="M493 577l248 -247l-248 -247l-248 247zM828 330l-335 335l-334 -335l334 -334zM493 771l441 -440l-441 -440l-440 439z" />
    <glyph glyph-name="uni25C9" unicode="&#x25c9;" horiz-adv-x="1000" 
d="M495 720q80 0 150 -30.5t122.5 -83t82.5 -123.5t30 -153q0 -80 -30.5 -150t-83 -122t-123.5 -82t-153 -30q-80 0 -150 30t-122 82.5t-82 123.5t-30 153q0 80 30 150t82.5 122.5t123.5 82.5t153 30zM490 22q65 0 122.5 24.5t100 66.5t67 98t24.5 119q0 65 -24.5 122.5
t-66.5 100t-98.5 67t-119.5 24.5q-65 0 -122 -24.5t-99.5 -66.5t-67 -98.5t-24.5 -119.5q0 -65 24.5 -122t66.5 -99.5t98 -67t119 -24.5zM495 575q49 0 92.5 -19t76.5 -52t52 -78t19 -96q0 -50 -19 -93.5t-52 -76t-78 -51.5t-96 -19q-49 0 -92.5 19t-76.5 52t-52 77.5
t-19 96.5q0 49 19 92.5t52 76.5t78 52t96 19z" />
    <glyph glyph-name="circle" unicode="&#x25cb;" horiz-adv-x="1000" 
d="M493 52q57 0 107.5 22t88 60t59.5 88t22 107t-22 107t-59.5 88t-88 60t-107.5 22t-107 -22t-87.5 -60t-59.5 -88t-22 -107t22 -107t59.5 -88t87.5 -60t107 -22zM492 717q81 0 151 -30t122 -82.5t82 -122.5t30 -151q0 -80 -30 -150.5t-82 -123t-122 -83t-151 -30.5
t-151 30.5t-122.5 83t-82.5 123t-30 150.5q0 81 30 151t82.5 122.5t122.5 82.5t151 30z" />
    <glyph glyph-name="uni25CE" unicode="&#x25ce;" horiz-adv-x="1000" 
d="M495 720q80 0 150 -30.5t122.5 -83t82.5 -123.5t30 -153q0 -80 -30.5 -150t-83 -122t-123.5 -82t-153 -30q-80 0 -150 30t-122 82.5t-82 123.5t-30 153q0 80 30 150t82.5 122.5t123.5 82.5t153 30zM490 22q65 0 122.5 24.5t100 66.5t67 98t24.5 119q0 65 -24.5 122.5
t-66.5 100t-98.5 67t-119.5 24.5q-65 0 -122 -24.5t-99.5 -66.5t-67 -98.5t-24.5 -119.5q0 -65 24.5 -122t66.5 -99.5t98 -67t119 -24.5zM495 575q49 0 92.5 -19t76.5 -52t52 -78t19 -96q0 -50 -19 -93.5t-52 -76t-78 -51.5t-96 -19q-49 0 -92.5 19t-76.5 52t-52 77.5
t-19 96.5q0 49 19 92.5t52 76.5t78 52t96 19zM490 166q34 0 65 13t54 35.5t36.5 52.5t13.5 63q0 34 -13.5 65t-36 54t-52 36.5t-62.5 13.5q-35 0 -66 -13.5t-54 -36t-36.5 -52t-13.5 -62.5q0 -35 13.5 -65.5t36 -53.5t52.5 -36.5t63 -13.5z" />
    <glyph glyph-name="H18533" unicode="&#x25cf;" horiz-adv-x="1000" 
d="M493 716q81 0 151.5 -30.5t123 -83t83 -123.5t30.5 -152t-30.5 -152t-83 -124t-123 -83.5t-151.5 -30.5t-152 30.5t-123.5 83.5t-83 124t-30.5 152t30.5 152t83 123.5t123.5 83t152 30.5z" />
    <glyph glyph-name="uni25D0" unicode="&#x25d0;" horiz-adv-x="1000" 
d="M515 23q59 5 111 31t90.5 67.5t61 95.5t22.5 115q0 60 -22.5 113.5t-61 94.5t-90.5 67t-111 31v-615zM495 717q80 0 150 -30t122.5 -82.5t82.5 -122.5t30 -150t-30 -150t-82.5 -123t-122.5 -83.5t-150 -30.5q-81 0 -152 30t-123.5 82.5t-83 123t-30.5 151.5t30.5 151.5
t83 122t123.5 81.5t152 30z" />
    <glyph glyph-name="uni25D1" unicode="&#x25d1;" horiz-adv-x="1000" 
d="M472 638q-60 -5 -112 -31t-90.5 -67t-60.5 -94.5t-22 -113.5q0 -61 22 -115t60.5 -95.5t90.5 -67.5t112 -31v615zM491 717q81 0 152 -30t123.5 -81.5t83 -122t30.5 -151.5t-30.5 -151.5t-83 -123t-123.5 -82.5t-152 -30q-80 0 -150 30.5t-122.5 83.5t-82.5 123t-30 150
t30 150t82.5 122.5t122.5 82.5t150 30z" />
    <glyph glyph-name="uni2605" unicode="&#x2605;" horiz-adv-x="1000" 
d="M590 457h318l-254 -188l106 -298l-267 185q-30 -21 -64.5 -45t-69.5 -49t-69 -48.5t-63 -43.5l106 299q-29 21 -61.5 46t-66 49.5t-66 48.5t-59.5 44h316l97 287z" />
    <glyph glyph-name="uni2606" unicode="&#x2606;" horiz-adv-x="1000" 
d="M590 457h318l-254 -188l106 -298l-267 185q-30 -21 -64.5 -45t-69.5 -49t-69 -48.5t-63 -43.5l106 299q-29 21 -61.5 46t-66 49.5t-66 48.5t-59.5 44h316l97 287zM578 295l135 97h-168l-52 154l-51 -154h-170l137 -97l-57 -160l141 100l138 -97z" />
    <glyph glyph-name="uni260E" unicode="&#x260e;" horiz-adv-x="1000" 
d="M179 348q-14 0 -25 1.5t-19.5 7.5t-13 17t-4.5 30q1 -1 2 -1q3 32 8 55.5t16 40.5t29.5 29t50.5 21q64 18 135 26.5t135 8.5q68 0 137 -8.5t133 -26.5q31 -9 50 -21t29.5 -29t15.5 -40.5t9 -55.5q1 0 1.5 0.5t1.5 0.5q0 -19 -5 -30t-13 -17t-20 -7.5t-25 -1.5l-70 3
q-26 1 -43 14.5t-23 48.5h1q-3 17 -15.5 30.5t-28.5 19.5v-32q0 -18 4 -25t21 -21h-1l12 -11q11 -9 20 -18.5t15 -27.5l69 -197l-11 -81h-527l-11 81l68 197q6 17 13.5 26t18.5 17q4 3 7.5 6t7.5 7l4 3q12 13 16 19.5t4 24.5v32q-16 -7 -29 -20.5t-15 -30.5q0 1 1 1
q-6 -35 -23 -48.5t-43 -14.5zM493 374q-21 0 -39.5 -7.5t-32.5 -21t-22 -31.5t-8 -39t7.5 -40t20.5 -34t31.5 -23.5t39.5 -8.5q44 0 73.5 30t29.5 74q0 21 -8 39t-21.5 32t-31.5 22t-39 8zM492 479q-18 0 -35.5 -1t-32.5 -3l-9 -1l8 -47q18 1 35 2.5t34 2.5l69 -4l8 47
q-2 0 -4 0.5t-4 0.5q-15 1 -32 2.5t-37 0.5z" />
    <glyph glyph-name="uni260F" unicode="&#x260f;" horiz-adv-x="1000" 
d="M757 53h-527l-11 79l68 197q8 21 17 30.5t22 19.5q6 4 9 7q7 7 12 11t7 8.5t3 10.5t1 16v32q-37 -14 -43 -48q-8 -35 -23.5 -49.5t-42.5 -15.5l-70 -3q-14 0 -26 1t-20 7t-12 18.5t-1 34.5q9 60 31.5 92t71.5 47q30 9 64.5 15.5t69.5 11t69.5 7t66.5 2.5q67 0 138 -9.5
t132 -26.5q51 -14 74 -45.5t30 -93.5q2 -22 -2 -34.5t-12 -18.5t-20 -7t-26 -1l-70 3q-14 0 -24.5 2.5t-18.5 9.5t-13.5 19.5t-9.5 33.5q-3 17 -13 28.5t-30 19.5v-32q0 -10 0.5 -16t3 -10.5t7.5 -9t13 -10.5l10 -9q12 -9 21.5 -19.5t15.5 -28.5l69 -197zM269 96h448
q2 8 3.5 15.5t2.5 14.5l-61 176q-8 23 -20 34t-23 21q-4 2 -6 4q-20 14 -25 32.5t-5 41.5v7l-6 -29h-14q-9 1 -30 2t-41 1t-41 -1.5t-30 -2.5h-14l-3 20q-1 -21 -7 -39.5t-23 -31.5q-2 -2 -4 -3l-4 -2q-11 -9 -22.5 -21t-19.5 -33l-60 -176zM493 394q25 0 47 -10t38 -26.5
t25.5 -38.5t9.5 -46q0 -26 -9.5 -48.5t-26 -39t-39 -26t-48.5 -9.5t-47.5 10t-37.5 27.5t-24.5 40t-8.5 47.5t10 47t26.5 38t38.5 25t46 9zM493 540q-51 0 -111 -6.5t-114 -20.5q-45 -11 -69 -31.5t-32 -57.5q-4 -20 -1 -27.5t19 -6.5l56 1q13 1 19.5 10t11.5 35
q4 18 15.5 31.5t27 22.5t34.5 15t38 9q23 4 50 6t56 2q28 0 55.5 -2t50.5 -6q19 -3 38 -9t34.5 -15t27 -22.5t15.5 -31.5q5 -26 12 -35t19 -10q14 0 28.5 -0.5t28.5 -0.5q14 -1 17.5 6.5t-0.5 27.5q-8 37 -32.5 57.5t-68.5 31.5q-52 14 -113.5 20.5t-111.5 6.5zM493 350
q-32 0 -55.5 -21.5t-23.5 -53.5q0 -16 6 -31t16 -26t24 -18t30 -7q34 0 56.5 23t22.5 57q0 31 -22 54t-54 23zM492 458h27t23 -2q2 6 2.5 12.5t1.5 10.5q-10 1 -25 2t-29 1q-20 0 -33.5 -0.5t-18.5 -1.5q2 -5 3 -10t2 -13q10 1 23 1h24z" />
    <glyph glyph-name="uni261C" unicode="&#x261c;" horiz-adv-x="1000" 
d="M320 334q0 18 10.5 29.5t25.5 18.5l-75 5q-7 0 -16.5 1t-16.5 1h-8q-14 0 -33.5 1.5t-37.5 7.5t-30.5 19t-10.5 37q1 18 14 28.5t31 16t36 7t28 1.5h5q14 1 42.5 2t64.5 2t75.5 1h75.5h17q21 0 46 -0.5t52 -7t55.5 -21t56.5 -41.5q5 -5 17 -6t18 -1v39h103v-300h-104v26
h-11l-8 -5q-15 -11 -49.5 -30t-94.5 -30q-13 -2 -31.5 -3t-40.5 -1q-19 0 -37.5 0.5t-33.5 1.5t-24.5 2t-10.5 1l2 -1q-20 0 -37 10.5t-22 35.5q-2 11 2 22q2 5 4 11q-11 5 -20 21q-9 19 -7.5 33t4.5 21q-7 3 -16.5 13t-9.5 32zM671 442q-21 15 -56.5 24.5t-75.5 9.5
q-8 0 -17 -0.5t-17 -1.5l-17 -8q-8 -3 -16 -7t-16 -14q-2 -2 -5.5 -8.5t-6.5 -13.5q-4 -8 -7.5 -15.5t-8.5 -15.5l14 8q4 2 9 8.5t9 12.5q7 9 13.5 15.5t16.5 1.5q5 -4 5 -12q0 -4 -1 -9h9q4 0 8 -0.5t6 0.5q5 2 8.5 3.5t5.5 2.5q12 6 23.5 10t13.5 -9q0 -3 -0.5 -8.5
t-2 -11t-3 -10t-2.5 -5.5q5 -6 20 -20.5t39 -23.5q17 -8 30.5 -11t24.5 -5q14 -3 24 -7t10 -14q0 -8 -9.5 -11t-23.5 -3t-30 2.5t-29 7.5q-20 8 -36 21.5t-28 27.5q-14 16 -26 33q-8 -4 -14 -4t-10.5 0.5t-8.5 1.5q10 -5 19.5 -12.5t14.5 -19.5q5 -17 1 -30t-9 -19
q6 -3 11 -7q11 -9 14 -24q2 -13 -1 -22t-6 -14q8 -5 15 -14t9 -23q1 -13 -1 -20t-5 -12h7t10 1h-1q38 4 69.5 16t54.5 24q26 14 48 31h19v159h-5q-10 0 -18 0.5t-21 7.5v-1q-5 2 -17 14q-5 4 -12 9.5t-18 13.5zM423 452q3 5 8 11t10 11q-16 0 -40 -0.5t-51.5 -1t-55 -1.5
t-50.5 -2q-41 -2 -60 -5t-20 -14q-1 -13 16 -17t64 -6l102 -5q24 -2 41 -3.5t19 -1.5q1 5 4 11q2 5 5 11.5t8 12.5zM477 352q-23 4 -46.5 4.5t-29.5 0.5q-6 1 -20 -3t-23 -10q-4 -5 3 -14t17 -9q0 -1 9.5 -1.5t32.5 -0.5h46t27 2q5 7 2 17.5t-18 13.5zM815 437h-20v-227h20
v227zM526 198q-1 6 -7.5 8t-10.5 2h-44l-58 -2q-4 0 -6 -4t-2 -9t2 -10t6 -6q7 -3 22 -4.5t30.5 -2t27.5 -0.5t12 1q2 0 7 1.5t9.5 4.5t8 8t3.5 13zM511 262q2 11 -8 15t-21 4h-88q-11 0 -15.5 -11.5t7.5 -20.5q3 -2 16.5 -2.5t29 -0.5h28h12.5q8 0 22.5 3.5t16.5 12.5z
M548 159v-1h1z" />
    <glyph glyph-name="uni261E" unicode="&#x261e;" horiz-adv-x="1000" 
d="M669 334q0 -22 -9.5 -32t-16.5 -13q3 -7 4.5 -21t-7.5 -33q-9 -16 -20 -21q2 -6 4 -11q4 -11 2 -22q-5 -25 -22 -35.5t-37 -10.5l2 1q-1 0 -10.5 -1t-24.5 -2t-33.5 -1.5t-37.5 -0.5q-22 0 -40.5 1t-31.5 3q-60 11 -94.5 30t-49.5 30l-8 5h-11v-26h-104v300h103v-39
q6 0 18 1t17 6q28 27 56.5 41.5t55.5 21t52 7t46 0.5h17h75.5t75.5 -1t64.5 -2t42.5 -2h5q10 0 28 -1.5t36 -7t31 -16t14 -28.5q1 -24 -11 -37t-30 -19t-37.5 -7.5t-33.5 -1.5h-8q-7 0 -16.5 -1t-16.5 -1l-75 -5q15 -7 25.5 -18.5t10.5 -29.5zM318 442q-11 -8 -18 -13.5
t-12 -9.5q-12 -12 -17 -14v1q-13 -7 -21 -7.5t-18 -0.5h-5v-159h19q22 -17 48 -31q23 -12 54.5 -24t69.5 -16h-1q6 -1 10 -1h7q-3 5 -5 12t-1 20q2 14 9 23t15 14q-3 5 -6 14t-1 22q3 15 14 24q5 4 11 7q-5 6 -9 19t1 30q5 12 14.5 19.5t19.5 12.5q-4 -1 -8.5 -1.5
t-10.5 -0.5t-14 4q-12 -17 -26 -33q-12 -14 -28.5 -27.5t-35.5 -21.5q-13 -5 -29 -7.5t-30 -2.5t-23.5 3t-9.5 11q0 10 10 14t24 7q11 2 24.5 5t30.5 11q24 9 39 23.5t20 20.5q-1 1 -2.5 5.5t-3 10t-2 11t-0.5 8.5q2 13 13.5 9t23.5 -10q2 -1 5.5 -2.5t8.5 -3.5q2 -1 6 -0.5
t8 0.5h9q-1 5 -1 9t0.5 7t4.5 5q10 5 16.5 -1.5t13.5 -15.5q4 -6 9 -12.5t9 -8.5l14 -8q-5 8 -8.5 15.5t-7.5 15.5q-3 7 -6.5 13.5t-5.5 8.5q-8 10 -16 14t-16 7l-17 8q-8 1 -17 1.5t-17 0.5q-40 0 -75.5 -9.5t-56.5 -24.5zM566 452q9 -14 13 -24q3 -6 4 -11q2 0 19 1.5
t41 3.5l102 5q47 2 64 6t16 17q-1 11 -20 14t-60 5q-23 1 -50.5 2t-55 1.5t-51.5 1t-40 0.5q5 -5 10 -11t8 -11zM512 352q-15 -3 -18 -13.5t2 -17.5q6 -2 27 -2h46q23 0 32.5 0.5t9.5 1.5q10 0 17 9t3 14q-9 6 -23 10t-20 3q-6 0 -29.5 -0.5t-46.5 -4.5zM174 210h20v227h-20
v-227zM463 198q0 -8 3.5 -13t8 -8t9.5 -4.5t7 -1.5q0 -1 12 -1t27.5 0.5t30.5 2t22 4.5q4 1 6 6t2 10t-2 9t-6 4l-58 2h-44q-4 0 -10.5 -2t-7.5 -8zM478 262q2 -9 16.5 -12.5t22.5 -3.5h12.5h28t29 0.5t16.5 2.5q12 9 7.5 20.5t-15.5 11.5h-88q-11 0 -21 -4t-8 -15zM440 158
h1v1z" />
    <glyph glyph-name="female" unicode="&#x2640;" horiz-adv-x="1000" 
d="M237 216q-19 0 -27.5 4.5t-8.5 22.5v34q0 18 8.5 23t27.5 5h209v48q-72 13 -117 66t-45 133q0 46 16.5 83.5t45.5 64.5t68.5 41.5t86.5 14.5t86.5 -14.5t68.5 -41.5t45.5 -64.5t16.5 -83.5q0 -81 -46.5 -134t-119.5 -66v-47h211q19 0 27.5 -5t8.5 -23v-34
q0 -18 -8.5 -22.5t-27.5 -4.5h-210v-277q0 -19 -6.5 -27.5t-28.5 -8.5h-38q-22 0 -28.5 8.5t-6.5 27.5v277h-208zM390 552q0 -49 27.5 -82t83.5 -33t83.5 33t27.5 82t-27.5 82t-83.5 33t-83.5 -33t-27.5 -82z" />
    <glyph glyph-name="male" unicode="&#x2642;" horiz-adv-x="1000" 
d="M501 -87q-47 0 -86.5 14.5t-68.5 41.5t-45.5 64.5t-16.5 83.5q0 40 12.5 73.5t34.5 59t53 42.5t68 24v233q-3 -3 -10 -11.5t-20 -25t-33.5 -41.5t-49.5 -61q-9 -11 -16.5 -17.5t-19.5 -6.5l-77 1q-11 0 -15 8.5t3 16.5l265 322q8 9 20.5 9.5t21.5 -10.5l265 -321
q7 -8 3 -16.5t-15 -8.5l-80 -1q-11 0 -17.5 6t-12.5 14l-116 145v-234q75 -14 122.5 -66.5t47.5 -133.5q0 -46 -16.5 -83.5t-45.5 -64.5t-68.5 -41.5t-86.5 -14.5zM390 117q0 -49 27.5 -82t83.5 -33t83.5 33t27.5 82t-27.5 82t-83.5 33t-83.5 -33t-27.5 -82z" />
    <glyph glyph-name="spade" unicode="&#x2660;" horiz-adv-x="1000" 
d="M258 19l14 49q46 5 76.5 13t44.5 20q11 9 17.5 31.5t8.5 55.5q-36 -15 -82 -15q-33 0 -58 12.5t-42 33t-26 46.5t-9 54q0 27 9 54t26 49q20 25 42.5 47.5t45.5 43.5q22 21 46.5 45.5t44.5 52.5q23 32 37.5 68t22.5 80h35q7 -41 22 -80t37 -68q20 -26 44.5 -51.5
t46.5 -46.5q23 -21 46 -43.5t42 -47.5q34 -48 34 -106q0 -28 -8.5 -53.5t-25 -45.5t-41.5 -32t-58 -12q-48 0 -84 15q2 -36 8.5 -56.5t17.5 -30.5v1q15 -13 46 -21t76 -13l15 -49h-471z" />
    <glyph glyph-name="uni2661" unicode="&#x2661;" horiz-adv-x="1000" 
d="M324 248v-1q-26 30 -53 63t-48.5 69t-36 75t-14.5 82q1 34 14 63.5t35.5 51t52 33.5t64.5 12q48 0 88.5 -18.5t65.5 -60.5q26 39 67 59t88 20q34 0 64 -12t52 -33t35 -50.5t14 -64.5q1 -41 -12 -78.5t-34 -72.5t-47.5 -67t-51.5 -61l-21 -27l-20 -21q-20 -23 -39 -45.5
t-35.5 -48t-30.5 -54.5t-23 -64q-38 76 -78 129.5t-82 105.5v-1zM491 150q20 31 44 60.5t52 61.5v-1l13 16q21 24 45.5 53t45 60t34 62.5t13.5 61.5q0 42 -28 69.5t-73 29.5q-23 -5 -46 -22t-42.5 -40.5t-34 -50.5t-20.5 -51q-10 25 -25 54t-33.5 53.5t-40.5 40.5t-46 17
q-50 1 -76.5 -27.5t-26.5 -72.5q0 -29 10 -57t26.5 -54.5t37 -51.5t41.5 -49q9 -11 18 -21t17 -21z" />
    <glyph glyph-name="club" unicode="&#x2663;" horiz-adv-x="1000" 
d="M661 174q-29 0 -59.5 7t-53.5 21q4 -42 17 -69t35 -43.5t53 -24.5t70 -12l14 -48h-490l16 48q39 3 69 12t51.5 26.5t35 45t18.5 67.5q-23 -14 -52.5 -21.5t-58.5 -7.5q-37 0 -69 13.5t-55 37t-36.5 54t-13.5 64.5q0 31 11 60.5t31.5 53.5t48.5 39t63 18q10 1 12 2t11 -1
q-3 12 -5.5 26t-2.5 27q0 36 15 66.5t39.5 53t55 35t62.5 12.5q31 0 61.5 -12.5t54.5 -34.5t39 -52.5t15 -66.5q0 -32 -7 -56q5 0 10.5 0.5t11.5 -0.5q28 -2 55.5 -15t50 -35.5t36.5 -53t14 -66.5q0 -34 -13 -64.5t-36 -54t-55 -37.5t-69 -14z" />
    <glyph glyph-name="uni2664" unicode="&#x2664;" horiz-adv-x="1000" 
d="M480 129q-5 -29 -17 -49h59q-5 10 -9.5 22.5t-6.5 26.5q-5 27 -7 80.5t-2 131.5q16 -26 32.5 -42.5t32.5 -27t30 -16t25 -8.5q16 -3 33 -0.5t30 10t21.5 20t8.5 28.5q0 54 -28 87q-14 13 -27.5 26t-28.5 26q-37 35 -72.5 71t-61.5 83q-25 -43 -60 -79.5t-71 -70.5
q-16 -14 -30.5 -28t-27.5 -28q-28 -31 -28 -87q0 -16 8.5 -28t22 -20t30 -10.5t33.5 0.5q11 3 24.5 7.5t28.5 15t32 28t34 45.5q0 -78 -2 -133t-6 -81zM257 19l14 49q46 5 76.5 13t44.5 20q11 9 17.5 31.5t8.5 55.5q-36 -15 -82 -15q-30 0 -55 11t-43 30t-27.5 44.5
t-9.5 55.5q0 32 9 59t26 49q20 25 42.5 47.5t45.5 43.5q22 21 46.5 45.5t44.5 52.5q45 61 60 148h35q7 -41 22 -80t37 -68q20 -26 44.5 -51.5t47.5 -46.5q22 -21 45 -43.5t42 -47.5q17 -23 26.5 -50t9.5 -58q0 -30 -10 -55.5t-28 -44.5t-42.5 -30t-54.5 -11q-47 0 -84 15
q2 -36 8.5 -56.5t17.5 -30.5v1q15 -13 46 -21t76 -13l15 -49h-471z" />
    <glyph glyph-name="heart" unicode="&#x2665;" horiz-adv-x="1000" 
d="M324 248v-1q-26 30 -53 63t-48.5 69t-36 75t-14.5 82q1 34 14 63.5t35.5 51t52 33.5t64.5 12q48 0 88.5 -18.5t65.5 -60.5q26 39 67 59t88 20q34 0 64 -12t52 -33t35 -50.5t14 -64.5q1 -41 -12 -78.5t-34 -72.5t-47.5 -67t-51.5 -61l-21 -27l-20 -21q-20 -23 -39 -45.5
t-35.5 -48t-30.5 -54.5t-23 -64q-38 76 -78 129.5t-82 105.5v-1z" />
    <glyph glyph-name="uni2667" unicode="&#x2667;" horiz-adv-x="1000" 
d="M395 411q-20 17 -38 24t-34 7q-20 0 -37.5 -7.5t-30.5 -21t-20.5 -31.5t-7.5 -38t7.5 -37t20.5 -30.5t30.5 -21t37.5 -7.5q28 0 53 17.5t39 46.5h76q0 -80 -6 -141.5t-26 -97.5h67q-20 37 -25.5 98t-5.5 141h75q14 -28 38.5 -46t53.5 -18q20 0 38 7.5t31.5 20.5t21 30
t7.5 37q0 41 -28.5 69.5t-69.5 28.5q-15 0 -33.5 -8t-38.5 -25l-54 70q23 20 38.5 43t15.5 46q0 41 -28.5 69t-69.5 28q-20 0 -37.5 -7.5t-31 -20.5t-21 -31t-7.5 -38q0 -23 14.5 -45t36.5 -42zM661 174q-25 0 -50.5 8t-45.5 21q3 -42 13.5 -69.5t29.5 -44t47.5 -24.5
t67.5 -12l14 -48h-490l16 48q38 3 66 12t47 26.5t29.5 45t13.5 68.5q-20 -13 -44.5 -21.5t-48.5 -8.5q-37 0 -69 13.5t-55 37t-36.5 54t-13.5 64.5q0 31 11 60.5t31.5 53.5t48.5 39t63 18q10 1 12 2t11 -1q-3 12 -5.5 26t-2.5 27q0 36 15 66.5t39.5 53t55 35t62.5 12.5
q31 0 61.5 -12.5t54.5 -34.5t39 -52.5t15 -66.5q0 -32 -7 -56q5 0 10.5 0.5t11.5 -0.5q28 -2 55.5 -15t50 -35.5t36.5 -53t14 -66.5q0 -34 -13 -64.5t-36 -54t-55 -37.5t-69 -14z" />
    </font>
</defs>
</svg>
