<?xml version="1.0" standalone="no"?>
<!DOCTYPE svg PUBLIC "-//W3C//DTD SVG 1.1//EN" "http://www.w3.org/Graphics/SVG/1.1/DTD/svg11.dtd" >
<svg xmlns="http://www.w3.org/2000/svg" xmlns:xlink="http://www.w3.org/1999/xlink" version="1.1">
<metadata>
Created by FontForge 20170731 at Thu Aug 26 23:54:52 2021
 By Aleksey,,,
Copyright (c) 2020 by Chungbuk National University. All rights reserved.
</metadata>
<defs>
<font id="ChungbukNationalUniversity-Regular" horiz-adv-x="900" >
  <font-face 
    font-family="Chungbuk National University"
    font-weight="400"
    font-stretch="normal"
    units-per-em="1000"
    panose-1="2 11 0 0 0 0 0 0 0 0"
    ascent="800"
    descent="-200"
    x-height="556"
    cap-height="764"
    bbox="-15 -199 1000 938"
    underline-thickness="25"
    underline-position="-224"
    unicode-range="U+0020-FFE6"
  />
<missing-glyph horiz-adv-x="250" 
 />
    <glyph glyph-name=".notdef" horiz-adv-x="250" 
 />
    <glyph glyph-name=".null" horiz-adv-x="0" 
 />
    <glyph glyph-name="nonmarkingreturn" horiz-adv-x="250" 
 />
    <glyph glyph-name="space" unicode=" " horiz-adv-x="170" 
 />
    <glyph glyph-name="exclam" unicode="!" horiz-adv-x="254" 
d="M113 244q-14 0 -15 13l-18 303v194q0 6 4.5 10.5t10.5 4.5h64q6 0 10.5 -4.5t4.5 -10.5v-194l-18 -303q-1 -13 -15 -13h-28zM99 35q-6 0 -10.5 4.5t-4.5 10.5v75q0 6 4.5 10.5t10.5 4.5h56q6 0 10.5 -4.5t4.5 -10.5v-75q0 -6 -4.5 -10.5t-10.5 -4.5h-56z" />
    <glyph glyph-name="quotedbl" unicode="&#x22;" horiz-adv-x="349" 
d="M133 499q-1 -6 -5 -10.5t-10 -4.5h-37q-6 0 -10 4.5t-5 10.5l-11 217q0 6 4 10.5t11 4.5h59q6 0 10.5 -4.5t4.5 -10.5zM283 499q-1 -6 -5 -10.5t-10 -4.5h-37q-6 0 -10 4.5t-5 10.5l-11 217q0 6 4 10.5t11 4.5h59q6 0 10.5 -4.5t4.5 -10.5z" />
    <glyph glyph-name="numbersign" unicode="#" horiz-adv-x="686" 
d="M444 48q-1 -5 -5.5 -9.5t-10.5 -4.5h-46q-10 0 -13 4.5t-3 14.5l29 206h-143l-29 -211q-1 -5 -6 -9.5t-10 -4.5h-46q-10 0 -13 4.5t-3 14.5l28 206h-83q-11 0 -14 4.5t-3 14.5l4 32q3 14 16 14h89l22 156h-84q-16 0 -16 19l4 33q1 13 16 13h88l30 211q2 14 16 14h46
q16 0 16 -19l-29 -206h143l29 211q1 6 6 10t10 4h46q16 0 16 -19l-28 -206h83q11 0 14 -4.5t3 -14.5l-4 -32q-2 -5 -6.5 -9.5t-9.5 -4.5h-89l-22 -156h84q16 0 16 -19l-4 -32q-2 -14 -16 -14h-88zM425 480h-142l-22 -156h142z" />
    <glyph glyph-name="dollar" unicode="$" horiz-adv-x="593" 
d="M451 556q-13 0 -15 14q-7 64 -35 92.5t-70 32.5v-252q103 -33 151.5 -78t48.5 -118q0 -41 -15 -77t-41.5 -64.5t-63 -46t-80.5 -20.5v-84q0 -6 -4.5 -10.5t-10.5 -4.5h-36q-6 0 -10.5 4.5t-4.5 10.5v84q-100 11 -150 69.5t-53 145.5q0 16 16 16h55q6 0 10.5 -4t4.5 -10
q4 -63 35 -98.5t82 -43.5v269q-39 10 -73 26.5t-59.5 40.5t-40.5 55.5t-15 69.5q0 76 48.5 128.5t139.5 61.5v50q0 6 4.5 10.5t10.5 4.5h36q6 0 10.5 -4.5t4.5 -10.5v-51q34 -3 66 -17t57.5 -38t42 -58t21.5 -77q0 -18 -15 -18h-52zM265 696q-54 -9 -81 -41t-27 -74
q0 -45 25.5 -74.5t82.5 -44.5v234zM331 114q20 2 40 12t36 26.5t26 39t10 50.5q0 45 -24.5 73t-87.5 45v-246z" />
    <glyph glyph-name="percent" unicode="%" horiz-adv-x="873" 
d="M222 35q-8 0 -13.5 5t-5.5 12q0 5 3 10l375 692q9 15 26 15h32q8 0 13 -5t5 -12t-2 -10l-380 -692q-9 -15 -26 -15h-27zM30 587q0 36 13.5 67.5t37 55t54.5 36.5t67 13q35 0 66.5 -13.5t55 -37t37 -55t13.5 -66.5q0 -36 -13.5 -67t-37 -54.5t-54.5 -37t-67 -13.5t-67 13
t-54.5 36.5t-37 55t-13.5 67.5zM97 587q0 -23 8 -43.5t22 -35.5t33 -23.5t42 -8.5q22 0 41 8.5t33 23.5t22.5 35.5t8.5 43.5t-8.5 43.5t-22.5 35.5t-33 23.5t-41 8.5t-41 -9t-33.5 -24t-22.5 -35t-8 -43zM499 217q0 36 13.5 67.5t37 55t54.5 36.5t67 13q35 0 66.5 -13.5
t55 -37t37 -55t13.5 -66.5q0 -36 -13.5 -67t-37 -54.5t-54.5 -37t-67 -13.5t-67 13t-54.5 36.5t-37 55t-13.5 67.5zM566 217q0 -23 8 -43.5t22 -35.5t33 -23.5t42 -8.5q22 0 41 8.5t33 23.5t22.5 35.5t8.5 43.5t-8.5 43.5t-22.5 35.5t-33 23.5t-41 8.5t-41 -9t-33.5 -24
t-22.5 -35t-8 -43z" />
    <glyph glyph-name="ampersand" unicode="&#x26;" horiz-adv-x="833" 
d="M572 52q-11 0 -18 9l-63 83q-44 -48 -95 -79.5t-118 -31.5q-43 0 -80 15.5t-64.5 42.5t-43.5 63t-16 76q0 61 35.5 110t98.5 92l36 25q-42 48 -62 87.5t-20 73.5q0 33 13 61t35.5 48.5t54 31.5t68.5 11q33 0 61.5 -12t49.5 -32.5t33 -48.5t12 -60q0 -26 -11 -52
t-30 -49.5t-44.5 -43.5t-54.5 -33l131 -165q9 11 19.5 28t19.5 35.5t16 38t10 35.5q2 14 16 14h54q14 0 14 -13v-3q-8 -52 -32.5 -101.5t-61.5 -95.5l118 -142q4 -5 4 -10q0 -8 -13 -8h-72zM289 400q-26 -18 -49.5 -35.5t-41.5 -37t-29 -41t-11 -48.5q0 -64 37.5 -97.5
t94.5 -33.5q35 0 75 24t73 72zM408 618q0 36 -21.5 61t-58.5 25q-35 0 -56.5 -25t-21.5 -60q0 -23 11.5 -58.5t46.5 -70.5q45 25 72.5 60t27.5 68z" />
    <glyph glyph-name="quotesingle" unicode="'" horiz-adv-x="191" 
d="M129 499q-1 -6 -5 -10.5t-10 -4.5h-37q-6 0 -10 4.5t-5 10.5l-11 217q0 6 4 10.5t11 4.5h59q6 0 10.5 -4.5t4.5 -10.5l-11 -217v0z" />
    <glyph glyph-name="parenleft" unicode="(" horiz-adv-x="374" 
d="M251 -73q-3 0 -9 2.5t-12 9.5q-75 85 -114 191t-39 236q0 133 39 241t114 190q6 7 10.5 9.5t12.5 2.5h26q6 0 10.5 -4t4.5 -10q0 -4 -3 -8q-62 -95 -95.5 -195.5t-33.5 -225.5q0 -62 9 -116t25.5 -104.5t40.5 -98t54 -96.5q3 -5 3 -9q0 -7 -4.5 -11t-10.5 -4h-28v0z" />
    <glyph glyph-name="parenright" unicode=")" horiz-adv-x="374" 
d="M95 -73q-6 0 -10.5 4t-4.5 11q0 4 3 9q30 49 54 96.5t40.5 98t25.5 104.5t9 116q0 125 -33.5 225.5t-95.5 195.5q-3 4 -3 8q0 6 4.5 10t10.5 4h26q8 0 12 -2.5t11 -9.5q75 -82 114 -190.5t39 -240.5q0 -130 -39 -236t-114 -191q-6 -7 -12 -9.5t-9 -2.5h-28v0z" />
    <glyph glyph-name="asterisk" unicode="*" horiz-adv-x="428" 
d="M377 649q1 -2 1 -6q0 -9 -11 -12l-90 -28l60 -85q4 -8 4 -11q0 -5 -7 -10l-39 -27q-5 -3 -9 -3q-6 0 -12 7l-59 79l-60 -79q-7 -7 -13 -7q-4 0 -8 3l-39 27q-7 4 -7 10t4 11l59 85l-90 28q-10 3 -10 12q0 4 1 6l14 44q3 11 12 11q4 0 6 -1l88 -29v104q0 15 15 15h55
q15 0 15 -15v-104l87 29q2 1 7 1q9 0 12 -10l14 -45v0z" />
    <glyph glyph-name="plus" unicode="+" horiz-adv-x="600" 
d="M262 627q0 7 4.5 12t11.5 5h43q7 0 12 -5t5 -12v-162h172q7 0 12 -5t5 -12v-43q0 -7 -5 -11.5t-12 -4.5h-172v-162q0 -7 -5 -12t-12 -5h-43q-7 0 -11.5 5t-4.5 12v162h-172q-7 0 -12 4.5t-5 11.5v43q0 7 5 12t12 5h172v162v0z" />
    <glyph glyph-name="comma" unicode="," horiz-adv-x="226" 
d="M81 41q-6 0 -10.5 4.5t-4.5 10.5v69q0 6 4.5 10.5t10.5 4.5h60q6 0 10.5 -4.5t4.5 -10.5v-64q0 -5 -1 -11.5t-3 -11.5l-23 -79q-5 -11 -16 -11h-26q-9 0 -9 7q0 3 1 5l22 81h-20v0z" />
    <glyph glyph-name="hyphen" unicode="-" horiz-adv-x="600" 
d="M110 389q-7 0 -12 4.5t-5 11.5v43q0 7 5 12t12 5h380q7 0 12 -5t5 -12v-43q0 -7 -5 -11.5t-12 -4.5h-380v0z" />
    <glyph glyph-name="period" unicode="." horiz-adv-x="226" 
d="M85 35q-6 0 -10.5 4.5t-4.5 10.5v65q0 6 4.5 10.5t10.5 4.5h56q6 0 10.5 -4.5t4.5 -10.5v-65q0 -6 -4.5 -10.5t-10.5 -4.5h-56v0z" />
    <glyph glyph-name="slash" unicode="/" horiz-adv-x="529" 
d="M371 762q2 6 8 11.5t12 5.5h54q5 0 9.5 -4t4.5 -9q0 -1 -0.5 -2t-0.5 -2l-300 -821q-2 -6 -8 -11t-13 -5h-54q-5 0 -9 3.5t-4 8.5q0 3 1 4l300 821v0z" />
    <glyph glyph-name="zero" unicode="0" horiz-adv-x="600" 
d="M300 30q-59 0 -107.5 24t-83.5 70.5t-54.5 116t-19.5 161.5t19.5 161t55 115t84 69t106.5 23t106.5 -23t83.5 -69t55 -115t20 -161t-19.5 -162t-55 -116.5t-84 -70t-106.5 -23.5zM300 99q43 0 76 24.5t55 66t33 96.5t11 115t-11.5 114.5t-33.5 95.5t-54.5 65.5
t-75.5 24.5t-76 -24.5t-55 -65.5t-33 -95.5t-11 -114.5q0 -61 11 -116t33 -96t54.5 -65.5t76.5 -24.5z" />
    <glyph glyph-name="one" unicode="1" horiz-adv-x="600" 
d="M396 759q7 0 12 -5t5 -12v-686q0 -7 -5.5 -11.5t-12.5 -4.5h-58q-16 0 -16 16v595l-158 -102q-6 -3 -9 -3q-7 0 -12 7l-27 42q-3 4 -3 9q0 7 8 11l202 134q8 5 14.5 7.5t14.5 2.5h45v0z" />
    <glyph glyph-name="two" unicode="2" horiz-adv-x="600" 
d="M519 126q7 0 12 -4.5t5 -11.5v-48q0 -7 -5 -12t-12 -5h-439q-8 0 -12 7t-4 15q0 49 29 95.5t71.5 88.5t92 79.5t90.5 70.5q53 43 74 78t21 74q0 69 -38.5 105.5t-99.5 36.5q-64 0 -103 -39.5t-39 -126.5q0 -5 -4.5 -11t-13.5 -6h-57q-17 0 -17 17q0 116 61.5 178.5
t168.5 62.5q50 0 93 -15t74.5 -43t49 -67.5t17.5 -88.5q0 -55 -30.5 -110t-103.5 -109q-30 -23 -67.5 -51t-70 -57t-55.5 -56t-24 -47h336v0z" />
    <glyph glyph-name="three" unicode="3" horiz-adv-x="600" 
d="M175 558q0 -5 -4.5 -11t-13.5 -6h-54q-17 0 -17 17q0 49 16 88.5t46 67t72 42t93 14.5q44 0 83 -13t68 -37t46 -57t17 -72q0 -58 -26 -101t-72 -66v-2q63 -21 92 -64.5t29 -100.5q0 -55 -19 -97t-52.5 -71t-79 -44t-97.5 -15q-107 0 -167.5 54t-60.5 165q0 8 5 12.5
t11 4.5h61q7 0 11 -5t4 -12q0 -75 38.5 -111t101.5 -36q64 0 105 41.5t41 111.5q0 37 -11.5 61t-34 37t-55 18t-74.5 5q-16 0 -16 17v41q0 6 4.5 10.5t11.5 4.5q76 0 117 35t41 99q0 54 -35.5 85t-93.5 31q-31 0 -55 -11.5t-41 -31t-26 -45t-9 -53.5z" />
    <glyph glyph-name="four" unicode="4" horiz-adv-x="600" 
d="M524 233q0 -6 -4.5 -10.5t-10.5 -4.5h-66v-164q0 -6 -4.5 -10.5t-10.5 -4.5h-62q-6 0 -10.5 4.5t-4.5 10.5v164h-287q-6 0 -10.5 4.5t-4.5 10.5v47q0 7 4 14l290 456q2 3 7 6t8 3h70q6 0 10.5 -4.5t4.5 -10.5v-456h66q6 0 10.5 -4.5t4.5 -10.5v-40zM137 288h214v335z" />
    <glyph glyph-name="five" unicode="5" horiz-adv-x="600" 
d="M171 474q20 17 59.5 30t88.5 13q43 0 81 -15.5t66 -45t44.5 -72t16.5 -96.5q0 -58 -17.5 -105.5t-50 -81.5t-79 -52.5t-104.5 -18.5q-43 0 -80 13t-65.5 38t-47 61.5t-24.5 82.5q-1 1 -1 4q0 6 5 9.5t11 3.5h52q14 0 15 -13q7 -61 45 -94t98 -33q33 0 61 14t48 38t31 56
t11 68q0 34 -9 64t-26 53t-43 36.5t-59 13.5q-18 0 -38 -5t-38.5 -15.5t-34 -25.5t-24.5 -34q-4 -7 -12 -7l-58 5q-15 1 -15 15v3l45 360q1 13 15 13h346q6 0 10.5 -4.5t4.5 -10.5v-46q0 -6 -4.5 -10.5t-10.5 -4.5h-285l-28 -204v0z" />
    <glyph glyph-name="six" unicode="6" horiz-adv-x="600" 
d="M445 589q-13 0 -14 12q-7 42 -36 70t-84 28q-42 0 -70.5 -22.5t-47.5 -60t-28.5 -86t-13.5 -101.5l2 -2q20 32 64 51.5t101 19.5q51 0 91.5 -15.5t69 -43t44 -67t15.5 -87.5q0 -56 -16 -102.5t-45.5 -80.5t-71 -53t-91.5 -19q-69 0 -117 26.5t-78 74.5t-43.5 113.5
t-13.5 143.5q0 76 14 145t45 121.5t80 83.5t120 31q82 0 131 -44t68 -116q0 -2 0.5 -2.5t0.5 -2.5q0 -6 -5 -10.5t-12 -4.5h-59zM450 275q0 76 -34.5 115.5t-103.5 39.5q-33 0 -61.5 -11t-50 -31.5t-34 -50t-12.5 -65.5t11.5 -67.5t32 -54.5t49 -36.5t61.5 -13.5
q31 0 57.5 13.5t45 36.5t29 55t10.5 70z" />
    <glyph glyph-name="seven" unicode="7" horiz-adv-x="600" 
d="M527 754q7 0 12 -5t5 -12v-33q0 -7 -2.5 -18t-5.5 -19l-267 -611q-2 -6 -8.5 -11t-13.5 -5h-60q-13 0 -13 12q0 2 1 4l273 625h-344q-7 0 -12 4.5t-5 11.5v40q0 7 5 12t12 5h423v0z" />
    <glyph glyph-name="eight" unicode="8" horiz-adv-x="600" 
d="M544 255q0 -46 -16.5 -87t-48 -71.5t-77 -48.5t-102.5 -18t-102 17t-76.5 45.5t-48.5 67t-17 81.5q0 25 5 52t17.5 52.5t34 47.5t54.5 38q-42 21 -65.5 60.5t-23.5 90.5q0 45 17 80t47 59t70 36.5t85 12.5q48 0 88.5 -12.5t70.5 -36t47 -56.5t17 -74q0 -46 -21.5 -89
t-64.5 -66q110 -57 110 -181zM301 460q60 0 93.5 32t33.5 81q0 60 -35.5 93t-86.5 33q-66 0 -101 -34.5t-35 -91.5q0 -23 10 -43.5t27.5 -36t41.5 -24.5t52 -9zM450 252q0 28 -11 53t-31.5 44t-48.5 30t-61 11q-30 0 -57 -9.5t-47.5 -27.5t-32 -43.5t-11.5 -56.5
q0 -34 11 -62t31.5 -48t48 -31t60.5 -11t60.5 12t47 32.5t30.5 48t11 58.5z" />
    <glyph glyph-name="nine" unicode="9" horiz-adv-x="600" 
d="M291 102q70 0 115 69.5t50 204.5l-2 2q-24 -32 -72 -52t-111 -20q-44 0 -82 16t-66.5 44.5t-45 67.5t-16.5 84q0 57 17 103.5t48 79.5t74.5 51t97.5 18q66 0 113 -24t76.5 -68.5t43.5 -107t14 -139.5q0 -85 -16 -158.5t-47.5 -127.5t-79.5 -84.5t-112 -30.5
q-84 0 -140.5 43.5t-70.5 121.5q0 18 16 18h53q14 0 15 -13q4 -23 16 -41t29 -31t38.5 -19.5t44.5 -6.5zM152 528q0 -75 38 -113t101 -38q31 0 59.5 10.5t50 30t34 47t12.5 62.5q0 76 -37.5 123.5t-112.5 47.5q-30 0 -56.5 -12.5t-46 -35t-31 -53.5t-11.5 -69z" />
    <glyph glyph-name="colon" unicode=":" horiz-adv-x="226" 
d="M85 415q-6 0 -10.5 4.5t-4.5 10.5v65q0 6 4.5 10.5t10.5 4.5h56q6 0 10.5 -4.5t4.5 -10.5v-65q0 -6 -4.5 -10.5t-10.5 -4.5h-56zM85 85q-6 0 -10.5 4.5t-4.5 10.5v65q0 6 4.5 10.5t10.5 4.5h56q6 0 10.5 -4.5t4.5 -10.5v-65q0 -6 -4.5 -10.5t-10.5 -4.5h-56z" />
    <glyph glyph-name="semicolon" unicode=";" horiz-adv-x="226" 
d="M85 415q-6 0 -10.5 4.5t-4.5 10.5v65q0 6 4.5 10.5t10.5 4.5h56q6 0 10.5 -4.5t4.5 -10.5v-65q0 -6 -4.5 -10.5t-10.5 -4.5h-56zM81 81q-6 0 -10.5 4.5t-4.5 10.5v69q0 6 4.5 10.5t10.5 4.5h60q6 0 10.5 -4.5t4.5 -10.5v-64q0 -5 -1 -11.5t-3 -11.5l-23 -79
q-5 -11 -16 -11h-26q-9 0 -9 7q0 3 1 5l22 81h-20z" />
    <glyph glyph-name="less" unicode="&#x3c;" horiz-adv-x="600" 
d="M499 274q8 -3 8 -13v-44q0 -8 -4.5 -13.5t-12.5 -5.5q-5 0 -8 2l-381 198q-8 3 -8 13v34q0 10 8 13l381 177q6 2 8 2q8 0 12.5 -5.5t4.5 -13.5v-44q0 -10 -8 -13l-302 -137z" />
    <glyph glyph-name="equal" unicode="=" horiz-adv-x="600" 
d="M110 495q-7 0 -12 4.5t-5 11.5v41q0 7 5 12t12 5h380q7 0 12 -5t5 -12v-41q0 -7 -5 -11.5t-12 -4.5h-380zM110 285q-7 0 -12 4.5t-5 11.5v41q0 7 5 12t12 5h380q7 0 12 -5t5 -12v-41q0 -7 -5 -11.5t-12 -4.5h-380z" />
    <glyph glyph-name="greater" unicode="&#x3e;" horiz-adv-x="600" 
d="M101 561q-8 3 -8 13v44q0 8 4.5 13.5t12.5 5.5q2 0 8 -2l381 -177q8 -3 8 -13v-34q0 -10 -8 -13l-381 -198q-3 -2 -8 -2q-8 0 -12.5 5.5t-4.5 13.5v44q0 10 8 13l302 150l-302 137v0z" />
    <glyph glyph-name="question" unicode="?" horiz-adv-x="576" 
d="M269 213q-15 0 -15 15q0 37 7 66t21 54t35.5 47t50.5 46q33 27 48 60.5t15 74.5q0 54 -35 88.5t-101 34.5q-34 0 -61 -11.5t-46.5 -32t-30 -48t-10.5 -58.5q0 -14 -16 -14h-50q-15 0 -15 15q0 54 19 94.5t50.5 68.5t73 42t85.5 14q49 0 89 -13t69 -37.5t45 -59.5t16 -79
q0 -35 -6.5 -63t-20.5 -52.5t-35.5 -47t-51.5 -47.5t-46.5 -58t-16.5 -84q0 -15 -15 -15h-52zM267 35q-15 0 -15 15v75q0 15 15 15h56q15 0 15 -15v-75q0 -15 -15 -15h-56z" />
    <glyph glyph-name="at" unicode="@" horiz-adv-x="778" 
d="M583 573q13 0 13 -12v-5l-52 -228q-2 -14 -4.5 -26.5t-2.5 -23.5q0 -12 5.5 -19.5t19.5 -7.5q23 0 44.5 17.5t37.5 44.5t25.5 60.5t9.5 65.5q0 60 -20 108.5t-56 82t-87 52t-114 18.5q-65 0 -120 -24t-95 -66t-62.5 -98t-22.5 -120q0 -73 23.5 -130t65.5 -96.5t99.5 -60
t125.5 -20.5q58 0 106 20.5t90 56.5q7 7 19 7h44q13 0 13 -9q0 -5 -4 -10q-52 -63 -122 -94.5t-152 -31.5q-81 0 -150.5 26.5t-121 75.5t-81 117t-29.5 151q0 78 29.5 145.5t80.5 117.5t119.5 78.5t146.5 28.5q69 0 131 -22.5t109 -63.5t74.5 -99t27.5 -130q0 -58 -16 -106
t-45.5 -82t-71 -52.5t-92.5 -18.5q-22 0 -39 15t-18 35q-26 -29 -59 -42.5t-68 -13.5q-31 0 -57 13t-44.5 35.5t-29 51.5t-10.5 62q0 48 15.5 91t43 75t64.5 51t81 19q45 0 73.5 -19.5t42.5 -50.5l13 48q3 13 16 13h38zM491 411q0 20 -7 39.5t-19 34.5t-28.5 24.5t-35.5 9.5
q-29 0 -53 -14t-41.5 -36.5t-27 -50.5t-9.5 -57q0 -22 5.5 -43t16 -37.5t25.5 -26.5t35 -10q26 0 51 15t44.5 39t31.5 54t12 59z" />
    <glyph glyph-name="A" unicode="A" horiz-adv-x="687" 
d="M40 25q-13 0 -13 11q0 3 1 5l273 718q4 16 21 16h44q6 0 12 -4.5t8 -11.5l273 -718q0 -1 0.5 -2t0.5 -2q0 -5 -4.5 -8.5t-9.5 -3.5h-59q-7 0 -13 5t-8 11l-66 179h-266q-22 0 -37 -10t-24 -33l-53 -136q-2 -6 -8 -11t-13 -5h-59zM205 271q5 8 16 12.5t31 4.5h225
l-133 360z" />
    <glyph glyph-name="B" unicode="B" horiz-adv-x="652" 
d="M334 769q55 0 101 -11.5t79.5 -35.5t52.5 -60t19 -84q0 -54 -23 -96.5t-61 -61.5q51 -22 84 -65.5t33 -112.5q0 -100 -67 -158.5t-213 -58.5h-249q-6 0 -11 5t-5 11v711q0 7 5 12t11 5h244zM498 574q0 57 -43.5 91.5t-124.5 34.5h-169v-255h175q75 0 118.5 31.5
t43.5 97.5zM530 240q0 66 -49 101.5t-155 35.5h-165v-283h194q93 0 134 41t41 105z" />
    <glyph glyph-name="C" unicode="C" horiz-adv-x="681" 
d="M654 247q-9 -59 -34 -103t-63.5 -73t-87 -43.5t-103.5 -14.5q-66 0 -124 25t-101 73.5t-68 120t-25 165.5q0 93 25 164t68.5 119t101.5 72.5t123 24.5q107 0 183 -58t102 -167q1 -2 1 -6q0 -11 -14 -11h-61q-8 0 -9.5 2.5t-3.5 10.5q-19 72 -71 116t-127 44
q-57 0 -100 -26t-72 -69.5t-43.5 -100t-14.5 -116.5q0 -61 14.5 -117.5t43 -100t71.5 -70t101 -26.5q39 0 73.5 12t61 34t44 53.5t23.5 69.5q1 8 3 10.5t10 2.5h60q14 0 14 -10q0 -5 -1 -7z" />
    <glyph glyph-name="D" unicode="D" horiz-adv-x="664" 
d="M620 304q0 -63 -21 -114t-60 -88t-95 -57t-126 -20h-224q-6 0 -11 5t-5 11v711q0 7 5 12t11 5h224q70 0 126 -20.5t95 -57t60 -88t21 -113.5v-186zM323 94q47 0 85.5 13.5t66.5 40.5t43 67.5t15 93.5v176q0 53 -15 93t-42.5 67t-66.5 41t-86 14h-158v-606h158z" />
    <glyph glyph-name="E" unicode="E" horiz-adv-x="618" 
d="M90 25q-6 0 -11 5t-5 11v711q0 7 5 12t11 5h427q6 0 11 -5t5 -12v-37q0 -6 -5 -11t-11 -5h-356v-249h326q6 0 11 -5t5 -12v-36q0 -6 -5 -11t-11 -5h-326v-286h381q6 0 11 -5t5 -12v-37q0 -6 -5 -11t-11 -5h-452v0z" />
    <glyph glyph-name="F" unicode="F" horiz-adv-x="574" 
d="M165 41q0 -6 -5 -11t-12 -5h-54q-6 0 -11 5t-5 11v709q0 7 5 12t11 5h428q7 0 11.5 -5t4.5 -12v-37q0 -6 -4.5 -11t-11.5 -5h-357v-268h309q7 0 11.5 -5t4.5 -12v-37q0 -6 -4.5 -11t-11.5 -5h-309v-318v0z" />
    <glyph glyph-name="G" unicode="G" horiz-adv-x="685" 
d="M625 137q-42 -57 -104.5 -90.5t-154.5 -33.5q-68 0 -126 25t-101 73.5t-67 120t-24 165.5q0 93 24.5 164t66.5 119t98 72.5t119 24.5q51 0 95.5 -12.5t80.5 -39t62 -67t39 -96.5q1 -3 1 -7q0 -10 -14 -10h-64q-8 0 -9.5 2.5t-3.5 10.5q-9 33 -26 60.5t-40.5 47.5t-54 31
t-66.5 11q-55 0 -96 -27.5t-68.5 -72t-41.5 -100t-14 -112.5q0 -58 14 -114.5t42.5 -100.5t72 -71.5t101.5 -27.5q63 0 112.5 28.5t73.5 70.5v156h-159q-7 0 -12 5t-5 12v47q0 7 5 11.5t12 4.5h227q7 0 12 -4.5t5 -11.5v-232q0 -16 -12 -32z" />
    <glyph glyph-name="H" unicode="H" horiz-adv-x="691" 
d="M150 41q0 -6 -5 -11t-12 -5h-54q-6 0 -11 5t-5 11v711q0 7 5 12t11 5h54q7 0 12 -5t5 -12v-315h386v315q0 7 4.5 12t11.5 5h54q6 0 11 -5t5 -12v-711q0 -6 -5 -11t-11 -5h-54q-7 0 -11.5 5t-4.5 11v326h-386v-326z" />
    <glyph glyph-name="I" unicode="I" horiz-adv-x="244" 
d="M76 752q0 7 5 12t11 5h54q7 0 12 -5t5 -12v-711q0 -6 -5 -11t-12 -5h-54q-6 0 -11 5t-5 11v711v0z" />
    <glyph glyph-name="J" unicode="J" horiz-adv-x="487" 
d="M218 94q28 0 49 11t34.5 30.5t20 45.5t6.5 57v514q0 7 5 12t11 5h54q7 0 12 -5t5 -12v-512q0 -99 -51 -157t-139 -58h-12q-44 0 -79 16t-59.5 43.5t-37.5 64.5t-13 79v22t17 10h49q16 0 16 -20q0 -66 25 -106t84 -40h3v0z" />
    <glyph glyph-name="K" unicode="K" horiz-adv-x="679" 
d="M63 752q0 7 5 12t11 5h54q7 0 12 -5t5 -12v-424l336 427q4 5 10.5 9.5t13.5 4.5h71q4 0 6 -3.5t2 -7.5t-2 -6l-256 -315q10 7 23 7q18 0 37 -11t31 -31l214 -361q2 -4 2 -7q0 -9 -8 -9h-71q-13 0 -20 15l-178 310q-10 17 -23.5 25.5t-27.5 8.5q-19 0 -33 -17l-127 -152
v-174q0 -6 -5 -11t-12 -5h-54q-6 0 -11 5t-5 11v711v0z" />
    <glyph glyph-name="L" unicode="L" horiz-adv-x="580" 
d="M79 25q-6 0 -11 5t-5 11v711q0 7 5 12t11 5h54q7 0 12 -5t5 -12v-655h357q7 0 11.5 -5t4.5 -12v-39q0 -6 -4.5 -11t-11.5 -5h-428v0z" />
    <glyph glyph-name="M" unicode="M" horiz-adv-x="833" 
d="M144 769q19 0 28 -20l231 -495l239 495q9 20 30 20h48q6 0 11 -5t5 -12v-711q0 -6 -5 -11t-11 -5h-54q-7 0 -12 5t-5 11v536l-206 -422q-5 -11 -19 -11h-34q-15 0 -20 11l-205 422v-536q0 -6 -5 -11t-12 -5h-54q-6 0 -11 5t-5 11v711q0 7 5 12t11 5h50v0z" />
    <glyph glyph-name="N" unicode="N" horiz-adv-x="702" 
d="M547 752q0 7 4.5 12t11.5 5h54q6 0 11 -5t5 -12v-711q0 -6 -5 -11t-11 -5h-23q-14 0 -22 6t-16 18l-395 575v-583q0 -6 -5 -11t-12 -5h-54q-6 0 -11 5t-5 11v711q0 7 5 12t11 5h43q14 0 22 -6.5t16 -18.5l376 -545v553v0z" />
    <glyph glyph-name="O" unicode="O" horiz-adv-x="762" 
d="M381 13q-66 0 -126 25t-105 74t-71.5 120.5t-26.5 164.5t27 164t72 119t104.5 72.5t125.5 24.5q65 0 124.5 -24t105 -72t72.5 -119t27 -165t-27 -166t-72 -120.5t-104.5 -73t-125.5 -24.5zM381 82q58 0 103 26.5t76 70t46.5 100t15.5 117.5q0 60 -16 116t-46.5 99.5
t-75.5 70t-103 26.5t-103 -26.5t-75.5 -70t-46.5 -99.5t-16 -116q0 -61 15.5 -117.5t46.5 -100t75.5 -70t103.5 -26.5z" />
    <glyph glyph-name="P" unicode="P" horiz-adv-x="633" 
d="M590 543q0 -57 -21.5 -99t-58.5 -69.5t-86.5 -41t-105.5 -13.5h-153v-279q0 -6 -5 -11t-12 -5h-54q-6 0 -11 5t-5 11v711q0 7 5 12t11 5h224q56 0 105.5 -14t86.5 -42t58.5 -70.5t21.5 -99.5zM502 538q0 78 -47 119.5t-132 41.5h-158v-310h160q177 0 177 149z" />
    <glyph glyph-name="Q" unicode="Q" horiz-adv-x="833" 
d="M381 13q-66 0 -126 25t-105 74t-71.5 120.5t-26.5 164.5t27 164t72 119t104.5 72.5t125.5 24.5q65 0 124.5 -24t105 -72t72.5 -119t27 -165q0 -87 -22.5 -153.5t-61.5 -114.5l94 -122q2 -3 2 -8q0 -8 -8 -8h-68q-7 0 -11 4.5t-9 10.5l-54 70q-86 -63 -191 -63zM381 82
q45 0 80 15t63 41l-153 198q-3 4 -3 10q0 11 13 11h53q17 0 27 -13l112 -146q24 42 36.5 93t12.5 105q0 60 -16 116t-46.5 99.5t-75.5 70t-103 26.5t-103 -26.5t-75.5 -70t-46.5 -99.5t-16 -116q0 -61 15.5 -117.5t46.5 -100t75.5 -70t103.5 -26.5z" />
    <glyph glyph-name="R" unicode="R" horiz-adv-x="653" 
d="M624 43q2 -6 2 -9q0 -9 -10 -9h-63q-18 0 -22 16l-90 228q-13 32 -39.5 49.5t-83.5 17.5h-157v-295q0 -6 -5 -11t-12 -5h-54q-6 0 -11 5t-5 11v711q0 7 5 12t11 5h224q60 0 109.5 -12t85 -38t55.5 -66.5t20 -97.5q0 -61 -30 -110.5t-91 -81.5q35 -15 64 -83zM496 555
q0 75 -46 110.5t-127 35.5h-162v-297h164q81 0 126 36.5t45 114.5z" />
    <glyph glyph-name="S" unicode="S" horiz-adv-x="609" 
d="M307 82q81 0 125.5 38.5t44.5 101.5q0 30 -13 53.5t-38.5 43t-62 36t-84.5 32.5q-42 14 -81.5 31.5t-69.5 41.5t-48 55t-18 72q0 43 17.5 78t48 59.5t73.5 38t94 13.5q42 0 84 -11.5t76 -34t55.5 -56.5t21.5 -78q0 -5 -2 -7.5t-10 -2.5h-57q-8 0 -10.5 2.5t-4.5 10.5
q-12 56 -55.5 82.5t-97.5 26.5q-63 0 -103 -29.5t-40 -80.5q0 -30 14.5 -52t40 -39t61.5 -31t80 -29q48 -17 88 -36t69 -44t45 -58t16 -76q0 -52 -19 -92.5t-52.5 -68.5t-81 -43t-104.5 -15q-52 0 -97 13.5t-79 39t-56.5 63.5t-29.5 87q-2 6 -2 8q0 9 13 9h58q8 0 10.5 -2.5
t4.5 -10.5q17 -70 63.5 -104.5t112.5 -34.5z" />
    <glyph glyph-name="T" unicode="T" horiz-adv-x="660" 
d="M595 767q7 0 12 -5t5 -12v-39q0 -7 -5 -11.5t-12 -4.5h-221v-654q0 -6 -5 -11t-12 -5h-53q-7 0 -12 5t-5 11v654h-221q-7 0 -12 4.5t-5 11.5v39q0 7 5 12t12 5h529v0z" />
    <glyph glyph-name="U" unicode="U" horiz-adv-x="677" 
d="M150 278q0 -91 45 -142.5t141 -51.5t141.5 51.5t45.5 142.5v474q0 7 4.5 12t11.5 5h53q7 0 12 -5t5 -12v-475q0 -65 -19.5 -114.5t-55.5 -82.5t-86.5 -49.5t-111.5 -16.5q-127 0 -200 67.5t-73 195.5v475q0 7 5 12t11 5h54q7 0 12 -5t5 -12v-474v0z" />
    <glyph glyph-name="V" unicode="V" horiz-adv-x="687" 
d="M321 18q-7 0 -13 5t-8 12l-273 717q-1 2 -1 5q0 12 13 12h59q9 0 14 -5t7 -12l225 -617l224 617q3 7 7.5 12t13.5 5h59q5 0 9.5 -4t4.5 -9q0 -1 -0.5 -2t-0.5 -2l-274 -717q-2 -7 -8 -12t-12 -5h-46v0z" />
    <glyph glyph-name="W" unicode="W" horiz-adv-x="916" 
d="M627 18q-6 0 -12 5t-8 12l-148 501l-148 -501q-2 -7 -8 -12t-12 -5h-54q-7 0 -13 5t-8 12l-184 717q-1 2 -1 5q0 12 13 12h57q9 0 14 -5t7 -12l145 -591l153 531q2 8 6 12.5t14 4.5h38q9 0 13.5 -5t6.5 -12l153 -531l145 591q2 7 7 12t14 5h57q13 0 13 -12q0 -3 -1 -5
l-184 -717q-2 -7 -8 -12t-13 -5h-54v0z" />
    <glyph glyph-name="X" unicode="X" horiz-adv-x="649" 
d="M622 45q1 -2 1 -6q0 -14 -16 -14h-63q-12 0 -21 15l-197 291l-196 -291q-11 -15 -25 -15h-61q-15 0 -15 12q0 3 3 8l243 361l-231 342q-2 3 -2 8q0 6 5 9.5t12 3.5h61q17 0 24 -16l183 -271l182 271q7 16 24 16h60q7 0 12 -3.5t5 -9.5q0 -2 -2 -8l-231 -341z" />
    <glyph glyph-name="Y" unicode="Y" horiz-adv-x="639" 
d="M513 752q4 7 9 12t14 5h65q13 0 13 -12q0 -3 -1 -5l-249 -446v-265q0 -6 -4.5 -11t-11.5 -5h-59q-7 0 -12 5t-5 11v270l-247 441q-2 4 -2 5q0 5 4.5 8.5t9.5 3.5h65q9 0 14 -5t9 -12l194 -361l194 361v0z" />
    <glyph glyph-name="Z" unicode="Z" horiz-adv-x="649" 
d="M80 25q-6 0 -11 5t-5 11v46q0 13 6 21l422 587h-398q-7 0 -11.5 5t-4.5 11v41q0 7 4.5 12t11.5 5h486q16 0 16 -18v-46q0 -14 -8 -25l-423 -581h435q7 0 11.5 -5t4.5 -12v-41q0 -6 -4.5 -11t-11.5 -5h-520v0z" />
    <glyph glyph-name="bracketleft" unicode="[" horiz-adv-x="370" 
d="M294 18q7 0 11.5 -5t4.5 -11v-38q0 -7 -4.5 -12t-11.5 -5h-188q-6 0 -11 5t-5 12v808q0 7 5 12t11 5h188q7 0 11.5 -5t4.5 -12v-38q0 -6 -4.5 -11t-11.5 -5h-117v-700h117v0z" />
    <glyph glyph-name="backslash" unicode="\" horiz-adv-x="529" 
d="M454 -59q0 -1 0.5 -2t0.5 -2q0 -5 -4 -8.5t-9 -3.5h-46q-7 0 -13 5t-8 11l-300 821q-1 1 -1 4q0 13 14 13h46q6 0 12 -5.5t8 -11.5l300 -821v0z" />
    <glyph glyph-name="bracketright" unicode="]" horiz-adv-x="370" 
d="M76 718q-7 0 -11.5 5t-4.5 11v38q0 7 4.5 12t11.5 5h188q6 0 11 -5t5 -12v-808q0 -7 -5 -12t-11 -5h-188q-7 0 -11.5 5t-4.5 12v38q0 6 4.5 11t11.5 5h117v700h-117v0z" />
    <glyph glyph-name="asciicircum" unicode="^" horiz-adv-x="527" 
d="M66 434q-14 0 -14 11q0 1 2 7l167 316q5 11 17 11h52q12 0 17 -11l166 -316q2 -8 2 -9q0 -9 -13 -9h-59q-12 0 -17 11l-122 252l-123 -252q-5 -11 -17 -11h-58v0z" />
    <glyph glyph-name="underscore" unicode="_" horiz-adv-x="514" 
d="M67 -13q-7 0 -12 4.5t-5 11.5v40q0 7 5 12t12 5h380q7 0 12 -5t5 -12v-40q0 -7 -5 -11.5t-12 -4.5h-380v0z" />
    <glyph glyph-name="grave" unicode="`" horiz-adv-x="833" 
d="M236 489q-2 -5 -7 -5h-45q-6 0 -12.5 5t-9.5 10l-121 217q-1 1 -1 5q0 10 11 10h87q6 0 12 -4.5t8 -10.5l79 -217z" />
    <glyph glyph-name="a" unicode="a" horiz-adv-x="537" 
d="M479 39q0 -14 -15 -14h-57q-15 0 -15 14v20q-12 -9 -32 -16.5t-43 -13.5t-47 -9.5t-43 -3.5q-35 0 -66.5 8t-55.5 25.5t-38.5 45.5t-14.5 68q0 136 198 166q17 3 37 6t39.5 6.5t36.5 6.5t28 6q-6 80 -37.5 111.5t-89.5 31.5q-18 0 -36.5 -5.5t-34.5 -15.5t-29 -22.5
t-22 -27.5q-5 -8 -11 -8q-5 0 -9 4l-43 25q-6 4 -6 10q0 3 5 11q32 48 83.5 73.5t106.5 25.5q47 0 86 -12.5t66.5 -39.5t43 -70.5t15.5 -104.5v-301zM137 167q0 -39 27.5 -60t75.5 -21t87 14t65 31v156q-12 -3 -27.5 -6t-34.5 -5q-44 -5 -79.5 -13t-61 -20.5t-39 -30.5
t-13.5 -45z" />
    <glyph glyph-name="b" unicode="b" horiz-adv-x="554" 
d="M150 39q0 -14 -15 -14h-58q-14 0 -14 14v737q0 15 14 15h58q15 0 15 -15v-244q9 6 25 12t34.5 10.5t37.5 7.5t36 3q56 0 97.5 -21.5t68.5 -58.5t40 -87.5t13 -108.5t-13 -108t-40 -86.5t-68.5 -57.5t-97.5 -21q-16 0 -35 3.5t-37.5 9t-34.5 13t-26 15.5v-18zM415 289
q0 42 -9 79.5t-27.5 65t-47 44t-66.5 16.5q-32 0 -63.5 -10t-51.5 -24v-329q8 -9 21.5 -17t30 -14t33 -9.5t30.5 -3.5q38 0 66.5 16t47 43.5t27.5 64.5t9 78z" />
    <glyph glyph-name="c" unicode="c" horiz-adv-x="556" 
d="M507 404q1 -3 1 -7q0 -10 -14 -10h-61q-8 0 -9.5 2.5t-3.5 10.5q-12 45 -48.5 71t-82.5 26q-72 0 -115 -53.5t-43 -153.5q0 -50 12 -88t33 -64t50 -39.5t63 -13.5q54 0 91 28t45 85q1 8 3 10.5t10 2.5h61q14 0 14 -10q0 -5 -1 -7q-16 -90 -76 -135t-147 -45
q-50 0 -94.5 17t-79 51.5t-54.5 86.5t-20 121t20.5 121t55 86.5t79.5 52t93 17.5q40 0 76.5 -12.5t66 -34t49.5 -51.5t26 -65z" />
    <glyph glyph-name="d" unicode="d" horiz-adv-x="560" 
d="M404 57q-10 -8 -26 -15.5t-34.5 -13t-37.5 -9t-35 -3.5q-56 0 -97.5 21t-68.5 57.5t-40 86.5t-13 108t13 108.5t40 87.5t68.5 58.5t97.5 21.5q16 0 35.5 -3t38 -7.5t34.5 -10.5t25 -12v244q0 15 15 15h58q14 0 14 -15v-737q0 -14 -14 -14h-58q-15 0 -15 14v18zM139 289
q0 -42 8 -79t26 -64.5t46.5 -43t69.5 -15.5q36 0 67 16.5t48 33.5v317q-20 14 -48.5 27t-66.5 13q-41 0 -69.5 -16t-46.5 -44t-26 -65t-8 -80z" />
    <glyph glyph-name="e" unicode="e" horiz-adv-x="558" 
d="M288 85q51 0 82 23t39 65q2 8 3.5 10.5t9.5 2.5h61q14 0 14 -11q0 -4 -1 -6q-17 -73 -70 -114t-138 -41q-55 0 -100.5 18.5t-78 53.5t-50.5 86.5t-18 117.5q0 69 20.5 121t54.5 86.5t77.5 52t90.5 17.5q52 0 95 -19.5t73 -55t46.5 -85t16.5 -109.5v-18q0 -17 -13 -17
h-369q7 -91 49.5 -134.5t105.5 -43.5zM290 497q-60 0 -103 -42.5t-52 -122.5h288q0 34 -9.5 64.5t-26.5 52.5t-42 35t-55 13z" />
    <glyph glyph-name="f" unicode="f" horiz-adv-x="352" 
d="M319 556q15 0 15 -14v-44q0 -15 -15 -15h-128v-444q0 -14 -14 -14h-58q-15 0 -15 14v444h-82q-14 0 -14 15v44q0 14 14 14h82v24q0 109 36 163.5t117 54.5q13 0 28.5 -1t28.5 -3t21.5 -5.5t8.5 -8.5v-47q0 -5 -2.5 -9t-7.5 -4q-11 0 -25.5 4t-28.5 4q-27 0 -44.5 -12
t-27 -32t-13.5 -47t-4 -57v-24h128v0z" />
    <glyph glyph-name="g" unicode="g" horiz-adv-x="560" 
d="M267 -124q73 0 105 46.5t32 130.5v14q-10 -6 -26 -12t-34.5 -10.5t-37.5 -7.5t-35 -3q-56 0 -97 20t-68 55.5t-40.5 84t-13.5 105.5q0 56 13.5 104.5t40.5 84.5t68 56.5t97 20.5q16 0 35.5 -3t38 -7.5t34.5 -10.5t25 -12v9q0 15 15 15h58q14 0 14 -15v-488
q0 -119 -57 -183.5t-156 -64.5q-20 0 -48.5 4t-55 12t-45.5 19t-19 26v58q0 8 7 8q2 0 7 -3q36 -28 73.5 -40.5t69.5 -12.5zM139 299q0 -41 8 -76.5t26 -61.5t46.5 -41t69.5 -15q38 0 68 14t47 28v307q-20 14 -48 27t-67 13q-41 0 -69.5 -15t-46.5 -41.5t-26 -62t-8 -76.5z
" />
    <glyph glyph-name="h" unicode="h" horiz-adv-x="552" 
d="M63 777q0 14 14 14h58q15 0 15 -14v-258q11 8 30.5 16.5t41 15t44 10.5t39.5 4q40 0 73.5 -12.5t58 -37.5t38.5 -62t14 -85v-327q0 -6 -5 -11t-11 -5h-52q-7 0 -12 5t-5 11v311q0 64 -28.5 101.5t-91.5 37.5q-19 0 -38.5 -4t-37 -11t-32.5 -15t-26 -16v-406
q0 -14 -15 -14h-58q-14 0 -14 14v738v0z" />
    <glyph glyph-name="i" unicode="i" horiz-adv-x="243" 
d="M78 753q0 14 14 14h58q15 0 15 -14v-78q0 -14 -15 -14h-58q-14 0 -14 14v78zM78 542q0 14 14 14h58q15 0 15 -14v-503q0 -14 -15 -14h-58q-14 0 -14 14v503z" />
    <glyph glyph-name="j" unicode="j" horiz-adv-x="385" 
d="M207 753q0 14 14 14h58q15 0 15 -14v-78q0 -14 -15 -14h-58q-14 0 -14 14v78zM207 542q0 14 14 14h58q15 0 15 -14v-494q0 -129 -43.5 -188t-130.5 -59q-24 0 -48.5 5t-43.5 13.5t-31 18.5t-12 21v56q0 8 7 8q2 0 7 -3q23 -21 48.5 -34.5t60.5 -13.5q53 0 76 38t23 127
v505z" />
    <glyph glyph-name="k" unicode="k" horiz-adv-x="595" 
d="M412 591q4 5 10.5 9.5t13.5 4.5h70q12 0 12 -10q0 -4 -3 -7l-194 -197q17 -2 29 -15t27 -36l188 -299q2 -4 2 -7q0 -9 -8 -9h-77q-13 0 -20 15l-158 259q-18 28 -39 28q-6 0 -9 -1l-102 -104v-181q0 -6 -5 -11t-12 -5h-54q-6 0 -11 5t-5 11v711q0 7 5 12t11 5h54
q7 0 12 -5t5 -12v-426z" />
    <glyph glyph-name="l" unicode="l" horiz-adv-x="223" 
d="M68 776q0 15 14 15h58q15 0 15 -15v-737q0 -14 -15 -14h-58q-14 0 -14 14v737v0z" />
    <glyph glyph-name="m" unicode="m" horiz-adv-x="812" 
d="M448 39q0 -14 -15 -14h-57q-14 0 -14 14v335q0 60 -27.5 88t-69.5 28q-36 0 -66 -12.5t-50 -29.5v-409q0 -14 -15 -14h-57q-14 0 -14 14v503q0 14 14 14h57q15 0 15 -14v-19q10 7 27.5 14.5t37.5 13.5t40.5 10t36.5 4q42 0 72 -17t51 -44q13 11 33.5 22t44.5 19.5
t48.5 14t46.5 5.5q34 0 64 -10t51.5 -30t34 -51t12.5 -73v-362q0 -14 -15 -14h-57q-14 0 -14 14v335q0 60 -26 88t-75 28q-31 0 -62.5 -13t-54.5 -32q2 -8 2.5 -21.5t0.5 -22.5v-362v0z" />
    <glyph glyph-name="n" unicode="n" horiz-adv-x="547" 
d="M63 542q0 14 14 14h58q15 0 15 -14v-23q11 8 30.5 16.5t41 15t44 10.5t39.5 4q40 0 73.5 -12.5t58 -37.5t38.5 -62t14 -85v-327q0 -6 -5 -11t-11 -5h-52q-7 0 -12 5t-5 11v311q0 64 -28.5 103.5t-91.5 39.5q-19 0 -38.5 -4t-37 -11t-32.5 -15t-26 -16v-410q0 -14 -15 -14
h-58q-14 0 -14 14v503v0z" />
    <glyph glyph-name="o" unicode="o" horiz-adv-x="591" 
d="M43 290q0 69 20.5 121t55.5 86.5t81 52t96 17.5t95.5 -17t80.5 -51.5t55.5 -86.5t20.5 -122t-21 -122t-55.5 -86t-80.5 -51t-95 -17q-53 0 -99.5 18.5t-80.5 54t-53.5 87t-19.5 116.5zM133 290q0 -50 12 -88t34 -64t51.5 -39.5t65.5 -13.5q35 0 65 13.5t51.5 39.5
t33.5 64t12 88t-12 88.5t-33.5 65t-51 40t-65.5 13.5q-72 0 -117.5 -53.5t-45.5 -153.5z" />
    <glyph glyph-name="p" unicode="p" horiz-adv-x="580" 
d="M150 -183q0 -14 -15 -14h-58q-14 0 -14 14v742q0 15 14 15h58q15 0 15 -15v-27q9 6 25 12t34.5 10.5t37.5 7.5t36 3q56 0 97.5 -21.5t68.5 -58.5t40 -87.5t13 -108.5t-13 -108t-40 -86.5t-68.5 -57.5t-97.5 -21q-16 0 -35 3.5t-37.5 9t-34.5 13t-26 15.5v-240zM415 289
q0 42 -9 79.5t-27.5 65t-47 44t-66.5 16.5q-32 0 -63.5 -10t-51.5 -24v-329q8 -9 21.5 -17t30 -14t33 -9.5t30.5 -3.5q38 0 66.5 16t47 43.5t27.5 64.5t9 78z" />
    <glyph glyph-name="q" unicode="q" horiz-adv-x="583" 
d="M404 57q-10 -8 -26 -15.5t-34.5 -13t-37.5 -9t-35 -3.5q-56 0 -97.5 21t-68.5 57.5t-40 86.5t-13 108t13 108.5t40 87.5t68.5 58.5t97.5 21.5q16 0 35.5 -3t38 -7.5t34.5 -10.5t25 -12v27q0 15 15 15h58q14 0 14 -15v-742q0 -14 -14 -14h-58q-15 0 -15 14v240zM139 289
q0 -42 8 -79t26 -64.5t46.5 -43t69.5 -15.5q36 0 67 16.5t48 33.5v317q-20 14 -48.5 27t-66.5 13q-41 0 -69.5 -16t-46.5 -44t-26 -65t-8 -80z" />
    <glyph glyph-name="r" unicode="r" horiz-adv-x="351" 
d="M63 542q0 14 14 14h57q15 0 15 -14v-74q23 39 71.5 67.5t120.5 28.5q12 0 12 -10v-66q0 -12 -13 -12q-69 0 -115 -26.5t-76 -69.5v-341q0 -14 -15 -14h-57q-14 0 -14 14v503v0z" />
    <glyph glyph-name="s" unicode="s" horiz-adv-x="479" 
d="M240 14q-43 0 -79 11.5t-62.5 31.5t-41.5 47.5t-15 60.5q0 9 13 9h60q8 0 10.5 -2.5t4.5 -10.5q8 -35 31 -55.5t76 -20.5q48 0 80 21t32 61q0 28 -21 46.5t-52 32.5t-68 27.5t-68 32.5t-52 46.5t-21 70.5q0 36 15 63t40 45t57.5 27t67.5 9q40 0 72 -10t54.5 -28t36.5 -42
t20 -52q1 -3 1 -8q0 -9 -12 -9h-55q-8 0 -10.5 2.5t-4.5 10.5q-10 32 -34.5 49t-66.5 17t-68 -19t-26 -55q0 -18 10.5 -32t30 -26t47 -23.5t62.5 -24.5q28 -11 52 -24.5t42 -31t28 -39.5t10 -51q0 -41 -15.5 -70.5t-42 -49t-62.5 -28.5t-76 -9z" />
    <glyph glyph-name="t" unicode="t" horiz-adv-x="364" 
d="M321 556q15 0 15 -14v-43q0 -15 -15 -15h-128v-342q0 -32 16 -43t41 -11q20 0 39 2.5t33 7.5q1 0 1.5 0.5t1.5 0.5q5 0 7.5 -4t2.5 -9v-50q0 -5 -10 -9t-25.5 -7t-33.5 -4.5t-34 -1.5q-61 0 -93.5 31t-32.5 88v351h-82q-14 0 -14 15v43q0 14 14 14h82v127q0 14 15 14h58
q14 0 14 -14v-127h128v0z" />
    <glyph glyph-name="u" unicode="u" horiz-adv-x="547" 
d="M489 38q0 -14 -14 -14h-58q-15 0 -15 14v22q-12 -9 -29 -17t-38 -14t-44 -9.5t-45 -3.5q-40 0 -73.5 9t-58 30t-38 54.5t-13.5 81.5v351q0 14 14 14h56q15 0 15 -14v-354q0 -59 31.5 -78.5t91.5 -19.5q42 0 74 11t57 28v412q0 14 15 14h58q14 0 14 -14v-503v0z" />
    <glyph glyph-name="v" unicode="v" horiz-adv-x="532" 
d="M307 33q-5 -15 -19 -15h-54q-15 0 -19 15l-197 507q-1 3 -1 7q0 9 11 9h70q9 0 13 -4t6 -12l144 -408l144 408q2 8 6 12t13 4h70q11 0 11 -9q0 -4 -1 -7l-197 -507v0z" />
    <glyph glyph-name="w" unicode="w" horiz-adv-x="756" 
d="M578 33q-5 -15 -19 -15h-51q-15 0 -19 15l-111 353l-111 -353q-5 -15 -19 -15h-51q-15 0 -19 15l-157 507q-1 3 -1 7q0 9 11 9h63q9 0 13 -4t6 -12l113 -415l110 385q0 16 13 16h58q11 0 11 -11l113 -390l112 415q2 8 6 12t13 4h63q11 0 11 -9q0 -4 -1 -7l-157 -507v0z
" />
    <glyph glyph-name="x" unicode="x" horiz-adv-x="512" 
d="M489 45q2 -2 2 -7t-4.5 -9t-10.5 -4h-63q-13 0 -23 15l-135 190l-134 -190q-11 -15 -27 -15h-61q-14 0 -14 11q0 3 4 9l181 258l-163 232q-3 4 -3 10q0 11 13 11h61q7 0 15.5 -4.5t13.5 -11.5l114 -163l115 163q5 7 13.5 11.5t15.5 4.5h60q13 0 13 -11q0 -6 -3 -10
l-162 -231z" />
    <glyph glyph-name="y" unicode="y" horiz-adv-x="517" 
d="M23 542q-2 4 -2 6q0 8 12 8h66q9 0 12.5 -3.5t5.5 -10.5l141 -382l144 382q2 8 6 11t13 3h63q11 0 11 -9q0 -3 -1 -5l-286 -723q-2 -6 -6 -10t-13 -4h-53q-12 0 -12 8q0 2 2 6l91 234z" />
    <glyph glyph-name="z" unicode="z" horiz-adv-x="448" 
d="M43 25q-6 0 -11 5t-5 11v46q0 13 6 21l269 374h-239q-7 0 -11.5 5t-4.5 11v41q0 7 4.5 12t11.5 5h328q16 0 16 -18v-42q0 -14 -8 -25l-271 -372h277q7 0 11.5 -5t4.5 -12v-41q0 -6 -4.5 -11t-11.5 -5h-362v0z" />
    <glyph glyph-name="braceleft" unicode="{" horiz-adv-x="358" 
d="M245 -53q-54 0 -87.5 35.5t-33.5 101.5v162q0 18 -7 33t-18.5 25.5t-25.5 17.5t-29 9q-14 2 -14 16v42q0 14 14 16q15 1 29 8t25.5 18t18.5 26t7 33v162q0 66 33.5 101.5t87.5 35.5h48q15 0 15 -15v-41q0 -15 -15 -15h-30q-35 0 -45.5 -18t-10.5 -45v-167
q0 -51 -20 -83.5t-55 -35.5v-2q35 -3 55 -35.5t20 -83.5v-167q0 -27 10.5 -45t45.5 -18h30q15 0 15 -15v-41q0 -15 -15 -15h-48v0z" />
    <glyph glyph-name="bar" unicode="|" horiz-adv-x="301" 
d="M120 806q0 15 14 15h32q15 0 15 -15v-867q0 -14 -15 -14h-32q-14 0 -14 14v867v0z" />
    <glyph glyph-name="braceright" unicode="}" horiz-adv-x="358" 
d="M65 -53q-15 0 -15 15v41q0 15 15 15h30q35 0 45.5 18t10.5 45v167q0 51 20 83.5t55 35.5v2q-35 3 -55 35.5t-20 83.5v167q0 27 -10.5 45t-45.5 18h-30q-15 0 -15 15v41q0 15 15 15h48q54 0 87.5 -35.5t33.5 -101.5v-162q0 -18 7 -33t18.5 -26t25.5 -18t29 -8
q14 -2 14 -16v-42q0 -14 -14 -16q-15 -2 -29 -9t-25.5 -17.5t-18.5 -25.5t-7 -33v-162q0 -66 -33.5 -101.5t-87.5 -35.5h-48v0z" />
    <glyph glyph-name="asciitilde" unicode="~" horiz-adv-x="559" 
d="M500 411q2 -6 2 -8q0 -7 -6 -13q-20 -23 -47 -36.5t-61 -13.5q-28 0 -52 11t-48 23.5t-50 23.5t-57 11q-40 0 -68 -30q-6 -6 -10 -6q-6 0 -10 9l-9 26q-2 6 -2 8q0 13 11.5 24t28 19t36 13t35.5 5q21 0 49 -11t56.5 -23.5t55.5 -23.5t47 -11q23 0 39.5 10t30.5 25
q6 6 12 6t9 -9l8 -29v0z" />
    <glyph glyph-name="cid00208" unicode="&#xa1;" horiz-adv-x="254" 
d="M155 569q6 0 10.5 -4.5t4.5 -10.5v-75q0 -6 -4.5 -10.5t-10.5 -4.5h-56q-6 0 -10.5 4.5t-4.5 10.5v75q0 6 4.5 10.5t10.5 4.5h56zM141 360q14 0 15 -13l18 -303v-194q0 -6 -4.5 -10.5t-10.5 -4.5h-64q-6 0 -10.5 4.5t-4.5 10.5v194l18 303q1 13 15 13h28z" />
    <glyph glyph-name="cid18355" unicode="&#xa2;" horiz-adv-x="564" 
d="M499 211q14 0 14 -10q0 -5 -1 -7q-14 -81 -66 -126t-127 -53v-71q0 -6 -4.5 -10.5t-10.5 -4.5h-36q-6 0 -10.5 4.5t-4.5 10.5v72q-44 6 -82.5 26t-67.5 54.5t-45.5 82.5t-16.5 111q0 62 17 110.5t45.5 82.5t67 54.5t82.5 27.5v72q0 6 4.5 10.5t10.5 4.5h36q6 0 10.5 -4.5
t4.5 -10.5v-72q35 -4 67 -18t57 -35t42 -48.5t22 -59.5q1 -3 1 -7q0 -10 -14 -10h-61q-8 0 -9.5 2.5t-3.5 10.5q-10 38 -37.5 62t-63.5 32v-407q42 8 70.5 35.5t35.5 75.5q1 8 3 10.5t10 2.5h61zM131 290q0 -86 34 -137t88 -64v404q-57 -12 -89.5 -63.5t-32.5 -139.5z" />
    <glyph glyph-name="cid18356" unicode="&#xa3;" horiz-adv-x="591" 
d="M537 105q7 0 11.5 -5t4.5 -12v-47q0 -6 -4.5 -11t-11.5 -5h-478q-6 0 -11 5t-5 11v50q0 14 14 23q44 29 63 67t19 98v130h-67q-14 0 -14 15v43q0 14 14 14h67v99q0 54 15.5 95t42.5 68.5t64 41t81 13.5q27 0 56.5 -5.5t55 -14t42 -19t16.5 -20.5v-55q0 -9 -7 -9
q-4 0 -7 3q-30 23 -65.5 36t-81.5 13q-57 0 -91 -38.5t-34 -108.5v-99h211q15 0 15 -14v-43q0 -15 -15 -15h-211v-130q0 -60 -16.5 -101.5t-57.5 -72.5h385v0z" />
    <glyph glyph-name="cid00214" unicode="&#xa4;" horiz-adv-x="658" 
d="M604 214q4 -4 4 -10q0 -8 -6 -14l-34 -34q-6 -6 -15 -6q-6 0 -9 3l-82 82q-28 -17 -61.5 -26t-71.5 -9q-77 0 -134 34l-81 -81q-3 -3 -9 -3q-9 0 -15 6l-34 34q-6 4 -6 14q0 6 4 10l79 79q-41 56 -41 135q0 35 8.5 66t24.5 57l-71 71q-4 4 -4 10q0 8 6 14l34 34q6 6 15 6
q6 0 9 -3l70 -70q29 21 65.5 32.5t79.5 11.5q44 0 80.5 -11.5t65.5 -31.5l69 69q3 3 9 3q9 0 15 -6l34 -34q6 -8 6 -14t-4 -10l-71 -71q32 -53 32 -123q0 -78 -41 -134zM329 271q31 0 58 11t46.5 31.5t30.5 49.5t11 65t-11 65t-30.5 50t-46.5 32.5t-58 11.5
q-32 0 -58.5 -11.5t-46.5 -32.5t-31 -50t-11 -65t11 -65t31 -49.5t46.5 -31.5t58.5 -11z" />
    <glyph glyph-name="cid18357" unicode="&#xa5;" horiz-adv-x="646" 
d="M605 769q13 0 13 -12q0 -3 -1 -5l-209 -374h138q7 0 12 -5t5 -12v-41q0 -7 -5 -11.5t-12 -4.5h-178v-81h178q7 0 12 -5t5 -12v-41q0 -7 -5 -11.5t-12 -4.5h-178v-108q0 -6 -4.5 -11t-11.5 -5h-59q-7 0 -12 5t-5 11v108h-176q-7 0 -12 4.5t-5 11.5v41q0 7 5 12t12 5h176
v81h-176q-7 0 -12 4.5t-5 11.5v41q0 7 5 12t12 5h138l-209 374q-2 4 -2 5q0 5 4.5 8.5t9.5 3.5h65q9 0 14 -5t9 -12l194 -361l194 361q4 7 9 12t14 5h65v0z" />
    <glyph glyph-name="cid00155" unicode="&#xa7;" horiz-adv-x="653" 
d="M408 281q99 -53 99 -126q0 -72 -49 -110.5t-143 -38.5q-40 0 -74.5 11.5t-60.5 33.5t-41 53t-15 70q0 8 8 8h71q7 0 9 -9q4 -47 28.5 -71.5t71.5 -24.5q51 0 78.5 19.5t27.5 55.5q0 22 -17 39.5t-41 31.5t-50.5 25t-46.5 20q-32 15 -59 29t-46.5 31.5t-30.5 40.5t-11 55
q0 48 29.5 80.5t95.5 55.5q-40 22 -67.5 50t-27.5 74q0 62 46.5 96.5t129.5 34.5q35 0 67.5 -11.5t57 -31.5t39 -49t14.5 -63q0 -10 -9 -10h-64q-9 0 -10 10q-6 39 -29 62t-65 23q-41 0 -64.5 -17.5t-23.5 -49.5q0 -20 15 -36t38.5 -29t50.5 -24t51 -22q78 -35 112.5 -70.5
t34.5 -81.5q0 -94 -129 -134zM205 418q0 -18 10.5 -32.5t27.5 -27t40 -23t48 -20.5q61 16 89 39t28 58q0 21 -14 37.5t-35 30t-45 24.5t-44 21q-58 -23 -81.5 -47t-23.5 -60z" />
    <glyph glyph-name="cid00107" unicode="&#xa8;" horiz-adv-x="408" 
d="M90 700q-6 0 -10.5 4.5t-4.5 10.5v65q0 6 4.5 10.5t10.5 4.5h56q6 0 10.5 -4.5t4.5 -10.5v-65q0 -6 -4.5 -10.5t-10.5 -4.5h-56zM262 700q-6 0 -10.5 4.5t-4.5 10.5v65q0 6 4.5 10.5t10.5 4.5h56q6 0 10.5 -4.5t4.5 -10.5v-65q0 -6 -4.5 -10.5t-10.5 -4.5h-56z" />
    <glyph glyph-name="cid00098" unicode="&#xa9;" horiz-adv-x="800" 
d="M400 90q-81 0 -150.5 29t-120.5 79t-80 117.5t-29 144.5t29 144.5t80 117.5t120.5 79t150.5 29t150.5 -29t120.5 -79t80 -117.5t29 -144.5t-29 -144.5t-80 -117.5t-120.5 -79t-150.5 -29zM400 149q67 0 123 24t97 66t64 98.5t23 122.5t-23 122.5t-64 98.5t-97 66t-123 24
t-123 -24t-97 -66t-64 -98.5t-23 -122.5t23 -122.5t64 -98.5t97 -66t123 -24zM571 541q0 -5 -7 -5h-50q-10 0 -13 9q-7 26 -33 44.5t-61 18.5q-55 0 -85.5 -38.5t-30.5 -108.5q0 -68 31 -107t85 -39q42 0 68 21.5t31 56.5q2 7 8 7h57q5 0 5 -5q0 -31 -14 -56.5t-37.5 -43.5
t-54 -28t-63.5 -10q-42 0 -77 14.5t-59.5 41.5t-38 64.5t-13.5 83.5t14 83.5t38.5 64.5t59 42t76.5 15q30 0 57 -9t48.5 -25.5t37 -38.5t21.5 -49v-3z" />
    <glyph glyph-name="cid00668" unicode="&#xaa;" horiz-adv-x="420" 
d="M367 441q0 -14 -17 -14h-40q-17 0 -17 14v5q-21 -11 -53.5 -18t-58.5 -7q-62 0 -96.5 28.5t-34.5 80.5q0 97 146 122q23 4 51 8.5t45 8.5q-5 51 -24 73t-61 22q-26 0 -49 -14t-32 -34q-3 -7 -12 -7q-5 0 -11 3l-31 18q-7 3 -7 10q0 3 5 10q26 34 62.5 53t77.5 19
q157 0 157 -166v-215zM123 533q0 -54 67 -54q58 0 103 30v103q-8 -2 -17 -3.5t-20 -2.5q-69 -4 -101 -23t-32 -50z" />
    <glyph glyph-name="cid00176" unicode="&#xab;" horiz-adv-x="530" 
d="M200 676q6 10 18 10h50q13 0 13 -10q0 -4 -3 -8l-139 -222l139 -222q3 -5 3 -9q0 -9 -13 -9h-50q-12 0 -18 10l-137 220q-3 4 -3 10q0 4 3 10zM369 676q6 10 18 10h50q13 0 13 -10q0 -4 -3 -8l-139 -222l139 -222q3 -5 3 -9q0 -9 -13 -9h-50q-12 0 -18 10l-137 220
q-3 4 -3 10q0 4 3 10z" />
    <glyph glyph-name="cid00109" unicode="&#xad;" horiz-adv-x="589" 
d="M107 389q-7 0 -12 4.5t-5 11.5v43q0 7 5 12t12 5h440q7 0 12 -5t5 -12v-43q0 -7 -5 -11.5t-12 -4.5h-440v0z" />
    <glyph glyph-name="cid00109" unicode="&#x2013;" horiz-adv-x="589" 
d="M107 389q-7 0 -12 4.5t-5 11.5v43q0 7 5 12t12 5h440q7 0 12 -5t5 -12v-43q0 -7 -5 -11.5t-12 -4.5h-440v0z" />
    <glyph glyph-name="cid18352" unicode="&#xae;" horiz-adv-x="614" 
d="M307 332q-59 0 -109.5 20.5t-87.5 56.5t-58.5 85t-21.5 106t21.5 106t58.5 85t87.5 56.5t109.5 20.5q58 0 109 -20.5t88 -56.5t58.5 -85t21.5 -106t-21.5 -106t-58.5 -85t-88 -56.5t-109 -20.5zM307 390q44 0 81.5 16t65 44t43 66.5t15.5 83.5t-15.5 83.5t-43 66.5
t-65 44t-81.5 16t-81.5 -16t-65 -44t-43 -66.5t-15.5 -83.5t15.5 -83.5t43 -66.5t65 -44t81.5 -16zM438 475q0 -2 0.5 -2.5t0.5 -2.5q0 -12 -16 -12h-38q-14 0 -18 10l-31 74q-5 16 -9.5 20t-18.5 4h-33v-94q0 -6 -5.5 -10t-13.5 -4h-34q-6 0 -12 4t-6 10v259q0 6 5.5 10.5
t12.5 4.5h86q56 0 86 -23t30 -65q0 -48 -37 -73q8 -8 14 -23zM351 656q0 20 -9 28.5t-32 8.5h-35v-74h35q23 0 32 8.5t9 28.5z" />
    <glyph glyph-name="cid00138" unicode="&#xb0;" horiz-adv-x="400" 
d="M200 579q-29 0 -53.5 10t-42.5 28t-28 42t-10 51t10 51t28 42t42.5 28t53.5 10q28 0 52.5 -10t42.5 -28t28.5 -42t10.5 -51t-10.5 -51t-28.5 -42t-42.5 -28t-52.5 -10zM200 632q32 0 54 22t22 56t-22 56t-54 22t-54 -22t-22 -56t22 -56t54 -22z" />
    <glyph glyph-name="cid00130" unicode="&#xb1;" horiz-adv-x="600" 
d="M262 681q0 7 4.5 12t11.5 5h43q7 0 12 -5t5 -12v-157h172q7 0 12 -5t5 -12v-43q0 -7 -5 -11.5t-12 -4.5h-172v-157q0 -7 -5 -12t-12 -5h-43q-7 0 -11.5 5t-4.5 12v157h-172q-7 0 -12 4.5t-5 11.5v43q0 7 5 12t12 5h172v157zM110 133q-7 0 -12 4.5t-5 11.5v43q0 7 5 12
t12 5h380q7 0 12 -5t5 -12v-43q0 -7 -5 -11.5t-12 -4.5h-380z" />
    <glyph glyph-name="cid00843" unicode="&#xb2;" horiz-adv-x="420" 
d="M336 446q6 0 11 -4t5 -9v-29q0 -5 -5 -9.5t-11 -4.5h-258q-16 0 -16 17q0 28 16.5 54t41.5 50.5t53.5 47.5t53.5 45.5t41.5 44.5t16.5 44q0 38 -20.5 59t-55.5 21q-77 0 -77 -94q0 -6 -5 -10t-12 -4h-33q-16 0 -16 14q0 69 37.5 107.5t103.5 38.5q64 0 104 -36t40 -94
q0 -72 -81 -132q-20 -15 -40.5 -30.5t-38.5 -31t-30.5 -29.5t-15.5 -26h191v0z" />
    <glyph glyph-name="cid00844" unicode="&#xb3;" horiz-adv-x="420" 
d="M288 614q32 -13 50 -37.5t18 -60.5q0 -63 -41.5 -100.5t-110.5 -37.5q-68 0 -104 34t-36 99q0 6 4.5 10t10.5 4h36q15 0 15 -14q0 -82 76 -82q36 0 58 23.5t22 62.5q0 38 -21 52.5t-76 14.5q-15 0 -15 14v24q0 5 4.5 9t10.5 4q87 0 87 75q0 29 -19 46.5t-51 17.5
q-30 0 -50.5 -22.5t-20.5 -56.5q0 -14 -16 -14h-32q-16 0 -16 14q0 59 38 94t102 35q28 0 52.5 -9t41.5 -24t27 -36t10 -45q0 -32 -14.5 -56t-39.5 -38z" />
    <glyph glyph-name="cid00199" unicode="&#xb4;" horiz-adv-x="308" 
d="M135 816q2 6 8 10.5t12 4.5h67q11 0 11 -11q0 -1 -0.5 -2t-0.5 -2l-91 -197q-8 -15 -19 -15h-38q-9 0 -9 9q0 4 1 6z" />
    <glyph glyph-name="cid00244" unicode="&#xb6;" horiz-adv-x="532" 
d="M80 650q0 34 12 61.5t32 47t46.5 30t56.5 10.5h64q6 0 11 -5t5 -12v-741q0 -6 -5 -11t-11 -5h-42q-7 0 -12 5t-5 11v454q-32 0 -59.5 10t-48 30t-32.5 48.5t-12 66.5zM357 782q0 7 5 12t11 5h43q6 0 11 -5t5 -12v-741q0 -6 -5 -11t-11 -5h-43q-6 0 -11 5t-5 11v741z" />
    <glyph glyph-name="cid00104" unicode="&#xb7;" horiz-adv-x="286" 
d="M115 350q-6 0 -10.5 4.5t-4.5 10.5v65q0 6 4.5 10.5t10.5 4.5h56q6 0 10.5 -4.5t4.5 -10.5v-65q0 -6 -4.5 -10.5t-10.5 -4.5h-56v0z" />
    <glyph glyph-name="cid00104" unicode="&#x30fb;" horiz-adv-x="286" 
d="M115 350q-6 0 -10.5 4.5t-4.5 10.5v65q0 6 4.5 10.5t10.5 4.5h56q6 0 10.5 -4.5t4.5 -10.5v-65q0 -6 -4.5 -10.5t-10.5 -4.5h-56v0z" />
    <glyph glyph-name="cid00206" unicode="&#xb8;" horiz-adv-x="400" 
d="M88 -24q-16 0 -16 15l-1 50q0 15 16 15q153 1 153 50q0 23 -22.5 31.5t-79.5 8.5h-14q-14 0 -14 12q0 3 1 5l38 124q3 12 17 12h57q13 0 13 -11q0 -2 -0.5 -3t-0.5 -3l-20 -72q51 -2 82.5 -28.5t31.5 -71.5q0 -130 -241 -134z" />
    <glyph glyph-name="cid00842" unicode="&#xb9;" horiz-adv-x="420" 
d="M274 819q6 0 11 -4t5 -10v-404q0 -6 -5 -9.5t-12 -3.5h-34q-15 0 -15 13v341l-83 -54q-3 -2 -9 -2q-9 0 -12 6l-16 24q-2 3 -2 8q0 4 6 9l120 79q10 7 20 7h26v0z" />
    <glyph glyph-name="cid00675" unicode="&#xba;" horiz-adv-x="420" 
d="M25 580q0 44 13 81t37.5 64t59 42t77.5 15t77.5 -15t58.5 -42t37 -64t13 -81q0 -43 -13 -80t-37 -64t-58.5 -42t-77.5 -15q-42 0 -76 14.5t-59 41t-38.5 63.5t-13.5 82zM101 580q0 -66 30 -104t81 -38t80.5 38t29.5 104q0 67 -29.5 105.5t-80.5 38.5t-81 -38.5
t-30 -105.5z" />
    <glyph glyph-name="cid00177" unicode="&#xbb;" horiz-adv-x="530" 
d="M298 456q3 -6 3 -10q0 -6 -3 -10l-137 -220q-6 -10 -18 -10h-50q-13 0 -13 9q0 4 3 9l139 222l-139 222q-3 4 -3 8q0 10 13 10h50q12 0 18 -10zM467 456q3 -6 3 -10q0 -6 -3 -10l-137 -220q-6 -10 -18 -10h-50q-13 0 -13 9q0 4 3 9l139 222l-139 222q-3 4 -3 8
q0 10 13 10h50q12 0 18 -10z" />
    <glyph glyph-name="cid00751" unicode="&#xbc;" 
d="M219 53q-12 0 -12 11q0 6 2 9l378 741q7 15 26 15h40q12 0 12 -12q0 -2 -2 -8l-381 -741q-8 -15 -26 -15h-37zM249 819q6 0 11 -4t5 -10v-404q0 -6 -5 -9.5t-12 -3.5h-34q-15 0 -15 13v341l-83 -54q-3 -2 -9 -2q-9 0 -12 6l-16 24q-2 3 -2 8q0 4 6 9l120 79q10 7 20 7h26
zM789 181q0 -5 -4.5 -8.5t-10.5 -3.5h-32v-93q0 -5 -4.5 -9t-10.5 -4h-37q-6 0 -10.5 4t-4.5 9v93h-162q-6 0 -10.5 3.5t-4.5 8.5v28q0 1 2 9l171 268q1 3 6 6t9 3h41q6 0 10.5 -4t4.5 -9v-264h32q6 0 10.5 -4t4.5 -9v-24zM565 218h110v173z" />
    <glyph glyph-name="cid00748" unicode="&#xbd;" 
d="M189 53q-12 0 -12 11q0 6 2 9l378 741q7 15 26 15h40q12 0 12 -12q0 -2 -2 -8l-381 -741q-8 -15 -26 -15h-37zM229 819q6 0 11 -4t5 -10v-404q0 -6 -5 -9.5t-12 -3.5h-34q-15 0 -15 13v341l-83 -54q-3 -2 -9 -2q-9 0 -12 6l-16 24q-2 3 -2 8q0 4 6 9l120 79q10 7 20 7h26
zM793 126q6 0 11 -4t5 -9v-29q0 -5 -5 -9.5t-11 -4.5h-258q-16 0 -16 17q0 28 16.5 54t41.5 50.5t53.5 47.5t53.5 45.5t41.5 44.5t16.5 44q0 38 -20.5 59t-55.5 21q-77 0 -77 -94q0 -6 -5 -10t-12 -4h-33q-16 0 -16 14q0 69 37.5 107.5t103.5 38.5q64 0 104 -36t40 -94
q0 -72 -81 -132q-20 -15 -40.5 -30.5t-38.5 -31t-30.5 -29.5t-15.5 -26h191z" />
    <glyph glyph-name="cid00752" unicode="&#xbe;" 
d="M673 829q12 0 12 -12q0 -2 -2 -8l-381 -741q-8 -15 -26 -15h-37q-12 0 -12 11q0 6 2 9l378 741q7 15 26 15h40zM359 516q0 -63 -41.5 -100.5t-110.5 -37.5q-68 0 -104 34t-36 99q0 6 4.5 10t10.5 4h36q15 0 15 -14q0 -82 76 -82q36 0 58 23.5t22 62.5q0 38 -21 52.5
t-76 14.5q-15 0 -15 14v24q0 5 4.5 9t10.5 4q87 0 87 75q0 29 -19 46.5t-51 17.5q-30 0 -50.5 -22.5t-20.5 -56.5q0 -14 -16 -14h-32q-16 0 -16 14q0 59 38 94t102 35q28 0 52.5 -9t41.5 -24t27 -36t10 -45q0 -32 -14.5 -56t-39.5 -38q32 -13 50 -37.5t18 -60.5zM784 218
q6 0 10.5 -4t4.5 -9v-24q0 -5 -4.5 -8.5t-10.5 -3.5h-32v-93q0 -5 -4.5 -9t-10.5 -4h-37q-6 0 -10.5 4t-4.5 9v93h-162q-6 0 -10.5 3.5t-4.5 8.5v28q0 1 2 9l171 268q1 3 6 6t9 3h41q6 0 10.5 -4t4.5 -9v-264h32zM675 391l-110 -173h110v173z" />
    <glyph glyph-name="cid00209" unicode="&#xbf;" horiz-adv-x="576" 
d="M317 569q15 0 15 -15v-75q0 -15 -15 -15h-56q-15 0 -15 15v75q0 15 15 15h56zM315 391q15 0 15 -15q0 -38 -7 -66.5t-21 -53.5t-35.5 -47t-50.5 -46q-33 -27 -48 -60.5t-15 -74.5q0 -54 35 -88.5t101 -34.5q34 0 61 11.5t46.5 32t30 47.5t10.5 59q0 14 16 14h50
q15 0 15 -15q0 -54 -19 -94.5t-50.5 -68.5t-73 -42t-85.5 -14q-49 0 -89 13t-69 37.5t-45 59.5t-16 79q0 35 6.5 63t20.5 52.5t35.5 47t51.5 47.5t46.5 58t16.5 84q0 15 15 15h52z" />
    <glyph glyph-name="cid00666" unicode="&#xc6;" horiz-adv-x="895" 
d="M847 95q6 0 11 -5t5 -12v-37q0 -6 -5 -11t-11 -5h-389q-6 0 -11 5t-5 11v179h-169q-22 0 -38 -10t-29 -33l-73 -136q-3 -6 -9 -11t-13 -5h-59q-12 0 -12 11q0 3 1 5l375 712q5 8 9.5 12t12.5 4h384q6 0 11 -5t5 -12v-37q0 -6 -5 -11t-11 -5h-293v-249h263q6 0 11 -5
t5 -12v-36q0 -6 -5 -11t-11 -5h-263v-286h318zM442 288v349l-192 -366q8 8 19 12.5t31 4.5h142z" />
    <glyph glyph-name="cid00667" unicode="&#xd0;" horiz-adv-x="706" 
d="M563 692q39 -37 60 -88t21 -114v-186q0 -63 -21 -114t-60 -88t-95 -57t-126 -20h-224q-6 0 -11 5t-5 11v334h-63q-7 0 -12 4.5t-5 11.5v43q0 7 5 12t12 5h63v301q0 7 5 12t11 5h224q70 0 126 -20t95 -57zM557 485q0 53 -15 93t-42.5 67t-66.5 41t-86 14h-158v-249h123
q7 0 12 -5t5 -12v-43q0 -7 -5 -11.5t-12 -4.5h-123v-281h158q47 0 85.5 13.5t66.5 40.5t43 67.5t15 93.5v176z" />
    <glyph glyph-name="cid00131" unicode="&#xd7;" horiz-adv-x="600" 
d="M412 601q5 5 11 5q4 0 11 -5l39 -41q4 -4 4 -10t-5 -11l-112 -112l112 -112q5 -5 5 -11t-4 -10l-39 -41q-5 -5 -11 -5q-7 0 -11 5l-112 114l-112 -114q-5 -5 -11 -5q-7 0 -11 5l-39 41q-5 5 -5 10t6 11l112 112l-112 112q-6 6 -6 11t5 10l39 41q5 5 11 5q4 0 11 -5
l112 -114l112 114v0z" />
    <glyph glyph-name="cid00673" unicode="&#xd8;" horiz-adv-x="770" 
d="M611 681q45 -48 72 -119t27 -165t-27 -166t-72 -120.5t-104.5 -73t-125.5 -24.5q-24 0 -47.5 3t-45.5 10l-25 -67q-3 -10 -14 -10q-3 0 -5 1l-34 11q-5 2 -7.5 6t-2.5 9q0 1 0.5 2t0.5 2l26 72q-39 21 -71 53.5t-55 76t-36 97.5t-13 118q0 93 27 164t72 119t104.5 72.5
t125.5 24.5q52 0 105 -17l21 59q3 10 14 10q3 0 5 -1l34 -12q9 -5 9 -15v-4l-23 -64q37 -22 65 -52zM140 396q0 -41 7.5 -81t21.5 -75.5t35.5 -65t49.5 -50.5l207 569q-36 15 -80 15q-58 0 -103 -26.5t-75.5 -70t-46.5 -99.5t-16 -116zM381 82q58 0 103 26.5t76 70t46.5 100
t15.5 117.5q0 78 -26.5 148t-77.5 114l-206 -565q33 -11 69 -11z" />
    <glyph glyph-name="cid00676" unicode="&#xde;" horiz-adv-x="668" 
d="M195 755q15 0 15 -15v-101h130q264 0 264 -215q0 -108 -69.5 -168t-194.5 -60h-130v-134q0 -15 -15 -15h-80q-15 0 -15 15v678q0 15 15 15h80zM329 279q88 0 128 36.5t40 108.5q0 67 -39 99t-129 32h-119v-276h119z" />
    <glyph glyph-name="cid00768" unicode="&#xdf;" horiz-adv-x="679" 
d="M453 39q-12 0 -35 3t-46.5 9t-41 14.5t-17.5 19.5q0 6 2 9l21 43q3 9 11 9q4 0 9 -3q23 -13 46 -20t46 -7q44 0 68 25t24 57q0 19 -8.5 34t-23 28t-33.5 23.5t-41 21.5q-51 24 -72.5 54t-21.5 73q0 29 13 52.5t28.5 46t28.5 47.5t13 57q0 45 -25 73t-73 28
q-65 0 -97.5 -42.5t-32.5 -125.5v-496q0 -15 -15 -15h-71q-15 0 -15 15v515q0 110 60 170.5t172 60.5q45 0 81.5 -12t63 -34t41 -52.5t14.5 -67.5q0 -33 -14 -59.5t-30.5 -50.5t-30.5 -46.5t-14 -46.5q0 -17 10 -30.5t25.5 -25.5t34.5 -22t36 -19q44 -23 69 -60.5t25 -86.5
q0 -76 -50 -121t-134 -45z" />
    <glyph glyph-name="cid00757" unicode="&#xe6;" horiz-adv-x="810" 
d="M551 567q43 0 78.5 -19.5t61 -55t39 -85t13.5 -109.5v-18q0 -17 -11 -17h-307q5 -91 41 -134.5t88 -43.5q43 0 68 23t33 65q2 8 3 10.5t8 2.5h51q11 0 11 -10q0 -2 -0.5 -3.5t-0.5 -3.5q-14 -73 -58.5 -114t-114.5 -41q-99 0 -156 81q-35 -35 -86 -57t-101 -22
q-29 0 -55.5 8t-46.5 25.5t-32 45.5t-12 68q0 69 41.5 108.5t123.5 57.5q14 3 30.5 6.5t33 6.5t30.5 6t23 6q-5 80 -31 111.5t-74 31.5q-32 0 -59 -21t-43 -50q-5 -8 -9 -8t-8 4l-36 25q-5 5 -5 10q0 3 5 11q29 48 70.5 73.5t87.5 25.5q51 0 90 -21t61 -69q28 45 69 67.5
t86 22.5zM667 332q0 34 -8 64.5t-22 52.5t-35 35t-46 13q-50 0 -85.5 -42.5t-43.5 -122.5h240zM222 86q42 0 79 16.5t69 48.5q-11 29 -16.5 63t-5.5 73q-22 -7 -52 -11q-37 -5 -66.5 -12.5t-50.5 -20t-32 -31t-11 -45.5q0 -39 22.5 -60t63.5 -21z" />
    <glyph glyph-name="cid00759" unicode="&#xf0;" horiz-adv-x="612" 
d="M386 659q156 -153 156 -377q0 -66 -17.5 -120t-49.5 -92.5t-77 -59.5t-99 -21q-51 0 -95 19t-75.5 52.5t-49.5 80t-18 101.5q0 51 16 95t44.5 76t68 50t85.5 18q42 0 78.5 -18t63.5 -45q-14 57 -42 104.5t-73 92.5l-154 -79l-27 47l135 69q-23 17 -50 34t-59 34l50 70
q77 -39 146 -95l154 79l26 -46zM304 85q62 0 95 49.5t33 141.5q0 14 -0.5 27t-1.5 26l-3 5q-48 60 -124 60q-63 0 -99 -40.5t-36 -111.5q0 -35 10 -63.5t28 -49.5t43 -32.5t55 -11.5z" />
    <glyph glyph-name="cid00132" unicode="&#xf7;" horiz-adv-x="600" 
d="M272 559q-6 0 -10.5 4.5t-4.5 10.5v65q0 6 4.5 10.5t10.5 4.5h56q6 0 10.5 -4.5t4.5 -10.5v-65q0 -6 -4.5 -10.5t-10.5 -4.5h-56zM110 389q-7 0 -12 4.5t-5 11.5v43q0 7 5 12t12 5h380q7 0 12 -5t5 -12v-43q0 -7 -5 -11.5t-12 -4.5h-380zM272 200q-6 0 -10.5 4.5
t-4.5 10.5v65q0 6 4.5 10.5t10.5 4.5h56q6 0 10.5 -4.5t4.5 -10.5v-65q0 -6 -4.5 -10.5t-10.5 -4.5h-56z" />
    <glyph glyph-name="cid00766" unicode="&#xf8;" horiz-adv-x="599" 
d="M472 499q35 -35 55.5 -87t20.5 -122t-21 -122t-55.5 -86t-80.5 -51t-95 -17q-32 0 -60 6l-22 -61q-3 -10 -14 -10q-3 0 -5 1l-34 11q-5 1 -7.5 5t-2.5 9q0 3 1 5l23 63q-60 31 -96 93.5t-36 153.5q0 69 20.5 121t55.5 86.5t81 52t96 17.5q32 0 67 -8l18 48q3 10 14 10
q3 0 5 -1l34 -12q4 -2 7 -6t3 -9q0 -1 -0.5 -2t-0.5 -2l-18 -50q27 -16 47 -36zM133 290q0 -62 18.5 -105.5t50.5 -68.5l137 376q-23 5 -43 5q-72 0 -117.5 -53.5t-45.5 -153.5zM296 85q35 0 65 13.5t51.5 39.5t33.5 64t12 88q0 59 -16 101.5t-45 68.5l-136 -372
q16 -3 35 -3z" />
    <glyph glyph-name="cid00769" unicode="&#xfe;" horiz-adv-x="604" 
d="M46 725h95v-215q65 49 164 49q59 0 106 -18.5t80 -53t50.5 -84t17.5 -110.5q0 -126 -67.5 -195t-185.5 -69q-51 0 -90 11.5t-75 35.5v-250h-95v899zM143 293q0 -89 41.5 -137.5t118.5 -48.5t118 48t41 138t-41.5 138.5t-117.5 48.5q-77 0 -118.5 -48.5t-41.5 -138.5z" />
    <glyph glyph-name="cid00758" unicode="&#x111;" horiz-adv-x="639" 
d="M276 19q-54 0 -97 19t-73.5 54.5t-47 86t-16.5 112.5q0 61 16.5 110.5t47 84t74 53t97.5 18.5q42 0 74 -9.5t61 -31.5v103h-129v67h129v89h96v-89h103v-67h-103v-581h-96v44q-62 -63 -136 -63zM412 431q-55 48 -118 48q-74 0 -114 -50.5t-40 -142.5t39.5 -141t113.5 -49
q29 0 60.5 17t58.5 47v271z" />
    <glyph glyph-name="cid00669" unicode="&#x126;" horiz-adv-x="751" 
d="M638 38h-97v334h-331v-334h-97v505h-67v69h67v152h97v-152h331v152h97v-152h67v-69h-67v-505zM210 543v-95h331v95h-331z" />
    <glyph glyph-name="cid00760" unicode="&#x127;" horiz-adv-x="596" 
d="M144 686v89h97v-89h130v-67h-130v-116q12 12 28.5 22.5t35 17.5t37.5 11t37 4q79 0 126 -47.5t47 -128.5v-344h-97v342q0 48 -26.5 76t-71.5 28q-29 0 -60 -17t-56 -46v-383h-97v581h-101v67h101z" />
    <glyph glyph-name="cid00761" unicode="&#x131;" horiz-adv-x="269" 
d="M184 550v-512h-96v512h96z" />
    <glyph glyph-name="cid00670" unicode="&#x132;" horiz-adv-x="639" 
d="M156 764v-726h-96v726h96zM208 -99q40 21 68 44t45.5 51.5t25 64.5t7.5 82v544h-126v77h351v-77h-128v-570q0 -46 -12.5 -89t-45.5 -80.5t-90 -69.5t-147 -56z" />
    <glyph glyph-name="cid00762" unicode="&#x133;" horiz-adv-x="499" 
d="M197 736q0 -23 -18.5 -41t-44.5 -18t-44.5 17.5t-18.5 41.5q0 26 18 43.5t45 17.5t45 -17.5t18 -43.5zM426 735q0 -25 -18.5 -42.5t-44.5 -17.5q-25 0 -43.5 18t-18.5 42q0 25 18 42.5t44 17.5q27 0 45 -17t18 -43zM183 550v-512h-96v512h96zM191 -82q40 22 65 46.5
t38 53t17.5 62t4.5 72.5v398h97v-425q0 -44 -11.5 -86t-38.5 -79t-71 -68.5t-109 -55.5z" />
    <glyph glyph-name="cid00763" unicode="&#x138;" horiz-adv-x="540" 
d="M185 314q4 7 14.5 22t23 33.5t24.5 38t20 36.5q12 28 22.5 50t23.5 37.5t30 23.5t42 8q23 0 49 -9.5t46 -24.5l-39 -63q-24 21 -50 21q-12 0 -23.5 -16.5t-25.5 -42t-32 -57.5t-45 -62l245 -271h-108l-217 242v-242h-99v513h99v-237z" />
    <glyph glyph-name="cid00671" unicode="&#x13f;" horiz-adv-x="512" 
d="M92 764h96v-650h300v-76h-396v726zM435 432q0 -26 -18 -43t-45 -17t-45.5 17.5t-18.5 42.5q0 26 19 43.5t45 17.5q27 0 45 -17.5t18 -43.5z" />
    <glyph glyph-name="cid00764" unicode="&#x140;" horiz-adv-x="450" 
d="M179 764v-726h-96v726h96zM381 403q0 -26 -18.5 -43t-44.5 -17q-27 0 -45.5 17.5t-18.5 42.5q0 26 19 43.5t45 17.5t44.5 -17.5t18.5 -43.5z" />
    <glyph glyph-name="cid00672" unicode="&#x141;" horiz-adv-x="609" 
d="M192 265l-67 -78h-89l156 181v396h97v-285l102 119h88l-190 -221v-263h299v-76h-396v227z" />
    <glyph glyph-name="cid00765" unicode="&#x142;" horiz-adv-x="512" 
d="M128 187h-89l185 219v358h97v-246l67 80h89l-156 -183v-377h-97v262z" />
    <glyph glyph-name="cid00772" unicode="&#x149;" horiz-adv-x="711" 
d="M127 629q-64 0 -64 45q0 27 15 42.5t41 15.5q27 0 43.5 -18.5t16.5 -50.5q0 -50 -31 -91.5t-85 -65.5v26q29 14 46.5 34.5t17.5 43.5v19zM531 372q0 48 -30 79t-77 31q-66 0 -123 -66v-378h-97v512h96v-52q34 33 65.5 47.5t72.5 14.5q42 0 77 -12.5t60 -35t38.5 -54
t13.5 -68.5v-352h-96v334z" />
    <glyph glyph-name="cid00678" unicode="&#x14a;" horiz-adv-x="731" 
d="M428 -99q63 32 96.5 70t44.5 90l-381 546v-569h-96v726h84l397 -573v573h98v-647q0 -46 -11.5 -89t-39 -80.5t-74.5 -69.5t-118 -56v79v0z" />
    <glyph glyph-name="cid00771" unicode="&#x14b;" horiz-adv-x="578" 
d="M287 -82q41 22 65.5 46.5t38 53t18 62t4.5 72.5v220q0 48 -30 79t-77 31q-68 0 -123 -66v-378h-97v512h96v-46q35 30 67 43t70 13q42 0 77 -12.5t60 -35t39 -54t14 -68.5v-265q0 -44 -11.5 -86t-37.5 -79t-68.5 -68.5t-104.5 -55.5v82v0z" />
    <glyph glyph-name="cid00674" unicode="&#x152;" horiz-adv-x="887" 
d="M814 50h-341q-22 -10 -47.5 -14t-57.5 -4q-75 0 -135 27t-101.5 76.5t-64 120t-22.5 156.5q0 81 22 147.5t63.5 114.5t101.5 74.5t136 26.5q17 0 35.5 -3t40.5 -8h351v-73h-275v-237h238v-75h-238v-254h294v-75zM366 108q12 0 25.5 1.5t33.5 5.5v576q-18 6 -32 8.5
t-25 2.5q-51 0 -92.5 -21t-71 -59t-45.5 -91.5t-16 -118.5q0 -70 15.5 -126.5t44.5 -96t70 -60.5t93 -21z" />
    <glyph glyph-name="cid00767" unicode="&#x153;" horiz-adv-x="887" 
d="M804 86q-29 -20 -66.5 -33t-96.5 -13q-66 0 -111 18.5t-75 53.5h-18q-60 -71 -166 -71q-53 0 -95 18t-71 52t-44.5 82.5t-15.5 110.5q0 121 59.5 189t165.5 68q109 0 169 -71l18 1q60 70 174 70q206 0 206 -240q0 -13 -1.5 -27.5t-6.5 -28.5h-332q5 -74 42.5 -115
t101.5 -41q68 0 123 33zM141 306q0 -92 33 -142.5t94 -50.5q54 0 89.5 44t43.5 122v40q-4 77 -39 122.5t-91 45.5q-60 0 -95 -48t-35 -133zM742 333q0 78 -27 116.5t-86 38.5t-94 -42t-36 -113h243z" />
    <glyph glyph-name="cid00677" unicode="&#x166;" horiz-adv-x="514" 
d="M305 38h-97v343h-141v69h141v237h-187v77h471v-77h-187v-237h141v-69h-141v-343z" />
    <glyph glyph-name="cid00770" unicode="&#x167;" horiz-adv-x="408" 
d="M115 354v107h-84v74h84v176h96v-176h147v-74h-147v-107h137v-74h-137v-138q0 -31 32 -31q23 0 60.5 2t68.5 9v-69q-31 -8 -71.5 -13.5t-75.5 -5.5q-53 0 -81.5 21t-28.5 65v160h-79v74h79z" />
    <glyph glyph-name="cid00201" unicode="&#x2c7;" horiz-adv-x="400" 
d="M48 824q-3 4 -3 8q0 10 13 10h56q11 0 18 -11l68 -125l68 125q7 11 18 11h56q13 0 13 -10q0 -4 -3 -8l-103 -168q-6 -10 -18 -10h-62q-12 0 -18 10l-103 168v0z" />
    <glyph glyph-name="cid00210" unicode="&#x2d0;" horiz-adv-x="216" 
d="M109 520l-82 145h163zM108 299l82 -145h-163z" />
    <glyph glyph-name="cid00210" unicode="&#x2236;" horiz-adv-x="216" 
d="M109 520l-82 145h163zM108 299l82 -145h-163z" />
    <glyph glyph-name="cid00202" unicode="&#x2d8;" horiz-adv-x="400" 
d="M37 816q0 16 15 16h50q14 0 16 -15q5 -53 27.5 -77t54.5 -24t54.5 24t27.5 77q1 15 16 15h50q15 0 15 -16q0 -38 -13.5 -68t-36 -50.5t-52 -31t-61.5 -10.5t-61.5 10.5t-52 31t-36 50.5t-13.5 68z" />
    <glyph glyph-name="cid00205" unicode="&#x2d9;" horiz-adv-x="400" 
d="M200 673q-33 0 -55.5 22t-22.5 55t22.5 55t55.5 22t55.5 -22t22.5 -55t-22.5 -55t-55.5 -22z" />
    <glyph glyph-name="cid00204" unicode="&#x2da;" horiz-adv-x="400" 
d="M200 649q-46 0 -76.5 28.5t-30.5 72.5t30.5 72.5t76.5 28.5t76.5 -28.5t30.5 -72.5t-30.5 -72.5t-76.5 -28.5zM200 698q21 0 36 14.5t15 37.5t-15 37.5t-36 14.5t-36 -14.5t-15 -37.5t15 -37.5t36 -14.5z" />
    <glyph glyph-name="cid00207" unicode="&#x2db;" horiz-adv-x="400" 
d="M283 -36q-34 0 -66.5 8.5t-58.5 25t-42 41t-16 57.5q0 28 11.5 50.5t30.5 40t43.5 30.5t50.5 22l36 -55q-48 -20 -68.5 -38.5t-20.5 -41.5q0 -33 28 -47.5t73 -14.5q16 0 16 -15l-2 -48q0 -15 -15 -15z" />
    <glyph glyph-name="cid00200" unicode="&#x2dc;" horiz-adv-x="400" 
d="M369 767q3 -2 3 -6t-2 -8.5t-4 -8.5q-20 -40 -44.5 -55t-54.5 -15q-26 0 -43 11t-31 23.5t-28 23.5t-33 11q-14 0 -25 -12t-20 -30q-3 -6 -10 -6q-6 0 -10 3l-35 22q-4 3 -4 7q0 6 4 14q17 35 41.5 54t57.5 19q22 0 39.5 -11t32.5 -23.5t29.5 -23.5t29.5 -11q13 0 25.5 9
t20.5 31q3 9 10 9q4 0 12 -4l39 -23v0z" />
    <glyph glyph-name="cid00200" unicode="&#x223c;" horiz-adv-x="400" 
d="M369 767q3 -2 3 -6t-2 -8.5t-4 -8.5q-20 -40 -44.5 -55t-54.5 -15q-26 0 -43 11t-31 23.5t-28 23.5t-33 11q-14 0 -25 -12t-20 -30q-3 -6 -10 -6q-6 0 -10 3l-35 22q-4 3 -4 7q0 6 4 14q17 35 41.5 54t57.5 19q22 0 39.5 -11t32.5 -23.5t29.5 -23.5t29.5 -11q13 0 25.5 9
t20.5 31q3 9 10 9q4 0 12 -4l39 -23v0z" />
    <glyph glyph-name="cid00203" unicode="&#x2dd;" horiz-adv-x="400" 
d="M110 827q2 6 8 10.5t12 4.5h63q11 0 11 -10q0 -4 -1 -5l-87 -166q-8 -15 -19 -15h-38q-9 0 -9 9q0 4 1 6zM256 827q2 6 8 10.5t12 4.5h63q11 0 11 -10q0 -4 -1 -5l-87 -166q-8 -15 -19 -15h-38q-9 0 -9 9q0 4 1 6z" />
    <glyph glyph-name="cid00471" unicode="&#x391;" horiz-adv-x="669" 
d="M298 764h65l289 -726h-98l-81 211h-282l-78 -211h-97zM219 323h225l-114 298z" />
    <glyph glyph-name="cid00472" unicode="&#x392;" horiz-adv-x="598" 
d="M302 764q98 0 153.5 -50t55.5 -138q0 -42 -21.5 -81t-56.5 -63l3 -18q56 -17 86.5 -62t30.5 -109q0 -46 -17.5 -83.5t-49 -64.5t-75.5 -42t-98 -15h-221v726h210zM298 447q25 0 47 9.5t38 27t25 40.5t9 50q0 50 -33 81.5t-84 31.5h-112v-240h110zM311 114q66 0 107 36
t41 95q0 60 -39 93t-110 33h-122v-257h123z" />
    <glyph glyph-name="cid00473" unicode="&#x393;" horiz-adv-x="512" 
d="M188 38h-96v726h396v-76h-300v-650z" />
    <glyph glyph-name="cid00474" unicode="&#x394;" horiz-adv-x="678" 
d="M298 764h65l289 -726h-636zM141 112h383l-194 510z" />
    <glyph glyph-name="cid00475" unicode="&#x395;" horiz-adv-x="540" 
d="M188 433h247v-77h-247v-241h285v-77h-381v726h400v-76h-304v-255z" />
    <glyph glyph-name="cid00476" unicode="&#x396;" horiz-adv-x="597" 
d="M163 114h398v-76h-532v47l387 602h-370v77h503v-49z" />
    <glyph glyph-name="cid00477" unicode="&#x397;" horiz-adv-x="707" 
d="M519 38v334h-330v-334h-97v726h97v-316h330v316h98v-726h-98z" />
    <glyph glyph-name="cid00478" unicode="&#x398;" horiz-adv-x="812" 
d="M50 402q0 78 28 146t77 118.5t113.5 79.5t138.5 29q75 0 140.5 -28.5t114.5 -78.5t77.5 -118.5t28.5 -147.5q0 -78 -28 -146t-77 -119t-115 -80.5t-141 -29.5q-73 0 -138 30t-113.5 81t-77 119t-28.5 145zM147 402q0 -62 20.5 -116t55.5 -94.5t82.5 -64t101.5 -23.5
q55 0 103.5 23.5t84 64t56 94.5t20.5 116t-20.5 116.5t-56 94.5t-84 63t-103.5 23q-54 0 -101.5 -23.5t-82.5 -63.5t-55.5 -94.5t-20.5 -115.5zM241 437h330v-66h-330v66z" />
    <glyph glyph-name="cid00479" unicode="&#x399;" horiz-adv-x="295" 
d="M197 764v-726h-97v726h97z" />
    <glyph glyph-name="cid00480" unicode="&#x39a;" horiz-adv-x="686" 
d="M92 764h97v-726h-97v726zM337 425l332 -387h-120l-327 383l295 343h111z" />
    <glyph glyph-name="cid00481" unicode="&#x39b;" horiz-adv-x="649" 
d="M325 633l-192 -595h-101l251 726h81l252 -726h-96z" />
    <glyph glyph-name="cid00482" unicode="&#x39c;" horiz-adv-x="831" 
d="M428 309h-24l-215 292v-563h-97v726h83l241 -332l241 332h84v-726h-98v561z" />
    <glyph glyph-name="cid00483" unicode="&#x39d;" horiz-adv-x="762" 
d="M176 764l397 -573v573h98v-726h-87l-396 569v-569h-96v726h84z" />
    <glyph glyph-name="cid00484" unicode="&#x39e;" horiz-adv-x="537" 
d="M52 763h433v-66h-433v66zM84 444h369v-66h-369v66zM52 109h433v-67h-433v67z" />
    <glyph glyph-name="cid00485" unicode="&#x39f;" horiz-adv-x="818" 
d="M50 402q0 78 28 146t77 118.5t113.5 79.5t138.5 29q75 0 140.5 -28.5t114.5 -78.5t77.5 -118.5t28.5 -147.5q0 -78 -28 -146t-77 -119t-115 -80.5t-141 -29.5q-73 0 -138 30t-113.5 81t-77 119t-28.5 145zM147 402q0 -62 20.5 -116t55.5 -94.5t82.5 -64t101.5 -23.5
q55 0 103.5 23.5t84 64t56 94.5t20.5 116t-20.5 116.5t-56 94.5t-84 63t-103.5 23q-54 0 -101.5 -23.5t-82.5 -63.5t-55.5 -94.5t-20.5 -115.5z" />
    <glyph glyph-name="cid00486" unicode="&#x3a0;" horiz-adv-x="664" 
d="M480 695h-294v-658h-94v727h482v-727h-94v658z" />
    <glyph glyph-name="cid00487" unicode="&#x3a1;" horiz-adv-x="516" 
d="M268 764q107 0 168 -58t61 -161q0 -49 -16.5 -89t-47 -68.5t-73 -44t-94.5 -15.5h-93v-290h-97v726h192zM265 405q64 0 100 37t36 103q0 68 -35 105t-99 37h-94v-282h92z" />
    <glyph glyph-name="cid00488" unicode="&#x3a3;" horiz-adv-x="566" 
d="M508 691h-320l207 -276v-20l-209 -272h322v-73h-432v66l216 290l-212 284v74h428v-73z" />
    <glyph glyph-name="cid00489" unicode="&#x3a4;" horiz-adv-x="514" 
d="M21 687v77h471v-77h-187v-649h-97v649h-187z" />
    <glyph glyph-name="cid00490" unicode="&#x3a5;" horiz-adv-x="639" 
d="M21 764h108l190 -311l189 311h107l-249 -388v-338h-97v337z" />
    <glyph glyph-name="cid00491" unicode="&#x3a6;" horiz-adv-x="604" 
d="M255 167q-48 7 -87 27t-66 50.5t-41.5 69.5t-14.5 86q0 46 14.5 85.5t41.5 69.5t66 49.5t87 27.5v132h96v-131q48 -6 86.5 -25.5t65.5 -50t41.5 -70.5t14.5 -87t-14.5 -87t-41.5 -70.5t-65.5 -50.5t-86.5 -26v-128h-96v129zM462 400q0 62 -28.5 100.5t-82.5 52.5v-306
q111 29 111 153zM143 400q0 -124 112 -153v305q-54 -13 -83 -52.5t-29 -99.5z" />
    <glyph glyph-name="cid00492" unicode="&#x3a7;" horiz-adv-x="691" 
d="M286 409l-247 355h114l192 -291l189 291h112l-242 -355l261 -371h-113l-207 300l-211 -300h-113z" />
    <glyph glyph-name="cid00493" unicode="&#x3a8;" horiz-adv-x="686" 
d="M303 229q-112 11 -164.5 76.5t-52.5 194.5v264h97v-264q0 -94 28.5 -140t91.5 -57v461h94v-457q59 14 85 59t26 132v266h97v-265q0 -122 -51 -187.5t-157 -80.5v-193h-94v191z" />
    <glyph glyph-name="cid00494" unicode="&#x3a9;" horiz-adv-x="644" 
d="M193 203q-36 16 -64.5 42.5t-48.5 61t-31 76t-11 86.5q0 69 22 125t60.5 95.5t90.5 61.5t112 22q62 0 114.5 -22t90 -62.5t58.5 -96.5t21 -123q0 -44 -11.5 -84.5t-32.5 -75.5t-50 -62.5t-65 -43.5v-98h138v-67h-232v209q157 57 157 222q0 52 -13.5 94.5t-38 73t-59.5 47
t-77 16.5t-76.5 -17t-59.5 -47.5t-39 -73t-14 -93.5q0 -81 41 -140.5t112 -79.5v-211h-228v67h134v98v0z" />
    <glyph glyph-name="cid00495" unicode="&#x3b1;" horiz-adv-x="592" 
d="M526 551q-29 -52 -44 -118.5t-15 -139.5q0 -59 19 -106t54 -73l-56 -71q-38 23 -64 54h-18q-28 -33 -62.5 -47.5t-85.5 -14.5q-44 0 -81.5 19.5t-64.5 54.5t-42.5 82.5t-15.5 104.5t15 105.5t42 83t64.5 54t82.5 19.5q28 0 48.5 -4.5t37 -12.5t31 -19.5t29.5 -25.5
q5 19 11.5 33t11.5 22h103zM150 296q5 -188 113 -188q116 0 116 188q0 91 -29.5 139t-86.5 51q-56 0 -84.5 -50.5t-28.5 -139.5z" />
    <glyph glyph-name="cid00496" unicode="&#x3b2;" horiz-adv-x="513" 
d="M74 595q0 88 44.5 135.5t127.5 47.5q42 0 76 -12.5t58.5 -35t37.5 -54t13 -70.5q0 -35 -20.5 -74.5t-52.5 -66.5l2 -17q27 -15 49.5 -36.5t38 -47.5t24.5 -55t9 -59q0 -48 -16 -88t-45.5 -68.5t-70 -44t-89.5 -15.5q-54 0 -88 14v-209h-98v756zM227 481q47 0 77 35t30 90
q0 48 -23 75t-65 27q-37 0 -55.5 -28t-18.5 -82v-471q47 -22 91 -22q55 0 88 39.5t33 105.5q0 36 -12 66t-33 52.5t-49.5 35t-62.5 12.5h-9v65h9z" />
    <glyph glyph-name="cid00497" unicode="&#x3b3;" horiz-adv-x="535" 
d="M159 457q-4 18 -12.5 33t-25.5 15q-12 0 -19.5 -6.5t-18.5 -21.5l-66 42q20 29 48.5 45t60.5 16q96 0 116 -87l45 -204l160 276l71 -40l-206 -353l13 -53q13 -52 19 -97t8 -78q0 -46 -33 -73.5t-87 -27.5q-52 0 -82 28t-30 76q0 42 17.5 78t39.5 74l43 75zM200 -55
q0 -14 9 -24.5t21 -10.5q15 0 25.5 10.5t10.5 24.5q0 11 -1.5 21.5t-4.5 26.5l-14 65l-23 -42q-12 -22 -17.5 -38t-5.5 -33z" />
    <glyph glyph-name="cid00498" unicode="&#x3b4;" horiz-adv-x="604" 
d="M46 293q0 84 32.5 144.5t93.5 92.5q-39 16 -61.5 46t-22.5 65q0 139 187 139q92 0 175 -67l-51 -58q-71 54 -126 54q-83 0 -83 -57q0 -26 20.5 -48.5t80.5 -44.5h14q59 0 106 -18.5t80 -53t50.5 -84t17.5 -110.5q0 -126 -67.5 -195t-185.5 -69q-62 0 -110 18.5t-81.5 53
t-51 83t-17.5 109.5zM143 293q0 -89 41.5 -137.5t118.5 -48.5t118 48t41 138t-41.5 138.5t-117.5 48.5q-77 0 -118.5 -48.5t-41.5 -138.5z" />
    <glyph glyph-name="cid00499" unicode="&#x3b5;" horiz-adv-x="490" 
d="M210 274q-35 0 -52.5 -24.5t-17.5 -69.5q0 -84 112 -84q75 0 128 64l62 -49q-38 -44 -82 -63t-108 -19q-100 0 -154.5 37.5t-54.5 105.5q0 99 83 140q-32 14 -51 42.5t-19 58.5q0 76 46.5 113.5t137.5 37.5q58 0 108.5 -23.5t83.5 -65.5l-63 -44q-23 30 -58 47.5
t-71 17.5q-87 0 -87 -76q0 -37 15.5 -58.5t41.5 -21.5h93v-66h-93v0z" />
    <glyph glyph-name="cid00500" unicode="&#x3b6;" horiz-adv-x="571" 
d="M64 758q50 -10 97 -15t93 -5q36 0 75.5 4.5t84.5 12.5l1 -69q-29 -5 -59 -9t-55 -6l-3 -1q-35 -12 -63 -37.5t-47.5 -62t-30 -83t-10.5 -99.5q0 -149 54.5 -221.5t169.5 -72.5q74 0 117.5 -33t43.5 -88q0 -71 -56 -103.5t-182 -33.5v66q73 2 107.5 19t34.5 54
q0 26 -17.5 40.5t-47.5 14.5q-158 0 -239.5 92t-81.5 267q0 179 112 286q-26 3 -54 6t-44 9v68v0z" />
    <glyph glyph-name="cid00501" unicode="&#x3b7;" horiz-adv-x="593" 
d="M413 372q0 48 -30 79t-77 31q-68 0 -123 -66v-378h-97v512h96v-46q35 30 67 43t70 13q42 0 77 -12.5t60 -35t39 -54t14 -68.5v-563h-96v545v0z" />
    <glyph glyph-name="cid00502" unicode="&#x3b8;" horiz-adv-x="625" 
d="M43 402q0 83 19 151.5t54.5 117t85 75t110.5 26.5q64 0 114.5 -25t85.5 -72.5t53.5 -116.5t18.5 -156t-18.5 -156t-54 -117.5t-86 -74t-113.5 -25.5q-61 0 -110.5 27t-85 76t-54.5 118t-19 152zM312 699q-78 0 -121.5 -68t-48.5 -196h341q-4 125 -49 194.5t-122 69.5z
M312 103q76 0 121 70.5t50 195.5h-342q6 -125 51 -195.5t120 -70.5z" />
    <glyph glyph-name="cid00503" unicode="&#x3b9;" horiz-adv-x="269" 
d="M184 550v-512h-96v512h96z" />
    <glyph glyph-name="cid00504" unicode="&#x3ba;" horiz-adv-x="540" 
d="M185 314q4 7 14.5 22t23 33.5t24.5 38t20 36.5q12 28 22.5 50t23.5 37.5t30 23.5t42 8q23 0 49 -9.5t46 -24.5l-39 -63q-24 21 -50 21q-12 0 -23.5 -16.5t-25.5 -42t-32 -57.5t-45 -62l245 -271h-108l-217 242v-242h-99v513h99v-237z" />
    <glyph glyph-name="cid00505" unicode="&#x3bb;" horiz-adv-x="612" 
d="M83 773q64 -8 116.5 -67.5t91.5 -168.5l138 -397q11 -27 21 -37t23 -10q38 0 66 40l46 -53q-42 -60 -120 -60q-100 0 -131 93l-93 275l-104 -350h-99l151 494q-39 133 -130 179l24 62v0z" />
    <glyph glyph-name="cid00506" unicode="&#x3bc;" horiz-adv-x="576" 
d="M86 550h97v-344q0 -46 26 -72.5t72 -26.5q37 0 72.5 18.5t59.5 50.5v374h96v-512h-96v50q-59 -59 -141 -59q-26 0 -48 3.5t-43 10.5v-216h-95v723z" />
    <glyph glyph-name="cid00507" unicode="&#x3bd;" horiz-adv-x="501" 
d="M451 550q5 -21 8 -50.5t3 -54.5q0 -43 -12.5 -93t-34.5 -103t-53.5 -106.5t-68.5 -104.5h-75l-198 512h100l147 -415q21 36 39.5 71.5t33 72t22.5 75t8 80.5q0 10 -1 24.5t-3 30.5t-4.5 32t-5.5 29h95v0z" />
    <glyph glyph-name="cid00508" unicode="&#x3be;" horiz-adv-x="603" 
d="M305 -100q152 3 152 85q0 57 -63 57h-54q-63 0 -112.5 17.5t-84.5 49t-54.5 75t-20.5 96.5q0 68 29.5 126t83.5 87q-12 10 -22.5 24.5t-18 30.5t-11.5 32.5t-4 31.5q0 29 8 52.5t22 37.5l-54 8l-23 4l1 67q44 -8 94 -13.5t95 -5.5q15 0 35.5 1.5t43 4t44.5 6t40 7.5
l1 -65q-33 -7 -74 -13t-79 -6q-24 0 -39.5 -23.5t-15.5 -59.5q0 -42 15 -64t44 -22h122v-67h-71q-36 0 -66.5 -13t-53 -36.5t-35.5 -54.5t-13 -67q0 -83 47.5 -132t126.5 -49h52q84 0 123 -32t39 -100q0 -140 -249 -143v66v0z" />
    <glyph glyph-name="cid00509" unicode="&#x3bf;" horiz-adv-x="604" 
d="M46 293q0 62 18 111t52 83.5t81.5 53t107.5 18.5q59 0 106 -18.5t80 -53t50.5 -84t17.5 -110.5q0 -126 -67.5 -195t-185.5 -69q-62 0 -110 18.5t-81.5 53t-51 83t-17.5 109.5zM143 293q0 -89 41.5 -137.5t118.5 -48.5t118 48t41 138t-41.5 138.5t-117.5 48.5
q-77 0 -118.5 -48.5t-41.5 -138.5z" />
    <glyph glyph-name="cid00510" unicode="&#x3c0;" horiz-adv-x="615" 
d="M457 166q0 -32 13 -49t39 -17q38 0 70 19v-67q-29 -23 -78 -23q-143 0 -143 133v319h-127v-313q0 -49 -30.5 -93t-81.5 -70l-52 63q65 32 65 98v315h-96v69h542v-69h-121v-315z" />
    <glyph glyph-name="cid00511" unicode="&#x3c1;" horiz-adv-x="604" 
d="M46 293q0 62 18 111t52 83.5t81.5 53t107.5 18.5q59 0 106 -18.5t80 -53t50.5 -84t17.5 -110.5q0 -126 -67.5 -195t-185.5 -69q-51 0 -90 11.5t-75 35.5v-249h-95v466zM143 293q0 -89 41.5 -137.5t118.5 -48.5t118 48t41 138t-41.5 138.5t-117.5 48.5q-77 0 -118.5 -48.5
t-41.5 -138.5z" />
    <glyph glyph-name="cid00512" unicode="&#x3c3;" horiz-adv-x="625" 
d="M491 489q68 -73 68 -196q0 -126 -67.5 -195t-185.5 -69q-62 0 -110 18.5t-81.5 53t-51 83t-17.5 109.5t17.5 110t50.5 83t80 53t106 20h299v-70h-108zM143 293q0 -89 41.5 -137.5t118.5 -48.5t118 48t41 138t-41.5 138.5t-117.5 48.5q-77 0 -118.5 -48.5t-41.5 -138.5z
" />
    <glyph glyph-name="cid00513" unicode="&#x3c4;" horiz-adv-x="448" 
d="M414 461h-147v-319q0 -31 33 -31q24 0 55.5 1.5t63.5 9.5v-69q-32 -8 -69 -13.5t-70 -5.5q-52 0 -80.5 21.5t-28.5 64.5v341h-142v74h385v-74z" />
    <glyph glyph-name="cid00514" unicode="&#x3c5;" horiz-adv-x="589" 
d="M186 220q0 -58 26.5 -88.5t77.5 -30.5q56 0 87 64.5t31 176.5q0 47 -14 90.5t-38 74.5l72 52q38 -42 59.5 -100t21.5 -117q0 -155 -58 -234t-170 -79q-90 0 -142.5 51.5t-52.5 139.5v330h100v-330z" />
    <glyph glyph-name="cid00515" unicode="&#x3c6;" horiz-adv-x="620" 
d="M260 37q-50 1 -92 22t-72.5 57t-48 84.5t-17.5 104.5q0 160 126 261l50 -66q-41 -34 -60 -79t-19 -107q0 -86 34 -142t99 -63v376q0 37 28.5 62.5t69.5 25.5q53 0 96.5 -19.5t74 -55.5t47.5 -86t17 -111q0 -56 -17.5 -103t-48 -82.5t-73.5 -56t-94 -22.5v-210h-100v210z
M360 110q30 1 54.5 15.5t42 39.5t27 60t9.5 76q0 45 -7.5 81.5t-22 63t-35 41t-46.5 14.5q-15 0 -18.5 -9t-3.5 -20v-362z" />
    <glyph glyph-name="cid00516" unicode="&#x3c7;" horiz-adv-x="691" 
d="M286 197l-247 356h114l192 -291l189 291h112l-242 -356l261 -370h-113l-207 300l-211 -300h-113z" />
    <glyph glyph-name="cid00517" unicode="&#x3c8;" horiz-adv-x="686" 
d="M303 15q-112 10 -164.5 75.5t-52.5 194.5v265h97v-265q0 -93 28.5 -139t91.5 -57v461h94v-457q58 14 84.5 59t26.5 131v267h97v-266q0 -122 -51 -187.5t-157 -79.5v-190h-94v188z" />
    <glyph glyph-name="cid00518" unicode="&#x3c9;" horiz-adv-x="670" 
d="M231 492q-45 -10 -70.5 -69t-25.5 -151q0 -80 23 -125t65 -45q35 0 50 31t15 97v116h99v-118q0 -63 15 -94.5t48 -31.5q44 0 67 44.5t23 125.5q0 93 -25.5 151.5t-72.5 69.5v67q43 -3 78 -25.5t59.5 -60t38 -89t13.5 -113.5q0 -54 -13 -98.5t-37 -77t-57.5 -50.5
t-73.5 -18q-42 0 -68 13.5t-43 42.5q-19 -29 -46.5 -42.5t-69.5 -13.5q-39 0 -72 18t-57 50.5t-37 77.5t-13 98q0 63 13 114.5t37.5 89t59 59.5t77.5 25v-68v0z" />
    <glyph glyph-name="cid01026" unicode="&#x401;" horiz-adv-x="529" 
d="M232 869q0 -23 -15 -37.5t-39 -14.5t-40 15t-16 37q0 23 16 38t40 15t39 -15t15 -38zM440 869q0 -23 -15.5 -37.5t-38.5 -14.5q-24 0 -40.5 15t-16.5 37q0 23 16.5 38t40.5 15q23 0 38.5 -15t15.5 -38zM92 764h381v-77h-285v-240h247v-77h-247v-256h304v-76h-400v726z
" />
    <glyph glyph-name="cid01020" unicode="&#x410;" horiz-adv-x="669" 
d="M298 764h65l289 -726h-98l-81 211h-282l-78 -211h-97zM219 323h225l-114 298z" />
    <glyph glyph-name="cid01021" unicode="&#x411;" horiz-adv-x="576" 
d="M450 692h-266v-249h91q122 0 190.5 -53t68.5 -149q0 -45 -17.5 -82.5t-50 -64t-77 -41.5t-98.5 -15h-205v726h364v-72zM289 109q33 0 60.5 10t47.5 27.5t31 42t11 54.5q0 60 -40.5 95.5t-109.5 35.5h-105v-265h105z" />
    <glyph glyph-name="cid01022" unicode="&#x412;" horiz-adv-x="598" 
d="M302 764q98 0 153.5 -50t55.5 -138q0 -42 -21.5 -81t-56.5 -63l3 -18q56 -17 86.5 -62t30.5 -109q0 -46 -17.5 -83.5t-49 -64.5t-75.5 -42t-98 -15h-221v726h210zM298 447q25 0 47 9.5t38 27t25 40.5t9 50q0 50 -33 81.5t-84 31.5h-112v-240h110zM311 114q66 0 107 36
t41 95q0 60 -39 93t-110 33h-122v-257h123z" />
    <glyph glyph-name="cid01023" unicode="&#x413;" horiz-adv-x="512" 
d="M188 38h-96v726h396v-76h-300v-650z" />
    <glyph glyph-name="cid01024" unicode="&#x414;" horiz-adv-x="659" 
d="M513 50h-381v-141h-99v210h44q30 0 61 29q17 20 19 49.5t2 60.5v506h397v-645h55v-210h-98v141zM258 244q0 -51 -8.5 -79t-28.5 -46h237v576h-200v-451z" />
    <glyph glyph-name="cid01025" unicode="&#x415;" horiz-adv-x="540" 
d="M188 433h247v-77h-247v-241h285v-77h-381v726h400v-76h-304v-255z" />
    <glyph glyph-name="cid01027" unicode="&#x416;" horiz-adv-x="945" 
d="M159 38h-118l264 387l-235 339h111l221 -343zM432 764h97v-726h-97v726zM657 425l263 -387h-118l-243 383l221 343h112z" />
    <glyph glyph-name="cid01028" unicode="&#x417;" horiz-adv-x="548" 
d="M81 741q45 18 85.5 26t85.5 8q51 0 92 -13.5t70.5 -37.5t45.5 -58.5t16 -76.5q0 -28 -9 -56t-24.5 -50.5t-36 -38t-42.5 -19.5v-17q66 -22 96 -65t30 -111q0 -99 -69 -151t-188 -52q-46 0 -90 8t-82 23l17 77q42 -18 78.5 -26t75.5 -8q78 0 122.5 36.5t44.5 100.5
q0 68 -49.5 103.5t-143.5 35.5l-12 -1h-39v72h23q101 0 153.5 34.5t52.5 100.5q0 25 -10.5 46.5t-29.5 37t-45.5 24t-57.5 8.5q-36 0 -69.5 -8.5t-76.5 -25.5l-14 74v0z" />
    <glyph glyph-name="cid01029" unicode="&#x418;" horiz-adv-x="762" 
d="M178 38h-86v726h98v-573l396 573h85v-726h-96v569z" />
    <glyph glyph-name="cid01030" unicode="&#x419;" horiz-adv-x="762" 
d="M522 938q-2 -29 -14 -53t-32 -41.5t-46.5 -27.5t-57.5 -10q-60 0 -97.5 34.5t-46.5 96.5h80q8 -32 24.5 -49.5t39.5 -17.5q26 0 44.5 18.5t25.5 49.5h80zM178 38h-86v726h98v-573l396 573h85v-726h-96v569z" />
    <glyph glyph-name="cid01031" unicode="&#x41a;" horiz-adv-x="686" 
d="M92 764h97v-726h-97v726zM338 425l331 -387h-120l-329 383l297 343h111z" />
    <glyph glyph-name="cid01032" unicode="&#x41b;" horiz-adv-x="706" 
d="M616 38h-97v650h-259v-369q0 -101 -55.5 -176.5t-168.5 -107.5v79q66 29 96.5 79t30.5 128v443h453v-726z" />
    <glyph glyph-name="cid01033" unicode="&#x41c;" horiz-adv-x="831" 
d="M428 309h-24l-215 292v-563h-97v726h83l241 -332l241 332h84v-726h-98v561z" />
    <glyph glyph-name="cid01034" unicode="&#x41d;" horiz-adv-x="707" 
d="M519 38v334h-330v-334h-97v726h97v-316h330v316h98v-726h-98z" />
    <glyph glyph-name="cid01035" unicode="&#x41e;" horiz-adv-x="818" 
d="M50 402q0 78 28 146t77 118.5t113.5 79.5t138.5 29q75 0 140.5 -28.5t114.5 -78.5t77.5 -118.5t28.5 -147.5q0 -78 -28 -146t-77 -119t-115 -80.5t-141 -29.5q-73 0 -138 30t-113.5 81t-77 119t-28.5 145zM147 402q0 -62 20.5 -116t55.5 -94.5t82.5 -64t101.5 -23.5
q55 0 103.5 23.5t84 64t56 94.5t20.5 116t-20.5 116.5t-56 94.5t-84 63t-103.5 23q-54 0 -101.5 -23.5t-82.5 -63.5t-55.5 -94.5t-20.5 -115.5z" />
    <glyph glyph-name="cid01036" unicode="&#x41f;" horiz-adv-x="707" 
d="M519 38v650h-330v-650h-97v726h525v-726h-98z" />
    <glyph glyph-name="cid01037" unicode="&#x420;" horiz-adv-x="516" 
d="M268 764q107 0 168 -58t61 -161q0 -49 -16.5 -89t-47 -68.5t-73 -44t-94.5 -15.5h-93v-290h-97v726h192zM265 405q64 0 100 37t36 103q0 68 -35 105t-99 37h-94v-282h92z" />
    <glyph glyph-name="cid01038" unicode="&#x421;" horiz-adv-x="703" 
d="M419 31q-76 0 -143.5 29.5t-117.5 81t-79.5 120.5t-29.5 147q0 76 29.5 143t80 116.5t117.5 78.5t143 29q78 0 139 -19t113 -58l-47 -68q-45 32 -97 49t-108 17q-57 0 -107 -22.5t-87 -61.5t-58.5 -91.5t-21.5 -112.5q0 -61 21.5 -115t58.5 -94t86.5 -63.5t105.5 -23.5
q64 0 123.5 18t98.5 48l41 -69q-47 -38 -113.5 -58.5t-147.5 -20.5z" />
    <glyph glyph-name="cid01039" unicode="&#x422;" horiz-adv-x="514" 
d="M21 687v77h471v-77h-187v-649h-97v649h-187z" />
    <glyph glyph-name="cid01040" unicode="&#x423;" horiz-adv-x="519" 
d="M252 446l150 318h101l-352 -726h-100l153 306l-190 420h104z" />
    <glyph glyph-name="cid01041" unicode="&#x424;" horiz-adv-x="682" 
d="M293 187q-116 13 -181.5 69.5t-65.5 143.5t65.5 144t181.5 70v150h97v-150q57 -5 102.5 -23t77.5 -46t49.5 -65t17.5 -80q0 -44 -17 -81t-49.5 -64.5t-78 -45.5t-102.5 -23v-148h-97v149zM143 400q0 -54 39 -88.5t111 -45.5v268q-71 -11 -110.5 -46t-39.5 -88zM540 400
q0 54 -39 88.5t-111 45.5v-269q72 11 111 46t39 89z" />
    <glyph glyph-name="cid01042" unicode="&#x425;" horiz-adv-x="691" 
d="M286 409l-247 355h114l192 -291l189 291h112l-242 -355l261 -371h-113l-207 300l-211 -300h-113z" />
    <glyph glyph-name="cid01043" unicode="&#x426;" horiz-adv-x="644" 
d="M586 126v-217h-98v141h-402v713h98v-637h237v637h99v-637h66z" />
    <glyph glyph-name="cid01044" unicode="&#x427;" horiz-adv-x="576" 
d="M396 309q-26 -24 -64.5 -38.5t-73.5 -14.5q-39 0 -71 12.5t-54.5 35.5t-34.5 55t-12 72v344h96v-342q0 -47 26.5 -75t71.5 -28q29 0 60.5 16.5t55.5 45.5v383h97v-737h-97v271v0z" />
    <glyph glyph-name="cid01045" unicode="&#x428;" horiz-adv-x="756" 
d="M189 764v-650h140v650h97v-650h142v650h97v-726h-573v726h97z" />
    <glyph glyph-name="cid01046" unicode="&#x429;" horiz-adv-x="790" 
d="M732 126v-217h-98v141h-548v714h98v-638h145v638h97v-638h141v638h98v-638h67z" />
    <glyph glyph-name="cid01047" unicode="&#x42a;" horiz-adv-x="706" 
d="M26 692v72h284v-321h91q59 0 107 -13t81.5 -38.5t52 -63.5t18.5 -87q0 -45 -17.5 -82.5t-50 -64t-77 -41.5t-98.5 -15h-205v654h-186zM415 109q33 0 60.5 10t47.5 27.5t31 42t11 54.5q0 60 -40.5 95.5t-109.5 35.5h-105v-265h105z" />
    <glyph glyph-name="cid01048" unicode="&#x42b;" horiz-adv-x="823" 
d="M732 764v-726h-96v726h96zM280 443q121 0 190.5 -52.5t69.5 -149.5q0 -45 -17.5 -82.5t-50 -64.5t-77 -41.5t-98.5 -14.5h-205v726h98v-321h90zM295 109q33 0 60.5 10t47.5 27.5t31 42t11 54.5q0 60 -40.5 95.5t-109.5 35.5h-105v-265h105z" />
    <glyph glyph-name="cid01049" unicode="&#x42c;" horiz-adv-x="586" 
d="M280 443q121 0 190.5 -52.5t69.5 -149.5q0 -45 -17.5 -82.5t-50 -64.5t-77 -41.5t-98.5 -14.5h-205v725h98v-320h90zM295 109q33 0 60.5 10t47.5 27.5t31 42t11 54.5q0 60 -40.5 95.5t-109.5 35.5h-105v-265h105z" />
    <glyph glyph-name="cid01050" unicode="&#x42d;" horiz-adv-x="703" 
d="M298 31q-81 0 -147.5 20.5t-113.5 58.5l41 69q39 -30 98.5 -48t123.5 -18q52 0 99 21t84 57t60 85t27 105h-482v69h481q-8 54 -32 99.5t-60 78t-82 51t-97 18.5q-57 0 -108.5 -17t-96.5 -49l-47 68q52 39 113 58t139 19q76 0 143 -29t117.5 -78.5t80 -116.5t29.5 -143
q0 -78 -29.5 -147t-79.5 -120.5t-117.5 -81t-143.5 -29.5z" />
    <glyph glyph-name="cid01051" unicode="&#x42e;" horiz-adv-x="820" 
d="M787 402q0 -88 -17.5 -158t-49.5 -118.5t-78 -74.5t-104 -26t-104 25.5t-78 72.5t-49.5 112.5t-18.5 145.5h-100v-343h-96v726h96v-314h101q11 158 76 244.5t173 86.5q57 0 103.5 -26t78.5 -74.5t49.5 -119t17.5 -159.5zM695 402q0 69 -11 125.5t-31.5 96.5t-49.5 61.5
t-65 21.5t-65 -22t-49.5 -61.5t-31.5 -96t-11 -125.5q0 -68 11 -123.5t31 -95.5t49.5 -62t65.5 -22q37 0 66 22.5t49.5 62.5t31 95.5t10.5 122.5z" />
    <glyph glyph-name="cid01052" unicode="&#x42f;" horiz-adv-x="616" 
d="M367 355q-20 0 -36.5 -6.5t-32 -22t-32 -40.5t-35.5 -62l-98 -186h-100l109 208q23 45 42.5 72t41.5 42l-3 17q-26 10 -48 28.5t-37.5 43t-24 53.5t-8.5 60q0 97 59 149.5t171 52.5h210v-726h-97v317h-81zM336 687q-63 0 -99 -33.5t-36 -92.5q0 -60 38 -95t101 -35h108
v256h-112z" />
    <glyph glyph-name="cid01053" unicode="&#x430;" horiz-adv-x="535" 
d="M384 76q-45 -26 -91 -35.5t-77 -9.5q-36 0 -67 13t-54 35.5t-36.5 52t-13.5 62.5q0 28 11 55t30.5 49.5t47 39.5t61.5 26q12 3 28.5 5t36 3t40 1.5t40.5 0.5h33v31q0 38 -28 60.5t-76 22.5q-15 0 -33.5 -4t-38 -10t-38 -14t-33.5 -16l-31 59q38 27 84.5 43t89.5 18
q93 0 145.5 -40t52.5 -114v-372h-83v38zM321 302q-90 0 -136 -25.5t-46 -80.5q0 -19 7.5 -35.5t20 -29t29.5 -19.5t37 -7q48 0 86 13t54 34v150h-52z" />
    <glyph glyph-name="cid01054" unicode="&#x431;" horiz-adv-x="604" 
d="M46 283q0 115 20 203.5t58 149t92.5 91.5t124.5 31h36v-78h-33q-30 0 -58.5 -11t-51 -31t-38.5 -47.5t-22 -59.5q60 28 131 28q59 0 106 -18.5t80 -53t50.5 -84t17.5 -110.5q0 -126 -67.5 -195t-185.5 -69q-121 0 -189.5 68t-70.5 186zM143 293q0 -89 41.5 -137.5
t118.5 -48.5t118 48t41 138t-41.5 138.5t-117.5 48.5q-77 0 -118.5 -48.5t-41.5 -138.5z" />
    <glyph glyph-name="cid01055" unicode="&#x432;" horiz-adv-x="528" 
d="M256 561q88 0 135.5 -37t47.5 -104q0 -58 -52 -92l2 -17q45 -15 69 -47t24 -74q0 -75 -51.5 -113.5t-153.5 -38.5h-185v523h164zM251 339q42 0 68 21.5t26 56.5q0 33 -25 53t-66 20h-64v-151h61zM275 109q52 0 81.5 21.5t29.5 61.5q0 37 -29.5 57.5t-81.5 20.5h-85v-161
h85z" />
    <glyph glyph-name="cid01056" unicode="&#x433;" horiz-adv-x="454" 
d="M188 38h-96v512h337v-76h-241v-436z" />
    <glyph glyph-name="cid01057" unicode="&#x434;" horiz-adv-x="571" 
d="M418 50h-280v-141h-96v210h44q32 0 60 29q17 19 19 49.5t2 60.5v292h298v-431h49v-210h-96v141zM263 244q0 -33 -10.5 -64.5t-36.5 -60.5h154v362h-107v-237z" />
    <glyph glyph-name="cid01058" unicode="&#x435;" horiz-adv-x="550" 
d="M480 86q-39 -29 -85 -43t-106 -14q-243 0 -243 258q0 134 58.5 203t173.5 69q109 0 166 -65t57 -190q0 -23 -3 -48h-358q8 -149 149 -149q35 0 76 8t77 36zM406 329q-2 78 -33 115t-97 37q-63 0 -98.5 -40t-36.5 -112h265z" />
    <glyph glyph-name="cid01060" unicode="&#x436;" horiz-adv-x="650" 
d="M373 316q12 7 20.5 15.5t16.5 21t16 32t18 49.5q11 38 22.5 62.5t29 38.5t43.5 19.5t67 7.5l-1 -77q-26 -2 -44 -11.5t-26 -25.5q-10 -20 -17 -40.5t-13.5 -40.5t-14 -38.5t-18.5 -33.5q22 -35 42 -69t43 -70l72 -118h-92l-127 211q-8 0 -16 -2.5t-21 -2.5v-206h-98v204
l-35 6l-65 -110l-60 -100h-94l154 255q-15 17 -23 37t-13.5 40.5t-11 40t-15 35t-26 25.5t-44.5 12v77q46 -1 73 -11t43 -27t24.5 -39.5t17.5 -48.5l17 -51t15 -34.5t18 -21.5t25 -11v234h98v-234z" />
    <glyph glyph-name="cid01061" unicode="&#x437;" horiz-adv-x="407" 
d="M78 138q45 -35 104 -35q50 0 80.5 21.5t30.5 66.5q0 55 -30.5 79t-111.5 24h-10v65h10q64 0 94 20.5t30 65.5q0 74 -87 74q-20 0 -43.5 -7t-44.5 -19l-27 58q28 17 58.5 26t56.5 9q80 0 126.5 -36.5t46.5 -98.5q0 -31 -18.5 -60.5t-50.5 -49.5l2 -17q42 -19 64.5 -53
t22.5 -79q0 -35 -13.5 -64t-38.5 -50t-59 -32.5t-76 -11.5q-45 0 -82 11t-67 36l33 57v0z" />
    <glyph glyph-name="cid01062" unicode="&#x438;" horiz-adv-x="617" 
d="M180 165l255 385h98v-516h-94v371l-252 -367h-101v512h94v-385z" />
    <glyph glyph-name="cid01063" unicode="&#x439;" horiz-adv-x="617" 
d="M452 748q-2 -29 -14 -53t-32 -41.5t-46.5 -27.5t-57.5 -10q-60 0 -97.5 34t-46.5 97h79q8 -32 25 -49.5t40 -17.5q25 0 43.5 18.5t25.5 49.5h81zM180 165l255 385h98v-516h-94v371l-252 -367h-101v512h94v-385z" />
    <glyph glyph-name="cid01064" unicode="&#x43a;" horiz-adv-x="546" 
d="M391 550h109l-220 -243l236 -269h-115l-219 251v-251h-96v512h96v-235z" />
    <glyph glyph-name="cid01065" unicode="&#x43b;" horiz-adv-x="576" 
d="M499 38h-96v436h-153v-213q0 -99 -56.5 -151.5t-157.5 -75.5v78q64 19 91 53t27 98v287h345v-512z" />
    <glyph glyph-name="cid01066" unicode="&#x43c;" horiz-adv-x="674" 
d="M336 306l168 244h80v-512h-94v354l-141 -196h-28l-136 194v-352h-93v512h80z" />
    <glyph glyph-name="cid01067" unicode="&#x43d;" horiz-adv-x="616" 
d="M437 38v227h-256v-227h-95v512h95v-209h256v209h95v-512h-95z" />
    <glyph glyph-name="cid01068" unicode="&#x43e;" horiz-adv-x="604" 
d="M46 293q0 62 18 111t52 83.5t81.5 53t107.5 18.5q59 0 106 -18.5t80 -53t50.5 -84t17.5 -110.5q0 -126 -67.5 -195t-185.5 -69q-62 0 -110 18.5t-81.5 53t-51 83t-17.5 109.5zM143 293q0 -89 41.5 -137.5t118.5 -48.5t118 48t41 138t-41.5 138.5t-117.5 48.5
q-77 0 -118.5 -48.5t-41.5 -138.5z" />
    <glyph glyph-name="cid01069" unicode="&#x43f;" horiz-adv-x="616" 
d="M437 38v436h-256v-436h-95v512h446v-512h-95z" />
    <glyph glyph-name="cid01070" unicode="&#x440;" horiz-adv-x="516" 
d="M268 549q53 0 95.5 -18t72 -51.5t45.5 -81t16 -106.5q0 -57 -16.5 -104t-47 -80t-73 -51.5t-94.5 -18.5h-93v-211h-97v722h192zM265 115q66 0 101 46t35 131q0 88 -34 134t-100 46h-94v-357h92z" />
    <glyph glyph-name="cid01071" unicode="&#x441;" horiz-adv-x="525" 
d="M493 78q-34 -26 -80.5 -37.5t-87.5 -11.5q-60 0 -108 18.5t-82 53t-52.5 83.5t-18.5 110q0 60 18.5 108.5t51.5 83.5t80 54t104 19q53 0 93.5 -12.5t74.5 -38.5l-37 -65q-32 20 -62.5 29t-68.5 9q-72 0 -114.5 -50.5t-42.5 -135.5q0 -91 42 -139.5t121 -48.5q77 0 135 38
l34 -67v0z" />
    <glyph glyph-name="cid01072" unicode="&#x442;" horiz-adv-x="440" 
d="M413 551v-66h-146v-448h-95v448h-145v66h386z" />
    <glyph glyph-name="cid01073" unicode="&#x443;" horiz-adv-x="519" 
d="M252 231l150 319h101l-344 -717h-100l145 296l-190 421h104z" />
    <glyph glyph-name="cid01074" unicode="&#x444;" horiz-adv-x="848" 
d="M375 89q-45 -57 -117 -57q-48 0 -88 19t-68.5 54t-44 84t-15.5 109q0 58 15.5 106t44 82.5t68 54t87.5 19.5q76 0 118 -59v262h98v-260q48 57 119 57q47 0 86.5 -19.5t68 -54t44 -82.5t15.5 -106q0 -60 -15.5 -109.5t-43.5 -84t-68 -53.5t-88 -19q-71 0 -118 56v-261h-98
v262zM138 300q0 -91 30.5 -143.5t86.5 -52.5q58 0 90.5 51t32.5 142q0 85 -33 137.5t-90 52.5q-55 0 -86 -50t-31 -137zM709 300q0 87 -30.5 137t-84.5 50q-28 0 -51 -14t-39 -39t-25 -60t-9 -77q0 -90 33 -141.5t91 -51.5q55 0 85 52t30 144z" />
    <glyph glyph-name="cid01075" unicode="&#x445;" horiz-adv-x="526" 
d="M207 297l-177 253h106l125 -185l121 185h109l-175 -254l178 -258h-107l-125 188l-135 -188h-112z" />
    <glyph glyph-name="cid01076" unicode="&#x446;" horiz-adv-x="622" 
d="M538 114v-205h-98v129h-354v511h98v-435h189v435h98v-435h67z" />
    <glyph glyph-name="cid01077" unicode="&#x447;" horiz-adv-x="558" 
d="M378 212q-56 -53 -130 -53q-77 0 -119.5 46t-42.5 129v216h96v-214q0 -50 23 -76.5t66 -26.5q54 0 107 62v255h97v-512h-97v174v0z" />
    <glyph glyph-name="cid01078" unicode="&#x448;" horiz-adv-x="697" 
d="M185 550v-436h117v436h93v-436h118v436h94v-512h-515v512h93z" />
    <glyph glyph-name="cid01079" unicode="&#x449;" horiz-adv-x="731" 
d="M674 126v-217h-95v141h-493v500h94v-424h122v424h93v-424h118v424h94v-424h67z" />
    <glyph glyph-name="cid01080" unicode="&#x44a;" horiz-adv-x="595" 
d="M26 478v72h241v-184h52q113 0 171.5 -41.5t58.5 -122.5q0 -80 -54 -122t-159 -42h-163v440h-147zM334 109q63 0 91 22t28 73q0 92 -119 92h-67v-187h67z" />
    <glyph glyph-name="cid01081" unicode="&#x44b;" horiz-adv-x="714" 
d="M186 550v-183h52q111 0 167.5 -41t56.5 -124q0 -164 -208 -164h-162v512h94zM623 550v-512h-92v512h92zM252 109q62 0 88.5 22t26.5 73q0 92 -115 92h-66v-187h66z" />
    <glyph glyph-name="cid01082" unicode="&#x44c;" horiz-adv-x="508" 
d="M186 550v-183h52q111 0 167.5 -41t56.5 -124q0 -164 -208 -164h-162v512h94zM252 109q62 0 88.5 22t26.5 73q0 92 -115 92h-66v-187h66z" />
    <glyph glyph-name="cid01083" unicode="&#x44d;" horiz-adv-x="537" 
d="M92 145q58 -38 135 -38q71 0 112 39.5t49 114.5h-301v70h301q-10 71 -51 110.5t-104 39.5q-38 0 -69.5 -9t-61.5 -29l-38 65q35 26 75.5 38.5t93.5 12.5q57 0 103.5 -19t80 -54t52 -84t18.5 -108q0 -61 -18.5 -110t-52.5 -83.5t-82 -53t-108 -18.5q-41 0 -87.5 11.5
t-80.5 37.5l34 67v0z" />
    <glyph glyph-name="cid01084" unicode="&#x44e;" horiz-adv-x="682" 
d="M184 550v-221h68q14 227 196 227q98 0 150 -66.5t52 -191.5q0 -135 -49 -198.5t-153 -63.5q-93 0 -140 54.5t-55 169.5h-69v-222h-92v512h92zM345 298q0 -91 26 -140t77 -49q54 0 81 48.5t27 140.5q0 42 -7.5 76t-22 58t-34.5 37.5t-44 13.5q-48 0 -75.5 -50t-27.5 -135z
" />
    <glyph glyph-name="cid01085" unicode="&#x44f;" horiz-adv-x="510" 
d="M315 237q-25 0 -51.5 -20.5t-50.5 -57.5l-78 -121h-100l93 144q32 48 61 63l-2 18q-46 18 -71 52.5t-25 80.5q0 75 52 114.5t150 39.5h146v-512h-93v199h-31zM292 473q-53 0 -80.5 -19.5t-27.5 -58.5q0 -82 112 -82h50v160h-54z" />
    <glyph glyph-name="cid01059" unicode="&#x451;" horiz-adv-x="537" 
d="M224 674q0 -23 -15.5 -37.5t-38.5 -14.5q-24 0 -40.5 15t-16.5 37q0 23 16 38t41 15q23 0 38.5 -15t15.5 -38zM431 674q0 -23 -15 -37.5t-39 -14.5t-40.5 15t-16.5 37q0 23 16.5 38t40.5 15t39 -15t15 -38zM480 86q-39 -29 -85 -43t-106 -14q-243 0 -243 258
q0 134 58.5 203t173.5 69q109 0 166 -65t57 -190q0 -23 -3 -48h-358q8 -149 149 -149q35 0 76 8t77 36zM406 329q-2 78 -33 115t-97 37q-63 0 -98.5 -40t-36.5 -112h265z" />
    <glyph glyph-name="cid00097" unicode="&#x2010;" horiz-adv-x="654" 
d="M107 389q-7 0 -12 4.5t-5 11.5v43q0 7 5 12t12 5h440q7 0 12 -5t5 -12v-43q0 -7 -5 -11.5t-12 -4.5h-440v0z" />
    <glyph glyph-name="cid00110" unicode="&#x2014;" horiz-adv-x="1000" 
d="M107 389q-7 0 -12 4.5t-5 11.5v43q0 7 5 12t12 5h786q7 0 12 -5t5 -12v-43q0 -7 -5 -11.5t-12 -4.5h-786v0z" />
    <glyph glyph-name="cid00110" unicode="&#x2015;" horiz-adv-x="1000" 
d="M107 389q-7 0 -12 4.5t-5 11.5v43q0 7 5 12t12 5h786q7 0 12 -5t5 -12v-43q0 -7 -5 -11.5t-12 -4.5h-786v0z" />
    <glyph glyph-name="cid00111" unicode="&#x2016;" horiz-adv-x="786" 
d="M344 102h-75v836h75v-836zM517 102h-76v836h76v-836z" />
    <glyph glyph-name="cid00111" unicode="&#x2225;" horiz-adv-x="786" 
d="M344 102h-75v836h75v-836zM517 102h-76v836h76v-836z" />
    <glyph glyph-name="cid00114" unicode="&#x2018;" horiz-adv-x="206" 
d="M133 726q6 0 10.5 -4.5t4.5 -10.5v-69q0 -6 -4.5 -10.5t-10.5 -4.5h-60q-6 0 -10.5 4.5t-4.5 10.5v64q0 5 1 11.5t3 11.5l23 79q5 11 16 11h26q9 0 9 -7q0 -2 -0.5 -2.5t-0.5 -2.5l-22 -81h20v0z" />
    <glyph glyph-name="cid00115" unicode="&#x2019;" horiz-adv-x="206" 
d="M73 705q-6 0 -10.5 4.5t-4.5 10.5v69q0 6 4.5 10.5t10.5 4.5h60q6 0 10.5 -4.5t4.5 -10.5v-64q0 -5 -1 -11.5t-3 -11.5l-23 -79q-5 -11 -16 -11h-26q-9 0 -9 7q0 3 1 5l22 81h-20v0z" />
    <glyph glyph-name="cid00116" unicode="&#x201c;" horiz-adv-x="346" 
d="M133 726q6 0 10.5 -4.5t4.5 -10.5v-69q0 -6 -4.5 -10.5t-10.5 -4.5h-60q-6 0 -10.5 4.5t-4.5 10.5v64q0 5 1 11.5t3 11.5l23 79q5 11 16 11h26q9 0 9 -7q0 -2 -0.5 -2.5t-0.5 -2.5l-22 -81h20zM273 726q6 0 10.5 -4.5t4.5 -10.5v-69q0 -6 -4.5 -10.5t-10.5 -4.5h-60
q-6 0 -10.5 4.5t-4.5 10.5v64q0 5 1 11.5t3 11.5l23 79q5 11 16 11h26q9 0 9 -7q0 -2 -0.5 -2.5t-0.5 -2.5l-22 -81h20z" />
    <glyph glyph-name="cid00117" unicode="&#x201d;" horiz-adv-x="346" 
d="M73 705q-6 0 -10.5 4.5t-4.5 10.5v69q0 6 4.5 10.5t10.5 4.5h60q6 0 10.5 -4.5t4.5 -10.5v-64q0 -5 -1 -11.5t-3 -11.5l-23 -79q-5 -11 -16 -11h-26q-9 0 -9 7q0 3 1 5l22 81h-20zM213 705q-6 0 -10.5 4.5t-4.5 10.5v69q0 6 4.5 10.5t10.5 4.5h60q6 0 10.5 -4.5
t4.5 -10.5v-64q0 -5 -1 -11.5t-3 -11.5l-23 -79q-5 -11 -16 -11h-26q-9 0 -9 7q0 3 1 5l22 81h-20z" />
    <glyph glyph-name="cid00245" unicode="&#x2020;" horiz-adv-x="825" 
d="M248 590v66h121v156h80v-156h127v-66h-127v-501h-80v501h-121z" />
    <glyph glyph-name="cid00246" unicode="&#x2021;" horiz-adv-x="825" 
d="M248 406v65h121v119h-121v66h121v156h80v-156h127v-66h-127v-119h127v-65h-127v-317h-80v317h-121z" />
    <glyph glyph-name="cid00105" unicode="&#x2025;" horiz-adv-x="376" 
d="M85 35q-6 0 -10.5 4.5t-4.5 10.5v65q0 6 4.5 10.5t10.5 4.5h56q6 0 10.5 -4.5t4.5 -10.5v-65q0 -6 -4.5 -10.5t-10.5 -4.5h-56zM235 35q-6 0 -10.5 4.5t-4.5 10.5v65q0 6 4.5 10.5t10.5 4.5h56q6 0 10.5 -4.5t4.5 -10.5v-65q0 -6 -4.5 -10.5t-10.5 -4.5h-56z" />
    <glyph glyph-name="cid00106" unicode="&#x2026;" horiz-adv-x="526" 
d="M85 35q-6 0 -10.5 4.5t-4.5 10.5v65q0 6 4.5 10.5t10.5 4.5h56q6 0 10.5 -4.5t4.5 -10.5v-65q0 -6 -4.5 -10.5t-10.5 -4.5h-56zM235 35q-6 0 -10.5 4.5t-4.5 10.5v65q0 6 4.5 10.5t10.5 4.5h56q6 0 10.5 -4.5t4.5 -10.5v-65q0 -6 -4.5 -10.5t-10.5 -4.5h-56zM385 35
q-6 0 -10.5 4.5t-4.5 10.5v65q0 6 4.5 10.5t10.5 4.5h56q6 0 10.5 -4.5t4.5 -10.5v-65q0 -6 -4.5 -10.5t-10.5 -4.5h-56z" />
    <glyph glyph-name="cid00106" unicode="&#x22ef;" horiz-adv-x="526" 
d="M85 35q-6 0 -10.5 4.5t-4.5 10.5v65q0 6 4.5 10.5t10.5 4.5h56q6 0 10.5 -4.5t4.5 -10.5v-65q0 -6 -4.5 -10.5t-10.5 -4.5h-56zM235 35q-6 0 -10.5 4.5t-4.5 10.5v65q0 6 4.5 10.5t10.5 4.5h56q6 0 10.5 -4.5t4.5 -10.5v-65q0 -6 -4.5 -10.5t-10.5 -4.5h-56zM385 35
q-6 0 -10.5 4.5t-4.5 10.5v65q0 6 4.5 10.5t10.5 4.5h56q6 0 10.5 -4.5t4.5 -10.5v-65q0 -6 -4.5 -10.5t-10.5 -4.5h-56z" />
    <glyph glyph-name="cid00216" unicode="&#x2030;" horiz-adv-x="1000" 
d="M88 35q-13 0 -13 11q0 4 3 9l440 699q9 15 26 15h42q12 0 12 -12q0 -5 -2 -8l-445 -699q-9 -15 -26 -15h-37zM35 587q0 40 11 73t30.5 56.5t45 36.5t55.5 13t55.5 -13t45 -36.5t30.5 -56.5t11 -73t-11 -73t-30.5 -56.5t-45 -36.5t-55.5 -13t-55.5 13t-45 36.5t-30.5 56.5
t-11 73zM105 587q0 -55 19.5 -85t52.5 -30t52.5 30t19.5 85t-19.5 85t-52.5 30t-52.5 -30t-19.5 -85zM351 217q0 40 11 73t30.5 56.5t45 36.5t55.5 13t55.5 -13t45 -36.5t30.5 -56.5t11 -73t-11 -73t-30.5 -56.5t-45 -36.5t-55.5 -13t-55.5 13t-45 36.5t-30.5 56.5t-11 73z
M681 217q0 40 11 73t30.5 56.5t45 36.5t55.5 13t55.5 -13t45 -36.5t30.5 -56.5t11 -73t-11 -73t-30.5 -56.5t-45 -36.5t-55.5 -13t-55.5 13t-45 36.5t-30.5 56.5t-11 73zM421 217q0 -55 19.5 -85t52.5 -30t52.5 30t19.5 85t-19.5 85t-52.5 30t-52.5 -30t-19.5 -85zM751 217
q0 -55 19.5 -85t52.5 -30t52.5 30t19.5 85t-19.5 85t-52.5 30t-52.5 -30t-19.5 -85z" />
    <glyph glyph-name="cid00139" unicode="&#x2032;" horiz-adv-x="294" 
d="M135 827q2 6 8 10.5t12 4.5h58q11 0 11 -11q0 -1 -0.5 -2t-0.5 -2l-92 -216q-6 -15 -19 -15h-33q-9 0 -9 9q0 4 1 6z" />
    <glyph glyph-name="cid00140" unicode="&#x2033;" horiz-adv-x="445" 
d="M135 827q2 6 8 10.5t12 4.5h58q11 0 11 -11q0 -1 -0.5 -2t-0.5 -2l-92 -216q-6 -15 -19 -15h-33q-9 0 -9 9q0 4 1 6zM286 827q2 6 8 10.5t12 4.5h58q11 0 11 -11q0 -1 -0.5 -2t-0.5 -2l-92 -216q-6 -15 -19 -15h-33q-9 0 -9 9q0 4 1 6z" />
    <glyph glyph-name="cid00156" unicode="&#x203b;" 
d="M724 761q4 6 11 6q3 0 11 -6l39 -41q5 -7 5 -10q0 -5 -6 -11l-272 -272l272 -272q5 -5 5 -11t-4 -10l-39 -41q-6 -6 -11 -6q-7 0 -11 6l-272 274l-272 -274q-6 -6 -11 -6q-7 0 -11 6l-39 41q-5 5 -5 10t6 11l272 272l-272 272q-6 6 -6 11q0 3 5 10l39 41q6 6 11 6t11 -6
l272 -274zM424 663q-6 0 -10.5 4.5t-4.5 10.5v65q0 6 4.5 10.5t10.5 4.5h56q6 0 10.5 -4.5t4.5 -10.5v-65q0 -6 -4.5 -10.5t-10.5 -4.5h-56zM140 380q-6 0 -10.5 4.5t-4.5 10.5v65q0 6 4.5 10.5t10.5 4.5h56q6 0 10.5 -4.5t4.5 -10.5v-65q0 -6 -4.5 -10.5t-10.5 -4.5h-56z
M701 380q-6 0 -10.5 4.5t-4.5 10.5v65q0 6 4.5 10.5t10.5 4.5h56q6 0 10.5 -4.5t4.5 -10.5v-65q0 -6 -4.5 -10.5t-10.5 -4.5h-56zM424 96q-6 0 -10.5 4.5t-4.5 10.5v65q0 6 4.5 10.5t10.5 4.5h56q6 0 10.5 -4.5t4.5 -10.5v-65q0 -6 -4.5 -10.5t-10.5 -4.5h-56z" />
    <glyph glyph-name="cid00845" unicode="&#x2074;" horiz-adv-x="420" 
d="M351 501q0 -5 -4.5 -8.5t-10.5 -3.5h-32v-93q0 -5 -4.5 -9t-10.5 -4h-37q-6 0 -10.5 4t-4.5 9v93h-162q-6 0 -10.5 3.5t-4.5 8.5v28q0 1 2 9l171 268q1 3 6 6t9 3h41q6 0 10.5 -4t4.5 -9v-264h32q6 0 10.5 -4t4.5 -9v-24zM127 538h110v173z" />
    <glyph glyph-name="cid00846" unicode="&#x207f;" horiz-adv-x="420" 
d="M52 761q0 14 16 14h41q17 0 17 -14v-7q20 11 51 19.5t54 8.5q63 0 100 -39t37 -106v-233q0 -6 -5 -11t-12 -5h-37q-8 0 -13.5 4.5t-5.5 11.5v222q0 98 -79 98q-21 0 -45.5 -8.5t-44.5 -21.5v-292q0 -14 -17 -14h-41q-16 0 -16 14v359v0z" />
    <glyph glyph-name="cid00847" unicode="&#x2081;" horiz-adv-x="420" 
d="M274 499q6 0 11 -4t5 -10v-404q0 -6 -5 -9.5t-12 -3.5h-34q-15 0 -15 13v341l-83 -54q-3 -2 -9 -2q-9 0 -12 6l-16 24q-2 3 -2 8q0 4 6 9l120 79q10 7 20 7h26v0z" />
    <glyph glyph-name="cid00848" unicode="&#x2082;" horiz-adv-x="420" 
d="M336 126q6 0 11 -4t5 -9v-29q0 -5 -5 -9.5t-11 -4.5h-258q-16 0 -16 17q0 28 16.5 54t41.5 50.5t53.5 47.5t53.5 45.5t41.5 44.5t16.5 44q0 38 -20.5 59t-55.5 21q-77 0 -77 -94q0 -6 -5 -10t-12 -4h-33q-16 0 -16 14q0 69 37.5 107.5t103.5 38.5q64 0 104 -36t40 -94
q0 -72 -81 -132q-20 -15 -40.5 -30.5t-38.5 -31t-30.5 -29.5t-15.5 -26h191v0z" />
    <glyph glyph-name="cid00849" unicode="&#x2083;" horiz-adv-x="420" 
d="M288 294q32 -13 50 -37.5t18 -60.5q0 -63 -41.5 -100.5t-110.5 -37.5q-68 0 -104 34t-36 99q0 6 4.5 10t10.5 4h36q15 0 15 -14q0 -82 76 -82q36 0 58 23.5t22 62.5q0 38 -21 52.5t-76 14.5q-15 0 -15 14v24q0 5 4.5 9t10.5 4q87 0 87 75q0 29 -19 46.5t-51 17.5
q-30 0 -50.5 -22.5t-20.5 -56.5q0 -14 -16 -14h-32q-16 0 -16 14q0 59 38 94t102 35q28 0 52.5 -9t41.5 -24t27 -36t10 -45q0 -32 -14.5 -56t-39.5 -38z" />
    <glyph glyph-name="cid00850" unicode="&#x2084;" horiz-adv-x="420" 
d="M351 181q0 -5 -4.5 -8.5t-10.5 -3.5h-32v-93q0 -5 -4.5 -9t-10.5 -4h-37q-6 0 -10.5 4t-4.5 9v93h-162q-6 0 -10.5 3.5t-4.5 8.5v28q0 1 2 9l171 268q1 3 6 6t9 3h41q6 0 10.5 -4t4.5 -9v-264h32q6 0 10.5 -4t4.5 -9v-24zM127 218h110v173z" />
    <glyph glyph-name="cid00096" unicode="&#x20a9;" horiz-adv-x="958" 
d="M901 405q7 0 12 -5t5 -12v-43q0 -7 -5 -11.5t-12 -4.5h-118l-71 -294q-2 -7 -8 -12t-13 -5h-54q-6 0 -12 5t-8 12l-81 294h-114l-81 -294q-2 -7 -8 -12t-12 -5h-54q-7 0 -13 5t-8 12l-71 294h-118q-7 0 -12 4.5t-5 11.5v43q0 7 5 12t12 5h99l-84 347q-1 2 -1 5
q0 12 13 12h57q9 0 14 -5t7 -12l79 -347h122l77 287q2 8 6 12.5t14 4.5h38q9 0 13.5 -5t6.5 -12l77 -287h122l79 347q2 7 7 12t14 5h57q13 0 13 -12q0 -3 -1 -5l-84 -347h99zM515 405l-36 131l-36 -131h72zM342 329h-83l38 -168zM699 329h-83l45 -168z" />
    <glyph glyph-name="cid18353" unicode="&#x20ac;" horiz-adv-x="781" 
d="M724 264q14 0 14 -10q0 -5 -1 -7q-9 -59 -34 -103t-63.5 -73t-87 -43.5t-103.5 -14.5q-52 0 -99 15.5t-86.5 46t-69 75.5t-45.5 104h-92q-7 0 -12 4.5t-5 11.5v41q0 7 5 12t12 5h78q-2 17 -3 34t-1 35q0 17 1 34t3 33h-78q-7 0 -12 4.5t-5 11.5v41q0 7 5 12t12 5h92
q16 58 46 103t69 75t86 45.5t99 15.5q107 0 181.5 -58.5t103.5 -166.5q1 -2 1 -6q0 -11 -14 -11h-61q-8 0 -9.5 2.5t-3.5 10.5q-20 72 -71.5 116t-126.5 44q-39 0 -72 -13t-59 -35.5t-45.5 -53.5t-31.5 -68h242q7 0 12 -5t5 -12v-41q0 -7 -5 -11.5t-12 -4.5h-259
q-2 -17 -3.5 -34t-1.5 -34t1.5 -34t3.5 -34h259q7 0 12 -5t5 -12v-41q0 -7 -5 -11.5t-12 -4.5h-243q12 -37 31.5 -68.5t45.5 -54.5t59 -36t73 -13q39 0 74.5 12t62.5 34t44.5 53t20.5 70q1 8 3 10.5t10 2.5h60v0z" />
    <glyph glyph-name="cid00141" unicode="&#x2103;" horiz-adv-x="892" 
d="M151 579q-29 0 -53.5 10t-42.5 28t-28 42t-10 51t10 51t28 42t42.5 28t53.5 10q28 0 52.5 -10t42.5 -28t28.5 -42t10.5 -51t-10.5 -51t-28.5 -42t-42.5 -28t-52.5 -10zM151 632q32 0 54 22t22 56t-22 56t-54 22t-54 -22t-22 -56t22 -56t54 -22zM856 247q-9 -59 -34 -103
t-63.5 -73t-87 -43.5t-103.5 -14.5q-66 0 -124 25t-101 73.5t-68 120t-25 165.5q0 93 25 164t68.5 119t101.5 72.5t123 24.5q107 0 181.5 -58.5t103.5 -166.5q1 -2 1 -6q0 -11 -14 -11h-61q-8 0 -9.5 2.5t-3.5 10.5q-20 72 -71.5 116t-126.5 44q-57 0 -100 -26t-72 -69.5
t-43.5 -100t-14.5 -116.5q0 -61 14.5 -117.5t43 -100t71.5 -70t101 -26.5q39 0 74.5 12t62.5 34t44.5 53t20.5 70q1 8 3 10.5t10 2.5h60q14 0 14 -10q0 -5 -1 -7z" />
    <glyph glyph-name="cid00215" unicode="&#x2109;" horiz-adv-x="832" 
d="M151 579q-29 0 -53.5 10t-42.5 28t-28 42t-10 51t10 51t28 42t42.5 28t53.5 10q28 0 52.5 -10t42.5 -28t28.5 -42t10.5 -51t-10.5 -51t-28.5 -42t-42.5 -28t-52.5 -10zM151 632q32 0 54 22t22 56t-22 56t-54 22t-54 -22t-22 -56t22 -56t54 -22zM419 41q0 -6 -5 -11
t-12 -5h-54q-6 0 -11 5t-5 11v709q0 7 5 12t11 5h428q7 0 11.5 -5t4.5 -12v-37q0 -6 -4.5 -11t-11.5 -5h-357v-268h309q7 0 11.5 -5t4.5 -12v-37q0 -6 -4.5 -11t-11.5 -5h-309v-318z" />
    <glyph glyph-name="cid00590" unicode="&#x2113;" horiz-adv-x="850" 
d="M550 145q8 -5 8 -12q0 -4 -3 -10q-24 -42 -60 -66t-81 -24q-41 0 -76 21t-63 59q-23 -20 -46.5 -38.5t-49.5 -35.5q-5 -3 -9 -3q-5 0 -12 7l-29 38q-4 6 -4 9q0 4 13.5 16t32 26.5t37 28t27.5 22.5q-21 48 -32.5 105t-11.5 123q0 78 15 142.5t43.5 110t69.5 70.5t92 25
q33 0 59 -12.5t44.5 -35t28.5 -53t10 -66.5q0 -103 -57.5 -213t-161.5 -212q16 -28 34.5 -44t38.5 -16q21 0 41 15.5t34 41.5q4 9 13 9q5 0 8 -2zM402 685q-27 0 -49.5 -21t-38 -57t-24.5 -85t-9 -104q0 -45 5.5 -88t16.5 -81q78 84 119 170t41 169q0 19 -4 36.5t-12 31
t-19 21.5t-26 8z" />
    <glyph glyph-name="cid00258" unicode="&#x2116;" horiz-adv-x="1000" 
d="M385 752q0 7 4.5 12t11.5 5h54q6 0 11 -5t5 -12v-711q0 -6 -5 -11t-11 -5h-27q-27 0 -38 24l-243 532v-540q0 -6 -5 -11t-12 -5h-54q-6 0 -11 5t-5 11v711q0 7 5 12t11 5h47q26 0 38 -25l224 -502v510zM532 490q0 62 13.5 113t39.5 87.5t64 56.5t88 20q51 0 89 -20.5
t63.5 -57t38.5 -87.5t13 -112q0 -62 -13.5 -113t-39 -87t-64 -56t-87.5 -20q-46 0 -83.5 18.5t-64.5 54t-42 87t-15 116.5zM622 490q0 -100 31 -152.5t84 -52.5q52 0 83 52.5t31 152.5t-30.5 153.5t-83.5 53.5q-54 0 -84.5 -53.5t-30.5 -153.5zM559 55q-7 0 -12 4.5t-5 11.5
v43q0 7 5 12t12 5h355q7 0 12 -5t5 -12v-43q0 -7 -5 -11.5t-12 -4.5h-355z" />
    <glyph glyph-name="cid00263" unicode="&#x2121;" horiz-adv-x="1000" 
d="M848 776q0 15 14 15h58q15 0 15 -15v-737q0 -14 -15 -14h-58q-14 0 -14 14v737zM457 767q7 0 12 -5t5 -12v-39q0 -7 -5 -11.5t-12 -4.5h-150v-654q0 -6 -5 -11t-12 -5h-53q-7 0 -12 5t-5 11v654h-150q-7 0 -12 4.5t-5 11.5v39q0 7 5 12t12 5h387zM587 85q34 0 55 23
t32 65q2 8 3.5 10.5t9.5 2.5h61q14 0 14 -11q0 -4 -1 -6q-20 -72 -63 -113.5t-111 -41.5q-47 0 -86 18.5t-67.5 53.5t-44 86.5t-15.5 117.5q0 60 15 111t43 88t66 57.5t85 20.5q44 0 80.5 -19.5t62.5 -55t40 -85t14 -109.5v-18q0 -17 -13 -17h-301q7 -91 40 -134.5t81 -43.5
zM585 497q-48 0 -78 -42.5t-39 -122.5h220q-1 34 -8 64.5t-20.5 52.5t-32 35t-42.5 13z" />
    <glyph glyph-name="cid00260" unicode="&#x2122;" 
d="M362 784q7 0 12 -4.5t5 -10.5v-32q0 -6 -5 -10t-12 -4h-127v-358q0 -6 -5 -10t-12 -4h-38q-6 0 -11 4t-5 10v358h-127q-7 0 -12 4t-5 10v32q0 6 5 10.5t12 4.5h325zM484 784q14 0 19.5 -5t9.5 -13l130 -255l136 255q4 8 9 13t20 5h31q6 0 11 -4.5t5 -10.5v-404
q0 -5 -5 -9.5t-11 -4.5h-37q-6 0 -11 4.5t-5 9.5v290l-118 -221q-5 -9 -16 -9h-12q-13 0 -17 9l-117 221v-290q0 -5 -5 -9.5t-11 -4.5h-37q-6 0 -11 4.5t-5 9.5v404q0 6 5 10.5t11 4.5h31z" />
    <glyph glyph-name="cid00643" unicode="&#x2126;" horiz-adv-x="653" 
d="M203 203q-35 15 -65.5 42t-52.5 62.5t-34.5 78t-12.5 89.5q0 67 22 124t61 97.5t92 63.5t114 23q62 0 114.5 -22.5t91 -63t60.5 -97.5t22 -125q0 -45 -13 -87t-36 -78t-54 -63.5t-66 -43.5v-104h128q15 0 15 -15v-41q0 -15 -15 -15h-195q-15 0 -15 15v190q0 12 12 18
q74 32 114.5 87.5t40.5 136.5q0 53 -15.5 97t-43 75.5t-65 49t-80.5 17.5t-80.5 -17.5t-65 -49.5t-43.5 -76t-16 -96q0 -80 42 -137.5t109 -85.5q12 -6 12 -18v-191q0 -15 -15 -15h-191q-15 0 -15 15v41q0 15 15 15h124v104v0z" />
    <glyph glyph-name="cid00142" unicode="&#x212b;" horiz-adv-x="695" 
d="M659 41q0 -1 0.5 -2t0.5 -2q0 -5 -4.5 -8.5t-9.5 -3.5h-59q-7 0 -13 5t-8 11l-66 179h-266q-22 0 -37 -10t-24 -33l-53 -136q-2 -6 -8 -11t-13 -5h-59q-13 0 -13 11q0 3 1 5l234 616q-24 18 -38 45.5t-14 59.5q0 27 10 51t28 42t42.5 28t53.5 10q28 0 52.5 -10t42.5 -28
t28.5 -42t10.5 -51q0 -33 -14 -60.5t-39 -44.5zM344 840q-32 0 -54 -22t-22 -56t22 -56t54 -22t54 22t22 56t-22 56t-54 22zM477 288l-133 360l-139 -377q5 8 16 12.5t31 4.5h225z" />
    <glyph glyph-name="cid00749" unicode="&#x2153;" 
d="M623 829q12 0 12 -12q0 -2 -2 -8l-381 -741q-8 -15 -26 -15h-37q-12 0 -12 11q0 6 2 9l378 741q7 15 26 15h40zM179 742l-83 -54q-3 -2 -9 -2q-9 0 -12 6l-16 24q-2 3 -2 8q0 4 6 9l120 79q10 7 20 7h26q6 0 11 -4t5 -10v-404q0 -6 -5 -9.5t-12 -3.5h-34q-15 0 -15 13
v341zM745 294q32 -13 50 -37.5t18 -60.5q0 -63 -41.5 -100.5t-110.5 -37.5q-68 0 -104 34t-36 99q0 6 4.5 10t10.5 4h36q15 0 15 -14q0 -82 76 -82q36 0 58 23.5t22 62.5q0 38 -21 52.5t-76 14.5q-15 0 -15 14v24q0 5 4.5 9t10.5 4q87 0 87 75q0 29 -19 46.5t-51 17.5
q-30 0 -50.5 -22.5t-20.5 -56.5q0 -14 -16 -14h-32q-16 0 -16 14q0 59 38 94t102 35q28 0 52.5 -9t41.5 -24t27 -36t10 -45q0 -32 -14.5 -56t-39.5 -38z" />
    <glyph glyph-name="cid00750" unicode="&#x2154;" 
d="M683 829q12 0 12 -12q0 -2 -2 -8l-381 -741q-8 -15 -26 -15h-37q-12 0 -12 11q0 6 2 9l378 741q7 15 26 15h40zM345 404q0 -5 -5 -9.5t-11 -4.5h-258q-16 0 -16 17q0 28 16.5 54t41.5 50.5t53.5 47.5t53.5 45.5t41.5 44.5t16.5 44q0 38 -20.5 59t-55.5 21q-77 0 -77 -94
q0 -6 -5 -10t-12 -4h-33q-16 0 -16 14q0 69 37.5 107.5t103.5 38.5q64 0 104 -36t40 -94q0 -72 -81 -132q-20 -15 -40.5 -30.5t-38.5 -31t-30.5 -29.5t-15.5 -26h191q6 0 11 -4t5 -9v-29zM765 294q32 -13 50 -37.5t18 -60.5q0 -63 -41.5 -100.5t-110.5 -37.5q-68 0 -104 34
t-36 99q0 6 4.5 10t10.5 4h36q15 0 15 -14q0 -82 76 -82q36 0 58 23.5t22 62.5q0 38 -21 52.5t-76 14.5q-15 0 -15 14v24q0 5 4.5 9t10.5 4q87 0 87 75q0 29 -19 46.5t-51 17.5q-30 0 -50.5 -22.5t-20.5 -56.5q0 -14 -16 -14h-32q-16 0 -16 14q0 59 38 94t102 35
q28 0 52.5 -9t41.5 -24t27 -36t10 -45q0 -32 -14.5 -56t-39.5 -38z" />
    <glyph glyph-name="cid00753" unicode="&#x215b;" 
d="M189 53q-12 0 -12 11q0 6 2 9l378 741q7 15 26 15h40q12 0 12 -12q0 -2 -2 -8l-381 -741q-8 -15 -26 -15h-37zM229 819q6 0 11 -4t5 -10v-404q0 -6 -5 -9.5t-12 -3.5h-34q-15 0 -15 13v341l-83 -54q-3 -2 -9 -2q-9 0 -12 6l-16 24q-2 3 -2 8q0 4 6 9l120 79q10 7 20 7h26
zM812 195q0 -30 -11 -55t-31 -43.5t-47.5 -28.5t-60.5 -10t-60.5 9.5t-47.5 26.5t-31 40.5t-11 51.5q0 79 63 112q-50 30 -50 89q0 25 10 46.5t28 36.5t42.5 23.5t54.5 8.5q61 0 99 -30.5t38 -79.5q0 -61 -47 -91q62 -36 62 -106zM663 319q32 0 50 17t18 46q0 32 -18 51
t-47 19q-35 0 -54.5 -18.5t-19.5 -51.5q0 -27 20 -45t51 -18zM744 193q0 33 -24 55t-59 22t-58 -21.5t-23 -54.5q0 -38 23 -62t60 -24q35 0 58 24.5t23 60.5z" />
    <glyph glyph-name="cid00754" unicode="&#x215c;" 
d="M669 829q12 0 12 -12q0 -2 -2 -8l-381 -741q-8 -15 -26 -15h-37q-12 0 -12 11q0 6 2 9l378 741q7 15 26 15h40zM359 516q0 -63 -41.5 -100.5t-110.5 -37.5q-68 0 -104 34t-36 99q0 6 4.5 10t10.5 4h36q15 0 15 -14q0 -82 76 -82q36 0 58 23.5t22 62.5q0 38 -21 52.5
t-76 14.5q-15 0 -15 14v24q0 5 4.5 9t10.5 4q87 0 87 75q0 29 -19 46.5t-51 17.5q-30 0 -50.5 -22.5t-20.5 -56.5q0 -14 -16 -14h-32q-16 0 -16 14q0 59 38 94t102 35q28 0 52.5 -9t41.5 -24t27 -36t10 -45q0 -32 -14.5 -56t-39.5 -38q32 -13 50 -37.5t18 -60.5zM770 301
q62 -36 62 -106q0 -30 -11 -55t-31 -43.5t-47.5 -28.5t-60.5 -10t-60.5 9.5t-47.5 26.5t-31 40.5t-11 51.5q0 79 63 112q-50 30 -50 89q0 25 10 46.5t28 36.5t42.5 23.5t54.5 8.5q61 0 99 -30.5t38 -79.5q0 -61 -47 -91zM686 452q-35 0 -54.5 -18.5t-19.5 -51.5
q0 -27 20 -45t51 -18q32 0 50 17t18 46q0 32 -18 51t-47 19zM683 108q35 0 58 24.5t23 60.5q0 33 -24 55t-59 22t-58 -21.5t-23 -54.5q0 -38 23 -62t60 -24z" />
    <glyph glyph-name="cid00755" unicode="&#x215d;" 
d="M832 195q0 -30 -11 -55t-31 -43.5t-47.5 -28.5t-60.5 -10t-60.5 9.5t-47.5 26.5t-31 40.5t-11 51.5q0 79 63 112q-50 30 -50 89q0 25 10 46.5t28 36.5t42.5 23.5t54.5 8.5q61 0 99 -30.5t38 -79.5q0 -61 -47 -91q62 -36 62 -106zM152 651q14 8 34.5 13.5t44.5 5.5
q57 0 93 -38.5t36 -100.5q0 -71 -42 -113.5t-112 -42.5q-55 0 -91 32t-43 86q0 6 3.5 10.5t11.5 4.5h31q14 0 14 -12q5 -34 25 -52.5t54 -18.5q35 0 58.5 28.5t23.5 71.5q0 42 -20.5 68t-53.5 26q-23 0 -44 -12.5t-30 -32.5q-4 -6 -11 -6h-2l-35 3q-14 3 -14 15l27 212
q3 11 15 11h203q6 0 10.5 -4t4.5 -9v-27q0 -5 -4.5 -9t-10.5 -4h-162zM235 53q-12 0 -12 11q0 6 2 9l378 741q7 15 26 15h40q12 0 12 -12q0 -2 -2 -8l-381 -741q-8 -15 -26 -15h-37zM764 193q0 33 -24 55t-59 22t-58 -21.5t-23 -54.5q0 -38 23 -62t60 -24q35 0 58 24.5
t23 60.5zM683 319q32 0 50 17t18 46q0 32 -18 51t-47 19q-35 0 -54.5 -18.5t-19.5 -51.5q0 -27 20 -45t51 -18z" />
    <glyph glyph-name="cid00756" unicode="&#x215e;" 
d="M225 53q-12 0 -12 11q0 6 2 9l378 741q7 15 26 15h40q12 0 12 -12q0 -2 -2 -8l-381 -741q-8 -15 -26 -15h-37zM381 811q6 0 11 -4.5t5 -9.5v-19q0 -5 -1.5 -12t-4.5 -12l-156 -359q-2 -5 -7.5 -8.5t-11.5 -3.5h-35q-13 0 -13 10q0 3 1 5l157 362h-194q-6 0 -11 4t-5 9v24
q0 5 5 9.5t11 4.5h249zM832 195q0 -30 -11 -55t-31 -43.5t-47.5 -28.5t-60.5 -10t-60.5 9.5t-47.5 26.5t-31 40.5t-11 51.5q0 79 63 112q-50 30 -50 89q0 25 10 46.5t28 36.5t42.5 23.5t54.5 8.5q61 0 99 -30.5t38 -79.5q0 -61 -47 -91q62 -36 62 -106zM683 319q32 0 50 17
t18 46q0 32 -18 51t-47 19q-35 0 -54.5 -18.5t-19.5 -51.5q0 -27 20 -45t51 -18zM764 193q0 33 -24 55t-59 22t-58 -21.5t-23 -54.5q0 -38 23 -62t60 -24q35 0 58 24.5t23 60.5z" />
    <glyph glyph-name="cid00461" unicode="&#x2160;" horiz-adv-x="850" 
d="M381 752q0 7 5 12t11 5h54q7 0 12 -5t5 -12v-711q0 -6 -5 -11t-12 -5h-54q-6 0 -11 5t-5 11v711v0z" />
    <glyph glyph-name="cid00462" unicode="&#x2161;" horiz-adv-x="1000" 
d="M356 752q0 7 5 12t11 5h54q7 0 12 -5t5 -12v-711q0 -6 -5 -11t-12 -5h-54q-6 0 -11 5t-5 11v711zM556 752q0 7 5 12t11 5h54q7 0 12 -5t5 -12v-711q0 -6 -5 -11t-12 -5h-54q-6 0 -11 5t-5 11v711z" />
    <glyph glyph-name="cid00463" unicode="&#x2162;" horiz-adv-x="1000" 
d="M256 752q0 7 5 12t11 5h54q7 0 12 -5t5 -12v-711q0 -6 -5 -11t-12 -5h-54q-6 0 -11 5t-5 11v711zM456 752q0 7 5 12t11 5h54q7 0 12 -5t5 -12v-711q0 -6 -5 -11t-12 -5h-54q-6 0 -11 5t-5 11v711zM656 752q0 7 5 12t11 5h54q7 0 12 -5t5 -12v-711q0 -6 -5 -11t-12 -5h-54
q-6 0 -11 5t-5 11v711z" />
    <glyph glyph-name="cid00464" unicode="&#x2163;" horiz-adv-x="1000" 
d="M136 752q0 7 5 12t11 5h54q7 0 12 -5t5 -12v-711q0 -6 -5 -11t-12 -5h-54q-6 0 -11 5t-5 11v711zM576 18q-7 0 -13 5t-8 12l-253 717q-1 1 -1 5q0 12 13 12h59q9 0 14 -5t7 -12l205 -617l204 617q2 7 7 12t14 5h59q5 0 9.5 -4t4.5 -9q0 -1 -0.5 -2t-0.5 -2l-254 -717
q-2 -7 -8 -12t-12 -5h-46z" />
    <glyph glyph-name="cid00465" unicode="&#x2164;" horiz-adv-x="1000" 
d="M477 18q-7 0 -13 5t-8 12l-273 717q-1 2 -1 5q0 12 13 12h59q9 0 14 -5t7 -12l225 -617l224 617q2 7 7 12t14 5h59q5 0 9.5 -4t4.5 -9q0 -1 -0.5 -2t-0.5 -2l-274 -717q-2 -7 -8 -12t-12 -5h-46v0z" />
    <glyph glyph-name="cid00466" unicode="&#x2165;" horiz-adv-x="1000" 
d="M378 18q-7 0 -13 5t-8 12l-253 717q-1 1 -1 5q0 12 13 12h59q9 0 14 -5t7 -12l205 -617l204 617q2 7 7 12t14 5h59q5 0 9.5 -4t4.5 -9q0 -1 -0.5 -2t-0.5 -2l-254 -717q-2 -7 -8 -12t-12 -5h-46zM776 752q0 7 5 12t11 5h54q7 0 12 -5t5 -12v-711q0 -6 -5 -11t-12 -5h-54
q-6 0 -11 5t-5 11v711z" />
    <glyph glyph-name="cid00467" unicode="&#x2166;" horiz-adv-x="1000" 
d="M288 18q-7 0 -13 5t-8 12l-223 717q-1 1 -1 5q0 12 13 12h57q9 0 14 -5t7 -12l177 -621l176 621q2 7 7 12t14 5h57q5 0 9.5 -4t4.5 -9q0 -1 -0.5 -2t-0.5 -2l-224 -717q-2 -7 -8 -12t-12 -5h-46zM656 752q0 7 5 12t11 5h54q7 0 12 -5t5 -12v-711q0 -6 -5 -11t-12 -5h-54
q-6 0 -11 5t-5 11v711zM846 752q0 7 5 12t11 5h54q7 0 12 -5t5 -12v-711q0 -6 -5 -11t-12 -5h-54q-6 0 -11 5t-5 11v711z" />
    <glyph glyph-name="cid00468" unicode="&#x2167;" horiz-adv-x="1000" 
d="M225 18q-7 0 -13 5t-8 12l-160 717q0 1 -0.5 2t-0.5 2q0 13 13 13h55q9 0 14 -5t7 -12l116 -611l115 611q2 7 7 12t14 5h55q13 0 13 -14v-3l-161 -717q-2 -7 -8 -12t-12 -5h-46zM859 752q0 7 5 12t11 5h50q7 0 12 -5t5 -12v-711q0 -6 -5 -11t-12 -5h-50q-6 0 -11 5t-5 11
v711zM689 752q0 7 5 12t11 5h50q7 0 12 -5t5 -12v-711q0 -6 -5 -11t-12 -5h-50q-6 0 -11 5t-5 11v711zM519 752q0 7 5 12t11 5h50q7 0 12 -5t5 -12v-711q0 -6 -5 -11t-12 -5h-50q-6 0 -11 5t-5 11v711z" />
    <glyph glyph-name="cid00469" unicode="&#x2168;" horiz-adv-x="1000" 
d="M136 752q0 7 5 12t11 5h54q7 0 12 -5t5 -12v-711q0 -6 -5 -11t-12 -5h-54q-6 0 -11 5t-5 11v711zM842 45q1 -2 1 -6q0 -14 -16 -14h-63q-12 0 -21 15l-177 291l-176 -291q-9 -15 -25 -15h-61q-7 0 -11 3.5t-4 8.5q0 3 3 8l223 361l-211 342q-2 3 -2 8q0 6 5 9.5t12 3.5
h61q17 0 24 -16l163 -271l162 271q7 16 24 16h60q7 0 12 -3.5t5 -9.5q0 -2 -2 -8l-211 -341z" />
    <glyph glyph-name="cid00470" unicode="&#x2169;" horiz-adv-x="1000" 
d="M796 45q1 -2 1 -6q0 -14 -16 -14h-63q-12 0 -21 15l-197 291l-196 -291q-11 -15 -25 -15h-61q-15 0 -15 12q0 3 3 8l243 361l-231 342q-2 3 -2 8q0 6 5 9.5t12 3.5h61q17 0 24 -16l183 -271l182 271q7 16 24 16h60q7 0 12 -3.5t5 -9.5q0 -2 -2 -8l-231 -341z" />
    <glyph glyph-name="cid00451" unicode="&#x2170;" horiz-adv-x="1000" 
d="M457 753q0 14 14 14h58q15 0 15 -14v-78q0 -14 -15 -14h-58q-14 0 -14 14v78zM457 542q0 14 14 14h58q15 0 15 -14v-503q0 -14 -15 -14h-58q-14 0 -14 14v503z" />
    <glyph glyph-name="cid00452" unicode="&#x2171;" horiz-adv-x="1000" 
d="M357 753q0 14 14 14h58q15 0 15 -14v-78q0 -14 -15 -14h-58q-14 0 -14 14v78zM557 753q0 14 14 14h58q15 0 15 -14v-78q0 -14 -15 -14h-58q-14 0 -14 14v78zM357 542q0 14 14 14h58q15 0 15 -14v-503q0 -14 -15 -14h-58q-14 0 -14 14v503zM557 542q0 14 14 14h58
q15 0 15 -14v-503q0 -14 -15 -14h-58q-14 0 -14 14v503z" />
    <glyph glyph-name="cid00453" unicode="&#x2172;" horiz-adv-x="1000" 
d="M257 753q0 14 14 14h58q15 0 15 -14v-78q0 -14 -15 -14h-58q-14 0 -14 14v78zM457 753q0 14 14 14h58q15 0 15 -14v-78q0 -14 -15 -14h-58q-14 0 -14 14v78zM657 753q0 14 14 14h58q15 0 15 -14v-78q0 -14 -15 -14h-58q-14 0 -14 14v78zM257 542q0 14 14 14h58
q15 0 15 -14v-503q0 -14 -15 -14h-58q-14 0 -14 14v503zM457 542q0 14 14 14h58q15 0 15 -14v-503q0 -14 -15 -14h-58q-14 0 -14 14v503zM657 542q0 14 14 14h58q15 0 15 -14v-503q0 -14 -15 -14h-58q-14 0 -14 14v503z" />
    <glyph glyph-name="cid00454" unicode="&#x2173;" horiz-adv-x="1000" 
d="M217 753q0 14 14 14h58q15 0 15 -14v-78q0 -14 -15 -14h-58q-14 0 -14 14v78zM217 542q0 14 14 14h58q15 0 15 -14v-503q0 -14 -15 -14h-58q-14 0 -14 14v503zM650 33q-6 -15 -19 -15h-54q-13 0 -19 15l-182 507q-2 6 -2 7q0 9 12 9h70q9 0 13 -4t6 -12l129 -408l129 408
q2 8 6 12t13 4h70q11 0 11 -9q0 -4 -1 -7z" />
    <glyph glyph-name="cid00455" unicode="&#x2174;" horiz-adv-x="1000" 
d="M546 33q-5 -15 -19 -15h-54q-15 0 -19 15l-197 507q-1 3 -1 7q0 9 11 9h70q9 0 13 -4t6 -12l144 -408l144 408q2 8 6 12t13 4h70q11 0 11 -9q0 -4 -1 -7l-197 -507v0z" />
    <glyph glyph-name="cid00456" unicode="&#x2175;" horiz-adv-x="1000" 
d="M696 753q0 14 14 14h58q15 0 15 -14v-78q0 -14 -15 -14h-58q-14 0 -14 14v78zM442 33q-6 -15 -19 -15h-54q-13 0 -19 15l-182 507q-2 6 -2 7q0 9 12 9h70q9 0 13 -4t6 -12l129 -408l129 408q2 8 6 12t13 4h70q11 0 11 -9q0 -4 -1 -7zM696 542q0 14 14 14h58q15 0 15 -14
v-503q0 -14 -15 -14h-58q-14 0 -14 14v503z" />
    <glyph glyph-name="cid00457" unicode="&#x2176;" horiz-adv-x="1000" 
d="M606 753q0 14 14 14h58q15 0 15 -14v-78q0 -14 -15 -14h-58q-14 0 -14 14v78zM786 753q0 14 14 14h58q15 0 15 -14v-78q0 -14 -15 -14h-58q-14 0 -14 14v78zM362 33q-5 -15 -19 -15h-54q-15 0 -19 15l-172 507q-2 6 -2 7q0 9 12 9h70q9 0 13 -4t6 -12l119 -408l119 408
q2 8 6 12t13 4h70q11 0 11 -9q0 -4 -1 -7zM606 542q0 14 14 14h58q15 0 15 -14v-503q0 -14 -15 -14h-58q-14 0 -14 14v503zM786 542q0 14 14 14h58q15 0 15 -14v-503q0 -14 -15 -14h-58q-14 0 -14 14v503z" />
    <glyph glyph-name="cid00458" unicode="&#x2177;" horiz-adv-x="1000" 
d="M516 753q0 14 14 14h58q15 0 15 -14v-78q0 -14 -15 -14h-58q-14 0 -14 14v78zM676 753q0 14 14 14h58q15 0 15 -14v-78q0 -14 -15 -14h-58q-14 0 -14 14v78zM836 753q0 14 14 14h58q15 0 15 -14v-78q0 -14 -15 -14h-58q-14 0 -14 14v78zM292 33q-5 -15 -19 -15h-54
q-15 0 -19 15l-152 507q-1 3 -1 7q0 9 11 9h70q9 0 13 -4t6 -12l99 -408l99 408q2 8 6 12t13 4h70q11 0 11 -9q0 -4 -1 -7zM516 542q0 14 14 14h58q15 0 15 -14v-503q0 -14 -15 -14h-58q-14 0 -14 14v503zM676 542q0 14 14 14h58q15 0 15 -14v-503q0 -14 -15 -14h-58
q-14 0 -14 14v503zM836 542q0 14 14 14h58q15 0 15 -14v-503q0 -14 -15 -14h-58q-14 0 -14 14v503z" />
    <glyph glyph-name="cid00459" unicode="&#x2178;" horiz-adv-x="1000" 
d="M217 753q0 14 14 14h58q15 0 15 -14v-78q0 -14 -15 -14h-58q-14 0 -14 14v78zM217 542q0 14 14 14h58q15 0 15 -14v-503q0 -14 -15 -14h-58q-14 0 -14 14v503zM822 45q2 -4 2 -7q0 -5 -4.5 -9t-10.5 -4h-63q-13 0 -23 15l-125 190l-124 -190q-11 -15 -27 -15h-61
q-13 0 -13 10q0 5 3 10l171 258l-153 232q-3 4 -3 10q0 11 13 11h61q7 0 15.5 -4t13.5 -12l104 -163l105 163q5 8 13.5 12t15.5 4h60q13 0 13 -11q0 -6 -3 -10l-152 -231z" />
    <glyph glyph-name="cid00460" unicode="&#x2179;" horiz-adv-x="1000" 
d="M733 45q2 -2 2 -7t-4.5 -9t-10.5 -4h-63q-13 0 -23 15l-135 190l-134 -190q-11 -15 -27 -15h-61q-14 0 -14 11q0 3 4 9l181 258l-163 232q-3 4 -3 10q0 11 13 11h61q7 0 15.5 -4.5t13.5 -11.5l114 -163l115 163q5 7 13.5 11.5t15.5 4.5h60q13 0 13 -11q0 -6 -3 -10
l-162 -231z" />
    <glyph glyph-name="cid00171" unicode="&#x2190;" horiz-adv-x="1000" 
d="M233 357l119 -110l-46 -49l-204 195l204 195l46 -49l-119 -110h673v-72h-673z" />
    <glyph glyph-name="cid00172" unicode="&#x2191;" horiz-adv-x="1000" 
d="M468 672l-116 -123l-47 45l195 205l195 -205l-47 -45l-116 123v-681h-64v681z" />
    <glyph glyph-name="cid00170" unicode="&#x2192;" horiz-adv-x="1000" 
d="M94 429h673l-119 110l46 49l204 -195l-204 -195l-46 49l119 110h-673v72z" />
    <glyph glyph-name="cid00173" unicode="&#x2193;" horiz-adv-x="1000" 
d="M532 811v-681l116 123l47 -45l-195 -205l-195 205l47 45l116 -123v681h64z" />
    <glyph glyph-name="cid00174" unicode="&#x2194;" horiz-adv-x="1000" 
d="M306 588l46 -49l-119 -110h534l-119 110l46 49l204 -195l-204 -195l-46 49l119 110h-534l119 -110l-46 -49l-204 195z" />
    <glyph glyph-name="cid00247" unicode="&#x2195;" horiz-adv-x="1000" 
d="M695 594l-47 -45l-116 123v-558l116 123l47 -45l-195 -205l-195 205l47 45l116 -123v558l-116 -123l-47 45l195 205z" />
    <glyph glyph-name="cid00250" unicode="&#x2196;" horiz-adv-x="1000" 
d="M291 562v-173h-71v281h277v-65h-162l477 -476l-48 -48z" />
    <glyph glyph-name="cid00248" unicode="&#x2197;" horiz-adv-x="1000" 
d="M228 129l477 469h-165v79h273v-285h-57v170l-480 -481z" />
    <glyph glyph-name="cid00251" unicode="&#x2198;" horiz-adv-x="1000" 
d="M749 184v173h71v-281h-277v65h162l-477 476l48 48z" />
    <glyph glyph-name="cid00249" unicode="&#x2199;" horiz-adv-x="1000" 
d="M812 617l-477 -469h165v-79h-273v285h57v-170l480 481z" />
    <glyph glyph-name="cid00195" unicode="&#x21d2;" 
d="M750 390l-47 51h-649v74h577l-87 90l49 47l261 -262l-260 -264l-51 49l89 93h-578v77h653z" />
    <glyph glyph-name="cid00196" unicode="&#x21d4;" 
d="M357 181l-54 -57l-259 267l260 267l53 -52l-89 -91h364l-89 92l53 48l260 -265l-257 -266l-54 56l89 88h-367zM756 391l-49 50h-512l-47 -50l44 -46h515z" />
    <glyph glyph-name="cid00197" unicode="&#x2200;" horiz-adv-x="730" 
d="M372 13h-17l-300 756h93l64 -168h306l64 168h91zM489 532h-250l114 -307h22z" />
    <glyph glyph-name="cid00151" unicode="&#x2202;" horiz-adv-x="552" 
d="M84 529q12 19 32 42.5t48.5 43.5t65.5 33.5t82 13.5q46 0 83.5 -16.5t64 -46.5t41 -72.5t14.5 -93.5q0 -66 -28.5 -131t-75 -117.5t-105.5 -85t-121 -32.5q-65 0 -105.5 32.5t-40.5 89.5q0 21 8 44.5t22.5 46.5t34.5 45t43 39q52 34 121 53.5t138 20.5l17 -9
q0 86 -33.5 127.5t-96.5 41.5q-38 0 -76.5 -23.5t-89.5 -77.5zM201 315q-35 -26 -57 -61.5t-22 -67.5q0 -28 17 -44.5t46 -16.5q33 0 66.5 17t63.5 48t55 73t41 93l-20 21q-110 -6 -190 -62z" />
    <glyph glyph-name="cid00198" unicode="&#x2203;" horiz-adv-x="576" 
d="M507 13h-396v73h301v260h-266v71h266v281h-321v71h416v-756z" />
    <glyph glyph-name="cid00152" unicode="&#x2207;" horiz-adv-x="832" 
d="M66 619h685l-342 -581zM630 553h-442l221 -378z" />
    <glyph glyph-name="cid00184" unicode="&#x2208;" horiz-adv-x="832" 
d="M183 334q26 -148 174 -148h369v-65h-375q-54 0 -99 17.5t-77 49.5t-49.5 77t-17.5 100q0 54 18.5 99.5t50.5 78.5t76.5 52t96.5 19h374v-63h-370q-34 0 -64 -11.5t-53 -31.5t-37.5 -48t-17.5 -61h544v-65h-543v0z" />
    <glyph glyph-name="cid00185" unicode="&#x220b;" horiz-adv-x="832" 
d="M654 397q-2 33 -16 61t-37 48.5t-53.5 32t-65.5 11.5h-373v64h378q51 0 95.5 -19t76.5 -52.5t50.5 -79t18.5 -98.5q0 -54 -17.5 -99.5t-49.5 -77.5t-76.5 -50t-98.5 -18h-379v66h372q70 0 117 39.5t58 108.5h-546v63h546z" />
    <glyph glyph-name="cid00213" unicode="&#x220f;" horiz-adv-x="826" 
d="M519 58v568h-212v-568h-78v568h-104v60h575v-60h-103v-568h-78z" />
    <glyph glyph-name="cid00212" unicode="&#x2211;" horiz-adv-x="826" 
d="M433 350l-289 296v50h529v-49h-412l276 -273l-265 -264h411v-77h-540v25z" />
    <glyph glyph-name="cid00178" unicode="&#x221a;" horiz-adv-x="832" 
d="M136 423l157 -290l258 636h220v-57h-168l-309 -729l-175 317l-40 -59l-35 53z" />
    <glyph glyph-name="cid00180" unicode="&#x221d;" horiz-adv-x="832" 
d="M682 253q-22 -22 -53 -34t-64 -12q-76 0 -136 72h-30q-29 -35 -64.5 -53.5t-74.5 -18.5q-34 0 -63.5 13t-51.5 35t-35 51.5t-13 63.5t12.5 64t34.5 52t52 34.5t64 12.5q71 0 136 -75l31 1q29 37 64 55.5t74 18.5q27 0 53 -8.5t46 -23.5l-35 -54q-31 27 -64 27
q-31 0 -62 -27t-50 -71v-12q20 -45 49 -69.5t63 -24.5q41 0 71 30zM164 370q0 -21 7.5 -39.5t21 -32.5t30.5 -22t37 -8q32 0 62 25t53 70v14q-52 97 -115 97q-19 0 -36.5 -8.5t-30.5 -23t-21 -33t-8 -39.5z" />
    <glyph glyph-name="cid00136" unicode="&#x221e;" horiz-adv-x="832" 
d="M260 630q71 0 136 -75l31 1q29 37 64 55.5t74 18.5q35 0 65 -12.5t52.5 -34.5t35 -52t12.5 -64t-13 -64t-35 -52t-52.5 -34.5t-64.5 -12.5q-76 0 -136 72h-30q-29 -35 -64.5 -53.5t-74.5 -18.5q-34 0 -63.5 13t-51.5 35t-35 51.5t-13 63.5t12.5 64t34.5 52t52 34.5
t64 12.5zM164 467q0 -21 7.5 -39.5t21 -32.5t30.5 -22t37 -8q32 0 62 25t53 70v14q-52 97 -115 97q-19 0 -36.5 -8.5t-30.5 -23t-21 -33t-8 -39.5zM664 467q0 21 -8 40t-21.5 33.5t-31.5 22.5t-38 8q-31 0 -62 -27t-50 -71v-12q20 -45 49 -69.5t63 -24.5q21 0 39 7.5
t31.5 21t21 32t7.5 39.5z" />
    <glyph glyph-name="cid00148" unicode="&#x2220;" horiz-adv-x="832" 
d="M730 141h-586q-40 0 -40 25q0 5 3.5 12.5t12.5 18.5l519 523l50 -45l-468 -472h509v-62z" />
    <glyph glyph-name="cid00192" unicode="&#x2227;" horiz-adv-x="832" 
d="M382 632q8 17 33 17q22 0 34 -18l250 -505l-61 -28l-222 450l-223 -456l-60 36z" />
    <glyph glyph-name="cid00193" unicode="&#x2228;" horiz-adv-x="832" 
d="M417 215l222 450l61 -30l-251 -505q-8 -18 -33 -18t-34 20l-249 501l61 36z" />
    <glyph glyph-name="cid00191" unicode="&#x2229;" horiz-adv-x="832" 
d="M167 444q0 51 18.5 94t51.5 74t78 48.5t99 17.5t99 -17t77.5 -47t51 -71.5t18.5 -90.5v-385h-74v368q0 42 -12.5 76t-35 58t-54 37.5t-70.5 13.5q-38 0 -70 -13.5t-55 -37.5t-36 -57t-13 -72v-368h-73v372v0z" />
    <glyph glyph-name="cid00190" unicode="&#x222a;" horiz-adv-x="832" 
d="M241 304q0 -39 13 -72.5t36 -58t54.5 -38t69.5 -13.5q39 0 71 13.5t55.5 38.5t36.5 59t13 75v367h70v-385q0 -49 -18.5 -90.5t-51 -72t-77.5 -47.5t-99 -17t-99.5 17.5t-78 49t-51 75t-18.5 95.5v370h74v-366v0z" />
    <glyph glyph-name="cid00182" unicode="&#x222b;" horiz-adv-x="832" 
d="M416 151q-9 -60 -48.5 -88.5t-114.5 -28.5v64q42 0 62 13t28 43l63 434q18 122 139 122h13.5t14.5 -1v-66q-6 1 -11.5 1.5t-10.5 0.5q-64 0 -72 -64l-63 -430v0z" />
    <glyph glyph-name="cid00183" unicode="&#x222c;" horiz-adv-x="832" 
d="M307 152q-11 -61 -50 -89.5t-114 -28.5v64q85 0 90 58l63 430q19 124 140 124h13.5t14.5 -1v-66q-7 1 -13 1.5t-11 0.5q-63 0 -71 -64zM528 151q-15 -117 -163 -117v64q43 0 64 14t26 44l64 432q18 122 140 122h12.5t13.5 -1v-66q-7 1 -13 1.5t-11 0.5q-63 0 -71 -64z
" />
    <glyph glyph-name="cid00211" unicode="&#x222e;" horiz-adv-x="826" 
d="M596 392q0 -68 -44 -111t-121 -50l-9 -77q-3 -27 -10 -49.5t-22.5 -39t-42.5 -26.5t-71 -11v59q31 5 44 16.5t18 38.5l13 95q-59 15 -90 55t-31 100q0 70 45 114t120 48l6 46q8 66 48 98t106 32h10v-61q-35 0 -55 -17t-26 -55l-4 -24q-1 -5 -1 -14l10 -18
q52 -19 79.5 -57t27.5 -92zM299 390q0 -34 15.5 -59t44.5 -38l29 208q-42 -8 -65.5 -38t-23.5 -73zM440 280q42 12 64 40.5t22 70.5q0 66 -57 99z" />
    <glyph glyph-name="cid00137" unicode="&#x2234;" horiz-adv-x="792" 
d="M391 538q-11 0 -21 5.5t-17.5 14t-12.5 19.5t-5 23q0 23 17.5 41t39.5 18q24 0 41.5 -17.5t17.5 -43.5q0 -22 -19 -41t-41 -19zM191 202q-20 0 -35.5 19t-15.5 43q0 23 16.5 41t36.5 18q25 0 40.5 -17t15.5 -43t-16.5 -43.5t-41.5 -17.5zM598 202q-23 0 -39 18.5
t-16 43.5q0 23 17 41t38 18q23 0 38 -17t15 -43q0 -25 -16 -43t-37 -18z" />
    <glyph glyph-name="cid00181" unicode="&#x2235;" horiz-adv-x="792" 
d="M191 642q25 0 41.5 -17t16.5 -43q0 -27 -15 -43.5t-41 -16.5q-21 0 -37 18t-16 41t15.5 42t35.5 19zM598 642q22 0 37.5 -17.5t15.5 -42.5q0 -26 -15 -43t-38 -17q-21 0 -38 18t-17 41q0 25 16 43t39 18zM391 307q22 0 41 -19t19 -41q0 -26 -17.5 -44t-41.5 -18
q-22 0 -39.5 18t-17.5 41q0 12 5 23t13 20t18 14.5t20 5.5z" />
    <glyph glyph-name="cid00179" unicode="&#x223d;" horiz-adv-x="858" 
d="M236 474q-2 4 -2 5q0 2 2 2t2 -3q0 -2 -1 -4v-1q16 -21 36 -39.5t49 -18.5q20 0 47.5 11t56.5 23.5t57.5 23.5t51.5 11q71 0 109 -71q2 -4 2 -7q0 -1 -0.5 -2t-0.5 -2l-23 -57q1 0 2.5 -2.5t0.5 -2.5l-2 1q-1 0 -1 -0.5t-1 -0.5h-1q0 2 2 4v1q-32 56 -82 56
q-37 0 -64.5 -11t-51.5 -23.5t-48 -23.5t-53 -11q-31 0 -55.5 17t-52.5 55q-3 3 -3 7q0 2 1 4l24 58q-1 0 -1 1z" />
    <glyph glyph-name="cid00154" unicode="&#x2252;" horiz-adv-x="850" 
d="M266 653q-6 0 -10.5 4.5t-4.5 10.5v65q0 6 4.5 10.5t10.5 4.5h56q6 0 10.5 -4.5t4.5 -10.5v-65q0 -6 -4.5 -10.5t-10.5 -4.5h-56zM197 485q-7 0 -12 4.5t-5 11.5v41q0 7 5 12t12 5h456q7 0 12 -5t5 -12v-41q0 -7 -5 -11.5t-12 -4.5h-456zM197 275q-7 0 -12 4.5t-5 11.5
v41q0 7 5 12t12 5h456q7 0 12 -5t5 -12v-41q0 -7 -5 -11.5t-12 -4.5h-456zM526 93q-6 0 -10.5 4.5t-4.5 10.5v65q0 6 4.5 10.5t10.5 4.5h56q6 0 10.5 -4.5t4.5 -10.5v-65q0 -6 -4.5 -10.5t-10.5 -4.5h-56z" />
    <glyph glyph-name="cid00133" unicode="&#x2260;" horiz-adv-x="850" 
d="M491 485l-50 -136h212q7 0 12 -5t5 -12v-41q0 -7 -5 -11.5t-12 -4.5h-239l-54 -146q-3 -10 -14 -10q-3 0 -5 1l-34 11q-5 1 -7.5 5t-2.5 9q0 3 1 5l46 125h-147q-7 0 -12 4.5t-5 11.5v41q0 7 5 12t12 5h174l50 136h-224q-7 0 -12 4.5t-5 11.5v41q0 7 5 12t12 5h251
l43 118q3 10 14 10q3 0 5 -1l34 -12q4 -2 7 -6t3 -9q0 -1 -0.5 -2t-0.5 -2l-35 -96h135q7 0 12 -5t5 -12v-41q0 -7 -5 -11.5t-12 -4.5h-162z" />
    <glyph glyph-name="cid00153" unicode="&#x2261;" horiz-adv-x="698" 
d="M660 544v-67h-634v67h634zM660 393v-66h-634v66h634zM660 243v-67h-634v67h634z" />
    <glyph glyph-name="cid00134" unicode="&#x2264;" horiz-adv-x="600" 
d="M499 345q8 -3 8 -13v-44q0 -8 -4.5 -13.5t-12.5 -5.5q-5 0 -8 2l-381 198q-8 3 -8 13v34q0 10 8 13l381 177q6 2 8 2q7 0 12 -5.5t5 -13.5v-44q0 -10 -8 -13l-302 -137zM110 115q-7 0 -12 4.5t-5 11.5v43q0 7 5 12t12 5h380q7 0 12 -5t5 -12v-43q0 -7 -5 -11.5t-12 -4.5
h-380z" />
    <glyph glyph-name="cid00135" unicode="&#x2265;" horiz-adv-x="600" 
d="M101 632q-8 3 -8 13v44q0 8 4.5 13.5t12.5 5.5q2 0 8 -2l381 -177q8 -3 8 -13v-34q0 -10 -8 -13l-381 -198q-3 -2 -8 -2q-8 0 -12.5 5.5t-4.5 13.5v44q0 10 8 13l302 150zM110 115q-7 0 -12 4.5t-5 11.5v43q0 7 5 12t12 5h380q7 0 12 -5t5 -12v-43q0 -7 -5 -11.5
t-12 -4.5h-380z" />
    <glyph glyph-name="cid00188" unicode="&#x2282;" horiz-adv-x="832" 
d="M352 548q-36 0 -67.5 -14t-54.5 -38t-36 -57t-13 -72t13 -72t36 -57t54.5 -37.5t69.5 -13.5h370v-64h-385q-48 0 -90 18.5t-73 51.5t-48.5 77.5t-17.5 96.5t18 97t50 78t75.5 51.5t93.5 18.5h374v-64h-369v0z" />
    <glyph glyph-name="cid00189" unicode="&#x2283;" horiz-adv-x="832" 
d="M488 612q50 0 93 -19t75 -52t50 -77.5t18 -96.5q0 -51 -18 -95.5t-48.5 -77.5t-72 -52t-89.5 -19h-386v64h369q38 0 69.5 13.5t54.5 37.5t36 57t13 72q0 38 -13 71t-35.5 57.5t-53.5 38.5t-66 14h-373v64h377v0z" />
    <glyph glyph-name="cid00186" unicode="&#x2286;" horiz-adv-x="832" 
d="M350 595q-38 0 -69 -11.5t-53 -32.5t-34.5 -50.5t-12.5 -65.5q0 -76 45 -118t127 -42h368v-62h-392q-49 0 -89.5 16.5t-70 45.5t-45.5 70t-16 90q0 48 17.5 88t49 69t75 45.5t94.5 16.5h374v-59h-368zM732 81h-630v59h630v-59z" />
    <glyph glyph-name="cid00187" unicode="&#x2287;" horiz-adv-x="832" 
d="M491 654q51 0 94.5 -16.5t74.5 -45.5t48.5 -69t17.5 -88t-16.5 -88.5t-46 -70.5t-69.5 -46.5t-87 -16.5h-396v62h371q81 0 125.5 41.5t44.5 118.5q0 35 -12.5 64.5t-34.5 50.5t-53 33t-67 12h-370v59h376zM102 140h630v-59h-630v59z" />
    <glyph glyph-name="cid00227" unicode="&#x2299;" horiz-adv-x="1000" 
d="M501 760q78 0 146.5 -29.5t119.5 -80.5t81 -119.5t30 -146.5t-30 -146.5t-81 -119.5t-119.5 -80t-146.5 -29q-79 0 -148 29t-120.5 80t-81 119.5t-29.5 146.5t30 146.5t81.5 119.5t120.5 80.5t147 29.5zM501 717q-70 0 -131 -26t-106.5 -71t-72 -105.5t-26.5 -130.5
q0 -69 26.5 -130t72 -106t107 -71t130.5 -26t130 26t106 71t71.5 106t26.5 130t-26 129.5t-71.5 105.5t-106.5 71.5t-130 26.5zM501 529q30 0 56 -11.5t45.5 -31.5t31 -46.5t11.5 -56.5q0 -29 -11.5 -55t-31 -45.5t-46 -31t-55.5 -11.5q-30 0 -56 11.5t-46 31t-31.5 45.5
t-11.5 55q0 30 11.5 56.5t31.5 46.5t46 31.5t56 11.5z" />
    <glyph glyph-name="cid00227" unicode="&#x25c9;" horiz-adv-x="1000" 
d="M501 760q78 0 146.5 -29.5t119.5 -80.5t81 -119.5t30 -146.5t-30 -146.5t-81 -119.5t-119.5 -80t-146.5 -29q-79 0 -148 29t-120.5 80t-81 119.5t-29.5 146.5t30 146.5t81.5 119.5t120.5 80.5t147 29.5zM501 717q-70 0 -131 -26t-106.5 -71t-72 -105.5t-26.5 -130.5
q0 -69 26.5 -130t72 -106t107 -71t130.5 -26t130 26t106 71t71.5 106t26.5 130t-26 129.5t-71.5 105.5t-106.5 71.5t-130 26.5zM501 529q30 0 56 -11.5t45.5 -31.5t31 -46.5t11.5 -56.5q0 -29 -11.5 -55t-31 -45.5t-46 -31t-55.5 -11.5q-30 0 -56 11.5t-46 31t-31.5 45.5
t-11.5 55q0 30 11.5 56.5t31.5 46.5t46 31.5t56 11.5z" />
    <glyph glyph-name="cid00149" unicode="&#x22a5;" horiz-adv-x="832" 
d="M378 705h72v-510h276v-62h-625v62h277v510z" />
    <glyph glyph-name="cid00150" unicode="&#x2312;" horiz-adv-x="832" 
d="M97 143q9 60 38 113.5t71 93.5t95 63t111 23t111.5 -23.5t95.5 -64t71 -93.5t38 -112h-73q-9 48 -31.5 89.5t-55.5 72t-73 48t-83 17.5q-44 0 -83.5 -17t-71.5 -47t-54.5 -71.5t-32.5 -91.5h-73v0z" />
    <glyph glyph-name="cid00733" unicode="&#x2460;" horiz-adv-x="1000" 
d="M500 20q-83 0 -153.5 29t-123 80t-82 120.5t-29.5 150.5t29.5 150.5t82 120.5t123 80t153.5 29q82 0 153 -29t123.5 -80t82 -120.5t29.5 -150.5t-29.5 -150.5t-82 -120.5t-123.5 -80t-153 -29zM500 82q69 0 127.5 23.5t100.5 66t66 101t24 127.5t-24 127.5t-66 101
t-100.5 66t-127.5 23.5t-127.5 -23.5t-100.5 -66t-66 -101t-24 -127.5t24 -127.5t66 -101t100.5 -66t127.5 -23.5zM548 618q7 0 7 -4v-429q0 -4 -7 -4h-66q-6 0 -6 4v346l-71 -52q-3 -1 -6 -1t-3 1l-32 43q-2 2 -2 4t3 4l111 83q9 5 14 5h58z" />
    <glyph glyph-name="cid00734" unicode="&#x2461;" horiz-adv-x="1000" 
d="M500 20q-83 0 -153.5 29t-123 80t-82 120.5t-29.5 150.5t29.5 150.5t82 120.5t123 80t153.5 29q82 0 153 -29t123.5 -80t82 -120.5t29.5 -150.5t-29.5 -150.5t-82 -120.5t-123.5 -80t-153 -29zM500 82q69 0 127.5 23.5t100.5 66t66 101t24 127.5t-24 127.5t-66 101
t-100.5 66t-127.5 23.5t-127.5 -23.5t-100.5 -66t-66 -101t-24 -127.5t24 -127.5t66 -101t100.5 -66t127.5 -23.5zM647 244q7 0 7 -4v-48q0 -5 -7 -5h-289q-6 0 -6 8q0 38 16.5 68t41.5 54.5t54 45t54 41.5t41.5 43.5t16.5 50.5q0 32 -20 54t-50 22q-73 0 -73 -91
q0 -4 -7 -4h-64q-5 0 -5.5 1t-0.5 3q0 70 38 107.5t109 37.5q68 0 109 -35.5t41 -92.5q0 -38 -17 -68t-44 -55.5t-60.5 -48.5t-66.5 -48q-13 -9 -13 -31v-5h195z" />
    <glyph glyph-name="cid00735" unicode="&#x2462;" horiz-adv-x="1000" 
d="M500 780q82 0 153 -29t123.5 -80t82 -120.5t29.5 -150.5t-29.5 -150.5t-82 -120.5t-123.5 -80t-153 -29q-83 0 -153.5 29t-123 80t-82 120.5t-29.5 150.5t29.5 150.5t82 120.5t123 80t153.5 29zM500 82q69 0 127.5 23.5t100.5 66t66 101t24 127.5t-24 127.5t-66 101
t-100.5 66t-127.5 23.5t-127.5 -23.5t-100.5 -66t-66 -101t-24 -127.5t24 -127.5t66 -101t100.5 -66t127.5 -23.5zM604 418q27 -17 41 -47t14 -60q0 -63 -42 -99.5t-116 -36.5q-146 0 -146 131q0 4 6 4h65q6 0 6 -4q0 -77 71 -77q33 0 54 22.5t21 57.5q0 40 -23.5 57.5
t-76.5 17.5q-5 0 -5.5 1t-0.5 4v40q0 3 6 3q42 0 65.5 18.5t23.5 53.5q0 31 -17.5 49.5t-46.5 18.5q-32 0 -49 -19t-17 -54q0 -5 -7 -5h-61q-7 0 -7 5q0 59 38.5 92.5t107.5 33.5q30 0 55 -8.5t43 -24t28.5 -36.5t10.5 -45q0 -26 -10.5 -51.5t-30.5 -41.5z" />
    <glyph glyph-name="cid00736" unicode="&#x2463;" horiz-adv-x="1000" 
d="M500 20q-83 0 -153.5 29t-123 80t-82 120.5t-29.5 150.5t29.5 150.5t82 120.5t123 80t153.5 29q82 0 153 -29t123.5 -80t82 -120.5t29.5 -150.5t-29.5 -150.5t-82 -120.5t-123.5 -80t-153 -29zM500 82q69 0 127.5 23.5t100.5 66t66 101t24 127.5t-24 127.5t-66 101
t-100.5 66t-127.5 23.5t-127.5 -23.5t-100.5 -66t-66 -101t-24 -127.5t24 -127.5t66 -101t100.5 -66t127.5 -23.5zM634 283q0 -4 -5 -4h-45v-96q0 -3 -6 -3h-67q-5 0 -5 3v96h-170q-5 0 -5 4v54q0 4 2 6l165 271q2 4 7 4h73q6 0 6 -3v-279h45q5 0 5 -3v-50zM394 336h112v181
z" />
    <glyph glyph-name="cid00737" unicode="&#x2464;" horiz-adv-x="1000" 
d="M500 20q-83 0 -153.5 29t-123 80t-82 120.5t-29.5 150.5t29.5 150.5t82 120.5t123 80t153.5 29q82 0 153 -29t123.5 -80t82 -120.5t29.5 -150.5t-29.5 -150.5t-82 -120.5t-123.5 -80t-153 -29zM500 82q69 0 127.5 23.5t100.5 66t66 101t24 127.5t-24 127.5t-66 101
t-100.5 66t-127.5 23.5t-127.5 -23.5t-100.5 -66t-66 -101t-24 -127.5t24 -127.5t66 -101t100.5 -66t127.5 -23.5zM428 435q19 14 39 21.5t48 7.5q29 0 53.5 -10t42.5 -28.5t28 -43.5t10 -55q0 -71 -43.5 -113t-117.5 -42q-57 0 -94.5 31t-44.5 85q0 1 0.5 2.5t5.5 1.5h65
q5 0 5 -2q5 -29 23.5 -47t44.5 -18q32 0 53 27t21 69q0 38 -20.5 64t-51.5 26q-17 0 -34 -9t-28 -23q-2 -2 -4 -2l-63 3q-5 1 -5 2v3l28 225q0 2 6 2h231q5 0 5 -3v-53q0 -3 -5 -3h-180z" />
    <glyph glyph-name="cid00738" unicode="&#x2465;" horiz-adv-x="1000" 
d="M500 780q82 0 153 -29t123.5 -80t82 -120.5t29.5 -150.5t-29.5 -150.5t-82 -120.5t-123.5 -80t-153 -29q-83 0 -153.5 29t-123 80t-82 120.5t-29.5 150.5t29.5 150.5t82 120.5t123 80t153.5 29zM500 82q69 0 127.5 23.5t100.5 66t66 101t24 127.5t-24 127.5t-66 101
t-100.5 66t-127.5 23.5t-127.5 -23.5t-100.5 -66t-66 -101t-24 -127.5t24 -127.5t66 -101t100.5 -66t127.5 -23.5zM518 464q29 0 53.5 -10t42.5 -27.5t28 -41.5t10 -52q0 -35 -10.5 -64t-29.5 -50t-45.5 -32.5t-57.5 -11.5q-85 0 -123 55.5t-38 161.5q0 115 39.5 173.5
t125.5 58.5q52 0 83 -22t45 -73q0 -1 0.5 -1.5t0.5 -1.5q0 -4 -7 -4h-64q-5 0 -5 4q-4 22 -19.5 33.5t-39.5 11.5q-35 0 -60 -34t-27 -109q21 20 48 28t50 8zM505 228q31 0 52 28t21 69q0 18 -6 33.5t-16 27t-24 18.5t-29 7q-34 0 -56 -24.5t-22 -62.5q0 -40 23.5 -68
t56.5 -28z" />
    <glyph glyph-name="cid00739" unicode="&#x2466;" horiz-adv-x="1000" 
d="M500 20q-83 0 -153.5 29t-123 80t-82 120.5t-29.5 150.5t29.5 150.5t82 120.5t123 80t153.5 29q82 0 153 -29t123.5 -80t82 -120.5t29.5 -150.5t-29.5 -150.5t-82 -120.5t-123.5 -80t-153 -29zM500 82q69 0 127.5 23.5t100.5 66t66 101t24 127.5t-24 127.5t-66 101
t-100.5 66t-127.5 23.5t-127.5 -23.5t-100.5 -66t-66 -101t-24 -127.5t24 -127.5t66 -101t100.5 -66t127.5 -23.5zM640 609q7 0 7 -4v-44q0 -2 -1 -8t-3 -11l-155 -361q-1 -2 -4.5 -4t-5.5 -2h-72q-3 0 -3 2q0 3 1 4l158 366h-194q-7 0 -7 4v54q0 4 7 4h272z" />
    <glyph glyph-name="cid00740" unicode="&#x2467;" horiz-adv-x="1000" 
d="M500 780q82 0 153 -29t123.5 -80t82 -120.5t29.5 -150.5t-29.5 -150.5t-82 -120.5t-123.5 -80t-153 -29q-83 0 -153.5 29t-123 80t-82 120.5t-29.5 150.5t29.5 150.5t82 120.5t123 80t153.5 29zM500 82q69 0 127.5 23.5t100.5 66t66 101t24 127.5t-24 127.5t-66 101
t-100.5 66t-127.5 23.5t-127.5 -23.5t-100.5 -66t-66 -101t-24 -127.5t24 -127.5t66 -101t100.5 -66t127.5 -23.5zM585 423q37 -15 55 -41t18 -68q0 -29 -12 -54.5t-33 -44.5t-49.5 -29.5t-61.5 -10.5q-70 0 -113 36.5t-43 94.5q0 44 18.5 71t59.5 44q-64 26 -64 88
q0 25 10.5 46t29 36.5t44.5 24.5t56 9q31 0 57.5 -8.5t45.5 -23t29.5 -35t10.5 -44.5q0 -63 -58 -91zM506 572q-33 0 -52.5 -18t-19.5 -49q0 -27 20 -45.5t49 -18.5q30 0 48 17.5t18 46.5q0 28 -18.5 47.5t-44.5 19.5zM503 228q32 0 54 24t22 59q0 34 -22.5 56.5t-55.5 22.5
t-54 -22t-21 -57t22 -59t55 -24z" />
    <glyph glyph-name="cid00741" unicode="&#x2468;" horiz-adv-x="1000" 
d="M500 780q82 0 153 -29t123.5 -80t82 -120.5t29.5 -150.5t-29.5 -150.5t-82 -120.5t-123.5 -80t-153 -29q-83 0 -153.5 29t-123 80t-82 120.5t-29.5 150.5t29.5 150.5t82 120.5t123 80t153.5 29zM500 82q69 0 127.5 23.5t100.5 66t66 101t24 127.5t-24 127.5t-66 101
t-100.5 66t-127.5 23.5t-127.5 -23.5t-100.5 -66t-66 -101t-24 -127.5t24 -127.5t66 -101t100.5 -66t127.5 -23.5zM500 625q42 0 72.5 -15.5t49.5 -44.5t28 -70.5t9 -93.5q0 -49 -10.5 -90.5t-31 -71.5t-51.5 -47t-71 -17q-57 0 -94 26.5t-41 70.5q0 5 6 5h61q5 0 5 -4
q6 -20 23.5 -32.5t40.5 -12.5q38 0 63 35.5t27 109.5q-23 -23 -49 -29.5t-54 -6.5q-60 0 -97.5 36.5t-37.5 94.5q0 72 41 114.5t111 42.5zM502 390q32 0 53.5 23.5t21.5 59.5q0 41 -22 67.5t-56 26.5q-32 0 -53.5 -24.5t-21.5 -62.5q0 -44 20 -67t58 -23z" />
    <glyph glyph-name="cid00742" unicode="&#x2469;" horiz-adv-x="1000" 
d="M500 20q-83 0 -153.5 29t-123 80t-82 120.5t-29.5 150.5t29.5 150.5t82 120.5t123 80t153.5 29q82 0 153 -29t123.5 -80t82 -120.5t29.5 -150.5t-29.5 -150.5t-82 -120.5t-123.5 -80t-153 -29zM500 82q69 0 127.5 23.5t100.5 66t66 101t24 127.5t-24 127.5t-66 101
t-100.5 66t-127.5 23.5t-127.5 -23.5t-100.5 -66t-66 -101t-24 -127.5t24 -127.5t66 -101t100.5 -66t127.5 -23.5zM597 211q-64 0 -99.5 49.5t-35.5 140.5q0 41 8.5 75.5t25.5 59.5t42 39t59 14q62 0 98.5 -48.5t36.5 -139.5t-35.5 -140.5t-99.5 -49.5zM404 583q5 0 5 -3
v-361q0 -3 -5 -3h-56q-4 0 -4 3v293l-61 -44q-4 -2 -5 -2q-2 0 -4 2l-24 34q-2 2 -2 4t3 4l92 68q8 5 12 5h49zM597 255q35 0 55 39t20 107q0 67 -20 105.5t-55 38.5t-55 -38.5t-20 -105.5q0 -68 20 -107t55 -39z" />
    <glyph glyph-name="cid00743" unicode="&#x246a;" horiz-adv-x="1000" 
d="M500 20q-83 0 -153.5 29t-123 80t-82 120.5t-29.5 150.5t29.5 150.5t82 120.5t123 80t153.5 29q82 0 153 -29t123.5 -80t82 -120.5t29.5 -150.5t-29.5 -150.5t-82 -120.5t-123.5 -80t-153 -29zM500 82q69 0 127.5 23.5t100.5 66t66 101t24 127.5t-24 127.5t-66 101
t-100.5 66t-127.5 23.5t-127.5 -23.5t-100.5 -66t-66 -101t-24 -127.5t24 -127.5t66 -101t100.5 -66t127.5 -23.5zM439 583q5 0 5 -3v-361q0 -3 -5 -3h-56q-4 0 -4 3v293l-61 -44q-4 -2 -5 -2q-2 0 -4 2l-24 34q-2 2 -2 4t3 4l92 68q8 5 12 5h49zM649 583q5 0 5 -3v-361
q0 -3 -5 -3h-56q-4 0 -4 3v293l-61 -44q-4 -2 -5 -2q-2 0 -4 2l-24 34q-2 2 -2 4t3 4l92 68q8 5 12 5h49z" />
    <glyph glyph-name="cid00744" unicode="&#x246b;" horiz-adv-x="1000" 
d="M500 20q-83 0 -153.5 29t-123 80t-82 120.5t-29.5 150.5t29.5 150.5t82 120.5t123 80t153.5 29q82 0 153 -29t123.5 -80t82 -120.5t29.5 -150.5t-29.5 -150.5t-82 -120.5t-123.5 -80t-153 -29zM500 82q69 0 127.5 23.5t100.5 66t66 101t24 127.5t-24 127.5t-66 101
t-100.5 66t-127.5 23.5t-127.5 -23.5t-100.5 -66t-66 -101t-24 -127.5t24 -127.5t66 -101t100.5 -66t127.5 -23.5zM713 269q1 0 2 -0.5t2 -0.5l1 -1v-41q0 -3 -5 -3h-244q-5 0 -5 5q0 32 14 57t35 45.5t45.5 38t45.5 35.5t35 37t14 43q0 28 -17 46.5t-43 18.5q-62 0 -62 -78
q0 -1 -1 -1q-1 -1 -4 -1h-53q-5 0 -5 1q0 60 31.5 91t91.5 31q57 0 91 -29t34 -77q0 -32 -14 -57.5t-36.5 -47t-50.5 -41t-57 -39.5q-11 -7 -11 -27v-5h166zM409 583q5 0 5 -3v-361q0 -3 -5 -3h-56q-4 0 -4 3v293l-61 -44q-4 -2 -5 -2q-2 0 -4 2l-24 34q-2 2 -2 4t3 4l92 68
q8 5 12 5h49z" />
    <glyph glyph-name="cid00745" unicode="&#x246c;" horiz-adv-x="1000" 
d="M500 780q82 0 153 -29t123.5 -80t82 -120.5t29.5 -150.5t-29.5 -150.5t-82 -120.5t-123.5 -80t-153 -29q-83 0 -153.5 29t-123 80t-82 120.5t-29.5 150.5t29.5 150.5t82 120.5t123 80t153.5 29zM500 82q69 0 127.5 23.5t100.5 66t66 101t24 127.5t-24 127.5t-66 101
t-100.5 66t-127.5 23.5t-127.5 -23.5t-100.5 -66t-66 -101t-24 -127.5t24 -127.5t66 -101t100.5 -66t127.5 -23.5zM664 416q29 -14 42.5 -38t13.5 -53q0 -52 -35.5 -83t-97.5 -31q-123 0 -123 110l1 1q1 0 1.5 0.5t2.5 0.5h55q4 0 4 -2q0 -66 61 -66q28 0 45.5 19t17.5 50
q0 34 -20 49t-65 15q-4 0 -4 3v33q0 2 4 2q36 0 56 16t20 45q0 26 -14.5 42t-39.5 16q-56 0 -56 -62q0 -3 -6 -3h-51q-5 0 -5 1q0 50 32 79t90 29q50 0 82 -27t32 -68q0 -27 -10 -47t-33 -31zM409 583q5 0 5 -3v-361q0 -3 -5 -3h-56q-4 0 -4 3v293l-61 -44q-4 -2 -5 -2
q-2 0 -4 2l-24 34q-2 2 -2 4t3 4l92 68q8 5 12 5h49z" />
    <glyph glyph-name="cid00746" unicode="&#x246d;" horiz-adv-x="1000" 
d="M500 780q82 0 153 -29t123.5 -80t82 -120.5t29.5 -150.5t-29.5 -150.5t-82 -120.5t-123.5 -80t-153 -29q-83 0 -153.5 29t-123 80t-82 120.5t-29.5 150.5t29.5 150.5t82 120.5t123 80t153.5 29zM500 82q69 0 127.5 23.5t100.5 66t66 101t24 127.5t-24 127.5t-66 101
t-100.5 66t-127.5 23.5t-127.5 -23.5t-100.5 -66t-66 -101t-24 -127.5t24 -127.5t66 -101t100.5 -66t127.5 -23.5zM715 345q1 0 1.5 -0.5t1.5 -0.5l1 -1v-42q0 -1 -1 -1q-1 -1 -3 -1h-39v-82q-1 0 -1.5 -0.5t-2.5 -0.5h-57h-3v1v82h-144q-2 0 -3 1q-1 0 -1 1v46q0 2 0.5 2.5
t0.5 1.5l137 224l-1 1q0 1 4 5l1 1v-1q1 1 4 1h62q2 0 2.5 -0.5t1.5 -0.5v-236h39zM409 583q5 0 5 -3v-361q0 -3 -5 -3h-56q-4 0 -4 3v293l-61 -44q-4 -2 -5 -2q-2 0 -4 2l-24 34q-2 2 -2 4t3 4l92 68q8 5 12 5h49zM612 500l-96 -155h96v155z" />
    <glyph glyph-name="cid00747" unicode="&#x246e;" horiz-adv-x="1000" 
d="M500 20q-83 0 -153.5 29t-123 80t-82 120.5t-29.5 150.5t29.5 150.5t82 120.5t123 80t153.5 29q82 0 153 -29t123.5 -80t82 -120.5t29.5 -150.5t-29.5 -150.5t-82 -120.5t-123.5 -80t-153 -29zM500 82q69 0 127.5 23.5t100.5 66t66 101t24 127.5t-24 127.5t-66 101
t-100.5 66t-127.5 23.5t-127.5 -23.5t-100.5 -66t-66 -101t-24 -127.5t24 -127.5t66 -101t100.5 -66t127.5 -23.5zM527 425q17 14 34 20.5t41 6.5q49 0 80 -32t31 -83q0 -60 -36 -95t-98 -35q-48 0 -80 26.5t-37 70.5v2.5t4 0.5h55q4 0 4 -2q5 -25 20 -40t38 -15
q27 0 45 23.5t18 58.5q0 33 -18 55t-44 22q-14 0 -29 -8t-23 -19q-1 -2 -3 -2l-52 3h-4q-1 0 -1 1l24 192q0 1 4 1h195q1 0 1.5 -0.5t1.5 -0.5l1 -1v-45q-1 0 -2 -0.5t-2 -0.5h-152zM409 583q5 0 5 -3v-361q0 -3 -5 -3h-56q-4 0 -4 3v293l-61 -44q-4 -2 -5 -2q-2 0 -4 2
l-24 34q-2 2 -2 4t3 4l92 68q8 5 12 5h49z" />
    <glyph glyph-name="cid00827" unicode="&#x2474;" horiz-adv-x="1000" 
d="M237 71q-9 0 -13 6q-54 71 -83 150.5t-29 170.5q0 102 29 179.5t89 145.5q4 6 13 6h35q9 0 9 -7q0 -4 -2 -6q-49 -75 -70.5 -150.5t-21.5 -167.5q0 -47 7.5 -87.5t20 -78t29.5 -74t36 -74.5q1 -2 1 -6q0 -7 -9 -7h-41zM722 71q-10 0 -10 7q0 2 2 6q19 38 36 74.5t29.5 74
t20 78t7.5 87.5q0 92 -20 168.5t-72 149.5q-3 3 -3 6q0 7 10 7h35q8 0 13 -6q27 -36 49 -72.5t37 -75.5t23.5 -82.5t8.5 -94.5q0 -91 -29 -170.5t-83 -150.5q-5 -6 -13 -6h-41zM548 618q7 0 7 -4v-429q0 -4 -7 -4h-66q-6 0 -6 4v346l-71 -52q-3 -1 -6 -1t-3 1l-32 43
q-2 2 -2 4t3 4l111 83q9 5 14 5h58z" />
    <glyph glyph-name="cid00828" unicode="&#x2475;" horiz-adv-x="1000" 
d="M647 244q7 0 7 -4v-48q0 -5 -7 -5h-289q-6 0 -6 8q0 38 16.5 68t41.5 54.5t54 45t54 41.5t41.5 43.5t16.5 50.5q0 32 -20 54t-50 22q-73 0 -73 -91q0 -4 -7 -4h-64q-5 0 -5.5 1t-0.5 3q0 70 38 107.5t109 37.5q68 0 109 -35.5t41 -92.5q0 -38 -17 -68t-44 -55.5
t-60.5 -48.5t-66.5 -48q-13 -9 -13 -31v-5h195zM237 71q-9 0 -13 6q-54 71 -83 150.5t-29 170.5q0 102 29 179.5t89 145.5q4 6 13 6h35q9 0 9 -7q0 -4 -2 -6q-49 -75 -70.5 -150.5t-21.5 -167.5q0 -47 7.5 -87.5t20 -78t29.5 -74t36 -74.5q1 -2 1 -6q0 -7 -9 -7h-41zM722 71
q-10 0 -10 7q0 2 2 6q19 38 36 74.5t29.5 74t20 78t7.5 87.5q0 92 -20 168.5t-72 149.5q-3 3 -3 6q0 7 10 7h35q8 0 13 -6q27 -36 49 -72.5t37 -75.5t23.5 -82.5t8.5 -94.5q0 -91 -29 -170.5t-83 -150.5q-5 -6 -13 -6h-41z" />
    <glyph glyph-name="cid00829" unicode="&#x2476;" horiz-adv-x="1000" 
d="M193 398q0 -47 7.5 -87.5t20 -78t29.5 -74t36 -74.5q1 -2 1 -6q0 -7 -9 -7h-41q-9 0 -13 6q-54 71 -83 150.5t-29 170.5q0 102 29 179.5t89 145.5q4 6 13 6h35q9 0 9 -7q0 -4 -2 -6q-49 -75 -70.5 -150.5t-21.5 -167.5zM770 723q27 -36 49 -72.5t37 -75.5t23.5 -82.5
t8.5 -94.5q0 -91 -29 -170.5t-83 -150.5q-5 -6 -13 -6h-41q-10 0 -10 7q0 2 2 6q19 38 36 74.5t29.5 74t20 78t7.5 87.5q0 92 -20 168.5t-72 149.5q-3 3 -3 6q0 7 10 7h35q8 0 13 -6zM604 418q27 -17 41 -47t14 -60q0 -63 -42 -99.5t-116 -36.5q-146 0 -146 131q0 4 6 4h65
q6 0 6 -4q0 -77 71 -77q33 0 54 22.5t21 57.5q0 40 -23.5 57.5t-76.5 17.5q-5 0 -5.5 1t-0.5 4v40q0 3 6 3q42 0 65.5 18.5t23.5 53.5q0 31 -17.5 49.5t-46.5 18.5q-32 0 -49 -19t-17 -54q0 -5 -7 -5h-61q-7 0 -7 5q0 59 38.5 92.5t107.5 33.5q30 0 55 -8.5t43 -24
t28.5 -36.5t10.5 -45q0 -26 -10.5 -51.5t-30.5 -41.5z" />
    <glyph glyph-name="cid00830" unicode="&#x2477;" horiz-adv-x="1000" 
d="M237 71q-9 0 -13 6q-54 71 -83 150.5t-29 170.5q0 102 29 179.5t89 145.5q4 6 13 6h35q9 0 9 -7q0 -4 -2 -6q-49 -75 -70.5 -150.5t-21.5 -167.5q0 -47 7.5 -87.5t20 -78t29.5 -74t36 -74.5q1 -2 1 -6q0 -7 -9 -7h-41zM722 71q-10 0 -10 7q0 2 2 6q19 38 36 74.5t29.5 74
t20 78t7.5 87.5q0 92 -20 168.5t-72 149.5q-3 3 -3 6q0 7 10 7h35q8 0 13 -6q27 -36 49 -72.5t37 -75.5t23.5 -82.5t8.5 -94.5q0 -91 -29 -170.5t-83 -150.5q-5 -6 -13 -6h-41zM634 283q0 -4 -5 -4h-45v-96q0 -3 -6 -3h-67q-5 0 -5 3v96h-170q-5 0 -5 4v54q0 4 2 6l165 271
q2 4 7 4h73q6 0 6 -3v-279h45q5 0 5 -3v-50zM394 336h112v181z" />
    <glyph glyph-name="cid00831" unicode="&#x2478;" horiz-adv-x="1000" 
d="M428 435q19 14 39 21.5t48 7.5q29 0 53.5 -10t42.5 -28.5t28 -43.5t10 -55q0 -71 -43.5 -113t-117.5 -42q-57 0 -94.5 31t-44.5 85q0 1 0.5 2.5t5.5 1.5h65q5 0 5 -2q5 -29 23.5 -47t44.5 -18q32 0 53 27t21 69q0 38 -20.5 64t-51.5 26q-17 0 -34 -9t-28 -23q-2 -2 -4 -2
l-63 3q-5 1 -5 2v3l28 225q0 2 6 2h231q5 0 5 -3v-53q0 -3 -5 -3h-180zM237 71q-9 0 -13 6q-54 71 -83 150.5t-29 170.5q0 102 29 179.5t89 145.5q4 6 13 6h35q9 0 9 -7q0 -4 -2 -6q-49 -75 -70.5 -150.5t-21.5 -167.5q0 -47 7.5 -87.5t20 -78t29.5 -74t36 -74.5q1 -2 1 -6
q0 -7 -9 -7h-41zM722 71q-10 0 -10 7q0 2 2 6q19 38 36 74.5t29.5 74t20 78t7.5 87.5q0 92 -20 168.5t-72 149.5q-3 3 -3 6q0 7 10 7h35q8 0 13 -6q27 -36 49 -72.5t37 -75.5t23.5 -82.5t8.5 -94.5q0 -91 -29 -170.5t-83 -150.5q-5 -6 -13 -6h-41z" />
    <glyph glyph-name="cid00832" unicode="&#x2479;" horiz-adv-x="1000" 
d="M193 398q0 -47 7.5 -87.5t20 -78t29.5 -74t36 -74.5q1 -2 1 -6q0 -7 -9 -7h-41q-9 0 -13 6q-54 71 -83 150.5t-29 170.5q0 102 29 179.5t89 145.5q4 6 13 6h35q9 0 9 -7q0 -4 -2 -6q-49 -75 -70.5 -150.5t-21.5 -167.5zM770 723q27 -36 49 -72.5t37 -75.5t23.5 -82.5
t8.5 -94.5q0 -91 -29 -170.5t-83 -150.5q-5 -6 -13 -6h-41q-10 0 -10 7q0 2 2 6q19 38 36 74.5t29.5 74t20 78t7.5 87.5q0 92 -20 168.5t-72 149.5q-3 3 -3 6q0 7 10 7h35q8 0 13 -6zM518 464q29 0 53.5 -10t42.5 -27.5t28 -41.5t10 -52q0 -35 -10.5 -64t-29.5 -50
t-45.5 -32.5t-57.5 -11.5q-85 0 -123 55.5t-38 161.5q0 115 39.5 173.5t125.5 58.5q52 0 83 -22t45 -73q0 -1 0.5 -1.5t0.5 -1.5q0 -4 -7 -4h-64q-5 0 -5 4q-4 22 -19.5 33.5t-39.5 11.5q-35 0 -60 -34t-27 -109q21 20 48 28t50 8zM505 228q31 0 52 28t21 69q0 18 -6 33.5
t-16 27t-24 18.5t-29 7q-34 0 -56 -24.5t-22 -62.5q0 -40 23.5 -68t56.5 -28z" />
    <glyph glyph-name="cid00833" unicode="&#x247a;" horiz-adv-x="1000" 
d="M237 71q-9 0 -13 6q-54 71 -83 150.5t-29 170.5q0 102 29 179.5t89 145.5q4 6 13 6h35q9 0 9 -7q0 -4 -2 -6q-49 -75 -70.5 -150.5t-21.5 -167.5q0 -47 7.5 -87.5t20 -78t29.5 -74t36 -74.5q1 -2 1 -6q0 -7 -9 -7h-41zM722 71q-10 0 -10 7q0 2 2 6q19 38 36 74.5t29.5 74
t20 78t7.5 87.5q0 92 -20 168.5t-72 149.5q-3 3 -3 6q0 7 10 7h35q8 0 13 -6q27 -36 49 -72.5t37 -75.5t23.5 -82.5t8.5 -94.5q0 -91 -29 -170.5t-83 -150.5q-5 -6 -13 -6h-41zM640 609q7 0 7 -4v-44q0 -2 -1 -8t-3 -11l-155 -361q-1 -2 -4.5 -4t-5.5 -2h-72q-3 0 -3 2
q0 3 1 4l158 366h-194q-7 0 -7 4v54q0 4 7 4h272z" />
    <glyph glyph-name="cid00834" unicode="&#x247b;" horiz-adv-x="1000" 
d="M193 398q0 -47 7.5 -87.5t20 -78t29.5 -74t36 -74.5q1 -2 1 -6q0 -7 -9 -7h-41q-9 0 -13 6q-54 71 -83 150.5t-29 170.5q0 102 29 179.5t89 145.5q4 6 13 6h35q9 0 9 -7q0 -4 -2 -6q-49 -75 -70.5 -150.5t-21.5 -167.5zM770 723q27 -36 49 -72.5t37 -75.5t23.5 -82.5
t8.5 -94.5q0 -91 -29 -170.5t-83 -150.5q-5 -6 -13 -6h-41q-10 0 -10 7q0 2 2 6q19 38 36 74.5t29.5 74t20 78t7.5 87.5q0 92 -20 168.5t-72 149.5q-3 3 -3 6q0 7 10 7h35q8 0 13 -6zM585 423q37 -15 55 -41t18 -68q0 -29 -12 -54.5t-33 -44.5t-49.5 -29.5t-61.5 -10.5
q-70 0 -113 36.5t-43 94.5q0 44 18.5 71t59.5 44q-64 26 -64 88q0 25 10.5 46t29 36.5t44.5 24.5t56 9q31 0 57.5 -8.5t45.5 -23t29.5 -35t10.5 -44.5q0 -63 -58 -91zM506 572q-33 0 -52.5 -18t-19.5 -49q0 -27 20 -45.5t49 -18.5q30 0 48 17.5t18 46.5q0 28 -18.5 47.5
t-44.5 19.5zM503 228q32 0 54 24t22 59q0 34 -22.5 56.5t-55.5 22.5t-54 -22t-21 -57t22 -59t55 -24z" />
    <glyph glyph-name="cid00835" unicode="&#x247c;" horiz-adv-x="1000" 
d="M193 398q0 -47 7.5 -87.5t20 -78t29.5 -74t36 -74.5q1 -2 1 -6q0 -7 -9 -7h-41q-9 0 -13 6q-54 71 -83 150.5t-29 170.5q0 102 29 179.5t89 145.5q4 6 13 6h35q9 0 9 -7q0 -4 -2 -6q-49 -75 -70.5 -150.5t-21.5 -167.5zM770 723q27 -36 49 -72.5t37 -75.5t23.5 -82.5
t8.5 -94.5q0 -91 -29 -170.5t-83 -150.5q-5 -6 -13 -6h-41q-10 0 -10 7q0 2 2 6q19 38 36 74.5t29.5 74t20 78t7.5 87.5q0 92 -20 168.5t-72 149.5q-3 3 -3 6q0 7 10 7h35q8 0 13 -6zM500 625q42 0 72.5 -15.5t49.5 -44.5t28 -70.5t9 -93.5q0 -49 -10.5 -90.5t-31 -71.5
t-51.5 -47t-71 -17q-57 0 -94 26.5t-41 70.5q0 5 6 5h61q5 0 5 -4q6 -20 23.5 -32.5t40.5 -12.5q38 0 63 35.5t27 109.5q-23 -23 -49 -29.5t-54 -6.5q-60 0 -97.5 36.5t-37.5 94.5q0 72 41 114.5t111 42.5zM502 390q32 0 53.5 23.5t21.5 59.5q0 41 -22 67.5t-56 26.5
q-32 0 -53.5 -24.5t-21.5 -62.5q0 -44 20 -67t58 -23z" />
    <glyph glyph-name="cid00836" unicode="&#x247d;" horiz-adv-x="1000" 
d="M237 71q-9 0 -13 6q-54 71 -83 150.5t-29 170.5q0 102 29 179.5t89 145.5q4 6 13 6h35q9 0 9 -7q0 -4 -2 -6q-49 -75 -70.5 -150.5t-21.5 -167.5q0 -47 7.5 -87.5t20 -78t29.5 -74t36 -74.5q1 -2 1 -6q0 -7 -9 -7h-41zM722 71q-10 0 -10 7q0 2 2 6q19 38 36 74.5t29.5 74
t20 78t7.5 87.5q0 92 -20 168.5t-72 149.5q-3 3 -3 6q0 7 10 7h35q8 0 13 -6q27 -36 49 -72.5t37 -75.5t23.5 -82.5t8.5 -94.5q0 -91 -29 -170.5t-83 -150.5q-5 -6 -13 -6h-41zM597 211q-64 0 -99.5 49.5t-35.5 140.5q0 41 8.5 75.5t25.5 59.5t42 39t59 14q62 0 98.5 -48.5
t36.5 -139.5t-35.5 -140.5t-99.5 -49.5zM404 583q5 0 5 -3v-361q0 -3 -5 -3h-56q-4 0 -4 3v293l-61 -44q-4 -2 -5 -2q-2 0 -4 2l-24 34q-2 2 -2 4t3 4l92 68q8 5 12 5h49zM597 255q35 0 55 39t20 107q0 67 -20 105.5t-55 38.5t-55 -38.5t-20 -105.5q0 -68 20 -107t55 -39z
" />
    <glyph glyph-name="cid00837" unicode="&#x247e;" horiz-adv-x="1000" 
d="M237 71q-9 0 -13 6q-54 71 -83 150.5t-29 170.5q0 102 29 179.5t89 145.5q4 6 13 6h35q9 0 9 -7q0 -4 -2 -6q-49 -75 -70.5 -150.5t-21.5 -167.5q0 -47 7.5 -87.5t20 -78t29.5 -74t36 -74.5q1 -2 1 -6q0 -7 -9 -7h-41zM722 71q-10 0 -10 7q0 2 2 6q19 38 36 74.5t29.5 74
t20 78t7.5 87.5q0 92 -20 168.5t-72 149.5q-3 3 -3 6q0 7 10 7h35q8 0 13 -6q27 -36 49 -72.5t37 -75.5t23.5 -82.5t8.5 -94.5q0 -91 -29 -170.5t-83 -150.5q-5 -6 -13 -6h-41zM439 583q5 0 5 -3v-361q0 -3 -5 -3h-56q-4 0 -4 3v293l-61 -44q-4 -2 -5 -2q-2 0 -4 2l-24 34
q-2 2 -2 4t3 4l92 68q8 5 12 5h49zM649 583q5 0 5 -3v-361q0 -3 -5 -3h-56q-4 0 -4 3v293l-61 -44q-4 -2 -5 -2q-2 0 -4 2l-24 34q-2 2 -2 4t3 4l92 68q8 5 12 5h49z" />
    <glyph glyph-name="cid00838" unicode="&#x247f;" horiz-adv-x="1000" 
d="M237 71q-9 0 -13 6q-54 71 -83 150.5t-29 170.5q0 102 29 179.5t89 145.5q4 6 13 6h35q9 0 9 -7q0 -4 -2 -6q-49 -75 -70.5 -150.5t-21.5 -167.5q0 -47 7.5 -87.5t20 -78t29.5 -74t36 -74.5q1 -2 1 -6q0 -7 -9 -7h-41zM722 71q-10 0 -10 7q0 2 2 6q19 38 36 74.5t29.5 74
t20 78t7.5 87.5q0 92 -20 168.5t-72 149.5q-3 3 -3 6q0 7 10 7h35q8 0 13 -6q27 -36 49 -72.5t37 -75.5t23.5 -82.5t8.5 -94.5q0 -91 -29 -170.5t-83 -150.5q-5 -6 -13 -6h-41zM713 269q1 0 2 -0.5t2 -0.5l1 -1v-41q0 -3 -5 -3h-244q-5 0 -5 5q0 32 14 57t35 45.5t45.5 38
t45.5 35.5t35 37t14 43q0 28 -17 46.5t-43 18.5q-62 0 -62 -78q0 -1 -1 -1q-1 -1 -4 -1h-53q-5 0 -5 1q0 60 31.5 91t91.5 31q57 0 91 -29t34 -77q0 -32 -14 -57.5t-36.5 -47t-50.5 -41t-57 -39.5q-11 -7 -11 -27v-5h166zM409 583q5 0 5 -3v-361q0 -3 -5 -3h-56q-4 0 -4 3
v293l-61 -44q-4 -2 -5 -2q-2 0 -4 2l-24 34q-2 2 -2 4t3 4l92 68q8 5 12 5h49z" />
    <glyph glyph-name="cid00839" unicode="&#x2480;" horiz-adv-x="1000" 
d="M193 398q0 -47 7.5 -87.5t20 -78t29.5 -74t36 -74.5q1 -2 1 -6q0 -7 -9 -7h-41q-9 0 -13 6q-54 71 -83 150.5t-29 170.5q0 102 29 179.5t89 145.5q4 6 13 6h35q9 0 9 -7q0 -4 -2 -6q-49 -75 -70.5 -150.5t-21.5 -167.5zM770 723q27 -36 49 -72.5t37 -75.5t23.5 -82.5
t8.5 -94.5q0 -91 -29 -170.5t-83 -150.5q-5 -6 -13 -6h-41q-10 0 -10 7q0 2 2 6q19 38 36 74.5t29.5 74t20 78t7.5 87.5q0 92 -20 168.5t-72 149.5q-3 3 -3 6q0 7 10 7h35q8 0 13 -6zM664 416q29 -14 42.5 -38t13.5 -53q0 -52 -35.5 -83t-97.5 -31q-123 0 -123 110l1 1
q1 0 1.5 0.5t2.5 0.5h55q4 0 4 -2q0 -66 61 -66q28 0 45.5 19t17.5 50q0 34 -20 49t-65 15q-4 0 -4 3v33q0 2 4 2q36 0 56 16t20 45q0 26 -14.5 42t-39.5 16q-56 0 -56 -62q0 -3 -6 -3h-51q-5 0 -5 1q0 50 32 79t90 29q50 0 82 -27t32 -68q0 -27 -10 -47t-33 -31zM409 583
q5 0 5 -3v-361q0 -3 -5 -3h-56q-4 0 -4 3v293l-61 -44q-4 -2 -5 -2q-2 0 -4 2l-24 34q-2 2 -2 4t3 4l92 68q8 5 12 5h49z" />
    <glyph glyph-name="cid00840" unicode="&#x2481;" horiz-adv-x="1000" 
d="M719 301q0 -1 -1 -1q-1 -1 -3 -1h-39v-82q-1 0 -1.5 -0.5t-2.5 -0.5h-57h-3v1v82h-144q-2 0 -3 1q-1 0 -1 1v46q0 2 0.5 2.5t0.5 1.5l137 224l-1 1q0 1 4 5l1 1v-1q1 1 4 1h62q2 0 2.5 -0.5t1.5 -0.5v-236h39q1 0 1.5 -0.5t1.5 -0.5l1 -1v-42zM193 398q0 -47 7.5 -87.5
t20 -78t29.5 -74t36 -74.5q1 -2 1 -6q0 -7 -9 -7h-41q-9 0 -13 6q-54 71 -83 150.5t-29 170.5q0 102 29 179.5t89 145.5q4 6 13 6h35q9 0 9 -7q0 -4 -2 -6q-49 -75 -70.5 -150.5t-21.5 -167.5zM770 723q27 -36 49 -72.5t37 -75.5t23.5 -82.5t8.5 -94.5q0 -91 -29 -170.5
t-83 -150.5q-5 -6 -13 -6h-41q-10 0 -10 7q0 2 2 6q19 38 36 74.5t29.5 74t20 78t7.5 87.5q0 92 -20 168.5t-72 149.5q-3 3 -3 6q0 7 10 7h35q8 0 13 -6zM409 583q5 0 5 -3v-361q0 -3 -5 -3h-56q-4 0 -4 3v293l-61 -44q-4 -2 -5 -2q-2 0 -4 2l-24 34q-2 2 -2 4t3 4l92 68
q8 5 12 5h49zM612 500l-96 -155h96v155z" />
    <glyph glyph-name="cid00841" unicode="&#x2482;" horiz-adv-x="1000" 
d="M237 71q-9 0 -13 6q-54 71 -83 150.5t-29 170.5q0 102 29 179.5t89 145.5q4 6 13 6h35q9 0 9 -7q0 -4 -2 -6q-49 -75 -70.5 -150.5t-21.5 -167.5q0 -47 7.5 -87.5t20 -78t29.5 -74t36 -74.5q1 -2 1 -6q0 -7 -9 -7h-41zM722 71q-10 0 -10 7q0 2 2 6q19 38 36 74.5t29.5 74
t20 78t7.5 87.5q0 92 -20 168.5t-72 149.5q-3 3 -3 6q0 7 10 7h35q8 0 13 -6q27 -36 49 -72.5t37 -75.5t23.5 -82.5t8.5 -94.5q0 -91 -29 -170.5t-83 -150.5q-5 -6 -13 -6h-41zM527 425q17 14 34 20.5t41 6.5q49 0 80 -32t31 -83q0 -60 -36 -95t-98 -35q-48 0 -80 26.5
t-37 70.5v2.5t4 0.5h55q4 0 4 -2q5 -25 20 -40t38 -15q27 0 45 23.5t18 58.5q0 33 -18 55t-44 22q-14 0 -29 -8t-23 -19q-1 -2 -3 -2l-52 3h-4q-1 0 -1 1l24 192q0 1 4 1h195q1 0 1.5 -0.5t1.5 -0.5l1 -1v-45q-1 0 -2 -0.5t-2 -0.5h-152zM409 583q5 0 5 -3v-361q0 -3 -5 -3
h-56q-4 0 -4 3v293l-61 -44q-4 -2 -5 -2q-2 0 -4 2l-24 34q-2 2 -2 4t3 4l92 68q8 5 12 5h49z" />
    <glyph glyph-name="cid00801" unicode="&#x249c;" horiz-adv-x="1000" 
d="M193 398q0 -47 7.5 -87.5t20 -78t29.5 -74t36 -74.5q1 -2 1 -6q0 -7 -9 -7h-41q-9 0 -13 6q-54 71 -83 150.5t-29 170.5q0 102 29 179.5t89 145.5q4 6 13 6h35q9 0 9 -7q0 -4 -2 -6q-49 -75 -70.5 -150.5t-21.5 -167.5zM770 723q27 -36 49 -72.5t37 -75.5t23.5 -82.5
t8.5 -94.5q0 -91 -29 -170.5t-83 -150.5q-5 -6 -13 -6h-41q-10 0 -10 7q0 2 2 6q19 38 36 74.5t29.5 74t20 78t7.5 87.5q0 92 -20 168.5t-72 149.5q-3 3 -3 6q0 7 10 7h35q8 0 13 -6zM502 545q124 0 124 -125v-167q0 -6 -9 -6h-50q-9 0 -9 6v7q-17 -8 -39.5 -13t-39.5 -5
q-51 0 -77.5 22.5t-26.5 63.5q0 77 111 92q8 1 19 2.5t21.5 3t19.5 3t12 2.5q-2 34 -16 49t-43 15q-18 0 -33.5 -8.5t-25.5 -25.5q-3 -4 -7 -4q-3 0 -4 1l-40 26q-3 1 -3 4t2 5q17 24 47.5 38t66.5 14zM441 330q0 -17 12.5 -27.5t32.5 -10.5t39 4t33 12v78q-18 -4 -38.5 -7
t-38 -8.5t-29 -15t-11.5 -25.5z" />
    <glyph glyph-name="cid00802" unicode="&#x249d;" horiz-adv-x="1000" 
d="M237 71q-9 0 -13 6q-54 71 -83 150.5t-29 170.5q0 102 29 179.5t89 145.5q4 6 13 6h35q9 0 9 -7q0 -4 -2 -6q-49 -75 -70.5 -150.5t-21.5 -167.5q0 -47 7.5 -87.5t20 -78t29.5 -74t36 -74.5q1 -2 1 -6q0 -7 -9 -7h-41zM722 71q-10 0 -10 7q0 2 2 6q19 38 36 74.5t29.5 74
t20 78t7.5 87.5q0 92 -20 168.5t-72 149.5q-3 3 -3 6q0 7 10 7h35q8 0 13 -6q27 -36 49 -72.5t37 -75.5t23.5 -82.5t8.5 -94.5q0 -91 -29 -170.5t-83 -150.5q-5 -6 -13 -6h-41zM394 608q0 6 8 6h51q8 0 8 -6v-139q39 20 73 20q60 0 94 -40t34 -111q0 -70 -34.5 -110.5
t-93.5 -40.5q-20 0 -40.5 6.5t-32.5 14.5v-8q0 -7 -8 -7h-51q-8 0 -8 6v409zM595 338q0 101 -71 101q-17 0 -31 -3.5t-32 -11.5v-171q16 -10 29 -13t34 -3q35 0 53 26t18 75z" />
    <glyph glyph-name="cid00803" unicode="&#x249e;" horiz-adv-x="1000" 
d="M237 71q-9 0 -13 6q-54 71 -83 150.5t-29 170.5q0 102 29 179.5t89 145.5q4 6 13 6h35q9 0 9 -7q0 -4 -2 -6q-49 -75 -70.5 -150.5t-21.5 -167.5q0 -47 7.5 -87.5t20 -78t29.5 -74t36 -74.5q1 -2 1 -6q0 -7 -9 -7h-41zM722 71q-10 0 -10 7q0 2 2 6q19 38 36 74.5t29.5 74
t20 78t7.5 87.5q0 92 -20 168.5t-72 149.5q-3 3 -3 6q0 7 10 7h35q8 0 13 -6q27 -36 49 -72.5t37 -75.5t23.5 -82.5t8.5 -94.5q0 -91 -29 -170.5t-83 -150.5q-5 -6 -13 -6h-41zM634 442q0 -5 -7 -5h-53q-5 0 -5 4q-5 23 -22.5 37.5t-40.5 14.5q-36 0 -55.5 -27t-19.5 -76
q0 -47 20 -74t55 -27q55 0 64 56q0 4 0.5 6.5t6.5 2.5h53q7 0 7 -8q0 -24 -11.5 -44t-30 -34t-42 -21.5t-47.5 -7.5q-31 0 -57 10.5t-45.5 30t-30.5 47.5t-11 63q0 68 39.5 110t104.5 42q46 0 81.5 -26.5t46.5 -70.5v-3z" />
    <glyph glyph-name="cid00804" unicode="&#x249f;" horiz-adv-x="1000" 
d="M237 71q-9 0 -13 6q-54 71 -83 150.5t-29 170.5q0 102 29 179.5t89 145.5q4 6 13 6h35q9 0 9 -7q0 -4 -2 -6q-49 -75 -70.5 -150.5t-21.5 -167.5q0 -47 7.5 -87.5t20 -78t29.5 -74t36 -74.5q1 -2 1 -6q0 -7 -9 -7h-41zM722 71q-10 0 -10 7q0 2 2 6q19 38 36 74.5t29.5 74
t20 78t7.5 87.5q0 92 -20 168.5t-72 149.5q-3 3 -3 6q0 7 10 7h35q8 0 13 -6q27 -36 49 -72.5t37 -75.5t23.5 -82.5t8.5 -94.5q0 -91 -29 -170.5t-83 -150.5q-5 -6 -13 -6h-41zM530 204q-8 -5 -25.5 -8.5t-34.5 -3.5q-60 0 -94 38t-34 107q0 68 34 107t94 39q15 0 30 -3.5
t32 -11.5v134q0 7 8 7h51q8 0 8 -7v-409q0 -6 -8 -6h-51q-3 0 -6.5 1t-3.5 5v11zM409 337q0 -46 18 -70.5t53 -24.5q25 0 52 12v168q-23 11 -52 11q-71 0 -71 -96z" />
    <glyph glyph-name="cid00805" unicode="&#x24a0;" horiz-adv-x="1000" 
d="M237 71q-9 0 -13 6q-54 71 -83 150.5t-29 170.5q0 102 29 179.5t89 145.5q4 6 13 6h35q9 0 9 -7q0 -4 -2 -6q-49 -75 -70.5 -150.5t-21.5 -167.5q0 -47 7.5 -87.5t20 -78t29.5 -74t36 -74.5q1 -2 1 -6q0 -7 -9 -7h-41zM722 71q-10 0 -10 7q0 2 2 6q19 38 36 74.5t29.5 74
t20 78t7.5 87.5q0 92 -20 168.5t-72 149.5q-3 3 -3 6q0 7 10 7h35q8 0 13 -6q27 -36 49 -72.5t37 -75.5t23.5 -82.5t8.5 -94.5q0 -91 -29 -170.5t-83 -150.5q-5 -6 -13 -6h-41zM506 289q22 0 36.5 10.5t18.5 28.5q1 5 7 5h56q4 0 4 -3q0 -1 -0.5 -1.5t-0.5 -1.5
q-26 -88 -121 -88q-67 0 -105.5 40.5t-38.5 110.5q0 33 10 60.5t28.5 48t44.5 32t58 11.5q30 0 55 -10.5t42.5 -30t27.5 -46.5t10 -60v-17q0 -7 -7 -7h-199q6 -82 74 -82zM507 493q-63 0 -74 -75h135q0 33 -16.5 54t-44.5 21z" />
    <glyph glyph-name="cid00806" unicode="&#x24a1;" horiz-adv-x="1000" 
d="M237 71q-9 0 -13 6q-54 71 -83 150.5t-29 170.5q0 102 29 179.5t89 145.5q4 6 13 6h35q9 0 9 -7q0 -4 -2 -6q-49 -75 -70.5 -150.5t-21.5 -167.5q0 -47 7.5 -87.5t20 -78t29.5 -74t36 -74.5q1 -2 1 -6q0 -7 -9 -7h-41zM722 71q-10 0 -10 7q0 2 2 6q19 38 36 74.5t29.5 74
t20 78t7.5 87.5q0 92 -20 168.5t-72 149.5q-3 3 -3 6q0 7 10 7h35q8 0 13 -6q27 -36 49 -72.5t37 -75.5t23.5 -82.5t8.5 -94.5q0 -91 -29 -170.5t-83 -150.5q-5 -6 -13 -6h-41zM584 470q8 0 8 -6v-38q0 -7 -8 -7h-68v-234q0 -6 -8 -6h-51q-8 0 -8 6v234h-43q-8 0 -8 7v38
q0 6 8 6h43v15q0 119 94 119q7 0 17 -0.5t18 -1.5t14 -3t6 -5v-40q0 -3 -4 -3q-7 0 -16 2t-18 2q-29 0 -36.5 -16t-7.5 -54v-15h68z" />
    <glyph glyph-name="cid00807" unicode="&#x24a2;" horiz-adv-x="1000" 
d="M237 71q-9 0 -13 6q-54 71 -83 150.5t-29 170.5q0 102 29 179.5t89 145.5q4 6 13 6h35q9 0 9 -7q0 -4 -2 -6q-49 -75 -70.5 -150.5t-21.5 -167.5q0 -47 7.5 -87.5t20 -78t29.5 -74t36 -74.5q1 -2 1 -6q0 -7 -9 -7h-41zM722 71q-10 0 -10 7q0 2 2 6q19 38 36 74.5t29.5 74
t20 78t7.5 87.5q0 92 -20 168.5t-72 149.5q-3 3 -3 6q0 7 10 7h35q8 0 13 -6q27 -36 49 -72.5t37 -75.5t23.5 -82.5t8.5 -94.5q0 -91 -29 -170.5t-83 -150.5q-5 -6 -13 -6h-41zM552 583q0 6 8 6h51q8 0 8 -6v-271q0 -66 -31.5 -101t-90.5 -35q-12 0 -30 2.5t-34 6.5
t-27.5 10t-11.5 13v46q0 3 3 3q1 0 5 -2q43 -29 86 -29q64 0 64 88q-25 -7 -37 -9.5t-25 -2.5q-60 0 -94 37.5t-34 103.5q0 70 34.5 110.5t93.5 40.5q14 0 27.5 -3t34.5 -8zM429 443q0 -92 71 -92q25 0 52 12v170q-23 11 -52 11q-34 0 -52.5 -26.5t-18.5 -74.5z" />
    <glyph glyph-name="cid00808" unicode="&#x24a3;" horiz-adv-x="1000" 
d="M237 71q-9 0 -13 6q-54 71 -83 150.5t-29 170.5q0 102 29 179.5t89 145.5q4 6 13 6h35q9 0 9 -7q0 -4 -2 -6q-49 -75 -70.5 -150.5t-21.5 -167.5q0 -47 7.5 -87.5t20 -78t29.5 -74t36 -74.5q1 -2 1 -6q0 -7 -9 -7h-41zM722 71q-10 0 -10 7q0 2 2 6q19 38 36 74.5t29.5 74
t20 78t7.5 87.5q0 92 -20 168.5t-72 149.5q-3 3 -3 6q0 7 10 7h35q8 0 13 -6q27 -36 49 -72.5t37 -75.5t23.5 -82.5t8.5 -94.5q0 -91 -29 -170.5t-83 -150.5q-5 -6 -13 -6h-41zM640 203q0 -6 -10 -6h-46q-10 0 -10 6v174q0 31 -15 48t-42 17q-31 0 -60 -11v-228q0 -6 -10 -6
h-47q-10 0 -10 6v409q0 7 10 7h47q10 0 10 -7v-132q30 13 74 13q50 0 79.5 -29t29.5 -78v-183z" />
    <glyph glyph-name="cid00809" unicode="&#x24a4;" horiz-adv-x="1000" 
d="M237 71q-9 0 -13 6q-54 71 -83 150.5t-29 170.5q0 102 29 179.5t89 145.5q4 6 13 6h35q9 0 9 -7q0 -4 -2 -6q-49 -75 -70.5 -150.5t-21.5 -167.5q0 -47 7.5 -87.5t20 -78t29.5 -74t36 -74.5q1 -2 1 -6q0 -7 -9 -7h-41zM722 71q-10 0 -10 7q0 2 2 6q19 38 36 74.5t29.5 74
t20 78t7.5 87.5q0 92 -20 168.5t-72 149.5q-3 3 -3 6q0 7 10 7h35q8 0 13 -6q27 -36 49 -72.5t37 -75.5t23.5 -82.5t8.5 -94.5q0 -91 -29 -170.5t-83 -150.5q-5 -6 -13 -6h-41zM467 594q0 6 7 6h52q8 0 8 -6v-54q0 -6 -8 -6h-52q-7 0 -7 6v54zM467 477q0 6 7 6h52q8 0 8 -6
v-279q0 -6 -8 -6h-52q-7 0 -7 6v279z" />
    <glyph glyph-name="cid00810" unicode="&#x24a5;" horiz-adv-x="1000" 
d="M237 71q-9 0 -13 6q-54 71 -83 150.5t-29 170.5q0 102 29 179.5t89 145.5q4 6 13 6h35q9 0 9 -7q0 -4 -2 -6q-49 -75 -70.5 -150.5t-21.5 -167.5q0 -47 7.5 -87.5t20 -78t29.5 -74t36 -74.5q1 -2 1 -6q0 -7 -9 -7h-41zM722 71q-10 0 -10 7q0 2 2 6q19 38 36 74.5t29.5 74
t20 78t7.5 87.5q0 92 -20 168.5t-72 149.5q-3 3 -3 6q0 7 10 7h35q8 0 13 -6q27 -36 49 -72.5t37 -75.5t23.5 -82.5t8.5 -94.5q0 -91 -29 -170.5t-83 -150.5q-5 -6 -13 -6h-41zM498 627q0 5 7 5h51q9 0 9 -5v-55q0 -6 -9 -6h-51q-7 0 -7 6v55zM498 509q0 6 7 6h51q9 0 9 -6
v-207q0 -69 -25.5 -102t-78.5 -33q-7 0 -20.5 2t-27 6t-23.5 9.5t-10 12.5v46q0 3 4 3q1 0 5 -2q19 -15 33.5 -21t31.5 -6q23 0 33.5 20.5t10.5 58.5v213z" />
    <glyph glyph-name="cid00811" unicode="&#x24a6;" horiz-adv-x="1000" 
d="M237 71q-9 0 -13 6q-54 71 -83 150.5t-29 170.5q0 102 29 179.5t89 145.5q4 6 13 6h35q9 0 9 -7q0 -4 -2 -6q-49 -75 -70.5 -150.5t-21.5 -167.5q0 -47 7.5 -87.5t20 -78t29.5 -74t36 -74.5q1 -2 1 -6q0 -7 -9 -7h-41zM722 71q-10 0 -10 7q0 2 2 6q19 38 36 74.5t29.5 74
t20 78t7.5 87.5q0 92 -20 168.5t-72 149.5q-3 3 -3 6q0 7 10 7h35q8 0 13 -6q27 -36 49 -72.5t37 -75.5t23.5 -82.5t8.5 -94.5q0 -91 -29 -170.5t-83 -150.5q-5 -6 -13 -6h-41zM562 509q6 6 14 6h61q6 0 6 -2q0 -1 -2 -3l-108 -126q20 -4 35 -26l100 -154q2 -4 2 -5
q0 -2 -5 -2h-65q-7 0 -10 7l-70 114q-11 17 -21 17q-7 0 -14 -6l-39 -44v-81q0 -7 -10 -7h-49q-3 0 -6 2.5t-3 4.5v407q0 8 9 8h49q10 0 10 -8v-241z" />
    <glyph glyph-name="cid00812" unicode="&#x24a7;" horiz-adv-x="1000" 
d="M237 71q-9 0 -13 6q-54 71 -83 150.5t-29 170.5q0 102 29 179.5t89 145.5q4 6 13 6h35q9 0 9 -7q0 -4 -2 -6q-49 -75 -70.5 -150.5t-21.5 -167.5q0 -47 7.5 -87.5t20 -78t29.5 -74t36 -74.5q1 -2 1 -6q0 -7 -9 -7h-41zM722 71q-10 0 -10 7q0 2 2 6q19 38 36 74.5t29.5 74
t20 78t7.5 87.5q0 92 -20 168.5t-72 149.5q-3 3 -3 6q0 7 10 7h35q8 0 13 -6q27 -36 49 -72.5t37 -75.5t23.5 -82.5t8.5 -94.5q0 -91 -29 -170.5t-83 -150.5q-5 -6 -13 -6h-41zM467 607q0 7 7 7h52q8 0 8 -7v-409q0 -6 -8 -6h-52q-7 0 -7 6v409z" />
    <glyph glyph-name="cid00813" unicode="&#x24a8;" horiz-adv-x="1000" 
d="M237 71q-9 0 -13 6q-54 71 -83 150.5t-29 170.5q0 102 29 179.5t89 145.5q4 6 13 6h35q9 0 9 -7q0 -4 -2 -6q-49 -75 -70.5 -150.5t-21.5 -167.5q0 -47 7.5 -87.5t20 -78t29.5 -74t36 -74.5q1 -2 1 -6q0 -7 -9 -7h-41zM722 71q-10 0 -10 7q0 2 2 6q19 38 36 74.5t29.5 74
t20 78t7.5 87.5q0 92 -20 168.5t-72 149.5q-3 3 -3 6q0 7 10 7h35q8 0 13 -6q27 -36 49 -72.5t37 -75.5t23.5 -82.5t8.5 -94.5q0 -91 -29 -170.5t-83 -150.5q-5 -6 -13 -6h-41zM538 263q0 -6 -9 -6h-50q-8 0 -8 6v186q0 52 -44 52q-15 0 -26.5 -3.5t-26.5 -12.5v-222
q0 -6 -8 -6h-50q-8 0 -8 6v279q0 6 8 6h50q2 0 5 -2t3 -8q16 8 31.5 11.5t35.5 3.5q24 0 45 -8.5t33 -22.5q46 31 87 31q46 0 71 -23t25 -66v-201q0 -6 -8 -6h-51q-7 0 -7 6v186q0 52 -44 52q-28 0 -56 -16q2 -8 2 -12v-9v-201z" />
    <glyph glyph-name="cid00814" unicode="&#x24a9;" horiz-adv-x="1000" 
d="M237 71q-9 0 -13 6q-54 71 -83 150.5t-29 170.5q0 102 29 179.5t89 145.5q4 6 13 6h35q9 0 9 -7q0 -4 -2 -6q-49 -75 -70.5 -150.5t-21.5 -167.5q0 -47 7.5 -87.5t20 -78t29.5 -74t36 -74.5q1 -2 1 -6q0 -7 -9 -7h-41zM722 71q-10 0 -10 7q0 2 2 6q19 38 36 74.5t29.5 74
t20 78t7.5 87.5q0 92 -20 168.5t-72 149.5q-3 3 -3 6q0 7 10 7h35q8 0 13 -6q27 -36 49 -72.5t37 -75.5t23.5 -82.5t8.5 -94.5q0 -91 -29 -170.5t-83 -150.5q-5 -6 -13 -6h-41zM375 532q0 6 8 6h51q8 0 8 -8q24 7 44 10t32 3q50 0 78.5 -28.5t28.5 -78.5v-182q0 -7 -9 -7
h-48q-9 0 -9 7v173q0 64 -55 64q-32 0 -62 -18v-220q0 -6 -8 -6h-51q-8 0 -8 6v279z" />
    <glyph glyph-name="cid00815" unicode="&#x24aa;" horiz-adv-x="1000" 
d="M237 71q-9 0 -13 6q-54 71 -83 150.5t-29 170.5q0 102 29 179.5t89 145.5q4 6 13 6h35q9 0 9 -7q0 -4 -2 -6q-49 -75 -70.5 -150.5t-21.5 -167.5q0 -47 7.5 -87.5t20 -78t29.5 -74t36 -74.5q1 -2 1 -6q0 -7 -9 -7h-41zM722 71q-10 0 -10 7q0 2 2 6q19 38 36 74.5t29.5 74
t20 78t7.5 87.5q0 92 -20 168.5t-72 149.5q-3 3 -3 6q0 7 10 7h35q8 0 13 -6q27 -36 49 -72.5t37 -75.5t23.5 -82.5t8.5 -94.5q0 -91 -29 -170.5t-83 -150.5q-5 -6 -13 -6h-41zM353 390q0 69 40.5 110.5t107.5 41.5q33 0 59.5 -11t46 -31.5t30 -48.5t10.5 -61
q0 -30 -9.5 -57.5t-27.5 -48t-45.5 -33t-63.5 -12.5q-35 0 -62 11.5t-46.5 31.5t-29.5 47.5t-10 60.5zM422 390q0 -48 21 -74.5t58 -26.5q36 0 56.5 27t20.5 74q0 48 -20.5 75.5t-56.5 27.5q-37 0 -58 -27.5t-21 -75.5z" />
    <glyph glyph-name="cid00816" unicode="&#x24ab;" horiz-adv-x="1000" 
d="M237 71q-9 0 -13 6q-54 71 -83 150.5t-29 170.5q0 102 29 179.5t89 145.5q4 6 13 6h35q9 0 9 -7q0 -4 -2 -6q-49 -75 -70.5 -150.5t-21.5 -167.5q0 -47 7.5 -87.5t20 -78t29.5 -74t36 -74.5q1 -2 1 -6q0 -7 -9 -7h-41zM722 71q-10 0 -10 7q0 2 2 6q19 38 36 74.5t29.5 74
t20 78t7.5 87.5q0 92 -20 168.5t-72 149.5q-3 3 -3 6q0 7 10 7h35q8 0 13 -6q27 -36 49 -72.5t37 -75.5t23.5 -82.5t8.5 -94.5q0 -91 -29 -170.5t-83 -150.5q-5 -6 -13 -6h-41zM396 594q0 7 8 7h51q8 0 8 -7v-20q20 13 39.5 17.5t33.5 4.5q60 0 94 -40t34 -111
q0 -70 -34.5 -110.5t-93.5 -40.5q-18 0 -38.5 5t-34.5 19v-136q0 -6 -8 -6h-51q-8 0 -8 6v412zM597 445q0 49 -18 75t-53 26q-19 0 -33.5 -5.5t-29.5 -12.5v-165q18 -11 32 -15.5t31 -4.5q35 0 53 26.5t18 75.5z" />
    <glyph glyph-name="cid00817" unicode="&#x24ac;" horiz-adv-x="1000" 
d="M237 71q-9 0 -13 6q-54 71 -83 150.5t-29 170.5q0 102 29 179.5t89 145.5q4 6 13 6h35q9 0 9 -7q0 -4 -2 -6q-49 -75 -70.5 -150.5t-21.5 -167.5q0 -47 7.5 -87.5t20 -78t29.5 -74t36 -74.5q1 -2 1 -6q0 -7 -9 -7h-41zM722 71q-10 0 -10 7q0 2 2 6q19 38 36 74.5t29.5 74
t20 78t7.5 87.5q0 92 -20 168.5t-72 149.5q-3 3 -3 6q0 7 10 7h35q8 0 13 -6q27 -36 49 -72.5t37 -75.5t23.5 -82.5t8.5 -94.5q0 -91 -29 -170.5t-83 -150.5q-5 -6 -13 -6h-41zM602 182q0 -6 -7 -6h-51q-9 0 -9 6v134q-38 -22 -73 -22q-59 0 -93.5 40.5t-34.5 110.5
q0 71 34 111t94 40q14 0 33.5 -4.5t39.5 -17.5v20q0 7 9 7h51q7 0 7 -7v-412zM401 445q0 -49 18.5 -75.5t52.5 -26.5q33 0 63 20v165q-14 7 -28.5 12.5t-34.5 5.5q-35 0 -53 -26.5t-18 -74.5z" />
    <glyph glyph-name="cid00818" unicode="&#x24ad;" horiz-adv-x="1000" 
d="M237 71q-9 0 -13 6q-54 71 -83 150.5t-29 170.5q0 102 29 179.5t89 145.5q4 6 13 6h35q9 0 9 -7q0 -4 -2 -6q-49 -75 -70.5 -150.5t-21.5 -167.5q0 -47 7.5 -87.5t20 -78t29.5 -74t36 -74.5q1 -2 1 -6q0 -7 -9 -7h-41zM722 71q-10 0 -10 7q0 2 2 6q19 38 36 74.5t29.5 74
t20 78t7.5 87.5q0 92 -20 168.5t-72 149.5q-3 3 -3 6q0 7 10 7h35q8 0 13 -6q27 -36 49 -72.5t37 -75.5t23.5 -82.5t8.5 -94.5q0 -91 -29 -170.5t-83 -150.5q-5 -6 -13 -6h-41zM438 532q0 6 8 6h50q8 0 8 -6v-33q25 25 52 34t50 9q6 0 6 -3v-51q0 -5 -7 -5q-30 0 -52.5 -11
t-48.5 -40v-179q0 -6 -8 -6h-50q-8 0 -8 6v279z" />
    <glyph glyph-name="cid00819" unicode="&#x24ae;" horiz-adv-x="1000" 
d="M237 71q-9 0 -13 6q-54 71 -83 150.5t-29 170.5q0 102 29 179.5t89 145.5q4 6 13 6h35q9 0 9 -7q0 -4 -2 -6q-49 -75 -70.5 -150.5t-21.5 -167.5q0 -47 7.5 -87.5t20 -78t29.5 -74t36 -74.5q1 -2 1 -6q0 -7 -9 -7h-41zM722 71q-10 0 -10 7q0 2 2 6q19 38 36 74.5t29.5 74
t20 78t7.5 87.5q0 92 -20 168.5t-72 149.5q-3 3 -3 6q0 7 10 7h35q8 0 13 -6q27 -36 49 -72.5t37 -75.5t23.5 -82.5t8.5 -94.5q0 -91 -29 -170.5t-83 -150.5q-5 -6 -13 -6h-41zM501 239q-24 0 -45 6.5t-36.5 17.5t-25 27t-9.5 36q0 3 7 3h52q5 0 7 -2q6 -22 16.5 -30.5
t32.5 -8.5q50 0 50 37q0 21 -23.5 33.5t-52 25t-52 30.5t-23.5 51q0 35 28 56t78 21q22 0 41.5 -6t34.5 -16.5t24 -25.5t9 -33q0 -3 -7 -3h-49q-5 0 -5.5 0.5t-2.5 5.5q-7 17 -17 23.5t-27 6.5q-40 0 -40 -33q0 -20 21.5 -30.5t48.5 -21.5q45 -19 63 -37.5t18 -45.5
q0 -42 -30 -64.5t-86 -22.5z" />
    <glyph glyph-name="cid00820" unicode="&#x24af;" horiz-adv-x="1000" 
d="M237 71q-9 0 -13 6q-54 71 -83 150.5t-29 170.5q0 102 29 179.5t89 145.5q4 6 13 6h35q9 0 9 -7q0 -4 -2 -6q-49 -75 -70.5 -150.5t-21.5 -167.5q0 -47 7.5 -87.5t20 -78t29.5 -74t36 -74.5q1 -2 1 -6q0 -7 -9 -7h-41zM722 71q-10 0 -10 7q0 2 2 6q19 38 36 74.5t29.5 74
t20 78t7.5 87.5q0 92 -20 168.5t-72 149.5q-3 3 -3 6q0 7 10 7h35q8 0 13 -6q27 -36 49 -72.5t37 -75.5t23.5 -82.5t8.5 -94.5q0 -91 -29 -170.5t-83 -150.5q-5 -6 -13 -6h-41zM586 498q8 0 8 -6v-38q0 -7 -8 -7h-68v-174q0 -9 5 -15t14 -6q13 0 26.5 3t24.5 3q6 0 6 -4v-39
q0 -5 -8 -7.5t-19.5 -4t-24 -2t-22.5 -0.5q-33 0 -51.5 17.5t-18.5 46.5v182h-42q-8 0 -8 7v38q0 6 8 6h42v72q0 6 9 6h51q8 0 8 -6v-72h68z" />
    <glyph glyph-name="cid00821" unicode="&#x24b0;" horiz-adv-x="1000" 
d="M237 71q-9 0 -13 6q-54 71 -83 150.5t-29 170.5q0 102 29 179.5t89 145.5q4 6 13 6h35q9 0 9 -7q0 -4 -2 -6q-49 -75 -70.5 -150.5t-21.5 -167.5q0 -47 7.5 -87.5t20 -78t29.5 -74t36 -74.5q1 -2 1 -6q0 -7 -9 -7h-41zM722 71q-10 0 -10 7q0 2 2 6q19 38 36 74.5t29.5 74
t20 78t7.5 87.5q0 92 -20 168.5t-72 149.5q-3 3 -3 6q0 7 10 7h35q8 0 13 -6q27 -36 49 -72.5t37 -75.5t23.5 -82.5t8.5 -94.5q0 -91 -29 -170.5t-83 -150.5q-5 -6 -13 -6h-41zM625 248q0 -6 -8 -6h-51q-4 0 -6 2.5t-2 13.5q-12 -8 -33.5 -14t-41.5 -6q-108 0 -108 95v195
q0 6 8 6h50q8 0 8 -6v-193q0 -26 12 -35.5t44 -9.5q17 0 31.5 4.5t29.5 12.5v221q0 5 8 5h51q8 0 8 -5v-280z" />
    <glyph glyph-name="cid00822" unicode="&#x24b1;" horiz-adv-x="1000" 
d="M237 71q-9 0 -13 6q-54 71 -83 150.5t-29 170.5q0 102 29 179.5t89 145.5q4 6 13 6h35q9 0 9 -7q0 -4 -2 -6q-49 -75 -70.5 -150.5t-21.5 -167.5q0 -47 7.5 -87.5t20 -78t29.5 -74t36 -74.5q1 -2 1 -6q0 -7 -9 -7h-41zM722 71q-10 0 -10 7q0 2 2 6q19 38 36 74.5t29.5 74
t20 78t7.5 87.5q0 92 -20 168.5t-72 149.5q-3 3 -3 6q0 7 10 7h35q8 0 13 -6q27 -36 49 -72.5t37 -75.5t23.5 -82.5t8.5 -94.5q0 -91 -29 -170.5t-83 -150.5q-5 -6 -13 -6h-41zM532 238q-1 -2 -3.5 -5t-7.5 -3h-42q-5 0 -7.5 3t-3.5 5l-107 276q-2 4 -2 6q0 4 5 4h57
q5 0 8 -3.5t5 -7.5l66 -193l66 193q2 4 5 7.5t8 3.5h57q4 0 4 -4t-1 -6z" />
    <glyph glyph-name="cid00823" unicode="&#x24b2;" horiz-adv-x="1000" 
d="M617 237q-3 -7 -11 -7h-42q-9 0 -10 7l-54 167l-54 -167q-1 -7 -10 -7h-42q-8 0 -11 7l-87 281q0 1 -0.5 1.5t-0.5 1.5q0 3 7 3h51q5 0 7.5 -1.5t4.5 -6.5l50 -197l53 182q3 7 8 7h48q5 0 7 -6l54 -183l50 197q2 5 4.5 6.5t7.5 1.5h51q6 0 6 -3v-3zM237 71q-9 0 -13 6
q-54 71 -83 150.5t-29 170.5q0 102 29 179.5t89 145.5q4 6 13 6h35q9 0 9 -7q0 -4 -2 -6q-49 -75 -70.5 -150.5t-21.5 -167.5q0 -47 7.5 -87.5t20 -78t29.5 -74t36 -74.5q1 -2 1 -6q0 -7 -9 -7h-41zM722 71q-10 0 -10 7q0 2 2 6q19 38 36 74.5t29.5 74t20 78t7.5 87.5
q0 92 -20 168.5t-72 149.5q-3 3 -3 6q0 7 10 7h35q8 0 13 -6q27 -36 49 -72.5t37 -75.5t23.5 -82.5t8.5 -94.5q0 -91 -29 -170.5t-83 -150.5q-5 -6 -13 -6h-41z" />
    <glyph glyph-name="cid00824" unicode="&#x24b3;" horiz-adv-x="1000" 
d="M237 71q-9 0 -13 6q-54 71 -83 150.5t-29 170.5q0 102 29 179.5t89 145.5q4 6 13 6h35q9 0 9 -7q0 -4 -2 -6q-49 -75 -70.5 -150.5t-21.5 -167.5q0 -47 7.5 -87.5t20 -78t29.5 -74t36 -74.5q1 -2 1 -6q0 -7 -9 -7h-41zM722 71q-10 0 -10 7q0 2 2 6q19 38 36 74.5t29.5 74
t20 78t7.5 87.5q0 92 -20 168.5t-72 149.5q-3 3 -3 6q0 7 10 7h35q8 0 13 -6q27 -36 49 -72.5t37 -75.5t23.5 -82.5t8.5 -94.5q0 -91 -29 -170.5t-83 -150.5q-5 -6 -13 -6h-41zM635 252q0 -1 1 -2q0 -5 -8 -5h-57q-7 0 -12 8l-60 89l-59 -90q-6 -7 -15 -7h-55q-7 0 -7 3
q0 1 2 5l96 145l-86 130q-2 2 -2 4q0 4 7 4h58q7 0 13 -8l48 -72l49 71q2 4 7 6.5t9 2.5h54q7 0 7 -6q0 -1 -0.5 -1.5t-0.5 -1.5l-87 -128z" />
    <glyph glyph-name="cid00825" unicode="&#x24b4;" horiz-adv-x="1000" 
d="M237 71q-9 0 -13 6q-54 71 -83 150.5t-29 170.5q0 102 29 179.5t89 145.5q4 6 13 6h35q9 0 9 -7q0 -4 -2 -6q-49 -75 -70.5 -150.5t-21.5 -167.5q0 -47 7.5 -87.5t20 -78t29.5 -74t36 -74.5q1 -2 1 -6q0 -7 -9 -7h-41zM722 71q-10 0 -10 7q0 2 2 6q19 38 36 74.5t29.5 74
t20 78t7.5 87.5q0 92 -20 168.5t-72 149.5q-3 3 -3 6q0 7 10 7h35q8 0 13 -6q27 -36 49 -72.5t37 -75.5t23.5 -82.5t8.5 -94.5q0 -91 -29 -170.5t-83 -150.5q-5 -6 -13 -6h-41zM368 577q0 1 -0.5 1.5t-0.5 1.5q0 2 7 2h57q8 0 10 -6l64 -192l65 192q2 6 11 6h56q6 0 6 -2
q0 -1 -0.5 -1.5t-0.5 -1.5l-153 -402q-2 -6 -11 -6h-53q-4 0 -4 3q0 2 1 4l50 123z" />
    <glyph glyph-name="cid00826" unicode="&#x24b5;" horiz-adv-x="1000" 
d="M237 71q-9 0 -13 6q-54 71 -83 150.5t-29 170.5q0 102 29 179.5t89 145.5q4 6 13 6h35q9 0 9 -7q0 -4 -2 -6q-49 -75 -70.5 -150.5t-21.5 -167.5q0 -47 7.5 -87.5t20 -78t29.5 -74t36 -74.5q1 -2 1 -6q0 -7 -9 -7h-41zM722 71q-10 0 -10 7q0 2 2 6q19 38 36 74.5t29.5 74
t20 78t7.5 87.5q0 92 -20 168.5t-72 149.5q-3 3 -3 6q0 7 10 7h35q8 0 13 -6q27 -36 49 -72.5t37 -75.5t23.5 -82.5t8.5 -94.5q0 -91 -29 -170.5t-83 -150.5q-5 -6 -13 -6h-41zM393 247q-9 0 -9 7v40q0 5 4 12l143 180h-127q-9 0 -9 7v38q0 7 9 7h195q9 0 9 -8v-40
q0 -8 -4 -13l-146 -178h149q9 0 9 -8v-37q0 -7 -9 -7h-214z" />
    <glyph glyph-name="cid00707" unicode="&#x24d0;" horiz-adv-x="1000" 
d="M500 780q82 0 153 -29t123.5 -80t82 -120.5t29.5 -150.5t-29.5 -150.5t-82 -120.5t-123.5 -80t-153 -29q-83 0 -153.5 29t-123 80t-82 120.5t-29.5 150.5t29.5 150.5t82 120.5t123 80t153.5 29zM500 82q69 0 127.5 23.5t100.5 66t66 101t24 127.5t-24 127.5t-66 101
t-100.5 66t-127.5 23.5t-127.5 -23.5t-100.5 -66t-66 -101t-24 -127.5t24 -127.5t66 -101t100.5 -66t127.5 -23.5zM502 545q124 0 124 -125v-167q0 -6 -9 -6h-50q-9 0 -9 6v7q-17 -8 -39.5 -13t-39.5 -5q-51 0 -77.5 22.5t-26.5 63.5q0 77 111 92q8 1 19 2.5t21.5 3t19.5 3
t12 2.5q-2 34 -16 49t-43 15q-18 0 -33.5 -8.5t-25.5 -25.5q-3 -4 -7 -4q-3 0 -4 1l-40 26q-3 1 -3 4t2 5q17 24 47.5 38t66.5 14zM441 330q0 -17 12.5 -27.5t32.5 -10.5t39 4t33 12v78q-18 -4 -38.5 -7t-38 -8.5t-29 -15t-11.5 -25.5z" />
    <glyph glyph-name="cid00708" unicode="&#x24d1;" horiz-adv-x="1000" 
d="M500 20q-83 0 -153.5 29t-123 80t-82 120.5t-29.5 150.5t29.5 150.5t82 120.5t123 80t153.5 29q82 0 153 -29t123.5 -80t82 -120.5t29.5 -150.5t-29.5 -150.5t-82 -120.5t-123.5 -80t-153 -29zM500 82q69 0 127.5 23.5t100.5 66t66 101t24 127.5t-24 127.5t-66 101
t-100.5 66t-127.5 23.5t-127.5 -23.5t-100.5 -66t-66 -101t-24 -127.5t24 -127.5t66 -101t100.5 -66t127.5 -23.5zM394 608q0 6 8 6h51q8 0 8 -6v-139q39 20 73 20q60 0 94 -40t34 -111q0 -70 -34.5 -110.5t-93.5 -40.5q-20 0 -40.5 6.5t-32.5 14.5v-8q0 -7 -8 -7h-51
q-8 0 -8 6v409zM595 338q0 101 -71 101q-17 0 -31 -3.5t-32 -11.5v-171q16 -10 29 -13t34 -3q35 0 53 26t18 75z" />
    <glyph glyph-name="cid00709" unicode="&#x24d2;" horiz-adv-x="1000" 
d="M500 20q-83 0 -153.5 29t-123 80t-82 120.5t-29.5 150.5t29.5 150.5t82 120.5t123 80t153.5 29q82 0 153 -29t123.5 -80t82 -120.5t29.5 -150.5t-29.5 -150.5t-82 -120.5t-123.5 -80t-153 -29zM500 82q69 0 127.5 23.5t100.5 66t66 101t24 127.5t-24 127.5t-66 101
t-100.5 66t-127.5 23.5t-127.5 -23.5t-100.5 -66t-66 -101t-24 -127.5t24 -127.5t66 -101t100.5 -66t127.5 -23.5zM634 442q0 -5 -7 -5h-53q-5 0 -5 4q-5 23 -22.5 37.5t-40.5 14.5q-36 0 -55.5 -27t-19.5 -76q0 -47 20 -74t55 -27q55 0 64 56q0 4 0.5 6.5t6.5 2.5h53
q7 0 7 -8q0 -24 -11.5 -44t-30 -34t-42 -21.5t-47.5 -7.5q-31 0 -57 10.5t-45.5 30t-30.5 47.5t-11 63q0 68 39.5 110t104.5 42q46 0 81.5 -26.5t46.5 -70.5v-3z" />
    <glyph glyph-name="cid00710" unicode="&#x24d3;" horiz-adv-x="1000" 
d="M500 20q-83 0 -153.5 29t-123 80t-82 120.5t-29.5 150.5t29.5 150.5t82 120.5t123 80t153.5 29q82 0 153 -29t123.5 -80t82 -120.5t29.5 -150.5t-29.5 -150.5t-82 -120.5t-123.5 -80t-153 -29zM500 82q69 0 127.5 23.5t100.5 66t66 101t24 127.5t-24 127.5t-66 101
t-100.5 66t-127.5 23.5t-127.5 -23.5t-100.5 -66t-66 -101t-24 -127.5t24 -127.5t66 -101t100.5 -66t127.5 -23.5zM530 204q-8 -5 -25.5 -8.5t-34.5 -3.5q-60 0 -94 38t-34 107q0 68 34 107t94 39q15 0 30 -3.5t32 -11.5v134q0 7 8 7h51q8 0 8 -7v-409q0 -6 -8 -6h-51
q-3 0 -6.5 1t-3.5 5v11zM409 337q0 -46 18 -70.5t53 -24.5q25 0 52 12v168q-23 11 -52 11q-71 0 -71 -96z" />
    <glyph glyph-name="cid00711" unicode="&#x24d4;" horiz-adv-x="1000" 
d="M500 20q-83 0 -153.5 29t-123 80t-82 120.5t-29.5 150.5t29.5 150.5t82 120.5t123 80t153.5 29q82 0 153 -29t123.5 -80t82 -120.5t29.5 -150.5t-29.5 -150.5t-82 -120.5t-123.5 -80t-153 -29zM500 82q69 0 127.5 23.5t100.5 66t66 101t24 127.5t-24 127.5t-66 101
t-100.5 66t-127.5 23.5t-127.5 -23.5t-100.5 -66t-66 -101t-24 -127.5t24 -127.5t66 -101t100.5 -66t127.5 -23.5zM506 289q22 0 36.5 10.5t18.5 28.5q1 5 7 5h56q4 0 4 -3q0 -1 -0.5 -1.5t-0.5 -1.5q-26 -88 -121 -88q-67 0 -105.5 40.5t-38.5 110.5q0 33 10 60.5t28.5 48
t44.5 32t58 11.5q30 0 55 -10.5t42.5 -30t27.5 -46.5t10 -60v-17q0 -7 -7 -7h-199q6 -82 74 -82zM507 493q-63 0 -74 -75h135q0 33 -16.5 54t-44.5 21z" />
    <glyph glyph-name="cid00712" unicode="&#x24d5;" horiz-adv-x="1000" 
d="M500 20q-83 0 -153.5 29t-123 80t-82 120.5t-29.5 150.5t29.5 150.5t82 120.5t123 80t153.5 29q82 0 153 -29t123.5 -80t82 -120.5t29.5 -150.5t-29.5 -150.5t-82 -120.5t-123.5 -80t-153 -29zM500 82q69 0 127.5 23.5t100.5 66t66 101t24 127.5t-24 127.5t-66 101
t-100.5 66t-127.5 23.5t-127.5 -23.5t-100.5 -66t-66 -101t-24 -127.5t24 -127.5t66 -101t100.5 -66t127.5 -23.5zM584 470q8 0 8 -6v-38q0 -7 -8 -7h-68v-234q0 -6 -8 -6h-51q-8 0 -8 6v234h-43q-8 0 -8 7v38q0 6 8 6h43v15q0 119 94 119q7 0 17 -0.5t18 -1.5t14 -3t6 -5
v-40q0 -3 -4 -3q-7 0 -16 2t-18 2q-29 0 -36.5 -16t-7.5 -54v-15h68z" />
    <glyph glyph-name="cid00713" unicode="&#x24d6;" horiz-adv-x="1000" 
d="M500 20q-83 0 -153.5 29t-123 80t-82 120.5t-29.5 150.5t29.5 150.5t82 120.5t123 80t153.5 29q82 0 153 -29t123.5 -80t82 -120.5t29.5 -150.5t-29.5 -150.5t-82 -120.5t-123.5 -80t-153 -29zM500 82q69 0 127.5 23.5t100.5 66t66 101t24 127.5t-24 127.5t-66 101
t-100.5 66t-127.5 23.5t-127.5 -23.5t-100.5 -66t-66 -101t-24 -127.5t24 -127.5t66 -101t100.5 -66t127.5 -23.5zM552 583q0 6 8 6h51q8 0 8 -6v-271q0 -66 -31.5 -101t-90.5 -35q-12 0 -30 2.5t-34 6.5t-27.5 10t-11.5 13v46q0 3 3 3q1 0 5 -2q43 -29 86 -29q64 0 64 88
q-25 -7 -37 -9.5t-25 -2.5q-60 0 -94 37.5t-34 103.5q0 70 34.5 110.5t93.5 40.5q14 0 27.5 -3t34.5 -8zM429 443q0 -92 71 -92q25 0 52 12v170q-23 11 -52 11q-34 0 -52.5 -26.5t-18.5 -74.5z" />
    <glyph glyph-name="cid00714" unicode="&#x24d7;" horiz-adv-x="1000" 
d="M500 20q-83 0 -153.5 29t-123 80t-82 120.5t-29.5 150.5t29.5 150.5t82 120.5t123 80t153.5 29q82 0 153 -29t123.5 -80t82 -120.5t29.5 -150.5t-29.5 -150.5t-82 -120.5t-123.5 -80t-153 -29zM500 82q69 0 127.5 23.5t100.5 66t66 101t24 127.5t-24 127.5t-66 101
t-100.5 66t-127.5 23.5t-127.5 -23.5t-100.5 -66t-66 -101t-24 -127.5t24 -127.5t66 -101t100.5 -66t127.5 -23.5zM640 203q0 -6 -10 -6h-46q-10 0 -10 6v174q0 31 -15 48t-42 17q-31 0 -60 -11v-228q0 -6 -10 -6h-47q-10 0 -10 6v409q0 7 10 7h47q10 0 10 -7v-132
q30 13 74 13q50 0 79.5 -29t29.5 -78v-183z" />
    <glyph glyph-name="cid00715" unicode="&#x24d8;" horiz-adv-x="1000" 
d="M500 20q-83 0 -153.5 29t-123 80t-82 120.5t-29.5 150.5t29.5 150.5t82 120.5t123 80t153.5 29q82 0 153 -29t123.5 -80t82 -120.5t29.5 -150.5t-29.5 -150.5t-82 -120.5t-123.5 -80t-153 -29zM500 82q69 0 127.5 23.5t100.5 66t66 101t24 127.5t-24 127.5t-66 101
t-100.5 66t-127.5 23.5t-127.5 -23.5t-100.5 -66t-66 -101t-24 -127.5t24 -127.5t66 -101t100.5 -66t127.5 -23.5zM467 594q0 6 7 6h52q8 0 8 -6v-54q0 -6 -8 -6h-52q-7 0 -7 6v54zM467 477q0 6 7 6h52q8 0 8 -6v-279q0 -6 -8 -6h-52q-7 0 -7 6v279z" />
    <glyph glyph-name="cid00716" unicode="&#x24d9;" horiz-adv-x="1000" 
d="M500 20q-83 0 -153.5 29t-123 80t-82 120.5t-29.5 150.5t29.5 150.5t82 120.5t123 80t153.5 29q82 0 153 -29t123.5 -80t82 -120.5t29.5 -150.5t-29.5 -150.5t-82 -120.5t-123.5 -80t-153 -29zM500 82q69 0 127.5 23.5t100.5 66t66 101t24 127.5t-24 127.5t-66 101
t-100.5 66t-127.5 23.5t-127.5 -23.5t-100.5 -66t-66 -101t-24 -127.5t24 -127.5t66 -101t100.5 -66t127.5 -23.5zM498 627q0 5 7 5h51q9 0 9 -5v-55q0 -6 -9 -6h-51q-7 0 -7 6v55zM498 509q0 6 7 6h51q9 0 9 -6v-207q0 -69 -25.5 -102t-78.5 -33q-7 0 -20.5 2t-27 6
t-23.5 9.5t-10 12.5v46q0 3 4 3q1 0 5 -2q19 -15 33.5 -21t31.5 -6q23 0 33.5 20.5t10.5 58.5v213z" />
    <glyph glyph-name="cid00717" unicode="&#x24da;" horiz-adv-x="1000" 
d="M500 20q-83 0 -153.5 29t-123 80t-82 120.5t-29.5 150.5t29.5 150.5t82 120.5t123 80t153.5 29q82 0 153 -29t123.5 -80t82 -120.5t29.5 -150.5t-29.5 -150.5t-82 -120.5t-123.5 -80t-153 -29zM500 82q69 0 127.5 23.5t100.5 66t66 101t24 127.5t-24 127.5t-66 101
t-100.5 66t-127.5 23.5t-127.5 -23.5t-100.5 -66t-66 -101t-24 -127.5t24 -127.5t66 -101t100.5 -66t127.5 -23.5zM562 509q6 6 14 6h61q6 0 6 -2q0 -1 -2 -3l-108 -126q20 -4 35 -26l100 -154q2 -4 2 -5q0 -2 -5 -2h-65q-7 0 -10 7l-70 114q-11 17 -21 17q-7 0 -14 -6
l-39 -44v-81q0 -7 -10 -7h-49q-3 0 -6 2.5t-3 4.5v407q0 8 9 8h49q10 0 10 -8v-241z" />
    <glyph glyph-name="cid00718" unicode="&#x24db;" horiz-adv-x="1000" 
d="M500 20q-83 0 -153.5 29t-123 80t-82 120.5t-29.5 150.5t29.5 150.5t82 120.5t123 80t153.5 29q82 0 153 -29t123.5 -80t82 -120.5t29.5 -150.5t-29.5 -150.5t-82 -120.5t-123.5 -80t-153 -29zM500 82q69 0 127.5 23.5t100.5 66t66 101t24 127.5t-24 127.5t-66 101
t-100.5 66t-127.5 23.5t-127.5 -23.5t-100.5 -66t-66 -101t-24 -127.5t24 -127.5t66 -101t100.5 -66t127.5 -23.5zM467 607q0 7 7 7h52q8 0 8 -7v-409q0 -6 -8 -6h-52q-7 0 -7 6v409z" />
    <glyph glyph-name="cid00719" unicode="&#x24dc;" horiz-adv-x="1000" 
d="M500 20q-83 0 -153.5 29t-123 80t-82 120.5t-29.5 150.5t29.5 150.5t82 120.5t123 80t153.5 29q82 0 153 -29t123.5 -80t82 -120.5t29.5 -150.5t-29.5 -150.5t-82 -120.5t-123.5 -80t-153 -29zM500 82q69 0 127.5 23.5t100.5 66t66 101t24 127.5t-24 127.5t-66 101
t-100.5 66t-127.5 23.5t-127.5 -23.5t-100.5 -66t-66 -101t-24 -127.5t24 -127.5t66 -101t100.5 -66t127.5 -23.5zM538 263q0 -6 -9 -6h-50q-8 0 -8 6v186q0 52 -44 52q-15 0 -26.5 -3.5t-26.5 -12.5v-222q0 -6 -8 -6h-50q-8 0 -8 6v279q0 6 8 6h50q2 0 5 -2t3 -8
q16 8 31.5 11.5t35.5 3.5q24 0 45 -8.5t33 -22.5q46 31 87 31q46 0 71 -23t25 -66v-201q0 -6 -8 -6h-51q-7 0 -7 6v186q0 52 -44 52q-28 0 -56 -16q2 -8 2 -12v-9v-201z" />
    <glyph glyph-name="cid00720" unicode="&#x24dd;" horiz-adv-x="1000" 
d="M500 20q-83 0 -153.5 29t-123 80t-82 120.5t-29.5 150.5t29.5 150.5t82 120.5t123 80t153.5 29q82 0 153 -29t123.5 -80t82 -120.5t29.5 -150.5t-29.5 -150.5t-82 -120.5t-123.5 -80t-153 -29zM500 82q69 0 127.5 23.5t100.5 66t66 101t24 127.5t-24 127.5t-66 101
t-100.5 66t-127.5 23.5t-127.5 -23.5t-100.5 -66t-66 -101t-24 -127.5t24 -127.5t66 -101t100.5 -66t127.5 -23.5zM375 532q0 6 8 6h51q8 0 8 -8q24 7 44 10t32 3q50 0 78.5 -28.5t28.5 -78.5v-182q0 -7 -9 -7h-48q-9 0 -9 7v173q0 64 -55 64q-32 0 -62 -18v-220q0 -6 -8 -6
h-51q-8 0 -8 6v279z" />
    <glyph glyph-name="cid00721" unicode="&#x24de;" horiz-adv-x="1000" 
d="M500 20q-83 0 -153.5 29t-123 80t-82 120.5t-29.5 150.5t29.5 150.5t82 120.5t123 80t153.5 29q82 0 153 -29t123.5 -80t82 -120.5t29.5 -150.5t-29.5 -150.5t-82 -120.5t-123.5 -80t-153 -29zM500 82q69 0 127.5 23.5t100.5 66t66 101t24 127.5t-24 127.5t-66 101
t-100.5 66t-127.5 23.5t-127.5 -23.5t-100.5 -66t-66 -101t-24 -127.5t24 -127.5t66 -101t100.5 -66t127.5 -23.5zM353 390q0 69 40.5 110.5t107.5 41.5q33 0 59.5 -11t46 -31.5t30 -48.5t10.5 -61q0 -30 -9.5 -57.5t-27.5 -48t-45.5 -33t-63.5 -12.5q-35 0 -62 11.5
t-46.5 31.5t-29.5 47.5t-10 60.5zM422 390q0 -48 21 -74.5t58 -26.5q36 0 56.5 27t20.5 74q0 48 -20.5 75.5t-56.5 27.5q-37 0 -58 -27.5t-21 -75.5z" />
    <glyph glyph-name="cid00722" unicode="&#x24df;" horiz-adv-x="1000" 
d="M500 20q-83 0 -153.5 29t-123 80t-82 120.5t-29.5 150.5t29.5 150.5t82 120.5t123 80t153.5 29q82 0 153 -29t123.5 -80t82 -120.5t29.5 -150.5t-29.5 -150.5t-82 -120.5t-123.5 -80t-153 -29zM500 82q69 0 127.5 23.5t100.5 66t66 101t24 127.5t-24 127.5t-66 101
t-100.5 66t-127.5 23.5t-127.5 -23.5t-100.5 -66t-66 -101t-24 -127.5t24 -127.5t66 -101t100.5 -66t127.5 -23.5zM396 594q0 7 8 7h51q8 0 8 -7v-20q20 13 39.5 17.5t33.5 4.5q60 0 94 -40t34 -111q0 -70 -34.5 -110.5t-93.5 -40.5q-18 0 -38.5 5t-34.5 19v-136q0 -6 -8 -6
h-51q-8 0 -8 6v412zM597 445q0 49 -18 75t-53 26q-19 0 -33.5 -5.5t-29.5 -12.5v-165q18 -11 32 -15.5t31 -4.5q35 0 53 26.5t18 75.5z" />
    <glyph glyph-name="cid00723" unicode="&#x24e0;" horiz-adv-x="1000" 
d="M500 20q-83 0 -153.5 29t-123 80t-82 120.5t-29.5 150.5t29.5 150.5t82 120.5t123 80t153.5 29q82 0 153 -29t123.5 -80t82 -120.5t29.5 -150.5t-29.5 -150.5t-82 -120.5t-123.5 -80t-153 -29zM500 82q69 0 127.5 23.5t100.5 66t66 101t24 127.5t-24 127.5t-66 101
t-100.5 66t-127.5 23.5t-127.5 -23.5t-100.5 -66t-66 -101t-24 -127.5t24 -127.5t66 -101t100.5 -66t127.5 -23.5zM602 182q0 -6 -7 -6h-51q-9 0 -9 6v134q-38 -22 -73 -22q-59 0 -93.5 40.5t-34.5 110.5q0 71 34 111t94 40q14 0 33.5 -4.5t39.5 -17.5v20q0 7 9 7h51
q7 0 7 -7v-412zM401 445q0 -49 18.5 -75.5t52.5 -26.5q33 0 63 20v165q-14 7 -28.5 12.5t-34.5 5.5q-35 0 -53 -26.5t-18 -74.5z" />
    <glyph glyph-name="cid00724" unicode="&#x24e1;" horiz-adv-x="1000" 
d="M500 20q-83 0 -153.5 29t-123 80t-82 120.5t-29.5 150.5t29.5 150.5t82 120.5t123 80t153.5 29q82 0 153 -29t123.5 -80t82 -120.5t29.5 -150.5t-29.5 -150.5t-82 -120.5t-123.5 -80t-153 -29zM500 82q69 0 127.5 23.5t100.5 66t66 101t24 127.5t-24 127.5t-66 101
t-100.5 66t-127.5 23.5t-127.5 -23.5t-100.5 -66t-66 -101t-24 -127.5t24 -127.5t66 -101t100.5 -66t127.5 -23.5zM438 532q0 6 8 6h50q8 0 8 -6v-33q25 25 52 34t50 9q6 0 6 -3v-51q0 -5 -7 -5q-30 0 -52.5 -11t-48.5 -40v-179q0 -6 -8 -6h-50q-8 0 -8 6v279z" />
    <glyph glyph-name="cid00725" unicode="&#x24e2;" horiz-adv-x="1000" 
d="M500 20q-83 0 -153.5 29t-123 80t-82 120.5t-29.5 150.5t29.5 150.5t82 120.5t123 80t153.5 29q82 0 153 -29t123.5 -80t82 -120.5t29.5 -150.5t-29.5 -150.5t-82 -120.5t-123.5 -80t-153 -29zM500 82q69 0 127.5 23.5t100.5 66t66 101t24 127.5t-24 127.5t-66 101
t-100.5 66t-127.5 23.5t-127.5 -23.5t-100.5 -66t-66 -101t-24 -127.5t24 -127.5t66 -101t100.5 -66t127.5 -23.5zM501 239q-24 0 -45 6.5t-36.5 17.5t-25 27t-9.5 36q0 3 7 3h52q5 0 7 -2q6 -22 16.5 -30.5t32.5 -8.5q50 0 50 37q0 21 -23.5 33.5t-52 25t-52 30.5t-23.5 51
q0 35 28 56t78 21q22 0 41.5 -6t34.5 -16.5t24 -25.5t9 -33q0 -3 -7 -3h-49q-5 0 -5.5 0.5t-2.5 5.5q-7 17 -17 23.5t-27 6.5q-40 0 -40 -33q0 -20 21.5 -30.5t48.5 -21.5q45 -19 63 -37.5t18 -45.5q0 -42 -30 -64.5t-86 -22.5z" />
    <glyph glyph-name="cid00726" unicode="&#x24e3;" horiz-adv-x="1000" 
d="M500 20q-83 0 -153.5 29t-123 80t-82 120.5t-29.5 150.5t29.5 150.5t82 120.5t123 80t153.5 29q82 0 153 -29t123.5 -80t82 -120.5t29.5 -150.5t-29.5 -150.5t-82 -120.5t-123.5 -80t-153 -29zM500 82q69 0 127.5 23.5t100.5 66t66 101t24 127.5t-24 127.5t-66 101
t-100.5 66t-127.5 23.5t-127.5 -23.5t-100.5 -66t-66 -101t-24 -127.5t24 -127.5t66 -101t100.5 -66t127.5 -23.5zM586 498q8 0 8 -6v-38q0 -7 -8 -7h-68v-174q0 -9 5 -15t14 -6q13 0 26.5 3t24.5 3q6 0 6 -4v-39q0 -5 -8 -7.5t-19.5 -4t-24 -2t-22.5 -0.5q-33 0 -51.5 17.5
t-18.5 46.5v182h-42q-8 0 -8 7v38q0 6 8 6h42v72q0 6 9 6h51q8 0 8 -6v-72h68z" />
    <glyph glyph-name="cid00727" unicode="&#x24e4;" horiz-adv-x="1000" 
d="M500 20q-83 0 -153.5 29t-123 80t-82 120.5t-29.5 150.5t29.5 150.5t82 120.5t123 80t153.5 29q82 0 153 -29t123.5 -80t82 -120.5t29.5 -150.5t-29.5 -150.5t-82 -120.5t-123.5 -80t-153 -29zM500 82q69 0 127.5 23.5t100.5 66t66 101t24 127.5t-24 127.5t-66 101
t-100.5 66t-127.5 23.5t-127.5 -23.5t-100.5 -66t-66 -101t-24 -127.5t24 -127.5t66 -101t100.5 -66t127.5 -23.5zM625 248q0 -6 -8 -6h-51q-4 0 -6 2.5t-2 13.5q-12 -8 -33.5 -14t-41.5 -6q-108 0 -108 95v195q0 6 8 6h50q8 0 8 -6v-193q0 -26 12 -35.5t44 -9.5
q17 0 31.5 4.5t29.5 12.5v221q0 5 8 5h51q8 0 8 -5v-280z" />
    <glyph glyph-name="cid00728" unicode="&#x24e5;" horiz-adv-x="1000" 
d="M500 20q-83 0 -153.5 29t-123 80t-82 120.5t-29.5 150.5t29.5 150.5t82 120.5t123 80t153.5 29q82 0 153 -29t123.5 -80t82 -120.5t29.5 -150.5t-29.5 -150.5t-82 -120.5t-123.5 -80t-153 -29zM500 82q69 0 127.5 23.5t100.5 66t66 101t24 127.5t-24 127.5t-66 101
t-100.5 66t-127.5 23.5t-127.5 -23.5t-100.5 -66t-66 -101t-24 -127.5t24 -127.5t66 -101t100.5 -66t127.5 -23.5zM532 238q-1 -2 -3.5 -5t-7.5 -3h-42q-5 0 -7.5 3t-3.5 5l-107 276q-2 4 -2 6q0 4 5 4h57q5 0 8 -3.5t5 -7.5l66 -193l66 193q2 4 5 7.5t8 3.5h57q4 0 4 -4
t-1 -6z" />
    <glyph glyph-name="cid00729" unicode="&#x24e6;" horiz-adv-x="1000" 
d="M500 20q-83 0 -153.5 29t-123 80t-82 120.5t-29.5 150.5t29.5 150.5t82 120.5t123 80t153.5 29q82 0 153 -29t123.5 -80t82 -120.5t29.5 -150.5t-29.5 -150.5t-82 -120.5t-123.5 -80t-153 -29zM500 82q69 0 127.5 23.5t100.5 66t66 101t24 127.5t-24 127.5t-66 101
t-100.5 66t-127.5 23.5t-127.5 -23.5t-100.5 -66t-66 -101t-24 -127.5t24 -127.5t66 -101t100.5 -66t127.5 -23.5zM617 237q-3 -7 -11 -7h-42q-9 0 -10 7l-54 167l-54 -167q-1 -7 -10 -7h-42q-8 0 -11 7l-87 281q0 1 -0.5 1.5t-0.5 1.5q0 3 7 3h51q5 0 7.5 -1.5t4.5 -6.5
l50 -197l53 182q3 7 8 7h48q5 0 7 -6l54 -183l50 197q2 5 4.5 6.5t7.5 1.5h51q6 0 6 -3v-3z" />
    <glyph glyph-name="cid00730" unicode="&#x24e7;" horiz-adv-x="1000" 
d="M500 20q-83 0 -153.5 29t-123 80t-82 120.5t-29.5 150.5t29.5 150.5t82 120.5t123 80t153.5 29q82 0 153 -29t123.5 -80t82 -120.5t29.5 -150.5t-29.5 -150.5t-82 -120.5t-123.5 -80t-153 -29zM500 82q69 0 127.5 23.5t100.5 66t66 101t24 127.5t-24 127.5t-66 101
t-100.5 66t-127.5 23.5t-127.5 -23.5t-100.5 -66t-66 -101t-24 -127.5t24 -127.5t66 -101t100.5 -66t127.5 -23.5zM635 252q0 -1 1 -2q0 -5 -8 -5h-57q-7 0 -12 8l-60 89l-59 -90q-6 -7 -15 -7h-55q-7 0 -7 3q0 1 2 5l96 145l-86 130q-2 2 -2 4q0 4 7 4h58q7 0 13 -8l48 -72
l49 71q2 4 7 6.5t9 2.5h54q7 0 7 -6q0 -1 -0.5 -1.5t-0.5 -1.5l-87 -128z" />
    <glyph glyph-name="cid00731" unicode="&#x24e8;" horiz-adv-x="1000" 
d="M500 20q-83 0 -153.5 29t-123 80t-82 120.5t-29.5 150.5t29.5 150.5t82 120.5t123 80t153.5 29q82 0 153 -29t123.5 -80t82 -120.5t29.5 -150.5t-29.5 -150.5t-82 -120.5t-123.5 -80t-153 -29zM500 82q69 0 127.5 23.5t100.5 66t66 101t24 127.5t-24 127.5t-66 101
t-100.5 66t-127.5 23.5t-127.5 -23.5t-100.5 -66t-66 -101t-24 -127.5t24 -127.5t66 -101t100.5 -66t127.5 -23.5zM368 577q0 1 -0.5 1.5t-0.5 1.5q0 2 7 2h57q8 0 10 -6l64 -192l65 192q2 6 11 6h56q6 0 6 -2q0 -1 -0.5 -1.5t-0.5 -1.5l-153 -402q-2 -6 -11 -6h-53
q-4 0 -4 3q0 2 1 4l50 123z" />
    <glyph glyph-name="cid00732" unicode="&#x24e9;" horiz-adv-x="1000" 
d="M500 20q-83 0 -153.5 29t-123 80t-82 120.5t-29.5 150.5t29.5 150.5t82 120.5t123 80t153.5 29q82 0 153 -29t123.5 -80t82 -120.5t29.5 -150.5t-29.5 -150.5t-82 -120.5t-123.5 -80t-153 -29zM500 82q69 0 127.5 23.5t100.5 66t66 101t24 127.5t-24 127.5t-66 101
t-100.5 66t-127.5 23.5t-127.5 -23.5t-100.5 -66t-66 -101t-24 -127.5t24 -127.5t66 -101t100.5 -66t127.5 -23.5zM393 247q-9 0 -9 7v40q0 5 4 12l143 180h-127q-9 0 -9 7v38q0 7 9 7h195q9 0 9 -8v-40q0 -8 -4 -13l-146 -178h149q9 0 9 -8v-37q0 -7 -9 -7h-214z" />
    <glyph glyph-name="cid00519" unicode="&#x2500;" horiz-adv-x="1000" 
d="M1000 381v-52h-1000v52h1000z" />
    <glyph glyph-name="cid00530" unicode="&#x2501;" horiz-adv-x="1000" 
d="M1000 406v-102h-1000v102h1000z" />
    <glyph glyph-name="cid00520" unicode="&#x2502;" horiz-adv-x="1000" 
d="M528 855v-1000h-56v1000h56z" />
    <glyph glyph-name="cid00531" unicode="&#x2503;" horiz-adv-x="1000" 
d="M550 855v-1000h-100v1000h100z" />
    <glyph glyph-name="cid00521" unicode="&#x250c;" horiz-adv-x="1000" 
d="M472 -145v526h528v-52h-472v-474h-56z" />
    <glyph glyph-name="cid00558" unicode="&#x250d;" horiz-adv-x="1000" 
d="M472 -145v551h528v-102h-472v-449h-56z" />
    <glyph glyph-name="cid00557" unicode="&#x250e;" horiz-adv-x="1000" 
d="M450 -145v526h550v-52h-450v-474h-100z" />
    <glyph glyph-name="cid00532" unicode="&#x250f;" horiz-adv-x="1000" 
d="M450 -145v551h550v-102h-450v-449h-100z" />
    <glyph glyph-name="cid00522" unicode="&#x2510;" horiz-adv-x="1000" 
d="M0 329v52h528v-526h-56v474h-472z" />
    <glyph glyph-name="cid00552" unicode="&#x2511;" horiz-adv-x="1000" 
d="M0 304v102h528v-551h-56v449h-472z" />
    <glyph glyph-name="cid00551" unicode="&#x2512;" horiz-adv-x="1000" 
d="M0 329v52h550v-526h-100v474h-450z" />
    <glyph glyph-name="cid00533" unicode="&#x2513;" horiz-adv-x="1000" 
d="M0 304v102h550v-551h-100v449h-450z" />
    <glyph glyph-name="cid00524" unicode="&#x2514;" horiz-adv-x="1000" 
d="M528 855v-474h472v-52h-528v526h56z" />
    <glyph glyph-name="cid00556" unicode="&#x2515;" horiz-adv-x="1000" 
d="M528 855v-449h472v-102h-528v551h56z" />
    <glyph glyph-name="cid00555" unicode="&#x2516;" horiz-adv-x="1000" 
d="M550 855v-474h450v-52h-550v526h100z" />
    <glyph glyph-name="cid00535" unicode="&#x2517;" horiz-adv-x="1000" 
d="M550 855v-449h450v-102h-550v551h100z" />
    <glyph glyph-name="cid00523" unicode="&#x2518;" horiz-adv-x="1000" 
d="M472 381v474h56v-526h-528v52h472z" />
    <glyph glyph-name="cid00554" unicode="&#x2519;" horiz-adv-x="1000" 
d="M472 406v449h56v-551h-528v102h472z" />
    <glyph glyph-name="cid00553" unicode="&#x251a;" horiz-adv-x="1000" 
d="M450 381v474h100v-526h-550v52h450z" />
    <glyph glyph-name="cid00534" unicode="&#x251b;" horiz-adv-x="1000" 
d="M450 406v449h100v-551h-550v102h450z" />
    <glyph glyph-name="cid00525" unicode="&#x251c;" horiz-adv-x="1000" 
d="M472 -145v1000h56v-474h472v-52h-472v-474h-56z" />
    <glyph glyph-name="cid00546" unicode="&#x251d;" horiz-adv-x="1000" 
d="M472 -145v1000h56v-449h472v-102h-472v-449h-56z" />
    <glyph glyph-name="cid00559" unicode="&#x251e;" horiz-adv-x="1000" 
d="M472 -145v474h-22v526h100v-474h450v-52h-472v-474h-56z" />
    <glyph glyph-name="cid00560" unicode="&#x251f;" horiz-adv-x="1000" 
d="M450 -145v526h22v474h56v-474h472v-52h-450v-474h-100z" />
    <glyph glyph-name="cid00541" unicode="&#x2520;" horiz-adv-x="1000" 
d="M450 -145v1000h100v-474h450v-52h-450v-474h-100z" />
    <glyph glyph-name="cid00561" unicode="&#x2521;" horiz-adv-x="1000" 
d="M472 -145v449h-22v551h100v-449h450v-102h-472v-449h-56z" />
    <glyph glyph-name="cid00562" unicode="&#x2522;" horiz-adv-x="1000" 
d="M450 -145v550h22v450h56v-449h472v-102h-450v-449h-100z" />
    <glyph glyph-name="cid00536" unicode="&#x2523;" horiz-adv-x="1000" 
d="M450 -145v1000h100v-449h450v-102h-450v-449h-100z" />
    <glyph glyph-name="cid00527" unicode="&#x2524;" horiz-adv-x="1000" 
d="M0 329v52h472v474h56v-1000h-56v474h-472z" />
    <glyph glyph-name="cid00548" unicode="&#x2525;" horiz-adv-x="1000" 
d="M0 304v102h472v449h56v-1000h-56v449h-472z" />
    <glyph glyph-name="cid00563" unicode="&#x2526;" horiz-adv-x="1000" 
d="M472 -145v474h-472v52h450v474h100v-526h-22v-474h-56z" />
    <glyph glyph-name="cid00564" unicode="&#x2527;" horiz-adv-x="1000" 
d="M0 329v52h472v474h56v-474h22v-526h-100v474h-450z" />
    <glyph glyph-name="cid00543" unicode="&#x2528;" horiz-adv-x="1000" 
d="M0 329v52h450v474h100v-1000h-100v474h-450z" />
    <glyph glyph-name="cid00565" unicode="&#x2529;" horiz-adv-x="1000" 
d="M472 -145v449h-472v102h450v449h100v-551h-22v-449h-56z" />
    <glyph glyph-name="cid00566" unicode="&#x252a;" horiz-adv-x="1000" 
d="M0 304v102h472v449h56v-449h22v-551h-100v449h-450z" />
    <glyph glyph-name="cid00538" unicode="&#x252b;" horiz-adv-x="1000" 
d="M0 304v102h450v449h100v-1000h-100v449h-450z" />
    <glyph glyph-name="cid00526" unicode="&#x252c;" horiz-adv-x="1000" 
d="M472 -145v474h-472v52h1000v-52h-472v-474h-56z" />
    <glyph glyph-name="cid00567" unicode="&#x252d;" horiz-adv-x="1000" 
d="M472 -145v449h-472v102h528v-25h472v-52h-472v-474h-56z" />
    <glyph glyph-name="cid00568" unicode="&#x252e;" horiz-adv-x="1000" 
d="M472 -145v474h-472v52h472v25h528v-102h-472v-449h-56z" />
    <glyph glyph-name="cid00542" unicode="&#x252f;" horiz-adv-x="1000" 
d="M472 -145v449h-472v102h1000v-102h-472v-449h-56z" />
    <glyph glyph-name="cid00547" unicode="&#x2530;" horiz-adv-x="1000" 
d="M450 -145v474h-450v52h1000v-52h-450v-474h-100z" />
    <glyph glyph-name="cid00569" unicode="&#x2531;" horiz-adv-x="1000" 
d="M450 -145v449h-450v102h550v-25h450v-52h-450v-474h-100z" />
    <glyph glyph-name="cid00570" unicode="&#x2532;" horiz-adv-x="1000" 
d="M450 -145v474h-450v52h450v25h550v-102h-450v-449h-100z" />
    <glyph glyph-name="cid00537" unicode="&#x2533;" horiz-adv-x="1000" 
d="M450 -145v449h-450v102h1000v-102h-450v-449h-100z" />
    <glyph glyph-name="cid00528" unicode="&#x2534;" horiz-adv-x="1000" 
d="M472 381v474h56v-474h472v-52h-1000v52h472z" />
    <glyph glyph-name="cid00571" unicode="&#x2535;" horiz-adv-x="1000" 
d="M0 304v102h472v449h56v-474h472v-52h-472v-25h-528z" />
    <glyph glyph-name="cid00572" unicode="&#x2536;" horiz-adv-x="1000" 
d="M0 329v52h472v474h56v-449h472v-102h-528v25h-472z" />
    <glyph glyph-name="cid00544" unicode="&#x2537;" horiz-adv-x="1000" 
d="M472 406v449h56v-449h472v-102h-1000v102h472z" />
    <glyph glyph-name="cid00549" unicode="&#x2538;" horiz-adv-x="1000" 
d="M450 381v474h100v-474h450v-52h-1000v52h450z" />
    <glyph glyph-name="cid00573" unicode="&#x2539;" horiz-adv-x="1000" 
d="M0 304v102h450v449h100v-474h450v-52h-450v-25h-550z" />
    <glyph glyph-name="cid00574" unicode="&#x253a;" horiz-adv-x="1000" 
d="M0 329v52h450v474h100v-449h450v-102h-551v25h-449z" />
    <glyph glyph-name="cid00539" unicode="&#x253b;" horiz-adv-x="1000" 
d="M450 406v449h100v-449h450v-102h-1000v102h450z" />
    <glyph glyph-name="cid00529" unicode="&#x253c;" horiz-adv-x="1000" 
d="M472 -145v474h-472v52h472v474h56v-474h472v-52h-472v-474h-56z" />
    <glyph glyph-name="cid00575" unicode="&#x253d;" horiz-adv-x="1000" 
d="M472 -145v449h-472v102h472v449h56v-474h472v-52h-472v-474h-56z" />
    <glyph glyph-name="cid00576" unicode="&#x253e;" horiz-adv-x="1000" 
d="M472 -145v474h-472v52h472v474h56v-449h472v-102h-472v-449h-56z" />
    <glyph glyph-name="cid00545" unicode="&#x253f;" horiz-adv-x="1000" 
d="M472 -145v449h-472v102h472v449h56v-449h472v-102h-472v-449h-56z" />
    <glyph glyph-name="cid00577" unicode="&#x2540;" horiz-adv-x="1000" 
d="M472 -145v474h-472v52h450v474h100v-474h450v-52h-472v-474h-56z" />
    <glyph glyph-name="cid00578" unicode="&#x2541;" horiz-adv-x="1000" 
d="M450 -145v474h-450v52h472v474h56v-474h472v-52h-450v-474h-100z" />
    <glyph glyph-name="cid00550" unicode="&#x2542;" horiz-adv-x="1000" 
d="M450 -145v474h-450v52h450v474h100v-474h450v-52h-450v-474h-100z" />
    <glyph glyph-name="cid00579" unicode="&#x2543;" horiz-adv-x="1000" 
d="M472 -145v449h-472v102h450v449h100v-474h450v-52h-472v-474h-56z" />
    <glyph glyph-name="cid00580" unicode="&#x2544;" horiz-adv-x="1000" 
d="M472 -145v474h-472v52h450v474h100v-449h450v-102h-472v-449h-56z" />
    <glyph glyph-name="cid00581" unicode="&#x2545;" horiz-adv-x="1000" 
d="M450 -145v449h-450v102h472v449h56v-474h472v-52h-450v-474h-100z" />
    <glyph glyph-name="cid00582" unicode="&#x2546;" horiz-adv-x="1000" 
d="M450 -145v474h-450v52h472v474h56v-449h472v-102h-450v-449h-100z" />
    <glyph glyph-name="cid00583" unicode="&#x2547;" horiz-adv-x="1000" 
d="M472 -145v449h-472v102h450v449h100v-449h450v-102h-472v-449h-56z" />
    <glyph glyph-name="cid00584" unicode="&#x2548;" horiz-adv-x="1000" 
d="M450 -145v449h-450v102h472v449h56v-449h472v-102h-450v-449h-100z" />
    <glyph glyph-name="cid00585" unicode="&#x2549;" horiz-adv-x="1000" 
d="M450 -145v449h-450v102h450v449h100v-474h450v-52h-450v-474h-100z" />
    <glyph glyph-name="cid00586" unicode="&#x254a;" horiz-adv-x="1000" 
d="M450 -145v474h-450v52h450v474h100v-449h450v-102h-450v-449h-100z" />
    <glyph glyph-name="cid00540" unicode="&#x254b;" horiz-adv-x="1000" 
d="M450 -145v449h-450v102h450v449h100v-449h450v-102h-450v-449h-100z" />
    <glyph glyph-name="cid00232" unicode="&#x2592;" horiz-adv-x="1000" 
d="M205 789v-82h-82v82h82zM317 789v-82h-81v82h81zM428 789v-82h-81v82h81zM541 707h-82v82h82v-82zM654 789v-82h-83v82h83zM684 707v82h81v-82h-81zM795 707v82h82v-82h-82zM205 677v-81h-82v81h82zM317 677v-81h-81v81h81zM428 677v-81h-81v81h81zM541 596h-82v81h82
v-81zM654 677v-81h-83v81h83zM684 596v81h81v-81h-81zM795 596v81h82v-81h-82zM205 567v-81h-82v81h82zM317 567v-81h-81v81h81zM428 567v-81h-81v81h81zM541 486h-82v81h82v-81zM654 567v-81h-83v81h83zM684 486v81h81v-81h-81zM795 486v81h82v-81h-82zM205 456v-83h-82v83
h82zM317 456v-83h-81v83h81zM428 456v-83h-81v83h81zM541 373h-82v83h82v-83zM654 456v-83h-83v83h83zM684 373v83h81v-83h-81zM795 373v83h82v-83h-82zM205 343v-81h-82v81h82zM317 343v-81h-81v81h81zM428 343v-81h-81v81h81zM541 262h-82v81h82v-81zM654 343v-81h-83v81
h83zM684 262v81h81v-81h-81zM795 262v81h82v-81h-82zM205 233v-81h-82v81h82zM317 233v-81h-81v81h81zM428 233v-81h-81v81h81zM541 152h-82v81h82v-81zM654 233v-81h-83v81h83zM684 152v81h81v-81h-81zM795 152v81h82v-81h-82zM205 122v-82h-82v82h82zM317 122v-82h-81v82
h81zM428 122v-82h-81v82h81zM541 40h-82v82h82v-82zM654 122v-82h-83v82h83zM684 40v82h81v-82h-81zM795 40v82h82v-82h-82z" />
    <glyph glyph-name="cid00165" unicode="&#x25a0;" horiz-adv-x="1000" 
d="M854 740v-715h-709v715h709z" />
    <glyph glyph-name="cid00164" unicode="&#x25a1;" horiz-adv-x="1000" 
d="M854 740v-716h-709v716h709zM185 67h631v631h-631v-631z" />
    <glyph glyph-name="cid00229" unicode="&#x25a3;" horiz-adv-x="1000" 
d="M840 75h-680v680h680v-680zM202 116h596v598h-596v-598zM674 241h-348v348h348v-348z" />
    <glyph glyph-name="cid00233" unicode="&#x25a4;" horiz-adv-x="1000" 
d="M123 791h754v-752h-754v752zM150 687h700v75h-700v-75zM150 584h700v75h-700v-75zM150 481h700v75h-700v-75zM150 378h700v75h-700v-75zM150 275h700v75h-700v-75zM150 172h700v75h-700v-75zM150 69h700v75h-700v-75z" />
    <glyph glyph-name="cid00234" unicode="&#x25a5;" horiz-adv-x="1000" 
d="M124 38v754h752v-754h-752zM228 65v700h-75v-700h75zM331 65v700h-75v-700h75zM434 65v700h-75v-700h75zM537 65v700h-75v-700h75zM640 65v700h-75v-700h75zM743 65v700h-75v-700h75zM846 65v700h-75v-700h75z" />
    <glyph glyph-name="cid00237" unicode="&#x25a6;" horiz-adv-x="1000" 
d="M123 791h754v-752h-754v752zM226 762h-76v-75h76v75zM330 762h-76v-75h76v75zM434 762h-76v-75h76v75zM538 687v75h-76v-75h76zM642 762h-76v-75h76v75zM670 687h76v75h-76v-75zM774 687h76v75h-76v-75zM226 659h-76v-75h76v75zM330 659h-76v-75h76v75zM434 659h-76v-75
h76v75zM538 584v75h-76v-75h76zM642 659h-76v-75h76v75zM670 584h76v75h-76v-75zM774 584h76v75h-76v-75zM226 556h-76v-75h76v75zM330 556h-76v-75h76v75zM434 556h-76v-75h76v75zM538 481v75h-76v-75h76zM642 556h-76v-75h76v75zM670 481h76v75h-76v-75zM774 481h76v75
h-76v-75zM226 453h-76v-75h76v75zM330 453h-76v-75h76v75zM434 453h-76v-75h76v75zM538 378v75h-76v-75h76zM642 453h-76v-75h76v75zM670 378h76v75h-76v-75zM774 378h76v75h-76v-75zM226 350h-76v-75h76v75zM330 350h-76v-75h76v75zM434 350h-76v-75h76v75zM538 275v75h-76
v-75h76zM642 350h-76v-75h76v75zM670 275h76v75h-76v-75zM774 275h76v75h-76v-75zM226 247h-76v-75h76v75zM330 247h-76v-75h76v75zM434 247h-76v-75h76v75zM538 172v75h-76v-75h76zM642 247h-76v-75h76v75zM670 172h76v75h-76v-75zM774 172h76v75h-76v-75zM226 144h-76v-75
h76v75zM330 144h-76v-75h76v75zM434 144h-76v-75h76v75zM538 69v75h-76v-75h76zM642 144h-76v-75h76v75zM670 69h76v75h-76v-75zM774 69h76v75h-76v-75z" />
    <glyph glyph-name="cid00236" unicode="&#x25a7;" horiz-adv-x="1000" 
d="M876 37h-752v754h752v-754zM851 87v95l-581 581h-95zM408 763h-95l538 -538v95zM847 363v95l-305 305h-94zM847 501v95l-167 167h-94zM724 763l123 -124v124h-123zM154 741v-95l570 -581h105zM597 65h94l-537 538v-95zM154 465v-95l305 -305h94zM154 327v-95l167 -167h94
zM277 65l-123 124v-124h123z" />
    </font>
</defs>
</svg>
